<svg xmlns="http://www.w3.org/2000/svg" viewBox="0 0 200 200" width="200" height="200">
  <rect width="100%" height="100%" fill="white"/>
  <path d="M 5 0 L 48 1 L 52 5 L 66 2 L 151 0 L 199 0 L 199 3 M 33 1 L 35 15 L 38 18 L 42 16 L 39 3 L 39 11 L 42 14 L 52 6 L 46 13 M 2 2 L 0 5 L 2 3 M 20 8 L 26 11 L 32 25 L 38 19 L 34 24 M 19 9 L 26 11 L 32 26 L 14 68 L 15 102 L 24 122 L 34 134 L 47 144 L 66 152 L 87 153 L 110 149 L 128 132 L 135 115 L 135 98 L 129 84 L 112 72 L 96 75 L 88 85 L 89 92 L 101 93 L 108 97 L 106 108 L 100 114 L 81 116 L 67 106 L 61 93 L 62 74 L 70 58 L 83 45 L 114 28 L 149 25 L 173 31 L 197 47 L 199 44 L 199 55 M 158 27 L 173 31 L 199 47 L 199 55 M 29 30 L 16 59 L 13 73 L 13 93 L 19 113 L 32 133 L 43 142 L 66 152 L 87 153 M 199 30 L 195 31 L 199 31 M 106 32 L 105 37 L 127 36 L 153 46 L 178 73 L 188 101 L 189 122 L 185 144 L 173 174 L 179 187 L 185 191 L 187 189 L 186 191 M 93 40 L 90 41 M 147 44 L 164 55 L 174 67 L 182 81 L 188 101 L 187 136 L 181 156 L 168 181 L 172 184 L 175 199 L 197 199 L 199 194 L 198 199 M 85 45 L 80 48 M 72 57 L 62 74 L 62 96 L 75 113 L 95 116 M 93 77 L 88 85 L 88 91 L 98 94 M 133 91 L 135 116 L 129 131 L 115 145 M 105 108 L 100 114 M 0 132 L 4 134 M 0 134 L 0 137 M 138 134 L 140 136 M 0 144 L 0 151 L 14 160 L 48 172 L 83 168 L 103 157 L 108 150 L 105 156 M 126 144 L 116 156 L 93 170 M 124 146 L 115 156 M 113 147 L 112 148 M 0 152 L 0 155 M 5 154 L 37 170 L 62 172 M 112 158 L 111 159 M 108 161 L 107 162 M 105 163 L 102 166 M 185 164 L 184 167 M 96 168 L 97 168 M 23 173 L 45 179 L 76 177 M 79 175 L 82 175 M 31 176 L 60 179 M 186 177 L 188 179 M 167 181 L 165 186 L 171 199 L 198 199 M 163 186 L 168 189 L 170 199 L 158 199 L 156 194 L 150 197 L 153 199 M 178 186 L 186 191 M 161 187 L 156 192 L 161 188 L 156 193 L 160 199 L 197 199 M 173 193 L 175 199 L 197 199 M 0 195 L 1 199 L 152 199 M 151 195 L 152 195 M 0 199 L 153 199" 
        fill="none" 
        stroke="black" 
        stroke-width="1.5" 
        stroke-linecap="round" 
        stroke-linejoin="round"
        vector-effect="non-scaling-stroke"/>
</svg>