<svg xmlns="http://www.w3.org/2000/svg" viewBox="0 0 200 200" width="200" height="200">
  <rect width="100%" height="100%" fill="white"/>
  <path d="M 0 0 L 167 0 M 192 0 L 199 0 L 199 4 M 0 1 L 0 6 L 45 51 L 47 9 L 21 7 L 25 12 L 40 13 L 39 33 L 11 5 L 78 7 L 54 32 L 53 12 L 67 13 L 55 25 M 96 1 L 99 99 L 149 50 L 110 49 L 107 51 L 107 79 L 131 56 L 114 55 L 113 68 L 121 60 L 115 67 M 100 1 L 150 49 L 150 7 L 119 8 L 123 13 L 145 12 L 145 31 L 139 29 L 125 15 L 145 31 M 197 1 L 154 47 L 192 48 L 193 18 L 170 41 L 186 43 L 189 32 L 185 32 L 181 37 M 95 2 L 49 49 L 89 51 L 90 21 L 66 42 L 73 44 L 85 31 L 85 44 L 74 44 L 85 44 M 196 2 L 193 6 M 94 3 L 81 17 M 103 5 L 149 49 L 193 48 L 195 80 L 170 55 L 187 54 L 189 69 L 180 60 L 185 60 L 183 62 L 189 69 M 155 6 L 179 6 L 178 11 L 159 29 L 156 29 L 157 12 L 170 11 L 157 23 M 116 7 L 153 7 M 2 8 L 44 51 L 0 96 L 0 93 L 0 96 M 17 11 L 41 33 M 120 11 L 145 31 M 177 11 L 172 16 M 187 12 L 154 47 L 193 48 L 194 79 M 28 13 L 30 17 L 35 17 M 53 13 L 53 16 L 61 18 L 54 25 M 140 13 L 141 22 L 132 15 L 140 21 M 157 13 L 158 23 M 161 13 L 163 18 L 160 22 M 0 15 L 0 19 L 6 21 L 27 45 L 9 45 L 7 30 L 18 40 L 9 40 L 13 41 M 194 16 L 194 79 M 33 18 L 36 24 L 41 26 L 40 33 M 190 19 L 168 43 L 185 43 M 0 20 L 5 51 L 47 51 L 98 97 L 100 198 L 148 149 L 108 149 L 108 178 L 131 156 L 115 154 L 112 157 L 113 160 L 121 160 M 106 20 L 128 38 L 131 44 L 112 43 L 112 31 L 121 39 M 91 21 L 91 82 M 106 21 L 109 50 M 6 22 L 26 41 L 26 45 M 110 22 L 130 40 L 130 44 M 35 23 L 41 26 L 40 33 M 161 27 L 160 28 M 190 27 L 188 42 M 186 31 L 189 31 L 187 42 M 12 35 L 18 40 M 116 35 L 121 39 M 71 37 L 70 38 M 80 38 L 85 39 L 84 44 M 80 39 L 85 39 L 84 44 M 75 41 L 75 44 L 85 44 M 54 43 L 49 50 L 90 51 L 90 80 L 68 62 L 66 57 L 84 56 L 86 69 L 74 61 L 85 68 M 9 44 L 26 45 M 65 44 L 84 44 M 152 49 L 199 94 L 199 97 M 4 51 L 4 80 L 25 61 L 26 57 L 9 56 L 9 61 L 17 61 L 8 68 L 8 61 L 15 62 M 149 51 L 151 91 L 183 92 L 157 67 L 156 73 L 174 88 M 47 52 L 46 92 L 78 92 L 61 74 L 53 70 L 52 85 L 57 87 L 59 79 L 68 88 L 58 87 L 67 87 M 148 52 L 145 55 M 113 55 L 112 69 M 40 56 L 35 61 M 159 57 L 199 94 L 199 97 M 67 60 L 91 80 L 91 83 M 144 66 L 144 87 L 128 88 M 41 68 L 40 87 L 27 88 L 38 77 M 121 68 L 120 69 M 142 68 L 144 74 L 139 81 L 140 86 L 144 87 M 160 68 L 185 93 M 65 69 L 93 95 L 99 99 L 103 97 L 102 100 L 199 99 L 199 102 L 154 146 L 194 147 L 195 116 L 172 138 L 177 140 L 190 126 L 190 140 L 178 140 L 190 140 M 141 69 L 119 90 L 119 93 L 181 93 M 37 70 L 17 93 L 77 93 M 118 71 L 117 72 M 157 75 L 157 86 L 161 87 L 161 84 L 166 88 M 10 76 L 7 79 M 133 76 L 132 78 M 162 78 L 175 89 M 36 79 L 35 87 L 38 88 M 3 80 L 1 85 M 137 80 L 143 87 M 14 81 L 11 84 M 136 81 L 132 87 L 144 87 M 60 82 L 59 87 L 67 87 M 134 82 L 133 83 M 73 85 L 82 94 M 20 86 L 12 94 M 121 87 L 117 93 M 157 87 L 166 88 M 5 89 L 0 95 M 106 93 L 101 99 L 103 103 L 150 146 L 151 108 L 120 108 L 144 130 L 145 112 L 141 111 L 138 119 L 129 111 L 139 111 L 139 119 M 0 99 L 96 100 L 47 149 L 88 150 L 90 120 L 66 141 L 67 144 L 85 144 M 0 100 L 0 105 L 46 146 L 47 108 L 17 108 L 40 129 L 39 112 L 31 113 L 37 121 M 96 101 L 79 119 M 197 101 L 199 102 M 103 104 L 147 144 L 158 148 M 195 105 L 192 108 M 0 106 L 42 145 L 47 148 L 50 146 L 46 148 L 47 190 L 77 190 L 54 168 L 53 173 L 68 186 L 52 185 L 52 175 L 56 174 L 68 186 M 166 106 L 179 109 L 157 130 L 156 116 L 159 111 L 170 112 L 172 108 L 159 122 M 15 107 L 79 107 L 53 130 L 54 112 L 64 112 L 56 123 M 117 107 L 138 107 M 151 107 L 164 107 M 18 111 L 41 129 M 27 111 L 36 120 M 121 111 L 144 130 M 40 112 L 41 129 M 54 113 L 53 130 M 168 113 L 166 116 M 0 114 L 0 118 L 5 119 L 27 143 L 7 142 L 7 128 L 18 140 L 8 137 L 18 140 M 134 115 L 139 119 M 196 116 L 196 179 L 172 157 L 174 153 L 195 153 L 196 179 M 60 118 L 55 123 M 91 118 L 90 179 L 71 163 L 67 156 L 83 155 L 84 166 L 74 160 L 83 166 M 67 119 L 66 120 M 2 120 L 4 151 L 48 150 L 100 199 L 104 195 L 102 199 L 199 197 L 199 194 L 153 150 L 151 189 L 183 190 L 158 167 L 157 172 L 172 186 L 157 184 L 157 175 L 163 176 L 163 180 M 107 120 L 131 141 L 112 142 L 112 129 L 122 138 M 161 120 L 160 122 M 6 121 L 26 140 L 25 144 M 106 121 L 107 149 L 126 149 M 165 123 L 160 129 M 180 129 L 172 140 L 189 140 M 75 132 L 72 136 M 83 132 L 85 139 L 74 141 L 82 133 L 78 139 L 85 139 L 83 140 M 62 134 L 51 145 M 117 136 L 113 137 L 117 137 M 126 136 L 131 142 M 120 137 L 123 139 M 180 137 L 179 140 L 189 140 M 66 140 L 67 144 L 85 144 M 159 140 L 154 145 L 158 148 M 151 147 L 199 192 L 198 199 M 148 148 L 152 148 L 199 193 L 197 199 M 3 151 L 4 179 L 26 159 L 25 156 L 21 156 L 20 160 L 8 167 L 9 156 L 26 156 L 24 161 M 42 151 L 41 155 L 0 194 L 1 199 L 198 199 M 50 153 L 98 198 L 198 199 M 113 155 L 112 166 L 118 162 L 115 166 M 131 155 L 114 173 M 9 157 L 8 167 M 180 158 L 191 159 L 192 171 M 184 159 L 191 166 L 191 170 M 69 160 L 90 179 M 185 163 L 191 166 L 192 171 M 157 164 L 157 167 L 162 168 L 183 189 L 182 191 M 28 167 L 27 168 M 142 167 L 145 167 L 145 184 L 128 186 M 38 168 L 40 185 L 27 187 L 37 175 L 29 185 L 39 186 M 53 168 L 81 191 M 141 168 L 120 188 L 120 191 L 183 191 M 16 169 L 7 178 M 37 169 L 21 184 L 17 192 L 80 191 M 135 173 L 134 175 M 31 174 L 26 180 M 139 176 L 140 183 L 144 185 M 16 178 L 15 180 M 107 178 L 106 181 M 3 179 L 3 182 M 137 179 L 143 185 M 136 180 L 134 185 L 144 185 M 134 181 L 134 185 L 144 185 M 167 181 L 171 185 M 20 185 L 14 192 L 31 192 M 53 185 L 68 186 M 111 187 L 102 199 L 197 199 M 120 187 L 118 191 L 136 191 M 2 191 L 0 199 L 197 199" 
        fill="none" 
        stroke="black" 
        stroke-width="1.5" 
        stroke-linecap="round" 
        stroke-linejoin="round"
        vector-effect="non-scaling-stroke"/>
</svg>