<svg xmlns="http://www.w3.org/2000/svg" viewBox="0 0 200 200" width="200" height="200">
  <rect width="100%" height="100%" fill="white"/>
  <path d="M 0 0 L 167 0 M 192 0 L 199 2 M 0 1 L 0 2 M 70 1 L 89 34 L 88 43 L 91 51 L 102 59 L 108 68 L 114 68 L 112 54 L 84 1 L 111 51 L 127 48 L 129 44 L 109 1 L 130 47 L 136 47 L 141 37 L 128 10 L 127 1 L 141 40 L 150 46 L 157 45 L 142 1 L 158 46 L 199 51 M 74 11 L 84 30 L 44 22 L 0 21 L 44 22 L 85 30 L 90 40 L 83 52 L 91 53 M 0 28 L 1 33 L 35 33 L 87 43 L 82 52 L 61 48 L 16 47 L 14 50 L 18 54 L 107 69 M 0 33 L 0 38 M 43 35 L 86 42 L 108 68 L 120 73 L 198 73 L 199 70 L 199 77 M 141 42 L 137 46 M 0 45 L 1 50 L 15 48 L 14 50 L 21 55 L 108 69 M 157 46 L 199 50 M 129 47 L 128 48 M 0 50 L 0 55 M 113 50 L 111 53 L 114 62 L 137 59 L 198 61 L 199 58 L 199 66 M 0 60 L 1 67 L 34 65 L 110 81 L 158 100 L 186 119 L 188 115 L 189 118 L 196 115 L 154 91 L 147 84 L 137 83 L 133 75 L 137 83 L 144 83 L 141 74 L 144 83 L 148 85 L 198 88 M 3 66 L 0 68 L 1 81 L 31 84 L 74 94 L 127 112 L 138 122 L 171 121 L 164 112 L 126 94 L 77 79 L 30 70 L 23 67 L 25 66 L 30 70 L 104 86 L 153 106 L 166 113 L 172 121 L 181 122 L 185 119 L 184 121 M 0 67 L 1 67 M 116 72 L 141 74 L 144 83 L 151 89 L 199 117 M 0 81 L 0 90 M 23 84 L 74 94 L 133 115 L 137 123 L 129 136 L 100 139 L 101 147 L 107 147 L 108 150 L 198 128 M 144 95 L 178 112 L 186 119 L 184 121 M 0 96 L 54 105 L 122 128 L 134 128 L 128 136 M 22 100 L 62 107 L 115 124 L 126 129 L 123 138 M 0 119 L 63 124 L 88 131 L 98 138 L 116 138 M 0 120 L 43 121 L 80 128 L 81 132 L 68 133 L 67 140 L 90 197 L 114 197 L 117 194 L 117 187 L 110 182 L 110 176 L 116 167 L 103 158 L 102 149 L 103 158 L 112 163 L 120 154 L 199 135 L 197 136 M 136 123 L 129 136 M 0 127 L 1 130 L 23 128 L 37 137 L 44 130 L 75 133 M 0 130 L 0 133 M 15 130 L 43 199 L 48 199 L 56 190 L 38 143 L 38 137 L 44 131 L 38 137 L 38 143 L 58 191 L 70 197 L 77 196 L 52 132 L 76 195 L 80 197 L 81 193 L 70 171 L 58 132 L 81 196 L 113 197 M 125 130 L 123 138 M 199 140 L 199 165 M 68 144 L 88 195 L 114 197 M 105 148 L 112 150 M 105 149 L 112 150 M 22 150 L 42 199 L 0 199 L 0 196 L 1 199 L 49 199 M 127 154 L 127 166 L 190 155 L 199 155 L 199 166 M 120 155 L 112 164 L 116 167 L 125 167 M 115 170 L 110 182 L 117 187 L 199 177 M 56 191 L 49 199 M 199 194 L 198 199 L 116 196 M 77 197 L 86 197 M 198 198 L 197 199" 
        fill="none" 
        stroke="black" 
        stroke-width="1.5" 
        stroke-linecap="round" 
        stroke-linejoin="round"
        vector-effect="non-scaling-stroke"/>
</svg>