<svg xmlns="http://www.w3.org/2000/svg" viewBox="0 0 200 200" width="200" height="200">
  <rect width="100%" height="100%" fill="white"/>
  <path d="M 0 0 L 73 0 M 113 0 L 199 0 L 199 19 M 0 1 L 0 20 M 26 1 L 0 31 L 0 36 M 42 1 L 44 6 L 20 29 L 0 56 M 66 1 L 67 10 L 98 2 L 112 2 M 128 1 L 128 5 L 137 9 L 141 16 L 149 17 L 170 33 L 170 48 L 191 67 L 199 68 L 199 58 L 199 98 M 149 1 L 178 23 L 197 44 L 199 42 L 199 49 M 165 1 L 197 29 L 199 28 L 199 34 M 41 2 L 9 36 L 0 48 L 4 50 L 0 50 L 3 51 L 1 52 M 149 2 L 151 8 L 184 34 L 188 33 L 199 44 L 199 50 M 40 3 L 40 5 M 127 5 L 123 11 L 103 21 L 83 40 L 65 68 L 62 83 L 66 86 L 73 84 L 80 62 L 108 31 L 129 19 L 145 16 L 154 20 L 156 25 L 130 33 L 109 48 L 91 69 L 85 93 L 97 98 L 101 86 L 114 71 L 116 63 L 124 60 L 133 50 L 166 47 L 179 55 L 189 66 L 199 69 L 199 98 M 153 5 L 178 23 L 188 33 L 186 35 L 199 44 L 199 50 M 126 6 L 123 11 M 169 6 L 199 29 L 199 34 M 36 7 L 31 12 M 42 7 L 21 27 L 2 52 M 67 11 L 44 38 L 47 66 L 57 78 L 62 78 L 62 84 L 73 86 L 76 91 L 94 97 L 95 105 L 88 119 L 81 123 L 81 130 L 71 143 L 59 149 L 32 153 L 30 163 L 34 169 L 47 176 L 65 167 L 82 153 L 97 134 L 106 115 L 107 101 L 98 98 L 115 103 L 121 110 L 130 112 L 141 123 L 149 136 L 152 160 L 164 162 L 173 156 L 176 147 L 170 131 L 160 117 L 136 95 L 106 83 L 136 95 L 150 106 L 167 126 L 176 147 L 184 139 L 185 130 L 171 107 L 146 84 L 123 73 L 114 72 L 135 78 L 156 91 L 172 108 L 185 130 L 193 123 L 180 101 L 163 83 L 125 60 L 167 86 L 193 122 L 199 117 L 199 111 L 198 118 M 65 14 L 64 15 M 159 14 L 184 34 L 189 35 L 199 44 L 199 50 M 14 15 L 3 29 L 0 29 L 2 30 M 57 21 L 44 37 L 38 32 L 30 33 L 18 51 L 34 81 L 66 104 L 91 111 L 87 120 M 21 22 L 0 47 L 2 52 M 99 24 L 98 26 M 160 27 L 170 33 L 170 48 L 191 67 L 199 69 L 199 98 M 94 28 L 72 54 L 61 81 L 64 85 L 73 86 L 76 91 L 85 92 L 90 97 L 101 98 L 118 105 L 120 113 L 115 130 L 99 156 L 82 174 L 64 186 L 69 190 L 69 194 L 91 179 L 107 163 L 119 146 L 132 118 L 111 159 L 88 182 M 142 28 L 145 28 M 132 32 L 133 32 M 28 35 L 11 58 L 9 67 L 12 74 L 21 87 L 48 110 L 73 121 L 84 121 M 102 37 L 101 38 M 121 38 L 120 40 M 117 41 L 110 48 M 106 50 L 89 73 L 85 93 L 90 97 L 115 103 L 121 110 L 130 112 L 147 130 L 151 144 L 151 160 L 127 189 L 131 199 L 153 199 L 155 191 L 177 168 L 199 132 L 199 135 M 132 52 L 129 54 M 12 56 L 9 66 L 0 72 L 0 78 L 10 91 L 30 111 L 51 125 L 67 132 L 80 132 L 78 133 M 85 56 L 75 73 L 72 85 L 74 89 L 85 92 L 90 97 L 115 103 L 121 110 L 130 112 L 147 130 L 151 144 L 151 159 L 164 162 M 20 57 L 30 77 L 44 91 L 75 108 L 91 111 L 86 120 M 3 69 L 1 71 M 48 69 L 55 77 L 61 79 L 64 85 L 73 86 L 76 91 L 85 92 L 90 97 L 115 103 L 121 110 L 130 112 L 147 130 L 151 144 L 151 159 L 164 162 M 10 70 L 18 84 L 37 103 L 59 116 L 81 123 L 81 130 L 78 133 M 110 74 L 106 83 L 136 95 L 150 106 L 167 126 L 177 147 M 2 81 L 0 88 M 1 82 L 0 88 M 104 84 L 98 92 L 98 97 L 115 103 L 121 110 L 130 112 L 147 130 L 151 144 L 151 159 L 163 162 M 6 86 L 21 104 L 42 120 L 67 132 L 79 133 M 94 105 L 86 120 M 0 107 L 1 131 L 11 134 L 33 151 L 46 151 M 196 121 L 195 122 M 193 126 L 192 127 M 0 131 L 0 140 M 11 135 L 33 151 L 46 151 M 197 138 L 195 140 L 198 143 L 199 139 L 199 143 L 181 169 L 155 196 M 71 142 L 70 143 M 197 143 L 198 143 M 89 145 L 75 160 M 65 146 L 64 147 M 0 149 L 27 177 L 48 192 L 51 199 L 68 199 L 72 192 L 69 195 L 70 199 L 91 199 L 125 190 M 193 150 L 178 173 L 160 192 M 2 153 L 25 176 L 49 193 L 50 199 L 0 199 L 0 177 L 1 199 L 30 199 L 33 195 L 12 179 L 0 165 L 31 193 L 34 199 L 45 198 L 25 181 L 46 199 L 92 199 M 175 153 L 169 160 M 31 154 L 32 168 L 43 176 L 48 176 L 52 183 L 64 186 L 69 191 L 70 199 L 93 199 M 199 155 L 199 164 L 195 165 L 170 197 L 198 199 L 199 173 L 198 199 M 185 157 L 157 190 M 0 158 L 14 172 M 0 160 L 13 172 M 94 161 L 77 177 M 148 163 L 140 174 M 196 163 L 199 163 M 194 166 L 171 194 L 170 199 L 154 199 L 199 199 M 55 173 L 52 174 M 137 177 L 127 189 L 130 192 L 130 199 L 124 199 L 198 199 M 75 178 L 74 179 M 72 180 L 71 181 M 48 181 L 68 189 L 70 199 L 93 199 M 65 184 L 70 199 L 92 199" 
        fill="none" 
        stroke="black" 
        stroke-width="1.5" 
        stroke-linecap="round" 
        stroke-linejoin="round"
        vector-effect="non-scaling-stroke"/>
</svg>