<svg xmlns="http://www.w3.org/2000/svg" viewBox="0 0 200 200" width="200" height="200">
  <rect width="100%" height="100%" fill="white"/>
  <path d="M 7 0 L 73 3 L 77 7 L 91 3 L 123 3 L 131 7 L 136 2 L 156 3 L 155 0 L 198 0 L 199 20 M 9 1 L 7 9 L 10 11 L 44 15 L 47 18 L 65 17 L 76 8 L 75 10 M 177 1 L 182 31 L 188 45 L 193 40 L 193 23 L 198 15 L 194 19 L 193 40 L 189 49 L 193 65 L 198 68 L 199 63 L 199 95 M 198 1 L 199 19 M 0 3 L 1 8 L 7 8 L 15 13 L 44 15 L 47 18 L 40 24 L 1 29 L 0 42 M 43 3 L 73 3 L 77 7 L 76 10 M 157 3 L 178 43 L 177 52 L 187 45 L 179 54 L 190 57 L 194 67 L 199 68 L 199 78 L 192 79 L 179 69 L 158 62 L 132 64 L 122 69 L 121 75 L 141 74 L 156 77 L 168 88 L 175 101 L 184 107 L 183 94 L 177 83 L 162 70 L 151 66 L 166 72 L 182 90 L 187 132 L 198 132 L 199 128 L 199 132 M 134 4 L 131 7 L 132 14 L 144 18 L 158 28 L 172 42 L 172 50 L 178 50 L 180 55 L 190 57 L 193 65 L 199 68 L 199 95 M 0 8 L 0 13 M 159 8 L 178 43 L 177 52 L 190 57 L 193 65 L 199 68 L 199 96 M 130 14 L 140 16 L 154 25 L 172 42 L 172 46 L 166 48 L 138 42 L 112 60 L 102 76 L 102 87 L 104 89 L 121 76 L 119 77 M 117 15 L 128 15 M 67 16 L 69 24 L 62 37 L 59 52 L 62 73 M 114 16 L 115 16 M 110 17 L 113 17 M 60 18 L 59 27 L 48 40 L 46 62 L 59 90 L 77 103 L 95 101 L 100 96 L 89 92 L 80 79 L 72 78 L 70 75 L 67 68 L 70 45 L 86 26 L 94 26 L 108 18 M 0 20 L 0 29 L 4 29 M 104 20 L 101 21 M 44 22 L 43 23 M 56 22 L 59 27 L 50 36 L 42 35 L 23 52 L 17 62 L 14 85 L 19 99 L 23 105 L 36 108 L 32 93 L 35 67 L 46 62 L 59 90 L 77 103 L 70 111 L 61 109 L 39 88 L 39 96 L 53 113 L 70 121 L 101 114 L 104 98 L 101 96 L 95 101 M 40 23 L 43 23 M 99 23 L 96 25 M 67 26 L 59 52 L 62 73 M 92 27 L 78 50 L 80 58 L 102 35 L 113 31 L 126 31 L 133 35 L 137 41 L 134 46 M 128 34 L 108 44 L 95 57 L 91 67 L 93 88 L 100 96 L 108 86 L 106 90 L 114 90 L 121 86 L 138 86 L 155 95 L 156 90 L 147 78 L 156 90 L 165 114 L 165 130 L 157 137 L 153 167 L 160 167 L 169 160 L 179 148 L 186 132 L 180 147 L 166 162 M 34 35 L 50 36 L 46 62 L 56 86 L 68 98 L 77 103 L 84 103 M 31 36 L 34 36 M 87 36 L 78 50 L 81 82 L 88 91 L 103 96 L 105 101 L 126 97 L 145 109 L 155 125 L 156 133 L 159 134 L 152 169 L 158 173 L 188 161 L 199 154 L 199 148 L 199 158 M 123 36 L 126 36 M 29 37 L 30 37 M 40 37 L 37 41 M 120 37 L 123 37 M 75 38 L 67 54 L 67 67 L 71 76 L 80 79 L 91 93 L 103 96 L 105 101 L 112 100 L 114 106 L 126 115 L 129 126 L 138 132 L 138 159 L 123 187 L 123 192 L 127 195 L 136 189 L 139 181 L 151 169 L 157 173 M 114 40 L 115 40 M 20 41 L 0 55 L 0 64 M 18 42 L 19 42 M 111 42 L 110 43 M 95 43 L 81 58 M 13 45 L 12 47 M 30 45 L 29 46 M 106 45 L 105 47 M 26 48 L 17 61 L 15 73 L 5 76 L 0 87 M 0 50 L 0 54 L 3 53 M 120 53 L 115 58 M 111 61 L 102 76 L 102 87 L 112 91 M 159 62 L 179 69 L 192 79 L 199 79 L 199 96 M 92 63 L 93 88 L 105 101 L 111 101 L 120 112 L 119 140 L 105 161 L 107 164 L 112 161 L 126 146 L 129 127 L 137 130 L 138 159 L 123 187 L 123 192 L 127 196 L 130 193 L 127 199 L 156 199 M 135 63 L 140 63 M 42 64 L 39 65 M 36 67 L 34 82 L 38 88 L 56 106 L 70 111 M 119 72 L 122 76 L 129 76 M 156 78 L 168 88 L 175 102 L 185 107 L 187 132 L 193 133 M 117 79 L 114 81 M 34 83 L 32 93 L 36 110 L 51 124 L 74 131 L 88 125 L 95 116 L 90 123 M 0 84 L 0 88 M 138 87 L 157 96 L 161 102 L 165 114 L 163 131 M 17 94 L 24 112 L 34 125 L 49 133 L 65 137 L 71 132 L 69 136 M 42 101 L 56 116 L 76 121 M 139 104 L 151 117 L 156 133 L 159 134 L 152 166 L 159 167 M 75 105 L 72 110 M 0 106 L 0 126 L 9 133 L 18 129 L 43 140 L 64 138 M 30 107 L 36 109 L 49 123 L 74 131 M 118 113 L 119 140 L 114 151 L 105 160 L 106 164 M 25 114 L 38 128 L 67 137 M 103 114 L 104 128 L 100 137 L 104 144 L 95 156 L 82 164 L 85 167 L 106 164 M 125 115 L 129 126 L 137 130 L 139 138 L 138 159 L 123 187 L 123 192 L 128 195 L 126 199 L 43 199 L 47 196 L 36 181 L 28 163 L 30 151 L 10 135 L 7 138 L 7 148 L 15 163 L 22 198 L 35 199 M 0 127 L 0 134 M 14 130 L 7 137 L 5 176 L 0 183 L 0 198 L 7 199 M 20 131 L 43 140 L 61 140 M 161 132 L 160 133 M 8 133 L 32 154 L 69 159 L 99 137 L 84 149 M 101 134 L 104 144 L 94 156 M 126 147 L 129 149 L 128 154 L 118 168 L 99 180 L 76 184 L 76 194 L 81 199 L 156 199 M 127 149 L 129 151 L 126 158 L 117 168 M 123 150 L 117 156 M 7 154 L 2 182 L 0 177 L 2 182 M 31 155 L 28 163 L 48 199 L 155 199 M 36 155 L 37 164 L 48 174 L 60 181 L 83 184 M 76 155 L 73 159 L 78 164 L 84 162 M 116 158 L 113 160 M 90 159 L 89 160 M 104 162 L 106 164 M 111 162 L 108 163 M 37 165 L 60 181 L 82 184 M 163 165 L 162 166 M 199 166 L 199 185 M 115 169 L 114 171 M 110 173 L 109 174 M 147 174 L 146 175 M 192 177 L 199 177 L 199 185 M 183 178 L 190 178 M 99 179 L 100 179 M 175 179 L 182 179 M 167 180 L 174 180 M 161 181 L 166 181 M 90 182 L 91 182 M 159 183 L 157 186 L 160 189 L 183 191 L 191 194 L 194 199 L 199 198 L 199 193 L 198 199 M 18 184 L 22 199 L 15 199 L 35 199 M 155 186 L 160 189 L 183 191 L 192 195 L 193 199 L 188 199 L 199 199 M 152 187 L 153 187 M 146 188 L 151 188 M 137 189 L 144 189 M 0 199 L 7 199" 
        fill="none" 
        stroke="black" 
        stroke-width="1.5" 
        stroke-linecap="round" 
        stroke-linejoin="round"
        vector-effect="non-scaling-stroke"/>
</svg>