<svg xmlns="http://www.w3.org/2000/svg" viewBox="0 0 200 200" width="200" height="200">
  <rect width="100%" height="100%" fill="white"/>
  <path d="M 3 0 L 199 0 L 199 3 M 4 1 L 1 9 L 16 8 L 43 20 L 54 38 L 56 53 L 53 58 L 43 62 L 23 55 L 10 44 L 0 25 L 0 9 L 15 14 L 37 33 L 55 55 L 49 60 M 49 1 L 66 3 L 66 68 L 138 68 L 140 1 L 139 67 L 199 68 M 0 2 L 0 6 L 3 5 L 1 6 M 186 7 L 191 7 L 196 13 L 199 12 L 199 7 L 199 18 L 189 45 L 182 53 L 168 60 L 149 59 L 146 56 L 147 46 L 156 27 L 169 14 L 184 8 M 86 9 L 108 14 L 120 22 L 129 42 L 129 60 L 122 63 L 110 62 L 90 50 L 76 23 L 76 17 L 81 10 L 85 10 L 98 25 L 101 25 L 124 51 L 125 43 L 120 32 L 105 15 L 110 15 L 120 22 L 129 42 L 130 48 L 125 51 L 129 54 L 128 61 M 51 10 L 57 15 L 55 18 L 48 16 L 50 11 L 48 15 L 54 18 M 150 10 L 154 10 L 156 16 L 147 17 L 149 11 L 147 16 L 156 16 L 154 18 M 127 11 L 132 13 L 132 17 L 125 17 L 127 12 L 125 16 L 130 18 M 1 12 L 6 18 L 11 14 L 17 16 L 13 23 L 16 29 L 24 23 L 29 25 L 32 30 L 25 38 L 31 43 L 39 36 L 43 43 L 38 49 L 43 53 L 50 49 L 55 55 L 53 58 M 25 12 L 35 17 L 47 32 M 155 12 L 154 18 M 100 13 L 114 17 L 124 28 L 130 47 L 128 61 M 188 13 L 199 13 L 199 18 M 185 14 L 183 20 L 187 21 L 193 14 L 193 20 L 180 43 L 157 58 L 161 49 L 157 46 L 153 49 L 152 58 L 162 61 M 79 15 L 82 19 L 88 16 L 83 20 L 88 23 L 92 19 L 89 22 M 10 16 L 8 19 L 14 22 L 13 26 L 16 29 L 20 28 L 19 32 L 25 39 L 52 58 M 78 16 L 78 29 L 85 43 L 95 54 L 110 62 L 123 61 L 103 51 L 88 35 L 82 20 L 92 30 L 101 25 L 104 31 L 100 40 L 106 45 L 110 38 L 115 39 L 117 45 L 114 52 L 118 55 L 123 52 L 120 58 L 127 61 M 38 17 L 49 27 L 54 38 L 53 46 M 16 18 L 20 18 L 31 27 L 29 32 M 165 18 L 148 42 L 146 56 L 151 59 M 191 18 L 190 19 M 5 19 L 7 27 L 20 43 L 41 57 L 48 55 L 53 58 M 179 19 L 186 21 L 184 28 L 163 50 M 178 20 L 177 24 L 181 29 M 9 21 L 32 45 L 52 58 M 95 21 L 115 39 L 123 51 L 128 51 L 127 61 M 177 21 L 170 28 L 172 33 L 177 35 L 174 39 L 169 43 L 162 38 L 157 45 L 163 50 M 191 23 L 187 34 L 175 47 M 1 25 L 9 42 L 20 53 L 43 62 M 195 27 L 193 37 L 182 53 M 44 28 L 47 32 M 168 30 L 176 36 L 165 49 M 34 31 L 55 55 L 53 58 M 93 31 L 100 36 L 104 44 L 108 44 L 107 46 L 114 50 L 114 53 L 128 61 M 167 31 L 163 37 L 170 43 L 165 49 M 87 32 L 107 54 L 127 61 M 102 33 L 100 40 L 120 55 L 121 59 L 128 61 M 14 37 L 33 53 L 49 60 M 161 38 L 157 46 L 163 50 M 35 39 L 32 44 L 52 58 M 51 39 L 51 40 M 115 47 L 114 52 L 124 61 L 128 61 M 153 48 L 152 57 L 162 61 M 78 49 L 83 51 L 82 58 L 75 56 L 77 50 M 4 51 L 10 53 L 10 57 L 6 59 L 2 57 L 2 53 L 4 52 L 2 56 L 5 58 M 82 51 L 82 58 M 191 51 L 196 52 L 196 58 L 189 57 L 191 52 L 189 57 L 195 59 M 161 53 L 165 55 M 159 55 L 160 57 M 168 59 L 169 59 M 0 67 L 66 69 L 67 138 L 138 137 L 139 68 L 171 68 M 39 74 L 57 80 L 54 96 L 45 112 L 22 128 L 4 126 L 3 110 L 13 90 L 33 76 L 43 77 M 181 75 L 192 77 L 196 82 L 191 104 L 178 121 L 155 130 L 148 124 L 149 105 L 166 83 L 181 76 M 90 76 L 101 77 L 117 85 L 127 98 L 133 117 L 129 124 L 116 128 L 94 119 L 83 109 L 75 94 L 76 78 L 90 77 L 118 95 L 125 105 L 129 118 L 132 119 L 129 124 M 5 77 L 10 78 L 9 85 L 2 83 L 5 78 M 39 77 L 16 95 L 5 115 M 127 77 L 132 80 L 129 86 L 124 80 L 127 78 L 124 82 L 128 85 M 150 77 L 156 79 L 156 84 L 147 84 L 150 78 L 147 84 L 154 86 M 178 77 L 169 82 M 188 77 L 178 85 L 184 90 L 193 79 L 196 82 L 195 93 L 188 110 L 177 121 M 9 78 L 9 85 M 38 78 L 37 79 M 46 78 L 42 86 L 44 89 L 49 86 L 51 78 L 50 90 L 42 103 L 28 117 L 10 124 L 11 117 L 18 107 L 38 85 L 42 85 L 43 94 L 24 114 L 24 119 M 83 78 L 105 95 L 122 113 L 125 124 L 121 128 M 154 78 L 155 86 M 187 78 L 186 79 M 35 79 L 38 79 M 45 79 L 42 83 L 45 89 L 43 93 L 40 96 L 34 91 L 41 96 L 34 105 M 183 80 L 180 83 M 85 82 L 89 84 L 86 90 L 88 95 L 99 90 L 103 95 L 98 104 L 104 108 L 113 103 L 117 109 L 113 116 L 120 121 L 124 119 L 122 121 L 129 124 M 111 82 L 121 89 L 128 100 L 133 115 L 128 124 M 3 83 L 8 85 M 191 83 L 188 94 L 174 112 L 162 122 L 151 125 L 153 124 L 151 126 L 155 130 M 131 84 L 130 85 M 166 84 L 163 86 M 176 85 L 172 91 L 178 96 L 183 91 L 181 95 M 18 86 L 5 104 L 3 114 L 6 115 M 38 86 L 34 91 L 41 96 L 34 105 M 106 86 L 122 100 L 129 118 L 132 119 L 129 124 M 175 86 L 167 95 L 172 104 L 178 97 L 174 103 M 78 87 L 86 90 L 94 101 L 99 101 L 101 107 L 107 106 L 105 110 L 117 121 L 98 112 L 77 88 L 75 94 L 91 116 L 109 126 L 121 128 M 94 87 L 122 113 L 124 123 L 129 124 M 179 87 L 184 90 L 180 95 M 187 87 L 180 95 M 78 88 L 86 90 L 94 101 L 117 120 L 129 124 M 87 88 L 86 93 L 109 114 L 129 124 M 190 88 L 173 112 M 160 90 L 148 108 L 147 118 L 155 113 L 165 98 L 172 105 L 157 119 L 158 124 M 95 92 L 91 96 L 94 101 L 117 120 L 128 124 M 54 93 L 49 106 L 36 120 M 44 99 L 27 117 M 27 100 L 32 106 L 28 112 M 88 102 L 104 116 L 117 121 M 162 102 L 160 106 L 166 112 L 161 117 M 29 103 L 32 106 L 27 112 M 20 107 L 26 113 M 160 107 L 166 112 L 162 117 M 158 108 L 155 112 L 158 118 M 169 109 L 168 111 M 115 110 L 122 113 L 124 123 L 128 124 M 16 111 L 19 119 L 24 119 M 113 113 L 117 120 L 129 124 M 15 115 L 24 119 M 23 116 L 23 119 M 12 117 L 11 126 L 18 129 M 50 118 L 56 120 L 54 127 L 49 126 L 48 121 L 50 119 L 48 124 L 54 127 M 77 118 L 82 120 L 82 126 L 79 127 L 75 125 L 75 120 L 77 119 L 75 125 L 79 127 M 151 118 L 148 124 L 155 130 M 166 118 L 165 119 M 190 118 L 195 120 L 195 126 L 190 127 L 187 124 L 190 119 L 187 123 L 194 127 M 80 119 L 81 126 M 55 120 L 56 125 L 53 127 M 34 121 L 33 122 M 11 122 L 16 123 M 31 123 L 30 124 M 172 124 L 171 125 M 27 125 L 28 125 M 167 126 L 170 126 M 22 127 L 23 127 M 156 136 L 198 136 M 0 137 L 66 138 L 68 199 L 138 199 L 139 137 L 155 137 M 89 143 L 103 146 L 120 157 L 127 169 L 130 185 L 123 191 L 109 192 L 94 187 L 85 179 L 78 166 L 77 149 L 88 144 L 85 147 L 87 149 L 94 148 L 105 153 L 121 168 L 125 184 L 123 191 M 157 144 L 173 147 L 187 157 L 196 180 L 194 191 L 198 192 L 199 188 L 199 199 L 194 199 L 199 199 M 192 144 L 199 148 L 193 153 L 189 150 L 191 145 L 189 150 L 193 153 M 3 145 L 9 147 L 7 153 L 0 151 L 0 148 L 3 146 L 0 150 L 6 153 M 127 145 L 132 147 L 132 153 L 126 154 L 123 151 L 126 146 L 123 150 L 129 154 M 156 145 L 158 148 L 168 145 L 187 157 L 191 164 L 190 168 L 173 152 L 162 150 L 162 153 L 180 169 L 192 187 L 196 188 L 193 191 L 199 192 L 198 199 M 7 146 L 9 152 M 38 146 L 52 146 L 57 152 L 54 167 L 48 177 L 39 185 L 23 192 L 1 192 M 152 146 L 170 150 L 191 168 L 196 180 L 194 191 L 199 192 L 199 199 M 34 147 L 37 147 M 44 147 L 48 155 L 52 150 L 43 171 L 33 181 L 17 190 L 13 188 L 19 181 L 14 177 L 5 190 L 2 177 L 7 164 L 16 154 L 33 148 L 31 150 M 103 147 L 123 161 L 130 180 L 128 187 M 152 147 L 150 149 L 154 158 L 162 154 L 169 158 L 163 165 L 168 173 L 175 168 L 180 169 L 182 175 L 177 182 L 189 182 L 194 191 L 199 192 L 198 199 M 44 148 L 45 148 M 80 149 L 89 159 L 93 154 L 91 149 L 94 154 L 107 161 L 123 177 L 125 186 L 117 187 L 123 191 M 197 149 L 198 149 M 149 150 L 148 160 L 156 158 L 162 165 L 166 162 L 163 168 L 168 173 L 173 170 L 170 175 L 175 180 L 181 175 L 186 177 L 194 191 L 199 192 L 198 199 M 43 151 L 40 156 L 43 160 L 48 156 L 45 159 M 148 151 L 147 158 L 152 171 L 166 186 L 188 193 L 190 191 L 182 185 L 190 191 L 199 192 L 199 199 M 45 153 L 50 155 L 49 162 L 33 181 M 18 154 L 15 155 M 36 154 L 40 154 L 41 163 L 17 185 M 83 154 L 89 159 L 92 157 L 90 160 L 96 165 L 101 159 L 109 163 L 115 170 L 110 178 L 117 182 L 120 177 L 118 185 L 126 188 L 123 191 M 105 154 L 118 164 L 123 172 L 126 188 L 122 191 M 35 155 L 34 160 L 39 164 M 99 156 L 114 168 L 114 172 L 123 177 L 126 188 L 122 191 M 160 156 L 159 157 M 78 158 L 98 179 L 122 191 M 12 159 L 5 168 L 5 177 L 19 159 L 4 180 M 30 159 L 34 159 L 38 164 M 29 160 L 26 165 L 32 170 M 168 160 L 174 162 L 194 191 L 199 192 L 198 199 M 28 161 L 26 166 L 32 170 M 90 161 L 103 171 L 108 168 L 105 174 L 125 187 L 123 191 M 157 161 L 172 178 L 190 191 L 188 193 M 82 162 L 99 180 L 123 191 M 23 166 L 33 170 M 149 166 L 164 185 L 188 193 M 22 167 L 20 171 L 26 177 L 23 181 M 53 167 L 49 175 L 38 185 M 21 168 L 14 177 L 20 182 L 16 185 M 35 168 L 34 169 M 102 171 L 126 188 L 122 191 M 17 172 L 14 177 L 20 182 L 17 185 M 21 173 L 26 177 L 22 181 M 84 176 L 97 188 L 120 192 M 10 181 L 5 190 L 11 191 M 30 182 L 29 183 M 150 182 L 155 183 L 156 190 L 148 190 L 149 183 L 148 189 L 155 190 M 52 183 L 57 186 L 53 191 L 49 186 L 51 184 L 49 189 L 53 191 M 78 183 L 82 183 L 84 187 L 80 191 L 76 188 L 77 184 L 76 188 L 79 190 M 154 183 L 155 190 M 27 184 L 26 185 M 24 186 L 23 187 M 34 187 L 33 188 M 15 188 L 17 190 M 31 188 L 34 188 M 0 197 L 4 199 M 0 199 L 3 199 M 53 199 L 178 199" 
        fill="none" 
        stroke="black" 
        stroke-width="1.5" 
        stroke-linecap="round" 
        stroke-linejoin="round"
        vector-effect="non-scaling-stroke"/>
</svg>