<svg xmlns="http://www.w3.org/2000/svg" viewBox="0 0 200 200" width="200" height="200">
  <rect width="100%" height="100%" fill="white"/>
  <path d="M 0 0 L 167 0 M 194 0 L 199 0 L 199 4 L 185 19 L 193 28 L 194 41 L 199 46 M 0 1 L 11 14 L 19 11 L 28 14 L 32 28 L 47 18 L 62 1 L 59 7 M 64 1 L 68 9 L 86 25 L 103 22 L 114 28 L 124 19 L 134 1 L 116 29 L 125 41 L 125 51 L 140 59 L 151 52 L 173 30 L 173 25 L 167 15 L 155 16 L 143 10 L 139 1 L 143 10 L 146 8 L 142 1 L 151 14 L 158 15 L 146 1 L 160 11 L 161 15 M 68 1 L 95 1 M 156 1 L 164 14 L 172 20 L 185 19 L 190 23 L 192 33 L 179 20 L 193 33 L 193 41 L 199 46 M 197 3 L 199 4 M 160 6 L 173 25 L 192 42 L 184 42 L 173 31 L 171 32 M 195 6 L 194 7 M 2 7 L 28 31 L 34 28 M 155 8 L 161 15 M 16 13 L 24 21 L 25 17 L 34 28 M 158 14 L 161 15 M 28 15 L 33 28 M 10 17 L 10 24 L 16 30 L 28 32 L 20 43 L 0 58 L 0 62 L 18 78 L 20 74 L 28 74 L 44 83 L 58 69 L 61 62 L 47 52 L 46 45 L 32 31 L 48 48 L 62 55 L 73 54 L 86 62 L 96 51 L 85 36 L 87 25 L 109 43 L 140 59 L 123 77 L 122 89 L 113 94 L 132 112 L 140 111 L 148 117 L 167 101 L 160 88 L 162 76 L 144 59 L 161 75 L 171 73 L 185 82 L 199 73 L 196 75 M 20 18 L 34 28 M 77 18 L 119 48 L 122 53 L 109 54 L 97 51 L 115 53 L 86 33 L 102 46 L 118 54 M 14 20 L 29 31 M 94 23 L 125 46 L 127 53 L 144 59 L 158 73 L 164 74 L 163 77 L 168 77 L 179 84 L 193 101 L 194 96 L 187 83 L 194 95 L 193 109 L 198 113 M 106 24 L 116 28 L 121 34 L 127 53 L 144 59 L 163 75 L 186 104 L 198 113 M 95 26 L 125 46 L 127 53 L 144 59 L 163 75 L 162 78 L 182 97 L 190 110 L 183 111 L 167 102 L 183 111 L 189 111 M 12 27 L 19 32 L 28 32 L 20 43 M 164 40 L 157 46 M 93 46 L 97 51 L 117 54 M 14 47 L 13 48 M 11 49 L 10 50 M 57 52 L 63 56 L 62 63 L 77 68 L 83 76 L 89 75 L 69 55 L 89 75 L 87 62 L 90 59 L 87 62 L 90 76 L 101 86 L 111 77 L 123 78 L 114 89 L 114 93 M 49 53 L 58 61 L 62 61 L 61 63 L 66 63 L 65 68 L 68 71 L 90 76 L 101 86 L 102 92 L 106 88 L 103 86 L 107 87 L 107 82 L 110 84 L 111 79 L 113 81 L 115 78 L 123 78 L 114 89 L 114 93 M 73 55 L 87 62 L 93 80 L 107 87 L 102 93 L 103 96 L 111 95 M 0 57 L 1 57 M 55 58 L 81 71 L 83 76 L 90 76 L 101 86 L 107 87 L 101 92 L 103 99 L 95 108 L 92 121 L 81 131 L 92 145 M 0 63 L 17 78 L 16 86 L 30 100 L 46 112 L 50 112 L 51 108 L 21 83 L 19 78 L 35 86 L 50 102 L 52 99 L 44 83 L 52 99 L 51 111 L 64 122 L 73 125 L 94 111 L 89 123 L 66 140 L 70 143 L 82 134 L 92 145 M 60 66 L 71 73 L 90 76 L 101 86 L 107 87 L 102 93 L 105 97 M 59 68 L 47 80 M 171 74 L 188 82 L 194 95 L 193 109 L 198 113 M 123 76 L 124 84 L 120 91 M 193 78 L 190 80 M 16 79 L 16 91 L 25 106 L 45 114 M 161 82 L 178 101 L 199 114 M 24 84 L 46 106 L 49 106 L 47 101 L 50 102 L 51 112 L 68 123 L 60 136 L 71 126 L 70 129 M 31 84 L 50 102 L 51 111 L 59 119 L 73 125 M 179 85 L 194 101 L 193 109 L 199 114 M 167 90 L 181 104 L 187 105 L 199 114 M 16 92 L 25 107 L 7 123 L 17 136 L 15 146 L 25 158 L 43 157 L 56 146 L 61 136 M 25 95 L 38 107 L 46 112 L 52 112 L 59 119 L 72 125 M 165 97 L 173 106 L 188 111 M 115 98 L 134 112 L 135 116 L 138 114 L 145 121 L 148 118 L 146 124 L 169 155 L 178 149 L 187 150 L 199 137 M 102 99 L 95 108 L 91 121 M 24 107 L 45 114 M 146 116 L 147 121 L 142 122 L 122 140 L 125 151 L 116 170 L 138 190 L 149 182 L 161 182 L 168 172 L 165 167 L 168 156 L 171 154 L 172 161 L 175 162 L 186 151 L 182 156 M 0 117 L 7 121 L 17 136 L 17 143 L 12 147 L 0 144 L 0 138 L 1 143 L 11 147 M 136 117 L 147 121 L 144 130 L 150 130 L 151 137 L 158 141 L 157 144 L 152 144 L 147 139 L 144 133 L 147 131 M 9 119 L 8 120 M 139 119 L 141 122 L 137 126 M 3 120 L 14 130 L 17 136 L 15 146 L 24 156 L 25 162 L 29 165 L 35 159 L 42 166 L 44 157 L 44 173 L 67 192 L 89 175 L 86 172 L 87 160 L 100 144 L 111 137 L 118 137 L 121 140 L 125 136 L 122 140 L 124 143 L 115 157 L 101 171 L 93 174 L 98 177 L 113 170 L 118 171 L 138 190 L 137 197 L 155 183 L 152 187 M 88 121 L 90 123 L 84 129 M 0 123 L 12 136 L 14 144 L 0 132 L 27 158 M 0 125 L 12 136 L 15 146 L 27 158 M 66 125 L 60 136 M 145 125 L 144 130 L 147 131 M 150 133 L 178 168 L 190 157 L 188 150 L 191 147 L 188 150 L 190 162 L 185 172 L 199 187 M 154 135 L 172 158 L 173 164 L 168 168 L 173 164 L 168 172 L 172 173 L 177 168 L 175 170 M 68 137 L 66 144 L 55 147 M 111 138 L 106 140 M 148 139 L 152 144 L 156 144 M 120 140 L 86 178 M 119 141 L 93 170 L 92 165 L 99 155 L 113 142 L 118 142 M 113 143 L 110 145 M 194 143 L 188 150 L 189 164 M 100 145 L 97 147 M 122 145 L 109 164 M 108 147 L 107 148 M 95 150 L 86 164 L 86 171 L 90 175 L 86 178 M 47 154 L 46 155 M 123 154 L 116 170 L 138 190 L 136 197 L 0 199 L 0 193 L 22 176 L 23 163 L 31 164 L 23 171 L 26 169 L 22 173 L 23 176 L 40 167 L 37 170 M 100 155 L 92 165 L 93 172 L 96 173 M 168 157 L 165 161 L 165 167 L 169 168 L 168 173 L 174 172 L 176 175 L 182 171 L 180 167 L 182 171 L 186 170 L 185 173 L 199 188 M 179 159 L 178 160 M 35 161 L 34 162 M 185 163 L 186 174 L 199 188 M 23 164 L 21 178 M 44 164 L 42 175 L 34 179 L 28 179 L 27 176 L 28 179 L 34 179 M 185 165 L 186 174 L 199 187 M 28 167 L 27 168 M 102 169 L 101 171 M 111 172 L 110 173 M 182 172 L 179 174 M 42 174 L 41 175 M 46 175 L 65 191 L 71 190 L 69 193 L 72 197 L 150 199 L 161 183 L 158 199 L 198 199 L 199 195 L 198 199 M 174 175 L 175 175 M 166 176 L 160 184 L 157 199 L 151 199 L 199 199 M 149 183 L 146 184 M 69 194 L 72 197 L 198 199 M 142 194 L 141 196 L 146 199 L 198 199 M 58 197 L 58 199 M 51 198 L 57 199" 
        fill="none" 
        stroke="black" 
        stroke-width="1.5" 
        stroke-linecap="round" 
        stroke-linejoin="round"
        vector-effect="non-scaling-stroke"/>
</svg>