<svg xmlns="http://www.w3.org/2000/svg" viewBox="0 0 200 200" width="200" height="200">
  <rect width="100%" height="100%" fill="white"/>
  <path d="M 0 0 L 85 1 L 90 4 L 123 0 L 188 0 L 199 13 M 194 0 L 199 2 M 0 1 L 21 26 L 22 21 L 18 13 L 5 1 L 17 11 L 22 21 L 21 29 L 28 36 L 31 35 L 30 1 L 30 32 L 34 32 M 50 1 L 79 3 L 78 33 L 83 31 L 80 36 L 119 34 L 117 29 L 101 27 L 91 18 L 89 4 L 112 24 L 114 29 L 118 28 L 118 21 L 99 3 L 117 20 L 114 11 L 107 3 L 117 16 L 119 34 L 125 35 L 126 1 L 124 31 L 129 31 L 127 36 L 165 35 L 167 33 L 163 30 L 167 31 L 167 1 L 167 33 L 170 34 L 173 30 L 172 34 L 198 35 M 175 1 L 177 5 L 180 5 L 181 1 L 188 7 M 0 4 L 0 11 L 17 29 L 27 35 L 0 38 L 27 37 M 175 4 L 175 8 L 193 26 L 198 27 L 199 23 L 180 6 L 197 22 L 198 18 L 196 16 L 199 20 L 199 29 M 191 4 L 199 13 M 184 5 L 187 7 M 3 7 L 30 37 L 77 37 L 74 32 L 83 42 M 95 9 L 114 29 L 118 29 L 118 36 M 175 9 L 176 15 L 185 25 L 199 27 L 199 30 M 91 12 L 107 28 L 118 29 L 119 34 L 124 36 L 124 77 L 129 75 L 127 81 L 161 81 L 165 78 L 162 74 L 147 74 L 136 65 L 131 55 L 131 43 L 138 42 L 154 49 L 161 62 L 161 73 L 165 78 L 168 77 L 168 41 L 164 40 M 2 13 L 17 30 L 0 21 L 0 17 L 4 24 L 17 30 M 93 15 L 91 18 L 102 27 L 118 29 L 120 35 L 135 36 M 181 15 L 193 26 L 199 27 L 199 30 M 97 19 L 107 28 L 118 29 L 120 35 L 135 36 M 187 26 L 190 27 M 167 34 L 171 38 M 171 34 L 198 35 M 167 37 L 170 76 M 30 38 L 32 43 L 50 43 L 60 49 L 69 62 L 69 79 L 76 82 L 78 41 L 73 44 M 78 39 L 78 82 L 120 81 L 120 77 L 130 87 M 76 40 L 76 121 L 83 117 L 76 123 L 109 123 L 96 116 L 84 101 L 85 87 L 94 87 L 112 99 L 118 113 L 116 121 L 123 124 L 124 86 L 119 88 M 122 40 L 126 80 L 161 81 M 29 41 L 25 45 M 31 43 L 30 79 L 35 76 L 33 81 L 60 82 L 64 79 L 54 76 L 42 66 L 36 56 L 38 45 L 64 71 L 69 72 L 69 78 L 62 81 M 45 44 L 69 68 L 69 79 L 78 82 M 134 44 L 158 69 L 161 69 L 164 80 M 52 45 L 62 51 L 69 62 L 69 79 L 78 82 M 143 47 L 146 49 M 137 48 L 156 68 L 161 69 L 161 73 L 169 81 L 199 80 M 37 49 L 65 79 L 79 82 M 49 49 L 69 68 L 69 79 L 78 82 M 132 50 L 155 75 L 159 75 M 45 53 L 64 71 L 69 72 L 70 80 L 79 82 M 132 55 L 135 63 L 144 72 L 158 75 M 37 56 L 51 74 L 79 82 M 137 56 L 148 69 L 159 75 M 154 56 L 161 64 L 161 73 L 168 78 L 167 119 L 170 120 M 43 58 L 65 79 L 78 82 M 154 58 L 161 64 L 163 76 L 170 81 M 83 75 L 83 76 M 25 76 L 34 86 M 0 81 L 30 81 L 30 119 L 33 119 M 0 82 L 60 82 M 124 82 L 124 121 L 130 117 L 127 120 M 28 84 L 24 89 M 121 85 L 124 85 L 126 124 L 167 123 L 164 119 L 171 120 M 0 86 L 16 96 L 23 107 L 23 117 L 28 122 L 31 120 L 32 126 L 76 124 L 77 164 L 80 166 L 120 165 L 120 162 L 124 166 L 124 129 L 119 131 M 179 86 L 188 86 L 199 94 M 163 87 L 163 88 M 177 87 L 199 109 M 184 87 L 199 103 M 2 88 L 16 96 L 24 113 L 20 119 L 10 119 L 0 113 L 7 118 L 15 118 L 0 104 L 9 114 L 19 119 M 93 88 L 102 96 M 175 88 L 175 94 L 191 109 L 198 114 L 199 112 L 199 118 L 180 107 L 175 95 L 199 114 L 199 117 M 85 90 L 116 118 L 118 117 L 109 124 M 100 90 L 112 99 L 118 113 L 116 121 L 123 124 L 124 161 L 129 160 L 127 165 L 150 164 L 140 157 L 130 144 L 129 138 L 135 129 L 147 133 L 158 143 L 162 152 L 160 161 L 167 164 L 168 133 L 167 128 L 164 128 M 185 90 L 199 102 M 194 90 L 199 95 M 0 91 L 17 106 L 21 117 L 28 122 L 0 125 L 28 123 L 26 124 M 94 92 L 103 96 M 84 94 L 103 114 L 123 124 L 124 161 L 127 162 L 127 168 M 90 94 L 117 118 L 118 123 L 123 124 L 126 164 L 159 163 M 0 96 L 32 126 L 35 125 L 37 131 L 51 130 L 65 140 L 70 150 L 68 160 L 77 165 L 78 197 L 94 196 L 85 183 L 83 168 L 83 172 L 105 188 L 111 196 L 117 195 L 115 188 L 95 175 L 88 166 L 106 175 L 113 182 L 119 197 L 125 196 L 122 168 L 124 167 L 126 197 L 166 199 L 167 165 L 198 165 M 86 96 L 103 114 L 123 124 L 126 164 L 150 165 M 0 98 L 30 122 L 37 131 L 36 136 L 62 160 L 106 175 L 113 182 L 119 197 L 190 199 L 173 179 L 174 173 L 178 170 L 190 174 L 199 182 L 199 186 M 8 98 L 37 131 L 42 131 L 40 133 L 59 149 L 63 149 L 61 144 L 46 131 L 63 146 L 72 164 L 106 175 L 113 182 L 119 197 L 191 199 L 194 195 L 192 192 L 174 175 L 194 195 L 198 195 L 199 191 L 178 171 L 199 189 L 199 196 M 84 98 L 96 116 L 111 123 M 181 107 L 189 114 L 199 117 M 71 119 L 78 122 M 168 123 L 198 123 M 167 124 L 171 127 M 80 125 L 82 128 M 167 126 L 167 159 L 169 161 L 172 158 L 171 160 M 74 128 L 77 164 L 106 175 L 113 182 L 119 197 L 193 199 M 26 129 L 26 130 M 133 131 L 155 149 L 156 155 L 162 157 L 160 161 L 163 164 L 171 165 M 132 133 L 141 136 L 150 144 L 163 164 L 170 165 M 30 135 L 31 164 L 35 160 L 33 165 L 61 165 L 64 162 L 63 164 M 131 135 L 155 156 L 145 152 L 134 139 L 161 158 L 163 164 L 170 165 M 36 137 L 37 143 L 45 153 L 66 162 M 44 137 L 66 154 L 72 164 L 106 175 L 113 182 L 119 197 L 193 199 M 64 140 L 70 150 L 68 160 L 72 164 L 106 175 L 113 182 L 119 197 L 193 199 M 136 143 L 149 155 L 157 156 L 163 164 L 170 165 M 38 145 L 52 158 L 66 162 M 47 146 L 67 162 M 26 161 L 30 162 L 35 170 M 0 164 L 61 165 M 0 165 L 1 170 L 15 174 L 22 181 L 23 199 L 31 198 L 31 170 L 27 169 M 121 165 L 128 169 M 30 166 L 32 199 L 93 197 M 0 170 L 1 176 L 20 189 L 20 186 L 3 171 L 17 182 L 22 192 L 24 191 L 18 194 L 6 186 L 22 194 L 22 199 L 10 199 L 13 198 L 0 189 L 0 186 L 14 199 L 52 199 M 182 171 L 199 182 L 199 187 M 175 173 L 192 192 L 193 199 M 15 175 L 24 186 L 23 199 L 52 199 M 0 176 L 23 192 L 23 199 L 52 199 M 99 176 L 115 187 L 119 197 L 194 199 M 174 179 L 177 186 L 193 199 M 94 180 L 110 194 L 95 196 L 102 197 M 86 181 L 104 196 L 194 199 M 90 184 L 104 196 L 193 199 M 88 187 L 95 196 L 101 197 M 0 198 L 5 199 M 0 199 L 5 199" 
        fill="none" 
        stroke="black" 
        stroke-width="1.5" 
        stroke-linecap="round" 
        stroke-linejoin="round"
        vector-effect="non-scaling-stroke"/>
</svg>