<svg xmlns="http://www.w3.org/2000/svg" viewBox="0 0 200 200" width="200" height="200">
  <rect width="100%" height="100%" fill="white"/>
  <path d="M 3 0 L 87 3 L 199 0 L 199 4 M 4 1 L 0 5 L 0 2 L 2 3 M 70 3 L 67 8 M 87 4 L 89 7 M 174 4 L 173 5 M 197 7 L 194 10 M 136 8 L 137 7 M 35 10 L 36 9 M 167 10 L 166 11 M 101 19 L 104 22 M 69 26 L 70 27 M 150 26 L 147 29 M 112 28 L 112 29 M 14 29 L 12 32 M 141 34 L 140 35 M 165 39 L 163 41 M 124 40 L 124 41 M 0 41 L 0 42 M 199 46 L 197 48 M 30 48 L 31 49 M 122 53 L 119 56 M 16 54 L 15 55 M 148 55 L 145 58 M 38 57 L 39 57 M 83 58 L 84 57 M 45 63 L 46 64 M 139 64 L 138 65 M 2 67 L 0 69 M 106 68 L 105 69 M 176 68 L 173 70 M 54 71 L 54 72 M 23 72 L 23 73 M 191 78 L 190 79 M 16 79 L 14 82 M 121 81 L 119 84 M 92 82 L 89 85 M 55 84 L 54 85 M 157 86 L 156 87 M 4 90 L 1 93 M 112 90 L 109 93 M 48 91 L 45 93 M 83 91 L 82 92 M 149 93 L 147 96 M 175 93 L 171 97 M 199 99 L 196 103 M 140 102 L 137 105 M 165 103 L 165 104 M 28 109 L 26 112 M 91 109 L 92 110 M 130 112 L 129 113 M 184 114 L 184 115 M 21 117 L 18 119 M 100 119 L 101 119 M 58 125 L 59 126 M 143 125 L 142 126 M 185 127 L 188 130 M 110 129 L 111 129 M 66 133 L 69 136 M 0 135 L 0 137 M 193 135 L 194 136 M 118 136 L 119 137 M 149 138 L 152 141 M 76 143 L 77 144 M 26 145 L 25 146 M 116 150 L 114 153 M 84 151 L 87 154 M 138 157 L 140 159 M 168 157 L 171 160 M 92 158 L 94 161 M 38 163 L 44 167 M 37 164 L 41 163 L 43 166 M 50 173 L 51 174 M 184 173 L 187 176 M 120 174 L 119 175 M 161 180 L 162 181 M 168 187 L 169 188 M 199 187 L 199 188 M 135 193 L 133 199 L 176 199 L 175 194 L 178 199 L 198 199 L 199 196 L 198 199 M 6 194 L 2 198 L 7 199 M 70 194 L 71 199 L 96 199 L 98 195 L 98 199 L 199 199 M 0 195 L 1 198 L 5 195 L 0 199 L 7 199 M 57 199 L 198 199" 
        fill="none" 
        stroke="black" 
        stroke-width="1.5" 
        stroke-linecap="round" 
        stroke-linejoin="round"
        vector-effect="non-scaling-stroke"/>
</svg>