<svg xmlns="http://www.w3.org/2000/svg" viewBox="0 0 200 200" width="200" height="200">
  <rect width="100%" height="100%" fill="white"/>
  <path d="M 0 0 L 199 0 L 199 28 M 0 1 L 0 12 L 32 43 L 64 11 L 64 1 L 64 12 L 95 42 L 126 11 L 126 1 L 126 11 L 157 43 L 198 4 L 175 26 M 126 12 L 96 44 L 126 74 L 157 44 L 127 77 L 159 107 L 190 75 L 159 44 L 173 29 L 159 44 L 190 75 L 199 74 L 199 59 L 199 92 M 0 13 L 0 28 M 63 13 L 33 44 L 63 74 L 95 44 L 80 60 M 31 44 L 0 75 L 31 107 L 77 62 L 64 77 L 95 107 L 126 77 L 113 91 M 30 45 L 2 74 L 0 59 L 2 74 M 190 76 L 160 108 L 189 137 L 199 136 L 199 122 L 199 152 M 0 77 L 0 92 M 63 78 L 50 91 M 110 93 L 97 108 L 126 137 L 157 108 L 128 137 L 156 166 L 160 166 L 189 138 L 161 167 L 186 191 L 198 189 L 199 180 L 199 197 M 46 94 L 33 108 L 63 137 L 95 108 L 66 137 L 94 166 L 126 138 L 98 166 L 120 189 L 134 189 L 156 167 L 135 189 L 143 197 L 186 199 L 188 191 L 187 198 L 196 199 M 30 108 L 2 138 L 30 166 L 34 166 L 63 138 L 35 167 L 57 189 L 71 189 L 94 167 L 72 189 L 81 197 L 111 197 L 119 189 L 111 197 M 29 109 L 0 138 L 0 152 M 0 122 L 0 137 L 30 166 L 0 198 L 55 199 L 56 190 L 56 198 L 63 199 M 174 123 L 189 137 L 199 137 L 199 153 M 29 167 L 2 195 L 0 180 L 1 195 M 0 199 L 63 199 M 146 199 L 197 199" 
        fill="none" 
        stroke="black" 
        stroke-width="1.5" 
        stroke-linecap="round" 
        stroke-linejoin="round"
        vector-effect="non-scaling-stroke"/>
</svg>