<svg xmlns="http://www.w3.org/2000/svg" viewBox="0 0 200 200" width="200" height="200">
  <rect width="100%" height="100%" fill="white"/>
  <path d="M 2 0 L 51 0 L 58 3 L 62 0 L 199 0 L 199 4 M 0 1 L 0 5 M 51 1 L 58 3 L 47 11 L 39 24 L 38 47 L 52 67 L 69 72 L 81 48 L 100 28 L 86 2 L 103 28 L 112 26 L 123 13 L 144 5 L 147 1 L 144 5 M 160 1 L 162 14 L 179 33 L 184 44 L 193 46 L 199 42 L 199 50 M 0 2 L 1 2 M 56 5 L 55 6 M 45 8 L 48 10 M 51 8 L 50 9 M 131 9 L 128 10 M 123 14 L 111 26 M 44 15 L 37 32 L 38 47 L 42 56 L 57 70 L 71 71 L 78 85 L 90 92 M 165 18 L 179 33 L 186 46 L 169 84 L 192 85 L 199 87 L 199 90 M 163 25 L 173 41 L 174 54 L 166 72 L 152 81 L 149 97 L 157 98 L 168 86 M 33 27 L 26 44 L 32 53 L 33 63 L 40 66 L 60 85 L 80 86 L 90 92 M 165 28 L 174 47 L 173 59 L 165 73 M 100 29 L 97 34 M 116 29 L 114 44 L 132 56 L 154 79 L 149 99 L 137 102 L 124 111 L 137 140 L 138 164 L 161 166 L 169 163 L 192 139 L 179 116 L 158 98 L 176 112 L 191 136 L 199 133 L 199 137 M 114 32 L 113 43 L 108 40 L 97 44 L 83 62 L 83 77 L 90 88 M 110 42 L 134 58 L 154 79 L 149 97 L 158 98 L 174 110 L 190 135 L 194 136 M 94 46 L 87 54 L 82 70 L 89 87 M 24 47 L 32 53 L 33 64 L 19 70 L 3 87 L 0 92 L 1 116 L 17 120 L 27 126 L 44 128 L 52 96 L 59 85 L 80 86 L 90 92 M 83 47 L 70 72 L 78 85 L 90 92 M 21 48 L 22 48 M 185 48 L 169 83 L 180 85 M 17 49 L 20 49 M 11 50 L 16 50 M 6 51 L 9 51 M 0 52 L 5 52 M 26 66 L 25 67 M 40 67 L 60 85 L 80 86 L 90 92 M 22 68 L 21 69 M 17 71 L 0 91 L 0 124 M 161 75 L 160 76 M 192 86 L 199 90 M 60 87 L 53 106 L 53 118 L 59 125 M 58 89 L 53 106 L 53 119 L 58 125 M 162 91 L 158 99 L 176 112 L 190 135 L 194 136 M 52 99 L 45 128 L 48 185 L 54 184 L 59 176 L 52 154 L 52 143 L 56 133 L 86 123 L 98 117 L 103 108 L 111 108 L 125 110 L 126 119 L 138 144 L 140 178 L 154 198 L 198 199 L 199 195 L 198 199 M 133 104 L 132 105 M 100 116 L 107 117 L 110 122 L 121 127 L 130 145 M 93 120 L 90 121 M 17 121 L 23 126 L 14 130 L 5 140 L 0 162 L 27 178 L 46 181 L 47 188 L 43 199 L 80 199 L 77 168 L 62 172 M 109 122 L 78 166 M 108 123 L 104 129 M 81 125 L 78 126 M 116 125 L 125 131 L 130 145 M 22 126 L 21 128 M 15 129 L 16 129 M 12 131 L 3 144 L 1 160 M 102 131 L 78 166 M 57 133 L 52 143 L 52 154 L 54 165 L 61 172 M 192 140 L 199 150 M 191 141 L 188 143 M 196 146 L 199 149 M 185 147 L 170 162 M 0 163 L 0 168 M 126 166 L 139 167 L 140 178 L 154 199 L 81 199 L 112 199 L 112 177 L 119 169 L 125 167 M 9 167 L 22 176 L 36 181 L 46 181 L 50 185 M 119 170 L 118 171 M 115 174 L 110 185 L 114 199 L 198 199 M 58 179 L 54 184 M 43 193 L 42 199 L 0 199 L 0 195 L 1 199 L 199 199 M 80 193 L 82 199 L 199 199" 
        fill="none" 
        stroke="black" 
        stroke-width="1.5" 
        stroke-linecap="round" 
        stroke-linejoin="round"
        vector-effect="non-scaling-stroke"/>
</svg>