<svg xmlns="http://www.w3.org/2000/svg" viewBox="0 0 200 200" width="200" height="200">
  <rect width="100%" height="100%" fill="white"/>
  <path d="M 1 0 L 76 3 L 137 0 L 199 2 M 0 1 L 0 3 M 29 1 L 13 16 L 7 27 L 8 32 L 16 32 L 30 13 L 47 6 L 58 6 L 74 12 L 82 19 L 87 29 L 94 28 L 95 25 L 90 15 L 79 4 L 90 15 L 96 27 L 108 27 L 110 22 L 110 28 L 115 28 L 123 13 L 135 3 L 130 7 M 38 1 L 79 3 L 90 15 L 96 27 L 119 30 L 122 30 L 137 12 L 158 8 L 171 14 L 183 31 L 190 30 L 191 26 L 185 14 L 170 1 L 185 14 L 191 28 L 198 29 M 28 3 L 27 5 M 62 8 L 72 11 L 82 19 L 86 29 L 71 37 L 52 55 L 53 69 L 60 69 L 67 55 L 81 43 L 98 37 L 107 37 L 127 45 L 138 57 L 142 69 L 151 70 L 152 52 L 145 49 L 132 35 L 123 31 L 129 34 L 142 19 L 151 18 M 37 10 L 34 11 M 127 10 L 119 19 L 116 29 L 123 30 L 136 39 L 148 28 L 158 28 L 166 36 L 172 36 L 174 34 L 170 26 L 158 18 L 165 21 L 174 34 L 181 32 M 52 15 L 69 20 L 78 32 L 82 32 M 49 16 L 52 16 M 42 17 L 45 17 M 35 21 L 26 31 L 32 38 L 48 25 L 58 25 L 73 37 M 69 21 L 78 32 L 82 32 M 33 22 L 26 35 L 39 43 L 49 35 L 59 36 L 65 42 M 138 23 L 130 34 L 141 44 L 147 38 L 157 38 L 162 43 L 168 38 L 154 52 M 7 26 L 7 31 L 0 33 L 5 32 M 19 26 L 18 32 L 34 38 L 43 47 L 57 44 L 61 47 L 57 52 M 51 26 L 51 27 M 64 29 L 72 37 M 40 30 L 34 39 L 52 55 L 52 67 L 30 72 L 12 81 L 0 95 L 0 103 M 17 32 L 41 43 L 44 50 L 52 55 L 53 69 L 70 71 L 76 60 L 86 52 L 97 48 L 109 48 L 122 54 L 135 72 L 142 71 M 174 35 L 173 36 M 43 39 L 41 45 L 52 55 L 53 69 L 72 73 L 75 71 L 79 75 L 91 61 L 110 58 L 123 68 L 127 76 L 138 72 M 157 39 L 164 43 M 194 39 L 199 40 M 62 40 L 66 42 M 190 40 L 193 40 M 3 41 L 25 45 L 36 55 L 42 68 L 49 69 M 118 41 L 136 54 L 143 70 L 151 70 M 186 41 L 189 41 M 0 42 L 0 43 M 144 42 L 144 48 L 153 52 M 21 44 L 36 55 L 43 69 L 49 69 M 81 44 L 80 45 M 57 45 L 61 47 L 57 52 M 178 45 L 165 59 L 162 71 L 169 72 L 181 55 L 198 49 M 160 47 L 157 50 M 174 48 L 166 57 L 162 69 L 153 70 L 178 74 L 184 64 L 199 59 M 74 49 L 64 60 L 62 70 L 70 71 L 87 80 L 95 70 L 106 68 L 114 71 L 119 80 L 126 76 L 125 78 M 0 51 L 14 51 L 22 55 L 36 71 M 115 51 L 123 55 L 133 70 L 138 72 M 14 52 L 26 58 L 35 71 M 54 53 L 55 53 M 181 56 L 180 57 M 79 58 L 70 71 L 88 80 L 91 85 L 100 78 L 110 79 L 114 84 L 121 80 M 3 60 L 19 64 L 24 73 L 22 76 M 112 60 L 129 76 M 0 62 L 1 61 M 175 62 L 170 72 L 179 74 L 183 79 L 198 69 M 17 64 L 27 74 M 3 69 L 21 77 M 181 69 L 178 75 L 189 83 L 199 78 M 0 70 L 0 71 M 6 70 L 21 77 M 114 72 L 120 80 M 188 76 L 186 81 L 192 83 L 194 88 L 198 89 L 199 84 L 199 98 M 0 78 L 14 81 M 48 79 L 63 81 L 77 88 L 86 97 L 92 110 L 103 108 L 103 93 L 95 90 L 93 86 L 95 90 L 103 93 L 111 90 L 114 85 L 107 92 M 43 80 L 46 80 M 110 80 L 115 84 M 38 81 L 41 81 M 58 81 L 68 83 L 79 90 L 88 100 L 91 110 L 73 116 L 52 133 L 56 148 L 72 132 L 86 124 L 116 121 M 152 81 L 166 83 L 179 89 L 189 100 L 193 112 L 198 113 L 199 109 L 199 113 M 193 81 L 192 86 L 199 89 L 199 98 M 148 82 L 151 82 M 32 83 L 35 83 M 142 83 L 147 83 M 89 84 L 103 93 L 104 109 L 114 109 L 123 94 L 141 84 M 172 86 L 187 97 L 193 111 L 154 130 L 153 138 L 143 150 L 135 170 L 135 197 L 144 196 L 147 170 L 161 145 L 179 130 L 199 124 M 5 87 L 0 93 L 0 103 M 25 87 L 11 102 L 9 112 L 18 113 L 29 97 L 46 90 L 64 93 L 77 103 L 81 112 L 89 111 M 24 88 L 23 89 M 21 90 L 9 105 L 9 109 L 0 113 L 0 108 L 1 111 L 28 115 L 38 104 L 55 101 L 63 104 L 72 116 L 75 116 M 153 91 L 171 96 L 180 104 L 183 114 L 189 114 M 149 92 L 152 92 M 145 93 L 148 93 M 142 94 L 127 106 L 126 113 L 134 116 L 141 106 L 160 102 L 173 112 L 174 120 M 34 95 L 31 96 M 139 95 L 142 95 M 68 96 L 77 103 L 82 112 L 87 112 M 136 97 L 135 98 M 171 97 L 180 104 L 183 113 L 188 114 M 29 98 L 26 100 M 133 99 L 125 108 L 125 113 L 142 120 L 148 113 L 160 112 L 169 121 L 167 124 M 25 102 L 19 113 L 29 115 L 34 121 L 44 112 L 50 111 L 56 111 L 68 121 M 61 104 L 75 116 M 116 105 L 115 110 L 130 114 L 144 123 L 161 121 L 164 125 L 161 128 M 145 105 L 134 116 L 143 120 L 148 128 L 153 130 L 154 122 L 154 128 L 159 129 M 103 109 L 125 112 L 146 123 M 56 112 L 67 121 M 172 112 L 178 118 M 160 113 L 169 121 L 166 124 M 181 116 L 180 117 M 29 118 L 39 124 L 50 121 L 49 130 L 53 132 L 52 140 L 61 159 L 81 138 L 105 130 L 126 135 L 142 149 L 146 148 L 144 149 M 71 118 L 70 119 M 55 121 L 62 125 M 0 122 L 23 127 L 41 144 L 51 170 L 53 197 L 62 197 L 65 194 L 62 159 L 61 166 L 64 171 L 79 153 L 91 145 L 105 141 L 122 145 L 137 159 L 141 158 L 136 168 L 119 155 L 97 154 L 77 169 L 66 194 L 69 197 L 76 197 L 78 184 L 83 175 L 97 164 L 111 162 L 121 167 L 134 183 L 133 196 L 77 197 L 84 196 L 88 181 L 102 171 L 110 171 L 117 175 L 124 184 L 125 196 L 131 197 M 57 122 L 63 125 M 118 122 L 132 127 L 147 142 L 151 141 L 149 142 M 0 123 L 9 122 L 23 127 L 41 144 L 51 170 L 52 199 L 1 199 L 0 185 L 2 199 L 7 198 L 9 191 L 7 182 L 0 177 L 8 184 L 8 199 L 16 198 L 16 180 L 9 169 L 0 169 L 0 166 L 9 169 L 14 178 L 18 179 M 120 123 L 130 126 L 149 142 M 38 124 L 53 132 L 52 140 L 58 148 L 62 170 L 65 171 M 146 127 L 154 130 L 153 138 L 149 142 M 80 128 L 77 129 M 183 129 L 178 131 M 56 130 L 57 130 M 0 133 L 17 136 L 34 151 L 42 173 L 42 198 L 51 199 M 72 133 L 69 135 M 118 133 L 129 137 L 145 149 M 0 134 L 9 133 L 17 136 L 30 146 L 42 173 L 42 198 L 52 199 M 199 134 L 183 140 L 166 156 L 157 174 L 156 197 L 165 197 L 167 178 L 178 158 L 187 150 L 199 147 M 193 135 L 199 135 M 68 137 L 57 149 L 62 159 L 62 170 L 65 171 M 170 137 L 159 148 L 150 163 L 144 184 L 145 197 L 174 199 L 176 182 L 182 170 L 199 155 L 199 162 M 188 137 L 187 138 M 184 139 L 185 139 M 182 140 L 177 145 M 78 141 L 77 142 M 0 143 L 16 148 L 26 158 L 32 171 L 33 198 L 51 199 M 12 147 L 23 154 L 30 165 L 33 198 L 51 199 M 70 149 L 61 160 L 64 171 M 187 151 L 186 152 M 168 153 L 157 174 L 156 197 L 184 199 L 189 177 L 199 168 L 199 172 M 79 154 L 76 156 M 183 154 L 169 173 L 165 198 L 195 199 L 194 191 L 194 196 L 198 199 L 199 190 L 199 199 M 0 155 L 12 158 L 21 168 L 25 182 L 25 199 L 52 199 M 92 156 L 93 156 M 141 156 L 135 170 L 135 197 L 198 199 M 90 157 L 91 157 M 123 157 L 136 168 L 133 184 L 135 197 L 199 199 M 135 157 L 140 159 L 133 184 L 135 197 L 198 199 M 75 158 L 65 171 M 88 158 L 89 158 M 12 159 L 23 172 L 24 198 L 51 199 M 84 161 L 76 170 L 72 181 L 65 182 L 69 182 L 70 187 L 63 196 M 192 161 L 189 163 M 121 168 L 134 183 L 135 197 L 199 199 M 185 168 L 176 182 L 175 198 L 198 199 M 84 175 L 78 184 L 78 197 L 91 197 L 95 185 L 100 181 L 113 182 L 119 197 L 130 197 M 117 176 L 124 184 L 125 196 L 130 197 M 191 176 L 185 187 L 185 198 L 198 199 M 89 181 L 84 196 L 100 197 M 199 181 L 195 188 M 113 183 L 119 197 L 131 197 M 96 185 L 92 196 L 100 197 M 105 190 L 109 197 L 130 197 M 102 191 L 102 196 L 131 197" 
        fill="none" 
        stroke="black" 
        stroke-width="1.5" 
        stroke-linecap="round" 
        stroke-linejoin="round"
        vector-effect="non-scaling-stroke"/>
</svg>