<svg xmlns="http://www.w3.org/2000/svg" viewBox="0 0 200 200" width="200" height="200">
  <rect width="100%" height="100%" fill="white"/>
  <path d="M 0 0 L 199 0 L 199 8 L 198 6 L 191 11 L 170 33 L 131 92 L 107 148 L 103 165 L 97 170 L 99 199 L 106 198 L 107 187 L 117 163 L 136 141 L 173 119 L 199 111 M 0 1 L 0 8 L 25 32 L 48 65 L 74 113 L 92 159 L 97 156 L 97 152 L 92 147 L 84 120 L 70 91 L 29 24 L 9 1 L 14 7 L 35 15 L 67 35 L 86 52 L 95 65 L 98 64 L 98 57 L 72 29 L 30 1 L 71 28 L 97 56 L 97 47 L 84 32 L 48 1 L 70 18 L 97 47 L 97 36 L 63 1 L 97 36 L 97 28 L 75 1 L 96 27 L 99 24 L 98 19 L 84 1 L 96 17 L 98 10 L 92 1 L 96 7 L 101 6 L 103 1 L 100 7 M 110 1 L 99 14 M 119 1 L 100 23 M 129 1 L 100 33 M 143 1 L 118 22 L 100 43 M 162 1 L 126 26 L 101 54 M 186 1 L 166 24 L 139 65 L 112 120 L 102 148 L 97 151 L 97 137 L 86 124 L 97 136 L 96 122 L 83 102 L 69 89 L 83 102 L 94 121 L 98 118 L 97 108 L 74 81 L 58 70 L 74 81 L 95 107 L 98 106 L 98 96 L 75 71 L 49 55 L 73 69 L 94 93 L 97 92 L 97 87 L 72 59 L 40 39 L 78 64 L 95 86 L 99 81 L 97 75 L 72 49 L 30 24 L 67 45 L 96 74 L 97 66 L 101 66 L 129 35 L 154 18 L 179 8 L 167 23 M 161 2 L 158 5 M 118 3 L 100 23 M 107 6 L 101 13 M 181 6 L 180 7 M 197 6 L 199 7 M 0 9 L 0 10 M 193 9 L 192 11 M 4 11 L 25 32 L 48 65 L 74 113 L 96 168 L 98 158 L 95 158 M 119 11 L 118 13 M 18 12 L 29 24 L 54 36 L 77 53 L 93 73 L 97 74 L 98 80 L 130 46 L 155 28 L 166 24 L 154 42 M 199 16 L 195 29 L 192 78 L 184 99 L 185 104 L 190 102 L 199 70 L 199 78 M 98 17 L 100 23 M 185 17 L 184 18 M 0 18 L 3 25 L 26 47 L 39 70 L 43 72 L 47 83 L 52 87 L 56 102 L 62 109 L 85 164 M 197 21 L 187 30 L 187 64 L 178 101 L 183 105 M 49 24 L 86 52 L 99 67 L 97 79 L 101 80 M 127 25 L 126 26 M 177 25 L 150 59 L 135 84 L 114 130 L 101 168 M 105 26 L 100 33 M 3 27 L 3 63 L 14 104 L 20 105 L 12 77 L 12 35 L 22 44 L 20 81 L 27 109 L 35 111 L 29 89 L 31 57 L 39 66 L 37 86 L 42 115 L 48 120 L 51 119 L 46 99 L 48 84 L 54 92 L 59 126 L 66 134 L 72 136 L 85 165 M 98 27 L 100 33 M 195 28 L 192 78 L 184 99 L 184 103 L 187 104 M 8 29 L 26 47 L 39 70 L 43 72 L 47 83 L 52 87 L 55 103 L 59 103 L 62 109 L 85 165 M 33 31 L 39 39 L 54 46 L 78 64 L 97 86 L 98 95 L 129 59 L 153 43 L 141 63 L 117 83 L 98 110 L 98 129 L 120 92 L 131 81 L 100 150 M 184 31 L 177 40 L 178 76 L 171 108 L 177 108 L 180 105 L 178 102 L 181 105 L 179 106 M 183 32 L 168 52 L 170 78 L 163 112 L 167 113 L 171 109 L 169 112 M 98 36 L 98 42 L 101 43 M 104 38 L 100 43 M 174 42 L 161 61 L 161 95 L 155 116 L 163 114 M 107 45 L 101 54 M 130 47 L 129 48 M 47 53 L 73 69 L 92 91 L 99 95 L 96 122 L 96 127 L 100 128 L 97 136 L 99 151 M 164 55 L 151 76 L 152 103 L 147 121 L 156 117 M 98 56 L 97 79 L 100 80 M 108 57 L 101 66 M 129 60 L 126 62 M 158 63 L 144 88 L 145 107 L 138 127 L 147 123 M 54 65 L 74 81 L 97 107 L 99 151 M 112 65 L 101 80 M 132 68 L 131 69 M 134 74 L 101 150 M 5 77 L 14 105 L 0 103 L 0 94 L 0 101 L 6 101 L 0 78 L 6 102 L 51 120 L 66 134 L 71 135 L 85 164 M 112 78 L 102 93 M 148 79 L 138 99 L 137 116 L 133 124 L 127 125 L 123 138 L 129 137 L 139 128 L 132 135 M 65 84 L 83 102 L 93 120 L 97 121 L 99 151 M 199 90 L 195 98 L 196 102 L 199 99 L 199 103 M 198 92 L 195 102 L 190 103 M 140 94 L 127 124 L 133 124 M 72 97 L 84 122 L 97 136 L 98 151 M 191 97 L 191 102 L 198 102 M 165 103 L 163 112 L 166 113 M 20 107 L 42 115 L 66 134 L 71 135 L 85 165 M 144 107 L 138 123 L 139 128 L 132 135 M 0 109 L 29 119 L 56 136 L 83 168 L 92 199 L 113 199 L 122 171 L 141 149 L 167 131 L 199 119 M 0 110 L 29 119 L 56 136 L 83 168 L 91 196 L 91 199 L 0 199 L 0 194 L 1 199 L 6 198 L 0 188 L 7 199 L 15 198 L 0 181 L 16 199 L 23 198 L 20 191 L 0 173 L 20 191 L 24 199 L 31 198 L 28 189 L 0 165 L 24 184 L 32 199 L 40 198 L 30 179 L 0 157 L 31 180 L 41 199 L 49 198 L 41 179 L 29 167 L 0 148 L 29 167 L 41 179 L 50 199 L 58 198 L 55 185 L 45 170 L 29 156 L 0 139 L 38 163 L 53 181 L 58 198 L 66 198 L 62 181 L 53 166 L 32 148 L 0 131 L 38 152 L 53 167 M 49 111 L 51 121 L 72 136 L 85 165 M 136 116 L 133 124 M 147 116 L 146 123 M 0 117 L 29 129 L 55 146 L 74 169 L 84 199 L 115 199 M 129 117 L 128 123 L 132 124 M 0 118 L 29 129 L 55 146 L 74 169 L 84 199 L 114 199 M 103 122 L 98 130 L 98 151 M 0 123 L 40 144 L 54 156 L 69 176 L 76 199 L 114 199 M 182 125 L 179 126 M 199 125 L 168 140 L 147 155 L 131 174 L 125 187 L 124 198 L 132 198 L 136 181 L 157 157 L 199 134 M 197 126 L 199 127 M 193 128 L 194 128 M 124 131 L 123 139 L 109 165 M 169 131 L 166 132 M 28 138 L 47 149 L 60 162 L 69 176 L 76 199 L 115 199 M 199 141 L 160 166 L 147 180 L 141 198 L 149 199 L 152 186 L 163 173 L 198 151 M 117 149 L 109 165 M 154 149 L 153 150 M 126 152 L 114 169 L 106 192 L 107 199 L 115 199 M 150 152 L 147 155 M 98 157 L 98 169 M 133 158 L 119 177 L 114 191 L 115 197 L 158 199 L 163 185 L 173 175 L 199 158 L 198 160 M 139 163 L 126 183 L 125 199 L 166 199 L 176 183 L 199 168 M 143 172 L 133 189 L 133 199 L 174 199 L 184 185 L 199 174 L 198 176 M 150 176 L 143 187 L 142 199 L 182 199 L 199 182 M 161 176 L 151 189 L 151 199 L 190 199 L 199 189 M 61 179 L 67 199 L 114 199 M 165 184 L 159 194 L 160 199 L 198 199 L 199 194 L 199 199 M 176 184 L 175 185 M 172 188 L 167 195 L 168 199 L 198 199 M 120 199 L 199 199" 
        fill="none" 
        stroke="black" 
        stroke-width="1.5" 
        stroke-linecap="round" 
        stroke-linejoin="round"
        vector-effect="non-scaling-stroke"/>
</svg>