<svg xmlns="http://www.w3.org/2000/svg" viewBox="0 0 200 200" width="200" height="200">
  <rect width="100%" height="100%" fill="white"/>
  <path d="M 0 0 L 7 0 M 21 0 L 146 0 M 159 0 L 160 0 M 194 0 L 199 2 M 157 3 L 154 10 L 158 10 M 156 5 L 154 11 L 143 22 L 151 23 L 156 16 L 146 31 L 138 54 L 133 58 L 132 65 L 121 71 L 127 77 L 117 83 L 111 109 L 132 91 L 129 94 M 94 6 L 94 9 M 149 6 L 149 15 M 4 7 L 10 14 L 12 9 L 16 23 L 21 16 L 24 20 L 24 36 L 29 40 L 31 32 L 31 47 L 36 45 L 37 40 L 34 49 L 39 61 L 43 56 L 42 50 L 41 53 M 146 8 L 149 9 L 149 15 M 145 9 L 145 11 M 90 10 L 93 23 L 96 24 L 100 19 L 101 22 L 102 42 L 93 48 L 94 55 L 102 51 L 99 61 L 93 64 L 94 71 L 100 68 L 101 64 L 100 74 M 100 11 L 99 12 M 53 12 L 59 26 M 13 13 L 10 16 L 15 18 L 15 24 L 9 22 L 15 21 L 17 24 L 20 21 L 17 24 L 25 32 L 17 40 L 25 47 L 35 47 L 35 56 L 51 94 L 61 133 L 73 153 L 80 178 L 84 175 L 81 180 L 81 196 L 88 195 L 89 174 L 80 118 L 68 112 L 63 93 L 71 93 L 68 87 L 59 84 L 63 87 L 68 86 L 66 80 L 56 76 L 66 79 L 61 69 L 54 69 L 60 67 L 53 62 L 54 53 L 59 64 L 62 58 L 59 69 L 65 68 L 66 63 L 66 68 L 72 70 L 73 64 L 71 60 L 83 104 L 79 117 L 87 163 L 93 154 L 95 139 L 93 79 L 86 74 L 92 78 L 93 72 L 84 65 L 84 61 L 87 68 L 96 71 M 6 14 L 15 18 L 18 27 L 25 32 L 24 36 L 30 40 L 30 46 L 35 47 L 35 55 L 26 53 L 25 57 L 40 64 L 54 104 L 55 117 L 38 92 L 32 88 L 33 83 L 9 59 L 32 81 L 57 119 L 68 174 L 68 195 L 94 195 L 93 155 L 88 163 L 88 195 L 93 196 M 90 14 L 93 16 L 93 31 L 102 31 L 101 36 L 93 42 L 93 47 L 96 47 M 141 14 L 142 20 L 145 20 L 138 28 L 138 32 L 146 32 L 146 36 L 141 40 L 134 40 L 129 48 L 139 48 L 137 55 M 87 18 L 90 24 L 95 24 M 145 18 L 142 24 L 146 24 M 136 19 L 138 33 L 133 40 L 137 41 M 178 21 L 164 42 M 13 23 L 14 24 M 86 26 L 91 33 L 93 32 L 93 41 L 96 41 M 141 26 L 140 27 M 100 27 L 102 42 L 98 46 M 12 29 L 18 36 L 30 40 L 31 47 L 35 47 L 35 55 L 51 94 L 57 122 L 70 146 L 82 179 L 80 195 L 92 196 M 86 30 L 85 37 L 96 47 M 130 30 L 131 36 L 137 41 M 146 30 L 146 36 L 137 55 M 171 30 L 164 41 M 85 31 L 84 44 L 86 50 L 93 55 L 93 63 L 85 58 L 84 52 L 87 51 L 94 55 L 93 62 L 96 63 M 89 32 L 93 33 L 95 41 M 127 37 L 127 45 L 132 45 L 126 59 L 133 59 L 132 65 L 128 68 M 131 37 L 137 41 M 87 40 L 97 47 M 17 41 L 24 46 L 25 53 L 36 56 L 39 61 L 61 133 L 70 146 L 82 179 L 80 195 L 92 196 M 123 42 L 133 50 M 123 43 L 124 50 L 129 51 L 126 60 L 122 62 L 122 69 L 125 70 M 42 48 L 43 56 L 40 60 M 159 49 L 159 50 M 41 50 L 43 56 L 40 60 M 120 51 L 120 59 L 125 61 M 99 52 L 98 53 M 168 53 L 154 63 L 147 79 L 150 81 L 153 77 L 151 81 M 156 55 L 156 61 M 134 56 L 129 68 M 194 57 L 192 62 L 199 59 L 197 62 M 86 58 L 90 63 L 96 63 M 54 59 L 54 62 L 60 64 L 66 78 L 70 71 L 66 79 L 68 86 L 74 78 L 77 79 L 78 86 L 73 94 L 75 97 L 81 97 L 81 102 L 76 104 L 76 110 L 80 112 L 81 132 L 88 163 L 88 195 L 93 196 M 192 59 L 185 69 L 190 70 L 193 64 L 191 69 L 197 68 L 195 69 M 98 61 L 97 62 M 115 62 L 116 70 L 120 72 L 119 77 L 125 78 L 121 81 M 152 66 L 148 70 M 181 67 L 186 67 L 185 77 L 191 76 L 179 94 L 170 95 L 165 99 L 166 102 L 174 101 L 172 102 M 101 68 L 100 75 M 99 69 L 98 70 M 111 69 L 113 79 L 117 82 L 122 78 L 122 81 M 179 69 L 178 80 L 190 77 M 191 70 L 194 70 M 157 71 L 157 72 M 173 76 L 168 82 L 168 87 L 170 90 L 173 89 L 179 80 L 175 86 L 182 89 L 179 94 M 98 77 L 93 78 L 97 78 M 169 80 L 169 95 L 176 95 M 147 81 L 142 101 L 144 137 L 155 117 L 152 113 L 153 104 L 153 114 L 160 109 L 158 94 L 160 106 L 164 101 L 171 102 M 139 82 L 138 85 M 146 84 L 142 100 L 142 134 L 151 166 L 163 144 L 164 132 L 172 133 L 172 123 L 177 120 L 176 123 L 180 123 L 183 119 L 181 114 L 185 119 L 192 106 L 194 108 L 199 104 L 198 106 M 183 84 L 179 94 M 0 85 L 3 89 L 6 85 L 5 90 L 9 94 L 9 87 L 16 92 L 37 114 L 40 123 L 43 124 L 42 135 L 52 159 L 68 188 L 68 196 L 50 199 L 0 199 L 0 196 L 1 199 L 38 198 L 29 176 L 25 172 L 22 174 L 23 171 L 10 162 L 23 170 L 19 163 L 9 158 L 24 168 L 33 161 L 27 149 L 22 145 L 15 145 L 18 146 M 0 86 L 3 89 L 0 91 L 2 90 M 69 86 L 70 92 L 75 92 L 74 102 L 83 104 L 82 111 M 76 87 L 73 94 L 75 97 L 81 97 L 81 111 M 33 88 L 56 117 L 61 133 L 70 146 L 82 179 L 80 195 L 93 196 M 175 88 L 182 89 L 178 94 M 5 91 L 14 102 L 18 97 L 23 99 L 27 106 L 25 111 L 29 116 L 37 114 L 40 121 L 37 126 L 43 131 L 41 135 L 29 132 L 29 128 L 24 125 L 24 119 L 18 117 L 19 112 L 12 109 L 19 112 L 23 110 L 17 101 L 38 124 L 34 128 L 29 127 L 33 128 M 163 91 L 163 97 L 167 97 L 165 101 L 172 102 M 113 96 L 113 110 L 108 119 L 102 162 L 105 196 L 112 194 L 113 165 L 123 130 L 117 126 L 128 114 L 131 97 L 129 105 L 136 106 L 129 112 M 4 97 L 11 97 L 13 103 L 9 103 L 18 103 L 23 111 M 124 99 L 114 109 M 68 102 L 83 104 L 81 111 M 164 103 L 161 105 M 69 108 L 80 112 L 81 132 L 88 163 L 88 195 L 92 196 M 192 108 L 196 112 L 193 116 L 188 115 L 193 116 M 166 109 L 169 109 M 31 110 L 43 124 L 42 135 L 52 155 L 50 159 L 36 150 L 33 161 L 45 183 L 48 197 L 60 196 L 59 183 L 60 196 L 65 197 M 163 110 L 164 110 M 192 110 L 191 111 M 159 111 L 162 111 M 156 115 L 156 118 L 164 116 M 20 117 L 25 121 L 34 121 L 38 124 L 39 130 L 43 131 L 42 135 L 52 159 L 61 173 L 64 185 L 68 188 L 68 195 L 92 196 M 155 118 L 160 118 M 2 119 L 3 125 L 8 126 L 10 133 L 21 135 L 21 144 L 33 157 L 30 165 M 186 119 L 189 120 M 106 121 L 108 128 L 102 162 L 105 175 L 104 196 L 95 195 L 98 180 L 96 195 L 110 196 M 124 121 L 124 127 L 128 132 L 125 173 L 127 196 L 131 195 L 134 172 L 143 147 L 146 147 L 153 184 L 156 186 L 171 164 L 173 153 L 179 154 L 181 148 L 188 151 L 195 142 L 195 145 L 199 145 M 153 121 L 145 137 M 105 122 L 94 144 L 93 185 L 95 195 L 109 196 M 123 122 L 122 123 M 0 123 L 9 130 L 8 135 L 2 134 L 8 135 M 119 124 L 118 127 L 125 128 L 128 132 L 128 142 L 121 154 M 179 124 L 185 126 M 25 125 L 34 128 M 177 125 L 173 132 L 183 130 L 180 132 M 0 126 L 0 129 M 31 132 L 44 137 L 52 159 L 68 188 L 68 195 L 92 196 M 99 132 L 93 150 L 94 194 L 110 196 M 165 132 L 164 139 L 169 134 L 168 140 L 176 139 L 178 133 L 178 137 M 15 134 L 15 139 L 21 141 L 33 157 L 48 196 L 66 197 M 20 135 L 21 144 L 33 157 L 42 176 L 48 196 L 65 197 M 9 140 L 21 141 L 33 157 L 48 196 L 66 197 M 35 147 L 38 147 M 162 147 L 151 167 L 143 196 L 154 197 L 155 187 L 155 196 L 160 198 L 162 181 L 162 199 L 198 199 L 199 194 L 198 199 M 194 147 L 199 149 M 35 148 L 54 161 L 68 188 L 69 196 L 92 196 M 122 150 L 121 154 M 186 151 L 182 156 L 187 158 M 189 151 L 192 153 M 141 152 L 132 181 L 132 196 L 199 199 M 183 153 L 178 158 L 179 165 L 172 163 L 176 160 M 180 154 L 178 165 M 0 155 L 4 157 M 116 157 L 112 172 L 113 196 L 199 199 M 174 162 L 174 165 L 178 165 M 171 165 L 161 180 L 161 198 L 198 199 M 101 167 L 99 176 M 66 168 L 68 195 L 92 196 M 24 170 L 32 180 L 38 198 L 49 199 M 149 176 L 143 191 L 144 197 L 199 199 M 58 177 L 58 178 M 153 185 L 158 185 L 156 186" 
        fill="none" 
        stroke="black" 
        stroke-width="1.5" 
        stroke-linecap="round" 
        stroke-linejoin="round"
        vector-effect="non-scaling-stroke"/>
</svg>