<svg xmlns="http://www.w3.org/2000/svg" viewBox="0 0 200 200" width="200" height="200">
  <rect width="100%" height="100%" fill="white"/>
  <path d="M 2 0 L 199 0 L 199 4 M 0 1 L 24 14 L 49 14 L 54 6 L 64 6 L 74 11 L 86 27 L 108 7 L 115 11 L 122 24 L 154 6 L 161 6 L 165 13 L 170 15 L 185 9 L 197 8 L 199 33 L 194 46 L 199 47 M 0 2 L 0 5 M 6 5 L 25 15 L 24 42 L 34 62 L 52 70 L 64 82 L 71 81 L 66 63 L 61 60 L 41 32 L 65 62 L 64 47 L 70 79 L 86 92 L 90 85 L 91 70 L 86 63 L 81 44 L 51 18 L 51 13 L 51 18 L 65 30 L 66 24 L 67 31 L 76 40 L 82 39 L 86 28 L 80 43 L 91 70 L 94 67 L 96 48 L 102 30 L 96 48 L 95 67 L 119 44 L 122 25 L 119 44 L 134 45 L 149 24 L 135 44 L 139 76 L 150 73 L 157 62 L 165 27 L 165 14 L 169 14 L 169 18 M 54 7 L 51 10 L 51 18 L 76 40 L 81 41 L 86 63 L 92 70 L 88 95 L 97 110 L 103 111 L 110 83 L 119 67 L 109 86 L 103 109 L 107 109 L 139 77 L 121 93 M 161 7 L 166 14 L 173 15 M 111 8 L 123 24 L 119 35 L 119 45 L 123 45 M 151 8 L 144 11 M 106 9 L 101 13 M 197 9 L 198 33 M 74 12 L 86 27 L 80 43 L 86 63 L 92 70 L 89 98 L 97 110 L 103 112 L 105 156 L 110 153 L 124 122 L 140 103 L 121 127 L 112 145 L 113 149 L 126 142 L 147 137 L 159 117 L 162 88 L 159 80 L 151 73 L 159 79 L 163 95 L 186 73 L 166 94 M 98 15 L 88 26 M 139 15 L 138 16 M 10 20 L 24 35 L 24 40 L 5 35 L 0 37 L 0 28 L 1 35 L 24 41 L 34 60 L 33 63 L 13 62 L 4 70 L 6 88 L 17 106 L 28 110 L 49 125 L 50 104 L 23 83 L 49 102 L 53 85 L 62 81 L 71 82 L 88 92 L 97 110 L 103 112 L 103 154 L 106 156 L 98 173 L 101 199 L 119 176 L 149 153 L 146 154 M 188 23 L 165 48 L 161 46 L 164 48 M 12 24 L 24 35 L 24 42 L 36 64 L 55 72 L 64 82 L 72 82 L 88 92 L 97 110 L 103 112 L 103 154 L 106 156 L 99 170 L 78 147 L 55 138 L 37 138 L 27 145 L 27 156 L 34 174 L 41 186 L 56 199 L 98 198 L 77 177 L 50 159 L 78 177 L 99 199 L 145 199 L 148 189 L 162 176 L 169 148 L 167 137 L 149 136 L 169 137 L 194 120 M 183 27 L 182 29 M 174 36 L 165 48 M 194 47 L 199 53 M 117 48 L 110 53 M 191 49 L 199 53 M 188 50 L 162 63 L 158 62 L 161 63 M 161 51 L 157 61 L 162 63 M 187 51 L 186 52 M 184 52 L 187 52 M 7 57 L 12 62 L 32 63 M 106 57 L 98 66 M 171 57 L 172 57 M 9 58 L 13 62 L 33 63 M 169 58 L 168 60 M 8 64 L 3 73 L 0 74 L 0 71 L 6 82 L 6 86 L 2 86 L 6 87 L 14 103 L 0 107 L 7 106 M 155 65 L 151 73 L 161 83 L 161 113 L 198 100 L 199 84 L 199 104 M 55 84 L 49 102 L 49 126 L 53 138 L 79 147 L 94 160 L 86 136 L 66 104 L 81 126 L 92 149 L 96 168 L 100 170 L 98 174 L 101 199 L 174 199 L 178 193 L 199 178 L 199 171 L 199 181 M 114 101 L 105 110 M 23 109 L 50 125 L 56 139 L 79 147 L 94 161 L 96 168 L 100 170 L 98 174 L 101 199 L 198 199 L 199 195 L 198 199 M 156 122 L 149 135 L 169 137 L 170 145 L 181 141 L 194 141 L 199 135 L 199 140 M 4 123 L 31 139 L 27 145 L 27 155 L 10 152 L 0 154 L 6 153 M 189 123 L 184 126 M 12 128 L 33 140 M 181 128 L 178 130 M 0 140 L 9 152 L 27 155 L 41 187 L 55 197 L 0 199 L 17 198 L 0 182 L 0 177 L 4 186 L 18 199 L 199 199 M 196 140 L 199 145 M 0 143 L 11 153 L 27 155 L 41 186 L 35 186 L 13 172 L 11 170 L 30 183 L 52 193 L 56 199 L 199 199 M 126 143 L 119 147 M 196 144 L 199 145 M 112 150 L 108 155 M 189 158 L 164 175 M 174 168 L 173 170 M 170 171 L 169 173 M 122 174 L 108 190 L 104 199 L 198 199 M 195 181 L 190 185 M 156 183 L 153 185 M 150 188 L 146 194 L 147 199 L 199 199 M 183 191 L 180 192 M 177 196 L 176 199 L 198 199" 
        fill="none" 
        stroke="black" 
        stroke-width="1.5" 
        stroke-linecap="round" 
        stroke-linejoin="round"
        vector-effect="non-scaling-stroke"/>
</svg>