<svg xmlns="http://www.w3.org/2000/svg" viewBox="0 0 200 200" width="200" height="200">
  <rect width="100%" height="100%" fill="white"/>
  <path d="M 0 0 L 9 0 M 25 0 L 142 0 M 174 0 L 178 0 L 188 14 L 194 27 L 194 35 L 185 44 L 175 47 L 164 46 L 160 50 L 158 116 L 170 122 L 180 132 L 188 146 L 190 162 L 182 173 L 163 176 L 162 185 L 167 199 L 198 199 L 199 195 L 198 199 M 196 0 L 199 2 M 26 1 L 13 13 L 0 34 L 1 49 L 10 54 L 23 55 L 26 52 L 24 50 L 17 50 L 26 51 L 28 45 L 12 45 L 11 49 L 5 46 L 5 42 L 18 33 L 40 28 L 71 30 L 75 36 L 69 45 L 76 43 L 81 37 L 81 30 L 73 16 L 58 1 L 72 14 L 81 30 L 80 40 L 74 44 M 133 1 L 114 23 L 111 31 L 113 43 L 119 44 L 116 37 L 123 29 L 148 21 L 166 21 L 180 25 L 188 31 L 187 37 L 181 40 M 24 2 L 23 4 M 179 4 L 188 14 L 194 27 L 194 35 L 189 42 M 20 5 L 0 33 L 0 49 L 10 54 L 22 55 M 129 5 L 126 8 M 116 19 L 111 31 L 111 41 L 117 45 M 153 22 L 154 28 L 158 28 L 160 22 L 161 30 L 167 23 L 162 31 L 164 35 L 172 31 L 176 25 L 173 31 L 182 29 L 179 31 M 146 23 L 148 28 L 163 30 L 162 33 L 165 36 L 167 34 L 166 37 L 176 37 M 139 24 L 142 32 L 147 28 L 159 28 L 166 35 L 165 42 L 175 42 M 133 26 L 139 34 L 141 32 L 139 44 L 146 49 L 149 58 L 149 117 L 162 118 L 180 132 L 190 153 L 190 162 L 186 169 M 140 27 L 142 32 L 138 38 L 118 35 L 122 36 L 122 31 L 124 37 L 139 38 L 137 46 L 120 44 L 137 46 M 127 28 L 132 33 L 140 34 L 139 44 L 147 51 L 151 70 L 151 105 L 149 118 L 133 132 L 124 145 L 116 161 L 115 170 L 118 173 L 128 161 L 145 156 L 176 159 L 183 164 L 184 170 L 162 168 L 161 178 L 157 181 L 158 196 L 161 199 L 199 199 M 43 29 L 44 38 L 48 37 L 49 29 L 49 39 L 58 29 L 51 42 L 65 30 L 62 34 M 34 30 L 37 37 L 51 39 L 54 46 L 59 44 L 56 41 L 68 37 M 135 30 L 140 34 L 139 44 L 146 49 L 149 58 L 150 118 M 127 31 L 140 34 L 139 44 L 146 49 L 149 58 L 150 118 M 187 31 L 186 38 M 23 33 L 31 41 L 37 38 L 35 39 M 35 35 L 51 39 L 53 42 L 49 47 L 50 52 L 55 51 L 56 47 L 57 50 L 61 49 L 59 45 L 63 48 L 69 47 M 16 36 L 22 41 L 31 42 L 29 46 L 36 58 L 51 113 L 62 121 L 48 72 L 48 53 L 52 52 M 26 38 L 31 41 L 29 47 L 33 49 L 33 53 L 25 54 M 73 39 L 72 40 M 11 40 L 15 45 L 30 45 L 33 49 L 51 114 L 63 121 L 74 142 L 86 187 L 90 186 L 97 144 L 97 118 L 94 114 L 70 111 L 65 106 L 63 97 L 69 80 L 79 66 L 90 55 L 100 51 L 118 55 L 133 69 L 143 88 L 144 99 L 134 108 L 113 112 L 110 116 L 97 194 L 121 196 L 126 180 L 118 174 L 141 172 L 141 168 L 126 166 L 142 168 L 138 160 L 143 166 L 144 158 L 145 163 L 150 162 L 150 157 L 150 162 L 155 163 L 157 157 L 156 162 L 161 165 L 167 158 L 161 168 L 168 168 L 179 161 L 185 170 L 182 173 M 19 40 L 30 43 L 29 46 L 33 49 L 51 113 L 32 113 L 21 120 L 3 141 L 0 147 L 1 154 L 17 142 L 50 141 L 70 152 L 69 161 L 78 157 L 85 186 L 89 188 L 90 195 L 136 196 L 139 179 L 125 178 L 136 179 L 136 173 L 139 178 L 142 172 L 148 180 L 148 197 L 199 199 M 11 41 L 15 45 L 30 45 L 33 49 L 51 113 L 63 121 L 69 132 L 76 147 L 85 186 L 89 188 L 85 196 L 0 199 L 0 195 L 1 199 L 35 199 L 38 188 L 37 173 L 32 163 L 18 163 L 4 157 L 5 153 L 15 158 L 25 158 L 28 155 L 25 152 L 14 152 L 9 148 L 22 153 L 16 144 L 28 154 L 24 142 L 29 151 L 33 148 L 31 141 L 33 147 L 37 146 L 37 141 L 38 147 L 42 147 L 44 142 L 44 149 L 52 143 L 60 145 L 49 154 L 50 158 L 65 151 M 59 42 L 63 48 L 61 49 M 164 42 L 166 47 L 174 47 M 185 43 L 186 43 M 11 45 L 11 49 M 50 45 L 51 52 M 161 48 L 158 116 L 170 122 L 184 138 L 190 153 L 190 162 L 186 169 M 108 52 L 123 59 L 137 75 L 144 91 L 144 99 L 138 105 M 95 53 L 92 54 M 90 56 L 89 57 M 81 65 L 67 84 L 63 99 L 68 101 L 82 90 L 96 86 L 116 85 L 132 90 L 137 95 L 137 100 L 121 104 L 117 112 M 0 66 L 13 77 L 21 94 L 20 104 L 0 114 L 0 111 L 3 112 M 199 67 L 184 74 L 173 86 L 168 97 L 168 105 L 172 106 L 178 96 L 199 88 L 199 99 L 195 98 L 190 102 L 190 108 L 199 115 L 199 124 M 0 68 L 13 77 L 20 90 L 21 101 L 17 106 M 192 69 L 195 69 M 190 70 L 191 70 M 188 71 L 189 71 M 186 72 L 172 87 L 168 105 L 178 112 L 185 112 L 188 109 L 174 106 L 190 109 L 199 116 L 199 123 M 106 86 L 105 95 L 111 96 L 110 88 L 112 93 L 117 87 L 113 92 M 96 87 L 99 95 L 109 95 L 113 98 L 121 94 L 124 88 L 132 90 L 133 94 L 115 104 L 126 104 M 88 90 L 94 98 L 98 95 L 109 95 L 114 99 L 116 97 L 114 102 L 118 101 L 112 112 L 118 112 M 96 91 L 99 95 L 115 98 L 114 105 L 119 106 L 120 110 L 127 110 M 0 92 L 14 99 L 12 109 M 81 92 L 91 101 L 94 99 L 92 106 L 98 125 L 88 189 L 90 195 L 199 199 M 88 92 L 95 98 M 193 92 L 194 97 L 198 98 M 0 94 L 0 97 M 186 94 L 189 102 L 176 101 L 190 102 L 190 108 L 199 116 L 199 124 M 8 95 L 11 98 L 6 100 L 4 105 L 17 106 M 55 96 L 63 123 L 76 147 L 85 186 L 89 188 L 90 195 L 198 199 M 73 96 L 71 101 L 92 106 L 97 118 L 98 137 L 88 189 L 90 195 L 199 199 M 180 96 L 176 100 L 190 102 L 190 108 L 199 116 L 199 124 M 186 96 L 191 101 M 10 98 L 14 99 L 14 105 L 17 106 M 86 98 L 93 101 L 98 125 L 88 189 L 90 195 L 199 199 M 124 98 L 123 99 M 121 99 L 124 99 M 136 100 L 135 101 M 4 101 L 0 102 L 4 103 L 0 108 L 3 107 M 69 101 L 69 105 L 77 109 L 92 106 L 97 118 L 98 137 L 88 189 L 90 195 L 199 199 M 75 102 L 92 106 L 97 118 L 98 137 L 88 189 L 90 195 L 198 199 M 131 102 L 134 102 M 67 103 L 71 111 L 87 114 L 88 108 L 88 113 L 96 115 L 97 118 L 98 137 L 88 189 L 90 195 L 198 199 M 65 104 L 75 113 L 94 114 L 97 118 L 98 137 L 88 189 L 90 195 L 199 199 M 73 108 L 80 109 M 172 110 L 185 112 M 29 114 L 30 114 M 26 116 L 7 134 L 0 146 L 0 154 L 18 163 L 24 163 L 28 156 L 32 159 L 38 178 L 36 198 L 40 199 M 145 120 L 131 134 L 115 165 L 115 171 L 121 174 L 121 177 L 136 179 M 107 129 L 97 182 L 98 195 L 198 199 M 11 145 L 11 150 L 23 153 M 37 147 L 47 150 L 50 147 L 47 151 L 51 152 L 49 157 L 53 163 L 61 161 L 55 156 L 61 160 L 68 158 L 67 162 L 61 162 L 66 162 M 59 147 L 58 149 M 6 149 L 8 155 L 26 158 L 25 163 L 31 164 M 33 149 L 28 156 L 32 159 L 38 178 L 36 198 L 41 199 M 47 152 L 51 158 L 45 172 L 47 196 L 50 197 M 75 158 L 74 159 M 63 159 L 61 161 L 66 162 M 47 162 L 47 196 L 51 197 M 70 162 L 74 181 L 73 195 L 85 196 M 157 164 L 163 165 L 163 168 L 170 167 L 171 170 L 183 168 L 185 170 L 181 173 M 144 166 L 142 177 M 121 168 L 121 173 L 136 173 L 139 178 L 138 196 L 199 199 M 72 175 L 73 195 L 85 196 M 160 178 L 167 199 L 198 199 M 123 191 L 123 196 L 199 199 M 41 197 L 50 197" 
        fill="none" 
        stroke="black" 
        stroke-width="1.5" 
        stroke-linecap="round" 
        stroke-linejoin="round"
        vector-effect="non-scaling-stroke"/>
</svg>