<svg xmlns="http://www.w3.org/2000/svg" viewBox="0 0 200 200" width="200" height="200">
  <rect width="100%" height="100%" fill="white"/>
  <path d="M 0 0 L 177 0 M 188 0 L 199 0 L 199 12 M 0 1 L 0 4 M 37 1 L 32 9 L 15 21 L 60 47 L 111 16 L 117 15 L 122 8 L 114 1 L 125 10 L 122 40 L 148 54 L 151 48 L 153 1 L 151 48 L 155 49 M 45 1 L 61 10 L 64 9 L 63 1 L 64 9 L 71 6 L 74 1 L 71 6 M 47 4 L 62 10 M 22 6 L 22 7 M 33 7 L 32 9 M 194 8 L 199 8 L 199 12 M 122 10 L 120 12 L 125 18 L 118 20 L 118 15 L 125 15 L 124 27 L 120 29 L 122 39 L 101 58 L 102 61 L 154 90 L 199 63 L 198 65 M 192 10 L 189 14 L 199 20 L 199 23 M 27 11 L 26 12 M 16 13 L 20 16 L 11 23 L 9 39 L 6 42 L 9 50 L 7 56 L 32 73 L 26 108 L 38 117 L 56 126 L 61 120 L 58 117 L 60 48 L 59 109 L 68 115 L 75 111 L 81 112 L 92 101 L 90 75 L 98 60 L 154 90 L 153 140 L 156 143 L 162 137 L 167 136 L 170 139 L 186 132 L 187 110 L 199 103 L 199 95 L 199 107 M 188 14 L 184 33 L 190 44 L 199 52 M 187 15 L 183 34 L 155 54 L 150 54 L 158 52 M 120 28 L 123 28 L 121 35 L 125 43 L 145 53 L 154 54 M 5 29 L 11 30 L 9 38 L 0 43 L 0 55 L 7 55 L 11 60 L 29 69 L 30 73 L 0 92 L 6 87 L 3 89 M 89 30 L 86 31 M 33 32 L 61 47 L 59 109 L 72 116 L 68 116 L 67 120 L 63 119 L 57 126 M 2 34 L 0 42 L 8 44 L 9 52 M 82 34 L 77 36 M 182 34 L 175 41 M 0 36 L 2 37 M 168 36 L 172 37 L 172 42 M 168 37 L 171 42 M 119 42 L 118 43 M 158 42 L 158 48 L 162 49 M 67 43 L 62 46 M 116 45 L 115 47 M 166 45 L 165 47 M 191 46 L 199 51 M 112 48 L 111 50 M 151 49 L 154 49 M 7 50 L 8 52 M 108 51 L 107 53 M 0 56 L 0 67 M 95 66 L 90 75 L 90 97 L 114 111 L 115 130 L 123 138 L 150 152 L 159 142 L 158 145 L 166 144 L 170 139 L 166 144 M 195 66 L 192 68 M 189 70 L 184 73 M 27 73 L 30 73 M 24 75 L 23 76 M 181 75 L 176 78 M 21 77 L 20 78 M 16 80 L 15 81 M 13 82 L 10 85 M 31 82 L 22 93 L 28 96 L 26 109 L 6 124 L 4 129 L 55 155 L 114 116 L 106 124 M 28 83 L 24 90 M 92 102 L 83 111 M 97 103 L 113 110 L 115 116 L 115 131 L 108 147 L 100 153 L 102 157 L 163 186 L 199 164 L 199 167 L 194 169 M 24 109 L 57 126 M 191 109 L 199 115 M 188 110 L 186 132 L 199 144 M 21 112 L 16 119 M 75 112 L 77 113 M 196 114 L 199 116 M 67 116 L 72 116 L 70 117 M 65 118 L 66 120 M 10 121 L 9 123 M 4 125 L 0 129 L 0 162 L 18 175 L 27 188 L 29 199 L 55 198 L 54 156 L 55 198 L 85 199 L 91 169 L 97 155 L 162 185 L 165 199 L 198 199 L 199 194 L 198 199 M 0 127 L 55 155 L 55 199 L 105 197 L 104 192 L 91 185 L 86 190 L 86 198 L 103 199 M 114 131 L 143 149 L 153 152 M 113 133 L 108 147 L 101 152 M 186 133 L 181 136 M 179 136 L 179 137 M 162 138 L 157 144 L 161 145 M 196 143 L 199 145 M 154 150 L 152 152 M 3 164 L 15 174 L 0 184 L 3 181 L 1 182 M 94 164 L 90 173 L 90 184 L 101 189 L 106 195 L 127 199 L 198 199 M 14 174 L 17 174 L 24 183 L 28 193 L 28 199 L 16 199 L 103 199 M 199 174 L 199 183 M 184 175 L 179 178 M 10 176 L 9 177 M 7 178 L 6 179 M 199 186 L 199 189 M 0 196 L 1 199 L 7 199 M 113 197 L 112 199 M 105 198 L 106 199 M 118 198 L 121 199 M 0 199 L 7 199 M 117 199 L 120 199 M 125 199 L 198 199" 
        fill="none" 
        stroke="black" 
        stroke-width="1.5" 
        stroke-linecap="round" 
        stroke-linejoin="round"
        vector-effect="non-scaling-stroke"/>
</svg>