<svg xmlns="http://www.w3.org/2000/svg" viewBox="0 0 200 200" width="200" height="200">
  <rect width="100%" height="100%" fill="white"/>
  <path d="M 1 0 L 199 0 L 199 3 M 0 1 L 0 5 M 32 1 L 37 11 L 63 36 L 71 49 L 96 37 L 130 28 L 132 24 L 126 3 L 133 27 L 161 27 L 183 37 L 195 1 L 183 39 L 192 58 L 198 61 L 199 56 L 199 65 M 51 1 L 132 2 M 33 6 L 63 36 L 70 50 L 49 61 L 26 80 L 6 66 L 1 66 L 0 70 M 132 27 L 139 27 M 161 28 L 184 37 L 169 58 L 141 82 L 150 97 L 153 110 L 173 106 L 199 108 M 109 35 L 111 48 L 117 55 L 142 65 M 96 38 L 91 40 M 89 41 L 86 43 M 180 42 L 166 60 M 77 47 L 74 48 M 188 48 L 192 58 L 199 61 L 199 65 M 68 50 L 67 52 M 64 52 L 67 52 M 62 53 L 63 53 M 114 53 L 141 65 M 60 54 L 59 56 M 53 58 L 52 60 M 0 61 L 0 66 L 7 66 L 26 80 M 164 61 L 161 64 M 44 65 L 37 73 M 155 69 L 154 71 M 34 74 L 31 77 M 149 74 L 144 80 L 135 82 L 132 88 L 142 98 L 147 114 L 156 111 M 114 75 L 127 76 L 135 82 L 141 82 L 150 97 L 153 110 L 156 111 M 111 76 L 112 76 M 108 77 L 109 77 M 28 78 L 27 79 M 105 78 L 106 78 M 104 79 L 86 95 L 80 110 L 82 115 L 86 114 L 93 96 L 105 86 L 114 83 L 133 86 L 142 98 L 146 112 L 145 118 L 127 128 L 112 152 L 103 187 L 104 199 L 116 198 L 116 175 L 122 157 L 133 139 L 145 127 L 168 115 L 198 116 M 96 84 L 95 85 M 133 84 L 132 88 L 142 98 L 146 113 L 150 114 M 129 88 L 124 93 L 117 93 L 112 99 L 122 101 L 131 116 M 128 89 L 127 90 M 116 93 L 106 105 L 96 125 L 100 130 L 112 134 L 119 140 M 105 97 L 110 100 L 101 115 L 97 119 L 87 117 L 86 115 L 94 118 L 95 109 L 104 98 M 114 101 L 121 109 L 124 122 L 128 126 L 119 140 M 133 101 L 137 108 M 192 107 L 198 108 M 127 108 L 131 116 M 120 109 L 124 122 L 129 126 L 120 140 M 63 110 L 80 112 L 80 127 L 86 127 L 87 123 L 89 128 L 95 125 L 94 127 M 51 111 L 62 111 M 48 112 L 39 116 L 21 137 L 25 142 L 27 156 L 57 132 L 75 127 L 91 128 M 138 112 L 139 115 M 192 115 L 198 116 M 36 119 L 31 125 M 141 119 L 140 120 M 176 122 L 199 125 M 171 123 L 174 123 M 168 124 L 149 135 L 133 155 L 124 181 L 125 199 L 133 198 L 136 170 L 142 157 L 153 144 L 175 132 L 191 131 L 199 134 M 28 128 L 16 143 L 0 156 L 0 160 M 157 129 L 156 130 M 99 130 L 119 140 M 154 131 L 153 132 M 151 133 L 150 135 M 75 134 L 99 137 L 113 145 L 118 144 L 116 145 M 70 135 L 73 135 M 83 135 L 99 137 L 116 145 M 65 136 L 68 136 M 62 137 L 63 137 M 19 138 L 3 154 M 181 140 L 198 141 M 75 141 L 97 143 L 114 151 M 175 141 L 180 141 M 53 142 L 37 158 L 28 162 L 30 171 L 25 184 L 25 199 M 71 142 L 74 142 M 88 142 L 113 151 M 173 142 L 174 142 M 68 143 L 69 143 M 64 144 L 67 144 M 48 145 L 47 146 M 153 145 L 152 146 M 165 146 L 147 166 L 142 181 L 143 199 L 149 198 L 152 177 L 169 155 L 181 149 L 199 150 M 57 148 L 43 162 L 34 179 L 34 199 L 31 199 L 34 199 M 78 148 L 102 153 L 110 158 L 108 165 L 105 166 L 87 156 L 66 161 L 50 181 L 48 199 L 54 198 L 55 188 L 63 174 L 77 165 L 90 165 L 98 169 L 106 175 L 105 184 L 102 186 L 87 172 L 78 172 L 65 183 L 62 190 L 63 199 L 68 198 L 70 188 L 81 180 L 89 181 L 99 190 L 103 190 L 103 199 L 68 199 L 73 199 L 74 194 L 81 188 L 88 189 L 93 199 L 157 199 L 159 183 L 175 162 L 185 157 L 199 158 M 137 148 L 124 180 L 125 199 L 165 199 L 167 186 L 175 173 L 186 165 L 198 163 M 0 149 L 0 161 M 74 149 L 77 149 M 149 149 L 136 170 L 133 183 L 134 199 L 172 199 L 177 182 L 185 174 L 198 170 M 71 150 L 72 150 M 160 150 L 145 170 L 141 192 L 143 199 L 179 199 L 185 184 L 195 177 L 199 178 M 53 151 L 52 153 M 68 151 L 69 151 M 95 151 L 110 158 L 103 187 L 104 199 L 186 199 L 190 189 L 198 184 M 32 153 L 20 174 L 18 199 M 40 153 L 36 158 M 63 154 L 50 166 L 43 178 L 41 199 L 80 199 L 81 194 L 82 199 L 192 199 L 198 191 M 48 156 L 34 179 L 34 199 M 91 157 L 108 166 L 103 187 L 104 199 L 198 199 L 199 195 L 198 199 M 56 159 L 43 178 L 38 199 L 198 199 M 27 161 L 18 180 L 19 199 M 161 164 L 150 183 L 150 199 L 198 199 M 61 165 L 48 186 L 48 199 L 198 199 M 90 166 L 106 175 L 104 199 L 198 199 M 166 172 L 159 184 L 159 199 L 199 199 M 28 174 L 25 199 M 92 174 L 104 186 L 104 199 L 199 199 M 117 175 L 117 199 L 198 199 M 89 182 L 97 189 L 103 190 L 104 199 L 198 199 M 168 186 L 167 199 L 199 199 M 62 189 L 63 199 L 199 199 M 88 190 L 93 199 L 198 199 M 174 190 L 174 199 L 198 199 M 182 191 L 181 199 L 198 199 M 196 193 L 193 198 L 199 199 M 188 194 L 188 199 L 198 199 M 0 198 L 3 199 M 0 199 L 3 199" 
        fill="none" 
        stroke="black" 
        stroke-width="1.5" 
        stroke-linecap="round" 
        stroke-linejoin="round"
        vector-effect="non-scaling-stroke"/>
</svg>