<svg xmlns="http://www.w3.org/2000/svg" viewBox="0 0 200 200" width="200" height="200">
  <rect width="100%" height="100%" fill="white"/>
  <path d="M 4 0 L 197 0 L 199 4 M 4 1 L 0 6 M 27 1 L 26 22 L 29 35 L 43 70 L 57 91 L 77 89 L 84 85 L 78 80 L 62 48 L 57 28 L 57 3 L 57 28 L 62 48 L 76 76 L 85 86 L 109 77 L 124 65 L 125 60 L 105 49 L 92 36 L 81 16 L 80 3 L 81 16 L 90 33 L 106 49 L 126 61 L 162 65 L 198 55 M 51 1 L 86 2 L 90 18 L 99 32 L 113 45 L 130 53 L 168 57 L 184 53 L 198 44 M 130 1 L 132 8 L 139 15 L 151 19 L 167 15 L 174 9 L 177 1 L 175 8 L 168 14 M 139 1 L 139 5 L 150 12 L 161 11 L 169 1 L 164 9 M 146 1 L 149 6 L 157 6 L 160 1 L 157 6 M 186 1 L 176 18 L 156 26 L 145 25 L 131 18 L 122 3 L 125 11 L 134 20 L 155 26 M 0 2 L 2 3 M 96 3 L 99 16 L 106 27 L 120 39 L 135 46 L 164 49 L 183 44 L 199 32 L 198 34 M 104 3 L 109 17 L 120 30 L 132 37 L 150 42 L 178 37 L 194 25 L 199 14 L 198 19 M 113 3 L 117 15 L 125 24 L 150 34 L 175 29 L 189 17 L 195 3 L 199 5 M 184 6 L 176 18 M 194 9 L 181 25 M 114 10 L 129 27 L 144 33 L 159 34 M 144 10 L 155 12 M 88 13 L 102 36 L 118 48 L 142 56 L 168 57 M 98 14 L 105 26 L 125 42 L 144 48 L 163 49 M 166 16 L 161 18 M 145 18 L 154 19 M 110 19 L 120 30 L 132 37 L 160 42 M 173 19 L 172 20 M 165 23 L 168 23 M 163 24 L 164 24 M 179 27 L 176 28 M 175 38 L 172 39 M 41 66 L 65 106 L 87 131 L 106 118 L 112 109 L 95 97 L 86 86 L 91 93 L 114 110 L 158 85 L 198 70 M 121 68 L 120 69 M 112 75 L 109 77 M 0 80 L 1 84 L 20 88 L 66 91 M 165 83 L 162 84 M 0 84 L 0 87 M 84 86 L 83 87 M 158 86 L 153 88 M 32 90 L 65 91 M 140 95 L 139 96 M 135 98 L 130 101 M 60 99 L 88 132 L 97 149 L 105 174 L 108 199 L 130 198 L 130 174 L 135 158 L 158 127 L 117 113 L 116 109 L 117 113 L 158 127 L 180 115 L 199 112 M 127 103 L 120 107 M 112 111 L 107 117 M 0 117 L 18 118 L 35 125 L 46 133 L 62 152 L 87 133 L 83 137 M 0 118 L 12 117 L 29 122 L 55 142 L 65 159 L 70 199 L 136 199 L 139 170 L 148 152 L 163 135 L 159 128 L 141 148 L 130 174 L 130 198 L 143 199 L 144 179 L 158 151 L 178 134 L 199 128 M 176 118 L 173 119 M 194 119 L 199 120 M 190 120 L 193 120 M 102 121 L 101 122 M 187 121 L 171 129 L 161 138 M 184 122 L 187 122 M 182 123 L 183 123 M 0 126 L 16 127 L 32 134 L 54 156 L 63 155 L 65 159 L 69 176 L 69 199 L 21 199 L 24 198 L 24 189 L 19 178 L 7 169 L 0 169 L 7 169 L 19 178 L 25 199 L 31 198 L 28 178 L 16 165 L 0 160 L 10 162 L 24 172 L 31 186 L 32 199 L 37 199 L 39 194 L 36 175 L 21 158 L 0 152 L 16 155 L 32 168 L 38 180 L 39 199 L 46 198 L 45 175 L 37 161 L 27 152 L 16 146 L 0 143 L 17 146 L 38 162 L 46 179 L 47 199 L 54 198 L 53 176 L 47 161 L 34 146 L 21 138 L 0 134 L 21 138 L 43 155 L 52 172 L 55 199 L 61 199 L 63 191 L 57 158 L 62 178 L 63 199 L 150 199 L 151 196 M 96 126 L 89 131 M 0 127 L 15 127 L 32 134 L 58 157 M 159 127 L 164 134 L 161 138 M 199 137 L 179 144 L 161 161 L 151 183 L 152 199 L 159 198 L 159 182 L 168 164 L 182 151 L 198 146 M 79 139 L 76 141 M 189 139 L 192 139 M 187 140 L 188 140 M 184 141 L 187 141 M 93 143 L 103 165 L 108 199 L 166 199 L 166 184 L 172 171 L 184 159 L 199 154 L 196 155 M 156 143 L 145 157 L 137 177 L 138 199 L 173 199 L 175 180 L 180 172 L 188 165 L 198 162 M 69 148 L 66 150 M 173 148 L 172 150 M 180 163 L 179 164 M 176 167 L 168 178 L 166 196 L 168 199 L 177 199 M 166 168 L 159 182 L 159 198 L 176 199 M 156 169 L 151 182 L 151 198 L 176 199 M 197 170 L 199 171 M 194 171 L 195 171 M 191 173 L 182 183 L 182 199 M 189 174 L 180 189 L 181 199 M 0 175 L 6 176 L 14 183 L 19 199 L 0 199 L 0 194 L 1 199 L 5 197 L 4 191 L 0 188 L 4 191 L 5 199 L 11 198 L 10 188 L 0 181 L 10 188 L 12 199 L 19 199 M 0 176 L 6 176 L 14 183 L 19 199 M 199 177 L 187 188 L 188 199 M 145 179 L 145 199 L 176 199 M 176 180 L 173 191 L 174 198 L 177 199 M 199 185 L 193 193 L 193 198 L 198 199 L 199 195 L 199 199 M 188 186 L 188 199 M 197 187 L 191 199 L 199 199" 
        fill="none" 
        stroke="black" 
        stroke-width="1.5" 
        stroke-linecap="round" 
        stroke-linejoin="round"
        vector-effect="non-scaling-stroke"/>
</svg>