<svg xmlns="http://www.w3.org/2000/svg" viewBox="0 0 200 200" width="200" height="200">
  <rect width="100%" height="100%" fill="white"/>
  <path d="M 2 0 L 86 3 L 199 0 L 199 11 M 0 1 L 0 5 M 38 1 L 40 8 L 48 6 L 48 11 L 42 9 L 44 7 L 42 9 L 46 12 M 50 1 L 85 2 L 87 6 M 146 1 L 144 13 L 150 13 L 153 8 L 148 1 L 153 9 L 159 1 L 161 13 L 170 11 L 164 1 L 170 9 L 176 1 L 182 8 L 183 1 L 183 14 L 192 17 L 198 7 L 193 20 L 199 19 L 199 23 M 195 1 L 196 4 M 0 2 L 1 2 M 145 2 L 144 6 L 136 11 L 138 16 L 141 17 L 143 13 L 156 15 L 154 9 L 157 13 L 163 13 L 166 19 L 170 18 L 170 12 L 170 18 L 174 22 L 182 15 L 191 16 L 191 30 L 199 33 M 159 2 L 154 8 L 155 11 L 165 13 M 176 2 L 172 8 M 183 2 L 183 14 L 199 22 M 124 3 L 124 10 L 119 8 L 122 4 L 120 6 M 133 3 L 134 11 L 139 8 L 139 3 L 144 13 L 151 13 L 148 20 L 150 27 L 160 26 L 157 15 L 160 21 L 165 20 M 17 5 L 19 9 M 124 6 L 124 10 M 11 9 L 13 12 M 0 11 L 4 11 L 5 14 L 0 15 L 0 12 L 4 15 M 104 11 L 106 16 L 102 15 L 103 12 L 102 15 L 105 16 M 132 11 L 134 17 L 140 17 L 137 27 L 141 32 L 146 33 L 149 28 L 147 34 L 152 41 L 158 39 L 159 28 L 172 29 L 176 21 L 176 28 L 189 31 M 131 12 L 132 16 L 136 17 M 64 16 L 68 16 L 69 19 L 64 23 L 63 17 L 62 21 L 66 23 M 142 17 L 149 19 L 150 27 L 173 29 L 174 43 L 184 38 L 184 32 L 185 39 L 190 39 L 192 32 L 199 34 M 182 17 L 179 19 M 12 18 L 16 19 L 15 25 L 11 24 L 11 20 L 15 25 M 139 19 L 137 27 L 141 35 L 137 37 L 136 43 L 138 47 L 146 49 L 152 42 L 147 48 L 149 58 L 160 61 L 167 51 L 167 47 L 157 41 L 166 46 L 172 44 M 170 19 L 175 22 L 174 27 L 189 31 M 123 22 L 128 22 L 126 28 L 122 23 L 126 28 M 58 26 L 62 29 M 56 28 L 58 32 M 87 30 L 89 35 L 84 35 L 86 31 L 84 34 L 88 36 M 45 31 L 48 34 M 56 32 L 59 32 M 139 35 L 140 35 M 74 37 L 82 40 L 83 44 L 73 43 L 73 38 L 75 44 L 79 40 L 83 41 L 82 44 M 132 37 L 137 37 L 135 43 L 130 40 L 131 38 L 130 41 L 137 44 L 132 53 L 134 60 L 141 63 L 150 58 L 155 61 L 153 72 L 161 74 L 166 71 L 166 66 L 159 67 M 148 37 L 167 46 L 167 52 L 174 55 L 179 53 L 178 44 L 179 52 L 189 56 L 196 46 L 191 39 L 196 46 L 199 43 L 199 47 M 35 38 L 40 38 L 44 42 L 53 42 L 59 38 L 62 46 L 68 45 L 69 50 L 75 51 L 78 55 L 80 53 L 78 55 M 34 39 L 33 45 L 37 48 L 40 47 L 40 41 L 41 47 L 44 43 L 43 51 L 47 55 L 55 52 L 54 42 L 56 51 L 62 47 L 61 50 L 66 55 L 70 52 L 67 59 L 74 65 L 87 65 L 96 57 L 98 60 M 114 39 L 118 41 L 113 43 L 113 40 L 117 43 M 184 39 L 181 41 M 33 40 L 33 45 L 38 48 M 135 49 L 132 58 L 140 63 M 3 51 L 8 52 L 8 57 L 0 57 L 0 53 L 3 52 L 1 54 M 195 51 L 199 51 L 199 54 M 7 52 L 9 55 L 6 58 M 43 52 L 41 58 L 46 59 L 47 56 L 50 65 L 58 62 L 56 52 L 58 63 L 66 59 L 72 62 L 75 76 L 86 75 L 86 66 L 87 74 L 95 72 L 96 67 L 92 63 L 96 66 L 97 72 L 107 73 M 41 53 L 42 53 M 166 53 L 161 59 L 163 66 L 172 66 L 175 56 L 174 64 L 179 68 L 186 68 L 189 65 L 190 56 L 191 62 L 198 62 L 199 59 L 199 64 M 193 53 L 192 54 M 34 55 L 40 55 L 40 63 L 44 67 L 49 65 L 47 66 M 184 55 L 190 56 L 190 61 L 199 62 L 199 65 M 33 56 L 34 63 L 41 62 L 42 66 L 46 67 M 3 57 L 6 58 M 32 57 L 34 63 L 46 67 M 124 57 L 127 57 L 127 61 L 123 61 L 123 58 L 126 61 M 94 59 L 92 62 L 96 66 L 96 72 L 104 75 L 106 83 L 113 84 M 146 60 L 144 66 L 151 70 L 150 78 L 158 79 L 160 75 L 158 79 M 64 61 L 63 62 M 61 64 L 65 73 L 73 72 L 73 86 L 76 91 L 86 90 L 89 85 L 89 74 L 90 86 L 96 88 L 104 84 M 83 65 L 87 65 L 86 73 L 89 74 L 89 86 L 85 93 L 93 94 L 95 89 L 98 96 L 104 98 L 109 93 L 108 84 L 110 92 L 116 92 L 117 87 L 116 92 L 121 96 L 121 103 L 117 109 L 120 113 L 127 114 L 130 121 L 121 123 L 120 130 L 113 132 L 114 137 L 109 142 L 103 139 L 94 140 L 89 147 L 86 143 L 93 140 L 90 136 L 71 138 L 69 121 L 73 116 L 70 112 L 72 105 L 77 101 L 74 95 L 65 97 L 62 93 L 64 73 L 63 81 L 73 84 L 78 102 L 83 100 L 85 94 L 82 102 L 85 109 L 94 110 L 99 99 L 105 98 L 109 108 L 120 105 L 117 108 L 117 121 L 127 123 M 174 65 L 180 69 L 178 77 L 170 78 L 166 72 L 171 78 L 176 78 M 19 67 L 22 67 L 24 72 L 17 73 L 19 68 L 17 73 L 23 74 M 144 67 L 162 74 M 153 67 L 153 72 L 162 74 M 187 68 L 191 74 L 198 75 L 199 72 L 199 75 M 114 70 L 115 75 M 60 71 L 59 74 L 54 74 L 58 74 M 59 72 L 59 74 M 189 73 L 198 75 M 179 75 L 178 77 M 154 80 L 155 83 M 127 83 L 131 83 L 132 86 L 126 87 L 127 84 L 126 86 L 131 88 M 165 84 L 169 85 L 167 91 L 163 86 L 165 85 L 163 88 L 167 91 M 168 85 L 168 90 M 193 86 L 195 92 L 190 91 L 192 87 L 190 90 L 195 92 M 0 88 L 1 88 M 146 88 L 149 88 L 149 94 L 144 93 L 145 89 L 144 92 L 148 94 M 49 91 L 52 91 L 52 94 L 49 92 L 51 94 M 95 93 L 105 98 L 104 103 L 109 108 L 109 121 L 126 123 M 117 94 L 121 96 L 121 103 L 117 109 L 130 117 L 128 122 M 64 95 L 68 97 M 108 95 L 107 96 M 21 98 L 24 98 L 25 102 L 19 102 L 20 99 L 19 102 L 23 103 M 4 102 L 6 106 L 2 106 L 3 103 L 5 106 M 129 102 L 130 103 M 100 103 L 105 103 L 109 109 L 106 117 L 97 119 L 97 128 L 106 130 L 109 128 L 109 122 L 109 128 L 118 131 M 99 104 L 94 110 L 98 117 L 127 123 M 73 105 L 70 113 L 74 117 L 84 108 L 94 110 L 98 117 L 107 117 L 109 121 L 126 123 M 54 108 L 59 111 L 56 116 L 52 115 L 51 111 L 53 109 L 51 113 L 55 116 M 131 108 L 131 109 M 164 110 L 166 114 L 162 114 L 163 111 L 165 115 M 29 111 L 34 113 L 34 117 L 25 122 L 24 129 L 31 130 L 36 124 L 41 127 L 46 123 L 50 124 L 57 146 L 68 147 L 67 153 L 62 153 L 60 149 L 62 147 L 60 151 L 68 152 L 66 153 M 82 111 L 75 117 L 77 126 L 83 131 L 95 128 L 102 130 L 102 138 L 109 142 M 28 112 L 27 119 L 24 122 L 23 120 L 23 130 L 30 130 L 34 138 L 41 138 L 42 130 L 38 130 M 5 113 L 9 115 L 8 122 L 14 123 L 15 131 L 21 132 M 3 114 L 2 117 L 9 120 L 9 131 L 19 133 L 21 144 L 33 138 L 26 144 L 30 157 L 45 157 L 48 143 L 42 138 L 55 138 L 57 147 L 53 153 L 59 157 L 57 166 L 63 167 L 65 171 L 61 181 L 69 183 L 70 179 L 74 178 L 75 181 L 70 183 L 73 183 M 2 115 L 1 117 L 9 120 L 9 123 L 14 123 L 20 140 L 16 156 L 28 156 L 26 160 L 29 168 L 34 168 L 38 159 L 39 163 L 47 163 L 46 157 L 53 155 M 8 115 L 8 122 L 14 123 L 15 131 L 19 133 L 20 143 L 27 145 L 28 155 L 39 158 L 39 163 L 63 167 L 63 176 M 0 116 L 0 124 L 8 125 L 8 143 L 18 145 L 13 164 L 16 171 L 23 171 L 27 167 L 33 168 L 35 178 L 47 181 L 53 177 L 53 167 L 53 177 L 62 178 L 60 189 L 67 189 L 68 184 L 70 193 L 74 190 L 78 192 L 77 199 L 164 199 M 73 118 L 69 125 L 80 128 L 81 136 L 84 137 M 190 119 L 199 123 M 189 120 L 189 128 L 194 128 L 196 123 L 199 123 M 0 125 L 0 128 M 44 125 L 41 128 L 47 130 M 140 125 L 141 136 L 153 137 L 155 144 L 162 145 L 168 159 L 162 163 L 158 162 L 150 175 L 144 175 L 140 166 L 129 169 L 124 167 L 128 169 M 137 127 L 139 134 L 135 135 L 133 142 L 138 145 L 142 138 L 139 144 L 146 149 L 152 148 L 154 144 L 162 145 L 161 151 L 168 155 L 164 162 M 109 129 L 118 131 M 128 129 L 144 137 M 195 129 L 198 134 M 127 130 L 127 138 L 134 140 L 136 145 L 130 157 L 132 159 L 140 158 L 139 145 L 147 149 L 150 156 L 157 155 L 153 148 L 159 152 M 132 130 L 135 134 L 145 137 M 89 132 L 93 140 L 98 140 M 196 134 L 195 138 L 199 141 M 190 136 L 194 138 L 189 140 L 189 137 L 189 140 L 193 139 L 191 140 M 0 137 L 1 140 L 8 140 L 7 153 L 18 158 L 27 158 L 27 166 L 34 168 L 34 177 L 26 179 L 30 190 L 37 188 L 39 182 L 40 191 L 46 192 L 48 181 L 49 190 L 60 190 L 65 197 L 69 193 L 78 195 L 76 199 L 16 199 L 21 198 L 15 191 L 14 199 L 0 199 L 0 195 L 1 199 L 5 198 L 6 192 L 1 187 L 0 189 L 3 178 L 0 178 L 0 148 L 1 153 L 27 158 L 27 166 L 34 168 L 34 177 L 39 181 L 48 181 L 48 191 M 122 138 L 126 138 L 126 143 M 47 139 L 48 148 L 54 149 L 53 153 L 59 157 L 57 166 L 63 167 L 63 176 M 121 139 L 121 145 L 125 149 L 136 146 L 131 155 L 124 160 M 0 140 L 0 143 M 56 147 L 61 148 L 62 153 L 67 153 M 67 147 L 67 153 M 126 150 L 131 158 L 131 167 L 137 167 L 139 160 L 139 166 L 146 164 L 147 159 L 141 158 L 149 156 L 156 156 L 161 162 M 126 154 L 132 159 L 139 160 L 138 165 L 141 166 L 143 174 L 150 175 M 1 158 L 2 163 L 13 164 L 12 179 L 15 186 L 26 184 L 33 199 L 41 199 L 43 193 L 43 199 L 51 199 L 51 191 L 53 199 L 58 198 L 58 192 L 59 199 L 67 196 L 66 199 L 164 199 M 79 160 L 82 160 L 84 165 L 77 166 L 78 161 L 77 165 L 83 167 M 82 161 L 83 167 M 148 163 L 155 165 L 152 166 L 153 172 L 150 175 M 25 170 L 25 177 L 33 178 M 12 174 L 11 177 L 4 178 M 53 178 L 72 183 M 103 178 L 108 179 L 107 186 L 100 185 L 102 179 M 74 179 L 73 183 M 107 179 L 106 186 M 13 181 L 17 187 L 16 192 L 22 199 L 29 192 L 25 199 L 163 199 M 101 185 L 106 186 M 3 188 L 6 192 L 16 191 L 22 199 L 163 199 M 68 189 L 77 196 L 77 199 L 163 199 M 199 189 L 199 192 M 39 190 L 43 193 L 43 199 L 163 199 M 60 191 L 66 199 L 163 199 M 170 191 L 181 193 L 184 199 L 181 199 L 184 199 M 170 192 L 170 199 L 174 199 L 176 193 L 181 193 L 183 199 M 199 197 L 193 199 L 198 199 M 167 199 L 178 199" 
        fill="none" 
        stroke="black" 
        stroke-width="1.5" 
        stroke-linecap="round" 
        stroke-linejoin="round"
        vector-effect="non-scaling-stroke"/>
</svg>