<svg xmlns="http://www.w3.org/2000/svg" viewBox="0 0 200 200" width="200" height="200">
  <rect width="100%" height="100%" fill="white"/>
  <path d="M 2 0 L 39 0 L 47 7 L 107 2 L 122 9 L 131 9 L 137 4 L 153 0 L 199 0 L 199 10 M 7 1 L 0 6 L 0 11 M 15 1 L 19 17 L 31 16 L 37 21 L 43 20 L 47 16 L 47 8 L 47 17 L 58 25 L 62 24 L 66 15 L 78 16 L 78 6 L 79 15 L 87 23 L 101 22 L 106 16 L 106 26 L 110 27 L 121 9 L 111 26 M 162 1 L 162 14 L 172 21 L 184 15 L 185 1 L 184 16 L 191 24 L 198 24 L 199 14 L 199 31 M 0 2 L 0 10 M 6 2 L 5 4 M 38 2 L 49 7 M 137 5 L 132 9 L 141 21 L 152 21 L 161 14 L 156 19 M 66 16 L 61 26 L 67 27 L 72 20 L 68 26 L 72 27 M 79 16 L 91 28 L 90 44 L 102 43 L 107 36 L 107 28 L 107 36 L 102 43 M 18 17 L 11 28 L 14 36 L 23 38 L 37 21 L 33 26 M 46 18 L 43 20 M 187 19 L 190 25 L 184 29 L 174 29 L 168 43 L 172 49 L 170 59 L 178 68 L 179 80 L 176 87 L 163 99 L 175 107 L 198 104 L 199 100 L 199 108 M 0 20 L 2 28 L 12 27 L 13 35 L 0 44 L 2 61 L 11 66 L 21 61 L 26 53 L 24 38 L 25 52 L 31 61 L 42 67 L 58 69 L 62 65 L 67 54 L 56 55 L 55 49 L 58 46 L 63 48 L 61 56 M 16 20 L 11 28 L 12 36 L 24 38 L 25 55 M 139 20 L 143 37 L 139 50 L 141 55 L 146 54 L 153 43 L 153 21 L 153 42 L 168 43 L 172 49 L 169 59 L 155 61 L 146 71 L 147 91 L 162 99 L 166 96 L 163 99 L 173 104 L 174 108 L 168 113 L 168 128 L 175 125 L 176 108 L 176 126 L 186 129 L 193 124 L 187 107 L 190 120 L 194 124 L 199 123 L 199 116 L 199 133 M 169 20 L 174 21 L 175 29 L 185 28 M 52 22 L 66 28 L 69 39 L 76 39 L 78 32 L 82 32 L 79 39 M 102 22 L 110 27 M 189 25 L 188 27 M 0 27 L 0 65 M 90 28 L 89 44 L 79 46 L 75 50 L 75 54 L 83 59 L 84 66 L 92 68 L 100 61 L 103 55 L 98 45 L 103 55 L 104 51 L 106 55 L 132 58 L 135 54 L 140 54 L 138 63 L 146 71 L 147 79 L 147 92 L 141 98 L 141 106 L 144 111 L 154 109 L 159 106 L 161 99 L 161 108 L 167 112 L 174 108 L 169 112 M 123 31 L 128 33 L 124 38 L 122 32 L 122 36 L 126 38 M 81 36 L 81 38 M 10 38 L 9 39 M 68 39 L 67 54 L 75 54 L 83 59 L 83 74 L 88 75 L 90 69 L 86 93 L 95 107 L 123 108 L 131 103 L 140 102 L 148 128 L 169 128 L 173 137 L 179 136 L 182 130 L 176 138 L 178 149 L 198 157 L 199 147 L 199 182 M 169 40 L 168 44 L 172 49 L 170 59 L 179 71 L 178 83 L 170 93 M 4 41 L 5 41 M 141 44 L 140 59 L 133 59 L 139 61 L 139 65 L 146 71 L 146 92 L 159 96 L 175 107 L 187 107 L 190 120 L 194 124 L 191 126 M 152 45 L 148 53 L 154 62 L 147 70 M 77 47 L 75 54 L 83 59 L 85 67 L 92 68 M 158 51 L 162 52 L 163 59 L 170 59 L 179 71 L 178 83 L 169 93 M 157 52 L 157 54 M 56 54 L 61 56 M 105 55 L 120 55 L 139 61 L 140 66 L 146 71 L 147 91 L 175 107 L 187 107 L 190 120 L 194 124 L 199 124 L 199 134 M 135 55 L 133 59 L 139 61 L 140 66 L 146 71 L 147 91 L 175 107 L 187 107 L 190 120 L 194 124 L 199 124 L 199 133 M 28 56 L 30 61 L 21 62 L 27 62 M 103 56 L 94 67 M 67 58 L 59 69 L 63 77 L 67 80 L 81 74 L 88 75 L 87 97 L 71 98 L 61 106 L 60 113 L 63 120 L 75 124 L 83 123 L 95 109 L 85 121 L 83 131 L 83 136 L 91 145 L 105 150 L 114 145 L 119 139 L 120 124 L 112 110 L 120 124 L 127 124 L 130 121 L 127 107 L 128 119 L 130 121 L 143 118 L 148 128 L 143 135 L 136 138 L 134 145 L 135 159 L 139 164 L 150 170 L 168 168 L 172 165 L 178 150 L 171 167 L 178 173 L 189 172 L 198 167 L 193 170 M 32 62 L 42 67 L 45 77 L 55 69 L 52 73 M 9 65 L 11 69 L 4 82 L 18 102 L 27 102 L 37 96 L 44 89 L 45 78 L 45 90 L 54 93 L 68 80 L 70 97 L 84 98 M 0 75 L 1 81 L 7 78 L 4 82 L 11 96 L 17 100 L 13 114 L 18 121 L 24 121 L 31 114 L 31 100 L 29 107 L 32 115 L 49 119 L 61 114 L 61 128 L 70 132 L 72 125 L 71 137 L 83 136 L 92 146 L 106 150 L 110 167 L 121 169 L 136 160 L 144 168 L 156 171 L 155 180 L 149 179 L 147 175 L 149 179 L 155 180 M 32 75 L 37 77 L 37 86 L 32 87 L 29 84 L 32 76 L 29 84 L 35 87 M 157 77 L 163 82 L 161 85 L 154 83 L 157 78 L 154 82 L 161 85 M 161 79 L 161 85 M 0 81 L 0 86 M 66 82 L 63 84 M 109 83 L 112 85 M 106 84 L 107 84 M 110 84 L 113 86 M 103 86 L 104 85 M 133 87 L 134 93 L 128 94 L 122 100 L 118 99 L 115 92 L 103 95 L 100 91 L 105 95 M 118 88 L 124 88 L 127 94 L 130 94 M 117 89 L 116 95 L 122 100 M 44 90 L 56 92 L 60 105 L 68 101 L 64 104 M 116 90 L 116 95 L 121 100 M 143 95 L 140 103 L 147 127 L 169 128 L 170 134 L 177 137 M 56 98 L 62 105 M 124 98 L 123 99 M 93 103 L 96 108 L 113 109 L 119 123 L 127 124 M 16 104 L 13 115 L 21 122 L 20 129 L 27 141 L 38 143 L 48 139 L 52 130 L 49 120 L 52 129 L 61 128 L 71 132 L 69 139 L 62 145 L 57 166 L 62 181 L 81 199 L 90 190 L 99 187 L 106 177 L 108 166 L 106 173 L 111 175 L 111 179 L 106 178 L 108 180 M 131 104 L 128 105 M 164 109 L 170 112 M 31 115 L 49 119 L 53 129 L 51 141 L 65 144 M 26 119 L 23 121 M 61 120 L 74 124 M 103 120 L 110 123 L 107 130 L 102 129 L 100 123 L 103 121 L 100 126 L 106 130 M 108 121 L 109 129 M 129 123 L 131 135 L 138 137 M 36 124 L 41 125 L 41 130 L 34 129 L 35 125 L 34 129 L 40 131 M 40 125 L 40 131 M 175 126 L 186 129 M 0 129 L 1 135 L 20 129 L 23 137 L 35 144 L 36 152 L 45 153 L 51 142 L 64 144 M 144 133 L 143 135 M 0 135 L 0 148 L 13 159 L 25 159 L 35 152 L 33 153 M 130 136 L 129 141 L 136 143 L 135 159 L 138 163 L 150 170 L 161 170 M 119 140 L 129 140 L 135 144 L 135 159 L 139 164 L 150 170 L 161 170 M 117 142 L 114 146 L 122 146 L 124 149 L 120 154 L 116 149 L 119 153 M 146 145 L 147 149 L 151 148 L 156 152 L 156 158 L 151 161 L 145 158 L 145 150 L 145 157 L 151 161 M 177 146 L 179 150 L 199 157 L 199 178 L 193 179 L 188 186 L 190 197 L 198 199 L 199 193 L 198 199 M 109 148 L 108 149 M 0 149 L 0 158 M 78 149 L 82 154 L 78 161 L 80 163 M 151 149 L 156 152 L 153 160 M 75 150 L 76 150 M 56 151 L 61 151 L 60 161 L 50 176 L 50 182 L 64 182 L 80 198 L 61 199 L 103 199 L 104 194 L 99 188 L 104 194 L 121 191 L 125 195 L 126 188 L 120 170 L 125 183 L 130 178 L 131 165 L 132 172 L 139 171 M 72 151 L 69 158 L 74 163 L 80 163 M 46 153 L 47 158 L 58 165 L 62 181 L 81 199 L 125 199 L 126 195 L 127 199 L 168 199 L 177 183 L 177 173 L 180 173 M 9 155 L 13 159 L 11 169 L 15 171 L 22 169 L 24 160 L 20 172 L 28 190 L 46 191 L 50 184 L 46 198 L 57 199 M 180 157 L 179 161 M 80 158 L 80 163 M 179 158 L 179 160 M 69 159 L 74 163 M 133 161 L 131 172 L 137 177 L 143 174 L 141 177 M 0 163 L 1 170 L 21 171 L 27 198 L 34 199 M 40 163 L 45 167 L 41 173 L 35 170 L 35 166 L 39 164 M 36 166 L 36 171 L 40 173 M 55 167 L 50 182 L 59 184 M 126 167 L 123 168 M 113 168 L 121 169 L 125 183 L 129 180 L 125 184 L 126 199 L 176 199 M 171 168 L 180 173 M 0 170 L 1 199 L 33 199 M 43 171 L 42 172 M 190 172 L 192 180 L 187 186 L 177 184 L 188 186 L 191 199 L 184 199 L 198 199 M 135 176 L 140 177 M 11 181 L 16 182 L 17 186 L 9 186 L 11 182 L 9 186 L 15 188 M 102 181 L 99 187 L 105 194 L 105 199 L 176 199 M 92 190 L 83 198 L 177 199 M 0 199 L 33 199 M 38 199 L 57 199" 
        fill="none" 
        stroke="black" 
        stroke-width="1.5" 
        stroke-linecap="round" 
        stroke-linejoin="round"
        vector-effect="non-scaling-stroke"/>
</svg>