<svg xmlns="http://www.w3.org/2000/svg" viewBox="0 0 200 200" width="200" height="200">
  <rect width="100%" height="100%" fill="white"/>
  <path d="M 1 0 L 10 0 M 12 0 L 18 0 L 18 5 L 27 10 L 57 1 L 26 0 L 155 0 M 186 0 L 189 0 M 195 0 L 199 1 M 0 1 L 0 3 M 84 1 L 84 11 L 77 19 L 72 32 L 73 52 L 78 53 L 90 43 L 91 34 L 96 27 L 114 23 L 123 32 L 127 41 L 128 58 L 123 69 L 139 80 L 143 80 L 150 72 L 156 38 L 152 33 L 147 13 L 133 1 L 147 13 L 174 10 L 186 1 L 176 9 M 17 4 L 30 10 L 36 20 L 55 26 L 69 19 L 79 18 M 199 8 L 199 12 L 189 21 L 178 25 L 153 27 L 152 33 L 155 37 L 171 36 L 187 32 L 198 25 M 197 12 L 188 21 M 82 13 L 80 16 M 0 20 L 12 41 L 36 53 L 50 54 L 58 59 L 62 68 L 74 56 L 73 53 L 76 54 M 185 22 L 186 22 M 150 23 L 153 35 L 164 37 M 182 23 L 185 23 M 0 25 L 11 38 L 12 59 L 18 64 L 24 64 L 35 54 L 32 60 M 116 25 L 120 28 L 116 39 L 91 65 L 79 83 L 75 94 L 75 104 L 79 108 L 94 112 L 95 104 L 90 100 L 93 82 L 103 67 L 114 64 L 118 56 L 126 50 L 120 54 M 58 27 L 71 39 L 75 54 M 106 27 L 104 36 L 91 42 L 94 42 M 59 29 L 71 39 L 72 49 L 76 54 M 94 30 L 90 38 L 90 41 L 94 42 M 117 35 L 111 46 L 97 60 M 102 37 L 101 38 M 98 39 L 99 39 M 156 39 L 156 53 L 179 58 L 184 55 L 198 55 L 199 50 L 199 58 M 126 41 L 127 62 L 123 68 L 115 64 L 141 80 L 147 91 L 152 93 L 166 80 L 163 75 L 150 73 M 90 44 L 87 46 M 21 45 L 34 50 L 36 53 L 32 60 M 81 51 L 78 53 M 52 57 L 30 83 L 47 87 L 50 82 L 57 79 L 62 68 M 72 59 L 64 67 M 179 59 L 194 73 L 199 82 L 199 91 M 117 60 L 115 63 L 118 67 L 143 80 L 145 89 L 160 105 L 170 105 L 176 98 L 175 87 L 166 83 M 180 61 L 194 73 L 199 82 L 199 91 M 48 63 L 47 64 M 17 64 L 24 64 M 45 65 L 44 67 M 103 68 L 91 87 L 90 99 L 94 103 L 106 96 L 118 97 L 139 113 L 166 114 L 178 125 L 190 117 L 199 115 L 199 98 L 199 150 M 59 75 L 55 82 L 55 93 L 63 100 L 93 114 L 84 136 L 75 145 L 59 147 L 52 136 L 55 133 L 61 134 L 68 142 L 68 147 M 83 75 L 75 93 L 74 86 L 75 104 L 93 113 L 93 117 L 87 130 L 73 123 L 67 124 L 78 142 M 148 75 L 142 82 L 147 91 L 152 93 L 152 99 L 160 105 L 170 105 M 50 83 L 47 87 L 50 92 L 93 113 L 87 130 M 28 84 L 47 87 L 52 93 L 45 102 L 29 107 L 28 119 L 35 130 L 51 121 L 73 123 L 86 130 M 25 85 L 26 85 M 174 85 L 176 98 L 169 105 M 22 87 L 0 111 L 0 124 L 13 132 L 32 161 L 33 177 L 22 199 L 50 197 L 51 155 L 38 130 L 51 155 L 49 183 L 52 186 L 59 179 L 79 172 L 100 160 L 113 143 L 120 118 L 127 105 L 138 111 L 139 115 L 130 123 L 119 127 M 20 88 L 10 103 M 156 90 L 155 91 M 51 94 L 48 100 M 0 95 L 0 110 L 8 104 L 2 110 M 114 97 L 124 100 L 139 113 L 146 113 M 45 101 L 44 102 M 31 104 L 28 119 L 33 128 L 38 130 L 51 155 L 50 199 L 78 195 L 82 182 L 81 171 L 82 181 L 105 196 L 121 196 L 136 188 L 155 161 L 146 136 L 134 142 L 135 155 L 124 166 L 109 167 L 101 160 L 107 166 L 114 167 L 107 154 L 116 167 L 121 167 M 127 107 L 119 121 L 120 127 M 138 115 L 137 116 M 133 119 L 130 123 M 175 123 L 178 125 L 184 152 L 190 155 L 197 148 M 126 124 L 127 124 M 0 125 L 0 146 M 124 125 L 125 125 M 41 126 L 37 132 L 49 150 L 52 161 L 49 182 L 52 188 L 49 199 L 55 199 M 68 126 L 75 140 L 79 142 M 117 131 L 113 141 L 115 145 L 124 146 L 135 141 L 136 152 L 133 158 M 151 133 L 160 134 L 165 141 L 164 155 L 159 161 L 170 185 L 183 199 L 198 199 L 199 196 L 199 199 M 148 134 L 149 134 M 147 135 L 155 160 L 163 157 L 159 161 L 170 186 L 158 188 L 144 182 L 158 188 L 168 187 M 138 138 L 137 139 M 19 144 L 9 160 L 9 178 L 16 184 L 25 181 L 16 170 L 17 161 L 24 151 L 18 159 L 16 170 L 25 181 L 32 179 L 21 199 L 0 199 L 0 194 L 1 199 L 55 199 M 75 144 L 74 145 M 113 144 L 125 146 L 130 158 L 133 158 M 18 145 L 10 157 L 8 175 L 14 183 L 25 182 L 23 184 M 111 146 L 107 154 L 116 167 L 122 167 M 194 151 L 189 157 L 199 166 M 128 153 L 132 158 M 192 161 L 199 166 M 155 162 L 143 181 L 154 187 L 165 188 M 56 183 L 53 185 M 82 183 L 79 190 L 81 197 L 102 196 M 139 184 L 137 190 L 149 199 L 199 199 M 88 185 L 105 196 L 120 196 M 177 191 L 183 199 L 199 199 M 138 192 L 141 197 L 123 196 L 140 197 M 147 199 L 198 199" 
        fill="none" 
        stroke="black" 
        stroke-width="1.5" 
        stroke-linecap="round" 
        stroke-linejoin="round"
        vector-effect="non-scaling-stroke"/>
</svg>