<svg xmlns="http://www.w3.org/2000/svg" viewBox="0 0 200 200" width="200" height="200">
  <rect width="100%" height="100%" fill="white"/>
  <path d="M 1 0 L 26 0 L 45 7 L 52 2 L 74 3 L 107 14 L 139 1 L 198 0 L 199 21 M 0 1 L 0 8 L 13 16 L 9 1 L 28 39 L 42 50 L 60 73 L 75 72 L 90 77 L 95 80 L 106 98 L 141 92 L 144 89 L 143 83 L 99 74 L 77 64 L 99 74 L 131 81 L 143 82 L 143 76 L 107 69 L 76 56 L 41 28 L 27 3 L 44 31 L 75 55 L 108 69 L 142 75 L 143 69 L 137 60 L 117 63 L 95 57 L 90 49 L 60 29 L 46 8 L 50 4 L 46 9 L 55 23 L 71 38 L 90 49 L 102 49 L 105 53 L 122 53 L 130 60 L 137 60 L 144 53 L 143 48 L 122 48 L 91 38 L 77 29 L 63 15 L 57 4 L 64 16 L 83 33 L 103 43 L 119 47 M 18 1 L 21 11 L 37 34 L 75 63 M 154 1 L 153 6 M 159 1 L 146 33 L 144 53 L 138 60 L 143 69 L 142 93 L 147 96 L 147 105 L 153 120 L 149 141 L 174 158 L 198 185 L 199 182 L 199 199 L 140 199 L 154 198 L 147 189 L 139 188 L 128 197 L 101 197 L 77 185 L 59 199 L 0 199 L 0 160 L 1 190 L 14 177 L 39 161 L 59 158 L 68 158 L 72 161 L 82 151 L 99 146 L 107 147 L 112 141 L 149 140 L 158 149 L 174 158 L 178 165 L 160 164 L 179 165 L 183 168 L 182 172 L 158 170 L 181 172 M 163 1 L 151 44 L 152 80 M 170 1 L 160 31 L 157 64 M 176 1 L 165 41 L 164 74 M 198 1 L 199 5 L 176 28 L 173 36 L 198 29 M 148 3 L 142 17 L 129 34 L 137 34 L 152 9 L 137 32 L 138 35 L 146 35 L 142 43 L 112 40 L 93 33 L 80 24 L 64 4 L 82 25 L 94 33 L 112 40 L 141 43 M 133 4 L 128 6 M 197 6 L 190 13 M 19 7 L 39 37 L 74 62 M 44 7 L 47 7 L 51 18 L 71 38 L 94 49 L 101 57 L 104 53 L 113 53 L 113 61 L 123 63 M 146 8 L 129 35 L 117 33 L 110 15 L 117 33 L 123 34 L 138 13 L 124 33 L 146 35 L 144 53 L 138 61 L 143 69 L 142 93 L 147 96 L 148 101 L 112 121 M 0 9 L 0 10 M 156 9 L 146 33 L 144 53 L 138 60 L 143 69 L 142 93 L 147 96 L 147 108 L 117 125 L 65 141 M 3 10 L 8 19 L 17 19 L 16 24 L 21 24 L 18 29 L 22 29 L 23 32 L 20 32 L 19 37 L 32 66 M 3 12 L 10 22 L 12 19 L 20 28 M 0 15 L 0 47 L 17 59 L 28 76 L 37 115 L 34 129 L 38 132 L 47 131 L 44 109 L 47 131 L 51 130 L 49 109 L 51 128 L 56 127 L 54 112 L 55 129 L 61 129 L 63 126 L 62 110 L 59 108 L 55 89 L 58 72 L 60 73 M 186 16 L 186 18 M 157 19 L 151 44 L 152 81 M 182 21 L 178 27 M 14 22 L 18 25 L 14 29 L 19 31 L 19 37 L 32 66 M 11 23 L 14 29 L 20 32 L 19 37 L 32 66 M 175 29 L 173 44 L 199 36 M 24 34 L 28 38 L 28 44 L 32 44 M 199 42 L 199 51 M 172 44 L 171 50 L 178 57 L 194 48 L 199 48 L 199 51 M 28 45 L 33 54 M 34 45 L 38 49 L 42 67 M 0 48 L 0 59 M 189 52 L 186 53 M 43 53 L 60 73 M 104 55 L 105 57 L 102 57 L 107 61 L 123 63 M 183 55 L 182 56 M 13 56 L 26 72 L 28 81 L 0 66 L 29 81 L 31 88 L 27 89 L 12 78 L 27 89 L 31 89 L 33 97 L 24 101 L 1 99 L 0 111 M 35 58 L 35 59 M 177 58 L 171 75 L 173 81 L 199 59 L 196 62 M 40 60 L 42 66 M 37 63 L 37 66 M 199 67 L 174 89 L 174 94 L 177 95 L 199 75 L 192 83 M 158 68 L 159 83 M 198 68 L 195 72 M 33 69 L 37 84 M 39 69 L 42 84 M 44 70 L 44 73 M 33 71 L 37 84 M 0 72 L 3 73 M 192 73 L 187 78 M 5 74 L 10 76 M 171 74 L 176 101 L 191 109 L 199 109 L 199 83 L 199 144 M 80 75 L 58 92 M 46 76 L 46 79 M 181 76 L 178 78 M 78 77 L 77 78 M 85 77 L 75 87 L 58 97 L 58 102 L 69 98 L 91 80 L 95 80 L 105 99 L 98 104 L 88 123 L 63 127 L 65 128 M 2 79 L 3 80 M 57 79 L 57 92 M 165 80 L 166 87 M 80 82 L 79 84 M 70 83 L 65 88 M 181 83 L 178 86 M 0 84 L 0 99 L 24 101 M 153 84 L 153 87 M 76 85 L 75 87 M 14 86 L 34 100 L 34 104 L 17 111 M 38 86 L 39 89 M 188 86 L 185 88 M 44 87 L 44 90 M 17 88 L 34 100 L 35 109 L 0 122 L 3 121 M 72 88 L 71 89 M 160 88 L 164 105 M 49 89 L 49 90 M 62 89 L 61 90 M 69 90 L 64 94 M 167 90 L 168 95 M 181 92 L 178 94 M 155 94 L 155 97 M 41 95 L 41 96 M 46 95 L 46 98 M 51 95 L 51 98 M 81 97 L 100 102 L 87 123 M 78 98 L 74 106 L 76 113 L 81 123 L 87 123 M 77 99 L 74 110 L 81 122 L 87 123 M 104 99 L 103 100 M 169 99 L 169 102 M 42 101 L 42 104 M 157 101 L 157 104 M 163 103 L 164 105 M 53 104 L 53 109 M 141 105 L 142 105 M 171 105 L 172 110 M 71 107 L 76 108 L 81 122 L 87 123 M 159 107 L 159 108 M 67 108 L 70 108 M 146 108 L 145 110 M 165 108 L 166 111 M 65 109 L 64 111 L 77 124 L 81 124 M 64 110 L 80 124 M 28 111 L 29 111 M 131 111 L 130 112 M 142 111 L 141 112 M 160 111 L 181 153 L 199 175 M 13 112 L 1 116 M 127 113 L 128 113 M 33 115 L 34 115 M 135 115 L 134 116 M 30 116 L 1 127 M 146 116 L 153 120 L 149 141 L 174 158 L 188 177 L 163 177 L 115 161 L 116 167 L 136 187 L 127 197 M 145 117 L 113 133 L 78 145 L 32 154 L 0 155 L 32 154 M 117 118 L 118 118 M 129 118 L 130 118 M 162 118 L 178 149 L 199 174 M 23 119 L 24 119 M 115 119 L 116 119 M 176 119 L 184 135 L 199 154 M 64 122 L 73 127 M 121 122 L 122 122 M 134 122 L 135 122 M 171 122 L 186 149 L 199 164 M 105 123 L 106 123 M 119 123 L 120 123 M 132 123 L 133 123 M 177 123 L 199 154 M 36 124 L 28 131 L 0 137 M 117 124 L 118 124 M 100 125 L 101 125 M 114 125 L 117 125 M 128 125 L 129 125 M 112 126 L 113 126 M 172 126 L 199 165 M 95 127 L 96 127 M 124 127 L 123 128 M 91 128 L 92 128 M 107 128 L 108 128 M 55 130 L 56 130 M 84 130 L 87 130 M 102 130 L 103 130 M 117 130 L 118 130 M 0 132 L 0 135 L 4 135 M 78 132 L 79 132 M 96 132 L 99 132 M 113 132 L 114 132 M 75 133 L 71 134 L 74 134 M 108 134 L 109 134 M 65 135 L 68 135 M 64 136 L 69 135 M 103 136 L 104 136 M 56 137 L 61 137 M 100 137 L 103 137 M 77 138 L 78 138 M 45 139 L 50 139 M 95 139 L 96 139 M 0 140 L 40 140 M 58 142 L 61 142 M 54 143 L 57 143 M 47 144 L 52 144 M 110 144 L 109 147 L 143 160 M 42 145 L 45 145 M 35 146 L 40 146 M 0 147 L 33 147 M 108 147 L 110 153 L 141 165 M 0 148 L 34 147 M 62 148 L 63 148 M 96 149 L 115 179 L 121 195 L 128 197 M 116 149 L 143 160 M 46 151 L 51 151 M 89 151 L 110 184 M 82 152 L 103 185 L 106 195 L 115 196 L 111 187 L 116 197 L 127 197 M 98 153 L 115 179 L 121 195 L 127 197 M 109 153 L 114 161 L 147 173 L 186 178 M 115 154 L 140 165 M 80 155 L 79 156 M 90 155 L 110 184 M 75 158 L 72 161 L 76 180 L 74 188 M 111 158 L 154 175 L 187 178 M 59 159 L 57 176 M 85 159 L 96 173 L 108 197 L 127 197 M 52 161 L 46 198 L 53 198 L 56 181 L 53 198 L 58 199 M 146 161 L 147 161 M 39 162 L 30 168 M 46 162 L 38 198 L 59 199 M 153 163 L 156 163 M 115 166 L 137 188 L 148 189 L 155 199 L 199 199 M 144 166 L 147 167 M 150 168 L 153 168 M 28 170 L 25 171 M 23 173 L 20 174 M 16 177 L 1 190 M 192 179 L 199 185 L 198 199 M 41 186 L 39 199 L 58 199 M 71 189 L 66 193 M 64 194 L 63 196 M 59 197 L 60 197" 
        fill="none" 
        stroke="black" 
        stroke-width="1.5" 
        stroke-linecap="round" 
        stroke-linejoin="round"
        vector-effect="non-scaling-stroke"/>
</svg>