<svg xmlns="http://www.w3.org/2000/svg" viewBox="0 0 200 200" width="200" height="200">
  <rect width="100%" height="100%" fill="white"/>
  <path d="M 1 0 L 80 0 L 85 5 L 97 1 L 134 0 L 199 2 M 0 1 L 0 3 M 61 1 L 56 16 L 47 23 L 36 22 L 18 14 L 5 14 L 0 18 L 4 15 M 74 1 L 66 12 M 138 1 L 141 8 L 148 6 L 151 1 L 148 6 M 185 1 L 157 17 L 139 34 L 131 49 L 122 81 L 108 100 L 89 103 L 57 86 L 40 84 L 28 90 L 15 105 M 122 3 L 106 17 L 103 30 M 183 3 L 182 4 M 85 6 L 77 21 L 75 37 L 65 48 L 25 34 L 1 38 L 0 46 M 118 6 L 117 7 M 137 6 L 140 7 L 138 12 L 125 19 L 110 41 L 114 48 L 113 65 L 110 79 L 103 88 L 84 91 L 68 84 L 60 75 L 45 69 L 32 68 L 16 74 L 4 87 L 0 96 M 133 7 L 136 7 M 115 8 L 114 9 M 129 8 L 132 8 M 172 8 L 173 8 M 128 9 L 124 15 L 124 22 L 119 26 L 114 25 L 110 30 L 108 40 L 114 37 M 166 11 L 165 13 M 80 13 L 78 20 L 68 18 L 65 21 L 66 27 L 76 30 L 72 42 M 195 13 L 198 13 M 161 14 L 162 14 M 132 15 L 131 16 M 55 16 L 52 20 M 123 16 L 116 21 L 120 26 L 114 37 M 158 16 L 157 17 M 199 17 L 199 24 M 67 18 L 61 32 L 61 36 L 69 43 L 67 47 M 118 18 L 116 24 L 120 26 L 114 37 M 155 18 L 154 20 M 184 18 L 198 21 L 195 33 L 198 34 L 199 31 L 199 38 M 181 19 L 177 22 L 178 32 L 185 35 L 199 34 L 199 38 M 179 20 L 180 20 M 170 21 L 179 21 M 197 21 L 195 33 L 199 34 L 199 38 M 17 22 L 61 36 L 69 43 L 66 47 M 40 22 L 47 23 M 150 22 L 149 24 M 166 22 L 169 22 M 15 23 L 17 34 L 25 34 L 25 26 L 28 26 M 23 23 L 27 26 M 165 23 L 160 28 L 162 36 L 176 33 L 190 35 M 163 24 L 159 29 L 153 30 L 145 41 L 147 44 L 155 43 L 161 36 L 156 42 M 0 25 L 5 25 M 111 28 L 106 43 L 106 55 L 113 55 L 113 64 L 105 68 L 104 74 L 111 74 L 103 88 M 37 29 L 37 38 L 44 40 L 47 34 L 45 41 L 53 44 L 57 37 L 53 44 L 65 48 M 62 29 L 61 36 L 69 43 L 67 47 M 143 29 L 131 49 L 122 81 L 108 100 M 152 30 L 136 50 L 136 54 L 140 56 L 145 52 L 147 45 L 143 55 M 0 33 L 2 38 M 26 34 L 64 48 M 54 34 L 65 39 L 69 43 L 67 47 M 107 41 L 113 44 L 113 65 L 110 79 L 102 88 M 140 43 L 136 50 L 137 56 L 131 63 L 133 67 L 138 64 L 139 57 L 128 86 L 113 108 L 98 115 L 91 115 L 77 110 L 73 104 L 65 103 L 62 99 L 36 102 L 17 124 L 16 133 L 10 139 L 7 150 L 0 155 L 0 161 M 177 43 L 198 47 M 173 44 L 176 44 M 167 45 L 172 45 M 191 45 L 199 48 M 164 46 L 167 46 M 163 47 L 147 60 L 124 104 L 107 119 L 86 121 L 54 107 L 35 114 L 25 126 L 10 163 L 0 174 L 0 171 L 0 174 M 157 50 L 156 51 M 106 56 L 107 67 M 135 56 L 140 56 L 137 66 M 30 59 L 42 60 L 59 70 L 62 75 L 84 85 L 94 85 L 103 75 L 110 75 L 109 81 L 102 88 M 25 60 L 28 60 M 20 61 L 23 61 M 17 62 L 0 77 L 0 83 M 16 63 L 15 64 M 46 63 L 72 80 L 74 87 L 84 91 L 95 91 M 132 67 L 128 74 L 128 77 L 131 77 M 9 68 L 5 73 M 31 68 L 66 75 L 83 85 L 94 85 M 130 68 L 129 84 L 117 102 M 0 75 L 2 76 M 11 78 L 0 95 M 102 78 L 98 83 M 64 80 L 78 89 L 94 91 M 135 83 L 128 98 L 115 114 M 158 88 L 167 89 L 181 97 M 29 89 L 28 90 M 154 89 L 157 89 M 164 89 L 181 97 M 39 91 L 56 91 L 62 97 L 69 97 L 80 111 L 85 107 L 108 107 L 107 112 M 25 92 L 15 105 M 37 92 L 34 98 L 35 102 L 38 102 M 47 92 L 49 99 L 59 100 M 149 92 L 138 101 L 122 125 L 107 138 L 91 140 L 72 133 L 55 136 L 40 155 L 35 179 L 41 179 L 47 161 L 61 147 L 93 149 L 112 143 L 125 130 L 138 110 L 154 98 L 165 97 L 189 111 L 198 111 L 199 103 L 199 116 M 72 94 L 86 102 L 103 102 M 145 94 L 144 95 M 30 97 L 34 97 L 38 102 M 61 97 L 65 103 L 74 104 L 80 111 L 88 113 L 90 110 L 91 115 L 97 115 L 102 108 L 100 112 L 103 113 M 26 98 L 29 98 M 69 98 L 78 110 L 97 115 M 25 99 L 21 109 L 27 111 M 24 100 L 22 107 L 14 113 L 11 120 L 18 123 M 170 100 L 186 110 L 199 111 L 199 117 M 137 102 L 122 125 L 111 135 M 146 103 L 114 142 M 113 107 L 112 108 M 58 108 L 86 121 L 101 121 M 155 110 L 166 110 L 185 129 L 199 131 M 23 111 L 26 111 M 39 111 L 38 112 M 166 111 L 185 129 L 198 131 M 152 112 L 144 122 L 131 161 L 121 169 L 83 175 L 77 183 L 69 187 L 66 198 L 97 199 L 101 187 L 121 181 L 137 172 L 147 157 L 149 146 L 158 138 L 165 140 L 174 155 L 183 162 L 196 163 L 199 156 L 199 166 M 36 113 L 35 114 M 150 113 L 145 119 L 143 117 L 140 123 M 13 114 L 2 132 L 10 138 L 14 137 M 23 118 L 20 122 M 141 119 L 140 123 M 138 126 L 129 150 L 120 160 M 0 127 L 0 130 L 11 138 M 142 127 L 136 152 L 128 164 M 0 131 L 0 134 M 135 134 L 123 158 M 109 136 L 108 137 M 155 141 L 157 151 M 153 144 L 148 149 L 149 162 M 16 148 L 10 163 L 3 171 M 168 148 L 179 158 L 180 162 L 174 165 L 180 162 L 177 165 M 6 150 L 5 152 M 0 151 L 2 154 M 40 154 L 34 184 L 39 183 L 35 187 L 34 199 L 43 198 L 44 183 L 44 199 L 107 199 L 111 193 L 108 186 L 111 194 L 134 188 L 148 178 L 159 162 L 165 163 L 179 180 L 190 182 M 144 160 L 140 167 L 144 168 M 48 161 L 37 185 M 165 165 L 179 180 L 191 182 M 122 167 L 121 169 M 140 168 L 145 169 M 199 171 L 199 178 M 138 172 L 139 175 M 81 176 L 77 183 M 131 178 L 132 181 L 136 180 M 34 180 L 39 181 L 38 185 M 131 181 L 132 181 M 71 184 L 66 194 L 67 199 L 199 199 M 101 188 L 99 199 L 199 199 M 0 195 L 1 199 L 8 199 M 110 195 L 109 199 L 198 199 M 0 199 L 9 199 M 18 199 L 199 199" 
        fill="none" 
        stroke="black" 
        stroke-width="1.5" 
        stroke-linecap="round" 
        stroke-linejoin="round"
        vector-effect="non-scaling-stroke"/>
</svg>