<svg xmlns="http://www.w3.org/2000/svg" viewBox="0 0 200 200" width="200" height="200">
  <rect width="100%" height="100%" fill="white"/>
  <path d="M 0 0 L 9 0 M 23 0 L 156 0 M 177 0 L 199 0 L 199 21 M 0 1 L 0 35 L 28 47 L 43 63 L 48 64 L 48 54 L 31 29 L 31 1 L 31 29 L 49 58 L 50 70 L 45 80 L 46 89 L 56 86 L 65 70 L 66 49 L 62 22 L 71 1 L 62 23 L 66 49 L 65 70 L 59 83 L 53 88 M 93 1 L 80 19 L 75 36 L 72 67 L 62 89 L 53 97 L 43 100 L 33 99 L 27 92 L 29 86 L 52 89 M 122 1 L 119 11 L 106 28 L 101 51 L 121 68 L 121 84 M 153 1 L 142 16 L 137 31 L 137 43 L 145 50 L 148 49 L 157 28 L 166 19 L 186 11 L 196 1 L 186 11 M 147 8 L 138 25 L 137 44 L 148 50 L 151 76 L 164 69 L 161 66 L 161 59 L 171 45 L 185 38 L 199 40 M 86 9 L 77 27 L 70 74 L 62 89 L 55 95 M 116 13 L 105 30 L 101 52 L 89 61 L 68 92 L 71 93 L 88 78 L 107 70 L 113 74 L 121 71 L 121 84 M 166 20 L 165 21 M 160 26 L 153 34 L 147 51 L 152 77 L 148 96 L 141 105 L 132 110 L 111 109 L 110 116 L 126 126 L 143 125 L 157 118 L 167 108 L 174 93 L 172 70 L 162 71 M 0 36 L 0 43 M 179 41 L 176 42 M 18 43 L 32 50 L 43 63 L 49 64 L 48 78 M 171 46 L 161 60 L 164 69 L 182 66 L 198 73 L 199 62 L 199 179 M 11 52 L 26 53 L 49 64 L 48 78 M 99 52 L 121 68 L 120 85 M 8 53 L 11 53 M 22 53 L 49 64 L 47 78 M 4 54 L 7 54 M 96 54 L 95 55 M 2 55 L 0 58 L 2 56 M 92 57 L 93 57 M 88 62 L 86 65 M 22 68 L 36 71 L 46 79 L 45 88 L 51 89 M 83 68 L 68 93 L 38 128 L 28 149 L 28 174 L 45 199 L 77 199 L 92 179 L 100 153 L 100 120 L 96 99 L 102 91 L 103 84 L 112 74 L 109 77 M 185 68 L 199 73 L 199 178 M 19 69 L 20 69 M 17 70 L 0 88 L 9 100 L 32 108 L 44 109 L 53 104 L 56 106 L 35 132 L 27 153 L 28 174 L 44 199 L 0 199 L 0 152 L 1 162 L 7 157 L 17 135 L 41 110 L 37 115 M 14 72 L 2 87 L 0 73 L 1 87 M 36 72 L 46 79 L 45 88 L 51 89 M 103 72 L 98 74 M 93 78 L 78 103 L 65 155 M 85 81 L 82 84 M 91 82 L 78 103 L 65 155 M 29 87 L 28 94 L 34 99 L 42 100 M 74 91 L 73 92 M 0 92 L 0 111 M 101 94 L 110 109 L 133 109 M 53 96 L 52 97 M 147 96 L 141 105 M 64 97 L 57 103 M 49 98 L 50 98 M 171 102 L 161 115 M 106 103 L 112 109 L 132 110 M 27 107 L 44 109 M 98 113 L 100 121 L 117 137 L 125 132 L 146 134 L 168 145 L 178 163 L 178 178 L 172 198 L 198 199 L 199 194 L 199 199 M 35 117 L 32 120 M 110 117 L 125 126 L 139 126 M 100 123 L 98 165 L 90 183 L 78 196 L 79 199 L 115 198 L 124 171 L 118 138 L 124 171 L 115 198 L 154 198 L 159 175 L 157 162 L 144 146 L 123 138 L 125 133 L 123 138 L 141 144 L 155 157 L 159 173 L 155 199 L 199 199 M 103 124 L 119 137 L 124 167 L 115 199 L 199 199 M 25 127 L 12 144 L 7 158 L 1 162 M 151 136 L 170 147 L 176 157 L 178 178 L 172 198 L 198 199 M 78 199 L 199 199" 
        fill="none" 
        stroke="black" 
        stroke-width="1.5" 
        stroke-linecap="round" 
        stroke-linejoin="round"
        vector-effect="non-scaling-stroke"/>
</svg>