<svg xmlns="http://www.w3.org/2000/svg" viewBox="0 0 200 200" width="200" height="200">
  <rect width="100%" height="100%" fill="white"/>
  <path d="M 0 0 L 7 0 M 35 0 L 114 0 M 134 0 L 155 0 M 194 0 L 199 2 M 0 1 L 1 8 L 25 30 L 30 30 M 195 1 L 189 8 L 188 22 L 189 150 L 185 149 L 172 133 L 175 126 L 175 39 L 171 35 L 172 24 L 155 41 L 155 117 L 139 107 L 143 99 L 143 76 L 138 71 L 139 61 L 140 59 L 139 64 L 142 64 L 150 52 L 140 65 M 193 3 L 173 22 L 171 32 L 175 39 L 184 24 L 175 40 L 175 126 L 178 130 M 185 10 L 176 19 M 19 13 L 158 13 L 158 16 L 142 29 L 137 26 L 47 27 L 26 18 L 25 15 L 47 27 L 123 27 M 154 19 L 153 21 M 15 21 L 67 73 L 122 72 L 133 58 L 156 40 L 155 117 M 141 23 L 138 26 L 140 24 L 138 26 L 143 28 M 148 24 L 147 25 M 169 25 L 155 41 L 155 117 M 31 40 L 47 67 M 10 44 L 21 53 L 23 50 L 25 59 L 24 157 L 28 161 L 28 171 L 43 159 L 42 78 L 59 93 L 55 100 L 55 122 L 61 128 L 61 133 L 45 152 M 37 44 L 75 82 L 112 81 L 118 73 L 116 78 M 10 45 L 12 179 L 23 157 L 12 181 L 18 181 L 28 171 M 52 45 L 127 45 M 149 45 L 146 48 M 125 46 L 112 58 L 72 56 L 59 52 L 55 47 L 61 53 L 72 56 L 112 58 M 34 47 L 47 66 M 122 50 L 121 52 M 19 52 L 25 59 L 24 157 L 28 161 L 29 171 M 140 53 L 137 56 M 116 55 L 115 57 M 148 65 L 143 75 L 145 74 L 143 100 L 147 106 M 124 69 L 126 118 L 133 122 L 190 184 L 199 190 L 199 199 L 49 199 L 199 199 M 46 80 L 59 93 L 55 99 L 51 93 L 56 99 L 55 123 L 50 133 M 114 80 L 115 96 L 121 116 L 133 122 L 134 126 L 78 127 L 59 147 L 63 148 M 77 82 L 86 119 L 120 117 M 74 83 L 76 126 L 79 127 L 85 119 L 89 119 M 79 88 L 84 117 L 88 119 M 142 101 L 139 106 L 155 117 M 54 123 L 50 133 M 85 127 L 110 127 M 175 127 L 172 133 L 189 150 M 139 129 L 188 179 L 190 185 L 39 185 L 55 170 L 60 170 L 64 174 L 164 171 L 184 185 L 195 187 L 199 191 L 199 199 M 56 139 L 47 151 M 85 141 L 90 145 L 127 145 L 136 142 L 151 155 L 69 156 L 81 142 L 84 142 M 63 142 L 59 148 L 44 157 L 47 157 M 81 143 L 78 145 M 130 143 L 128 145 L 131 148 L 137 149 M 89 145 L 83 149 M 88 146 L 87 147 M 141 146 L 148 150 L 150 155 M 57 148 L 60 148 M 169 151 L 173 156 M 37 165 L 36 166 M 32 169 L 31 170 M 160 172 L 159 173 M 63 174 L 55 178 M 156 174 L 165 178 M 167 174 L 184 185 L 195 187 L 199 191 L 198 199 M 25 175 L 22 177 M 62 175 L 61 176 M 12 182 L 1 198 L 6 199 M 3 194 L 0 199 L 6 199 M 0 196 L 6 199" 
        fill="none" 
        stroke="black" 
        stroke-width="1.5" 
        stroke-linecap="round" 
        stroke-linejoin="round"
        vector-effect="non-scaling-stroke"/>
</svg>