<svg xmlns="http://www.w3.org/2000/svg" viewBox="0 0 200 200" width="200" height="200">
  <rect width="100%" height="100%" fill="white"/>
  <path d="M 2 0 L 199 0 L 199 3 M 0 1 L 3 1 L 0 5 L 75 77 L 75 72 L 36 28 L 17 1 L 29 19 L 75 72 L 76 77 L 82 81 L 82 75 L 35 8 L 33 1 L 83 76 L 83 80 L 89 80 M 50 1 L 85 72 M 52 1 L 68 3 L 92 78 M 148 1 L 113 75 M 169 1 L 116 78 L 118 84 L 124 79 L 127 70 L 188 1 L 124 74 L 125 77 L 199 8 M 131 2 L 121 33 M 85 3 L 97 78 L 100 65 L 100 3 L 99 84 L 104 77 L 114 3 L 104 78 L 99 85 L 99 99 L 103 103 L 112 95 L 106 80 L 118 42 L 106 81 L 108 87 L 110 82 L 109 89 L 112 92 L 117 84 L 129 84 L 199 39 L 196 41 M 167 5 L 117 76 L 116 82 L 124 87 L 125 93 L 199 73 M 51 6 L 85 73 M 146 7 L 113 75 M 3 8 L 75 78 L 69 77 L 0 22 L 74 78 M 70 12 L 92 78 M 124 23 L 122 32 M 199 23 L 135 75 L 124 80 L 127 80 M 197 25 L 198 25 M 193 28 L 190 31 M 188 32 L 185 35 M 120 36 L 120 39 M 169 36 L 164 40 M 183 36 L 176 42 M 0 37 L 78 87 L 83 85 L 83 81 L 87 81 M 1 38 L 78 87 L 88 87 L 90 82 L 89 90 L 102 102 L 94 110 L 108 125 L 130 198 L 133 199 M 174 43 L 173 45 M 170 46 L 167 49 M 165 50 L 164 51 M 161 53 L 160 55 M 0 54 L 78 91 L 85 101 L 89 91 L 86 100 L 94 108 L 97 107 M 0 55 L 70 87 L 84 100 L 83 104 L 76 106 L 0 117 L 3 116 M 157 56 L 150 62 M 198 56 L 133 86 M 193 58 L 194 58 M 145 59 L 140 64 M 189 60 L 188 61 M 184 62 L 185 62 M 148 63 L 145 66 M 182 63 L 183 63 M 180 64 L 181 64 M 177 65 L 180 65 M 143 67 L 142 69 M 173 67 L 174 67 M 166 70 L 167 70 M 164 71 L 165 71 M 0 72 L 77 94 L 77 97 L 0 88 L 75 98 M 137 72 L 136 73 M 162 72 L 163 72 M 0 73 L 77 94 L 84 100 L 0 102 L 87 101 L 95 108 L 92 113 L 94 120 L 88 118 L 44 199 M 158 74 L 157 75 M 132 76 L 131 78 M 140 77 L 137 79 M 151 77 L 152 77 M 124 78 L 127 80 M 147 79 L 148 79 M 143 81 L 142 82 M 131 83 L 130 84 M 85 87 L 89 87 L 88 89 L 103 103 L 111 97 L 106 104 L 110 104 L 120 93 L 124 93 M 196 87 L 199 87 M 191 88 L 194 88 M 182 89 L 189 89 M 115 90 L 106 104 L 117 104 L 128 96 L 181 90 M 120 94 L 111 103 L 114 108 L 125 108 L 199 126 M 122 99 L 198 100 M 121 101 L 132 101 M 119 102 L 126 105 L 199 112 M 83 103 L 82 104 M 101 104 L 100 106 M 118 104 L 199 112 M 65 107 L 68 107 M 115 109 L 129 114 M 42 110 L 49 110 M 73 110 L 97 113 L 87 193 L 89 199 L 85 199 L 89 199 M 70 111 L 73 111 M 115 111 L 119 117 L 123 117 L 125 113 L 130 114 M 133 111 L 199 126 M 66 112 L 69 112 M 63 113 L 66 113 M 76 113 L 79 113 L 81 120 L 86 116 L 92 116 L 94 120 M 62 114 L 65 113 M 75 114 L 76 117 L 83 119 L 82 125 M 114 114 L 111 122 L 116 132 L 157 199 M 55 115 L 58 115 M 73 115 L 75 118 L 0 164 M 113 115 L 110 119 L 113 117 L 111 122 L 119 138 L 156 199 M 132 115 L 198 139 M 54 116 L 57 115 M 70 116 L 0 148 M 48 117 L 51 117 M 67 117 L 70 117 M 86 117 L 85 118 M 90 117 L 94 120 M 118 117 L 120 123 L 199 194 L 199 199 L 196 199 L 199 199 M 124 117 L 199 152 M 136 117 L 199 139 M 45 118 L 46 118 M 42 119 L 43 119 M 63 119 L 64 119 M 72 119 L 71 120 M 128 119 L 136 125 M 38 120 L 41 120 M 133 120 L 199 152 M 35 121 L 36 121 M 68 121 L 63 125 M 79 121 L 82 121 L 82 125 M 128 121 L 137 126 M 31 122 L 34 122 M 74 122 L 78 122 L 76 126 L 0 197 L 4 199 M 104 122 L 114 198 L 125 199 M 27 123 L 30 123 M 117 123 L 174 199 L 171 199 L 174 199 M 24 124 L 25 124 M 51 124 L 52 124 M 72 124 L 73 123 M 90 124 L 89 129 M 117 124 L 173 199 M 20 125 L 23 125 M 17 126 L 18 126 M 61 126 L 60 127 M 89 126 L 89 128 M 94 126 L 78 176 L 73 196 L 75 199 L 70 199 L 74 199 M 13 127 L 16 127 M 84 127 L 44 199 M 10 128 L 11 128 M 58 128 L 57 129 M 66 128 L 0 181 L 2 179 M 100 128 L 100 198 L 125 199 M 7 129 L 8 129 M 141 129 L 199 166 M 3 130 L 6 130 M 63 130 L 60 133 M 71 130 L 68 133 M 0 131 L 0 132 M 129 131 L 188 199 M 77 132 L 32 199 M 138 132 L 198 180 M 50 133 L 49 134 M 58 134 L 55 137 M 141 134 L 198 180 M 65 135 L 64 136 M 75 135 L 32 199 M 85 135 L 59 199 M 45 136 L 44 137 M 89 137 L 74 199 M 53 138 L 50 141 M 83 139 L 59 199 M 37 141 L 36 142 M 65 141 L 14 199 M 159 141 L 198 166 M 48 142 L 47 144 M 34 143 L 33 144 M 63 144 L 15 199 M 31 145 L 30 146 M 44 145 L 43 147 M 113 145 L 129 199 L 133 199 M 142 148 L 188 199 M 38 150 L 37 151 M 152 151 L 199 194 L 199 199 M 34 153 L 33 155 M 44 155 L 39 161 M 29 157 L 28 158 M 25 160 L 24 162 M 20 164 L 19 165 M 110 169 L 114 198 L 125 199 M 11 171 L 10 172 M 23 175 L 12 186 M 0 195 L 2 196 M 0 199 L 5 199 M 94 199 L 125 199" 
        fill="none" 
        stroke="black" 
        stroke-width="1.5" 
        stroke-linecap="round" 
        stroke-linejoin="round"
        vector-effect="non-scaling-stroke"/>
</svg>