<svg xmlns="http://www.w3.org/2000/svg" viewBox="0 0 200 200" width="200" height="200">
  <rect width="100%" height="100%" fill="white"/>
  <path d="M 0 0 L 3 0 M 45 0 L 138 0 M 0 1 L 2 0 M 86 9 L 94 14 L 95 22 L 94 32 L 82 63 L 89 84 L 98 99 L 106 92 L 115 77 L 115 72 L 110 67 L 102 70 L 100 63 L 108 59 L 115 66 L 114 86 L 109 94 L 99 101 L 108 121 L 109 151 L 135 131 L 122 113 L 122 102 L 128 98 L 130 103 L 125 104 M 85 10 L 83 14 L 90 17 L 94 23 L 89 34 L 92 36 L 91 40 L 88 40 L 84 47 L 87 48 L 86 54 L 82 53 L 86 49 L 85 54 M 15 13 L 21 14 L 24 20 L 16 48 L 16 61 L 28 79 L 32 78 L 33 61 L 37 57 L 34 54 L 45 43 L 61 41 L 67 48 L 65 53 L 61 53 L 61 45 L 57 44 L 66 46 L 65 53 M 14 14 L 11 17 L 13 21 M 84 16 L 91 18 L 94 23 L 93 32 M 19 19 L 19 20 M 178 19 L 184 24 L 175 29 L 164 57 L 145 88 L 141 102 L 145 117 M 176 21 L 171 27 M 177 26 L 171 39 M 22 30 L 16 48 L 17 69 L 21 69 L 28 79 L 32 79 L 40 108 L 39 129 L 32 148 L 28 150 L 26 167 L 38 179 L 44 199 L 56 198 L 54 184 L 42 160 L 41 146 L 48 124 L 64 93 L 63 80 L 58 76 L 54 77 L 52 82 L 59 84 M 130 34 L 140 36 L 147 43 L 151 65 L 164 54 L 148 80 L 141 101 L 140 88 L 151 66 L 143 79 L 139 93 L 139 99 L 142 101 L 140 114 L 146 126 L 149 124 L 147 120 L 149 124 L 152 123 L 167 110 L 165 97 L 159 95 L 165 97 L 168 106 L 171 105 L 170 96 L 163 89 L 155 93 L 154 96 L 158 99 M 168 35 L 169 41 L 164 57 L 148 80 L 141 102 L 140 107 L 143 108 L 145 118 M 89 36 L 87 40 L 90 40 M 127 36 L 122 41 L 126 48 L 131 46 L 131 42 L 128 41 M 131 41 L 129 48 M 53 42 L 35 61 M 48 43 L 47 46 M 85 44 L 88 44 M 45 47 L 35 61 M 124 47 L 129 48 M 40 48 L 35 53 L 38 55 L 34 61 M 149 50 L 152 65 L 143 79 L 139 93 L 145 118 M 158 60 L 153 64 M 187 67 L 192 69 L 192 72 L 184 75 L 190 89 L 188 107 L 179 123 L 161 143 L 178 163 L 190 150 L 190 142 L 186 136 L 182 136 L 178 141 L 181 145 L 184 141 L 183 145 M 29 68 L 29 75 M 184 69 L 181 75 L 189 86 L 190 99 L 183 117 L 161 142 L 148 128 L 162 142 L 156 149 L 170 167 L 173 169 L 178 164 L 181 169 L 187 183 L 188 198 L 198 199 L 199 196 L 199 199 M 191 69 L 191 72 M 17 70 L 27 88 L 38 100 L 40 108 L 39 129 L 32 148 M 84 70 L 82 73 L 86 84 L 91 85 L 90 90 L 98 99 L 100 98 L 99 100 L 107 96 L 103 100 M 113 70 L 115 83 L 108 94 M 181 72 L 190 89 L 188 107 L 179 123 L 161 144 L 179 163 L 178 166 L 186 179 L 188 199 L 156 199 L 143 196 L 56 199 L 69 198 L 62 168 L 70 142 L 87 115 L 80 100 L 72 103 L 75 108 L 77 105 L 80 106 M 186 72 L 184 78 L 190 89 L 188 107 L 179 123 L 161 144 L 179 163 L 186 179 L 188 198 L 198 199 M 19 75 L 38 100 L 40 108 L 39 129 L 32 148 M 31 81 L 35 86 L 40 108 L 39 129 L 31 148 M 31 83 L 35 86 L 40 108 L 39 129 L 32 148 M 112 83 L 101 97 M 64 84 L 62 100 L 42 140 L 41 154 L 53 181 L 56 198 L 79 199 M 87 86 L 102 100 M 3 91 L 11 94 L 11 103 M 156 91 L 154 96 L 158 99 M 0 92 L 0 97 L 6 96 L 5 98 M 92 93 L 102 100 M 10 94 L 11 102 M 94 96 L 102 100 M 0 98 L 5 98 M 8 101 L 10 119 L 14 122 L 20 113 L 26 111 L 30 114 L 26 121 M 98 102 L 87 113 L 89 141 L 84 156 L 96 165 L 110 151 M 97 103 L 90 112 M 102 107 L 108 121 L 110 151 M 85 108 L 87 116 L 70 143 L 72 147 L 85 153 L 78 171 L 80 197 L 91 196 L 91 179 L 97 165 L 96 169 L 101 177 L 102 196 L 106 197 M 168 108 L 159 118 M 125 115 L 135 131 L 146 127 L 142 129 M 18 116 L 14 126 L 24 136 L 28 150 L 21 160 L 22 163 L 27 163 L 24 180 L 28 198 L 80 199 M 23 116 L 24 116 M 9 118 L 15 122 L 12 131 L 13 149 L 20 159 L 23 158 L 11 182 L 12 197 L 80 199 M 67 122 L 73 123 L 74 128 M 66 123 L 63 128 L 69 126 M 144 123 L 179 163 L 186 179 L 188 198 L 199 199 M 64 124 L 62 132 L 66 128 L 65 139 M 13 128 L 13 148 L 4 147 L 0 151 L 1 154 L 7 155 M 18 129 L 25 138 L 28 150 L 26 167 L 38 179 L 43 198 L 79 199 M 62 129 L 65 129 L 66 139 M 138 131 L 155 148 L 160 145 L 145 167 L 142 181 L 143 196 L 157 197 L 160 180 L 172 169 M 135 132 L 132 134 M 189 139 L 190 150 L 182 162 M 88 141 L 83 157 L 97 165 L 91 179 L 91 196 L 105 197 M 70 146 L 85 153 L 84 156 L 97 165 L 96 169 L 101 177 L 102 196 L 106 197 M 153 147 L 157 148 L 172 169 M 68 149 L 63 161 L 63 180 L 69 198 L 79 199 M 0 150 L 0 155 L 6 155 M 125 152 L 130 152 L 134 160 L 127 181 L 131 196 L 174 199 L 175 181 L 171 171 L 175 181 L 175 198 L 199 199 M 16 153 L 38 179 L 44 199 L 79 199 M 25 153 L 21 162 L 26 164 L 38 179 L 44 199 L 79 199 M 123 153 L 124 158 M 107 155 L 111 181 M 122 158 L 125 158 M 148 160 L 142 181 L 144 197 L 198 199 M 18 165 L 11 181 L 13 199 L 0 199 L 79 199 M 176 167 L 175 168 M 24 171 L 29 199 L 80 199 M 127 180 L 131 196 L 198 199 M 161 180 L 158 185 L 158 199 L 198 199 M 113 184 L 113 185 M 78 189 L 82 197 L 106 197" 
        fill="none" 
        stroke="black" 
        stroke-width="1.5" 
        stroke-linecap="round" 
        stroke-linejoin="round"
        vector-effect="non-scaling-stroke"/>
</svg>