<svg xmlns="http://www.w3.org/2000/svg" viewBox="0 0 200 200" width="200" height="200">
  <rect width="100%" height="100%" fill="white"/>
  <path d="M 0 0 L 7 0 M 21 0 L 168 0 M 194 0 L 199 2 M 0 1 L 0 2 M 57 1 L 35 18 L 31 26 L 32 34 L 38 33 L 38 27 L 46 16 L 64 8 L 74 9 L 86 16 L 92 22 L 94 33 L 100 34 L 101 25 L 96 16 L 87 8 L 72 1 L 90 10 L 100 24 L 116 7 L 130 1 L 128 3 M 145 1 L 164 15 L 172 36 L 181 36 L 189 40 L 199 52 M 56 2 L 55 3 M 118 7 L 115 8 M 130 8 L 148 10 L 160 23 L 163 35 L 171 36 L 172 42 L 188 48 L 199 65 L 199 75 L 192 86 L 178 97 L 171 97 L 170 102 L 183 101 L 193 95 L 199 87 L 198 89 M 127 9 L 119 18 M 133 9 L 128 21 L 109 32 L 107 36 L 122 43 L 134 62 L 150 42 L 163 36 L 183 37 L 199 51 M 62 10 L 57 21 L 37 35 L 52 42 L 65 62 L 81 41 L 94 34 L 106 34 L 112 20 L 117 16 L 119 19 M 70 10 L 79 25 L 100 34 L 101 42 L 107 42 L 108 38 L 108 43 L 117 48 L 124 59 L 133 61 L 136 69 L 143 68 L 146 55 L 157 47 L 163 38 L 164 41 L 171 41 L 185 59 L 199 66 L 198 72 L 190 74 L 179 84 L 173 94 L 177 97 M 141 10 L 146 20 L 162 31 L 164 36 L 181 36 L 189 40 L 199 52 M 148 11 L 160 23 L 164 36 L 181 36 L 189 40 L 199 52 M 111 12 L 101 25 L 101 33 L 107 34 L 127 48 L 132 60 L 136 62 L 136 77 L 142 76 L 142 70 L 146 71 L 163 84 L 169 97 L 178 97 M 39 13 L 31 25 L 31 41 L 37 41 L 38 37 L 42 37 L 52 42 L 61 53 L 67 69 L 73 68 L 77 55 L 85 47 L 99 41 L 108 56 L 118 64 L 126 68 L 125 60 L 136 62 L 134 69 L 127 70 L 127 76 L 137 77 L 139 85 L 149 96 L 162 103 L 170 103 L 171 110 L 190 120 L 199 141 L 185 160 L 169 167 L 170 172 L 189 166 L 199 153 L 198 156 M 53 13 L 46 22 L 43 22 L 46 22 M 79 13 L 85 17 L 84 19 L 92 22 L 95 34 L 107 34 L 108 37 L 122 43 L 132 60 L 136 62 L 135 68 L 155 76 L 163 84 L 167 94 L 161 95 L 149 87 L 142 77 L 151 82 L 161 95 L 178 97 M 122 13 L 121 14 M 60 15 L 53 25 M 163 15 L 168 22 L 171 35 L 189 40 L 199 51 M 46 17 L 42 21 L 45 22 M 50 17 L 45 22 M 115 18 L 111 22 L 114 23 M 145 19 L 162 31 L 164 36 L 181 36 L 189 40 L 199 51 M 75 21 L 88 31 L 107 34 L 108 37 L 122 43 L 132 60 L 136 62 L 136 69 L 142 69 L 155 76 L 163 84 L 169 97 L 178 97 M 41 24 L 37 35 L 46 38 L 57 47 L 63 60 L 67 62 L 67 78 L 73 76 L 72 70 L 80 73 L 90 80 L 97 93 L 101 95 L 106 84 L 114 76 L 127 71 L 124 83 L 108 96 L 108 101 L 121 96 L 132 79 L 127 90 L 119 97 M 110 25 L 107 36 L 127 48 L 132 60 L 136 62 L 135 68 L 155 76 L 163 84 L 169 97 L 177 97 M 49 27 L 48 28 M 21 35 L 31 35 L 31 40 L 18 57 L 5 63 L 2 69 L 18 78 L 29 96 L 33 95 L 36 86 L 44 77 L 59 70 L 36 52 L 32 43 L 43 60 L 53 66 L 58 65 L 58 62 L 42 49 L 38 41 L 54 54 L 59 70 L 72 69 L 85 76 L 94 85 L 98 95 L 86 92 L 73 77 L 92 95 L 108 96 L 108 105 L 120 110 L 134 130 L 153 108 L 162 104 L 163 111 L 172 110 L 180 126 L 198 139 L 177 154 L 172 164 L 178 163 M 18 36 L 21 36 M 13 39 L 0 53 M 23 42 L 28 42 M 20 43 L 21 43 M 92 43 L 84 55 L 77 59 M 168 43 L 162 56 L 142 70 L 155 76 L 163 84 L 169 97 L 178 97 M 19 44 L 14 52 L 4 59 L 4 63 L 8 63 M 99 44 L 90 59 L 75 67 M 161 44 L 150 58 L 145 59 M 17 45 L 8 54 L 11 54 M 110 45 L 120 58 L 136 62 L 136 69 L 142 69 L 155 76 L 163 84 L 169 97 L 177 97 M 182 46 L 187 53 M 117 49 L 124 59 L 136 62 L 136 69 L 142 69 L 155 76 L 163 84 L 169 97 L 177 97 M 183 49 L 187 53 M 188 49 L 193 53 L 199 66 L 199 75 M 165 50 L 158 60 M 0 51 L 0 53 M 177 51 L 185 59 L 199 66 L 199 75 M 94 53 L 89 59 M 20 54 L 17 57 M 79 54 L 77 59 M 148 54 L 146 59 M 83 55 L 80 58 M 116 55 L 127 61 L 136 62 L 135 68 L 155 76 L 163 84 L 169 97 L 178 97 M 152 55 L 149 58 M 5 57 L 4 62 L 7 63 M 15 58 L 14 59 M 52 58 L 58 62 L 58 76 L 67 78 L 73 90 L 83 99 L 99 103 L 102 96 L 108 96 L 109 102 L 102 103 L 101 109 L 107 110 L 108 106 L 113 106 L 121 111 L 130 121 L 136 137 L 143 135 L 143 130 L 138 129 L 143 129 L 154 116 L 163 111 M 112 60 L 127 69 L 142 69 L 152 74 L 163 84 L 169 97 L 178 97 M 144 61 L 142 70 L 155 76 L 163 84 L 169 97 L 177 97 M 74 63 L 75 67 M 149 65 L 148 66 M 0 68 L 3 75 L 12 81 M 191 73 L 192 73 M 58 77 L 48 90 L 37 97 L 37 100 L 46 99 L 54 94 L 64 79 L 54 94 M 114 77 L 106 85 L 102 95 L 108 96 L 108 105 L 120 110 L 130 121 L 132 128 L 127 130 L 127 135 L 134 138 L 142 137 L 144 141 L 158 148 L 166 162 L 171 165 M 5 78 L 10 87 L 16 87 L 21 94 L 30 96 L 32 103 L 39 102 L 53 111 L 64 130 L 68 129 L 80 111 L 93 104 L 93 109 L 101 110 L 112 128 L 127 134 L 128 144 L 133 144 L 134 139 L 137 146 L 146 141 L 161 151 L 167 163 L 162 165 L 162 170 L 169 172 L 169 175 L 159 199 L 198 199 L 199 196 L 198 199 M 53 79 L 56 79 L 55 83 L 47 90 M 122 79 L 125 79 L 124 83 L 120 87 L 115 86 L 111 94 M 52 80 L 43 92 M 120 81 L 116 85 L 120 87 L 116 92 M 40 82 L 33 91 L 33 95 L 38 96 L 37 100 L 40 101 L 39 110 L 47 115 L 57 128 L 62 128 L 66 137 L 72 137 L 73 131 L 68 130 L 75 129 L 93 110 L 108 110 L 127 129 L 121 127 L 112 116 L 116 116 L 127 129 L 135 130 M 0 83 L 3 90 L 13 98 L 23 103 L 39 103 L 49 108 L 59 118 L 62 128 L 74 130 L 74 135 L 89 129 L 101 112 L 88 129 M 151 83 L 161 95 L 178 97 M 191 83 L 192 86 L 185 92 M 189 84 L 185 89 M 178 85 L 173 94 L 177 97 M 0 87 L 8 95 L 22 102 L 10 110 L 0 123 M 84 87 L 84 90 L 92 95 L 108 96 L 108 105 L 120 110 L 135 130 M 11 88 L 22 95 L 38 96 L 39 104 L 57 115 L 64 130 L 74 130 L 73 134 L 78 135 M 112 89 L 110 94 M 13 90 L 23 95 L 38 96 L 39 104 L 57 115 L 64 130 L 74 130 L 73 134 L 78 135 M 155 91 L 161 95 L 178 97 M 183 92 L 186 92 M 80 97 L 93 103 L 108 103 L 109 106 L 115 107 L 128 118 L 135 130 M 186 100 L 183 101 M 177 104 L 188 110 L 199 124 M 30 105 L 32 110 L 40 111 L 47 121 M 181 107 L 188 110 L 199 123 M 29 109 L 34 111 L 37 120 L 49 132 L 57 134 L 57 129 L 51 125 L 64 130 L 74 130 L 73 134 L 77 135 M 27 110 L 24 120 L 17 128 L 0 136 L 4 142 L 8 142 L 21 152 L 27 164 L 31 163 L 34 154 L 44 144 L 56 140 L 57 135 L 71 137 L 85 144 L 94 153 L 99 164 L 114 145 L 127 140 L 122 152 L 107 165 L 107 169 L 113 169 L 122 163 L 132 145 L 130 153 L 120 165 M 22 111 L 27 111 L 26 116 L 16 128 M 108 111 L 127 129 L 136 130 M 168 111 L 162 124 L 146 135 M 149 112 L 148 113 M 20 113 L 13 122 L 3 128 L 3 135 M 91 114 L 78 126 M 180 114 L 195 129 L 199 141 M 146 115 L 138 128 L 144 129 L 158 116 L 153 123 M 14 116 L 16 118 L 13 122 M 47 116 L 57 128 L 74 130 L 73 134 L 77 135 M 12 117 L 7 122 L 10 124 M 174 118 L 184 130 L 196 135 L 199 141 M 187 118 L 192 123 L 198 140 M 0 120 L 0 122 M 184 120 L 195 129 L 198 140 M 116 121 L 122 127 L 135 130 M 82 124 L 81 125 M 5 126 L 4 127 M 0 134 L 2 135 M 64 139 L 66 145 L 72 145 L 73 140 L 85 144 L 96 156 L 97 164 L 107 164 L 111 161 L 107 165 L 107 173 L 120 178 L 128 186 L 133 199 L 141 199 L 148 183 L 162 171 L 149 165 L 139 154 L 137 147 L 139 154 L 149 165 L 164 172 L 174 172 M 57 140 L 56 145 L 65 145 L 80 166 L 94 172 L 99 172 L 101 166 L 100 171 L 107 172 L 108 179 L 122 189 M 2 141 L 4 148 L 9 150 L 14 158 L 29 165 L 30 171 L 36 170 L 36 165 L 31 164 L 36 164 L 49 149 L 56 146 L 43 160 M 73 145 L 82 151 L 90 162 L 108 164 L 109 170 M 142 145 L 152 152 L 161 164 L 171 165 M 63 146 L 59 156 L 38 171 L 52 183 L 58 199 L 68 199 L 71 189 L 93 172 L 100 172 L 100 179 L 114 199 L 123 199 L 122 193 L 119 193 L 122 193 L 125 199 L 145 199 L 161 175 L 156 188 L 147 199 L 199 199 M 73 146 L 91 165 M 144 148 L 161 164 L 172 165 M 17 149 L 27 164 L 36 164 L 36 170 L 39 170 L 37 178 L 51 192 M 120 149 L 123 149 L 117 158 M 193 149 L 182 159 L 185 160 M 6 150 L 7 153 L 10 152 L 10 156 L 22 163 L 36 164 L 36 171 L 54 186 L 57 199 L 0 199 L 0 196 L 1 199 L 41 198 L 30 182 L 29 172 L 13 167 L 0 156 L 0 153 L 13 167 L 25 171 L 38 171 L 46 177 L 54 186 L 58 199 L 74 199 L 75 194 L 93 179 L 93 174 L 94 179 L 100 180 L 89 199 L 199 199 M 119 150 L 112 160 M 180 150 L 173 161 L 176 164 M 149 151 L 161 164 L 172 165 M 82 152 L 90 162 L 108 164 L 107 169 L 110 170 M 60 153 L 51 164 M 8 154 L 12 154 L 22 163 L 36 164 L 36 170 L 54 186 L 58 199 L 198 199 M 35 154 L 31 163 L 36 164 L 36 170 L 52 183 L 58 199 L 198 199 M 186 154 L 182 159 L 185 160 M 42 157 L 42 160 M 81 157 L 95 164 L 108 164 L 107 169 L 110 170 M 186 158 L 185 160 M 39 162 L 38 163 M 76 163 L 88 170 L 107 172 L 118 177 L 128 186 L 133 199 L 199 199 M 186 168 L 181 170 M 107 178 L 111 186 M 30 179 L 42 199 L 198 199 M 93 180 L 90 186 L 80 193 M 99 180 L 114 199 L 198 199 M 167 180 L 164 190 L 158 196 L 159 199 L 198 199 M 39 181 L 46 191 L 52 193 M 114 183 L 121 189 M 43 184 L 52 193 M 87 184 L 83 191 M 41 186 L 51 192 M 89 186 L 88 187 M 81 189 L 75 195 L 76 199 L 199 199 M 88 197 L 199 199" 
        fill="none" 
        stroke="black" 
        stroke-width="1.5" 
        stroke-linecap="round" 
        stroke-linejoin="round"
        vector-effect="non-scaling-stroke"/>
</svg>