<svg xmlns="http://www.w3.org/2000/svg" viewBox="0 0 200 200" width="200" height="200">
  <rect width="100%" height="100%" fill="white"/>
  <path d="M 6 0 L 197 0 L 199 4 M 3 1 L 6 1 M 29 1 L 58 2 M 0 2 L 3 2 M 0 3 L 0 4 M 151 14 L 141 21 L 137 27 L 139 30 M 91 15 L 96 15 M 92 17 L 89 21 L 91 25 L 86 25 L 75 53 M 11 18 L 13 26 L 19 26 L 16 32 L 20 31 L 18 34 L 21 39 L 25 34 L 22 43 L 26 52 L 30 50 L 26 53 L 37 90 L 41 83 L 39 89 M 140 19 L 143 20 M 89 20 L 90 20 M 89 23 L 91 25 M 138 24 L 133 30 L 134 33 L 131 32 L 122 45 L 100 88 M 178 25 L 177 26 M 13 27 L 18 27 M 84 28 L 84 34 L 75 53 M 134 28 L 139 30 M 175 30 L 168 69 M 130 32 L 133 32 M 174 34 L 168 68 M 45 38 L 63 81 L 65 84 L 67 82 L 66 93 M 126 38 L 100 87 M 46 41 L 49 47 L 49 51 L 46 51 L 50 51 L 53 56 L 57 65 L 55 68 M 105 42 L 84 83 L 90 102 L 95 99 L 92 110 L 98 119 L 124 72 L 97 120 L 97 126 L 104 139 L 120 108 L 116 93 L 125 115 L 130 107 L 133 90 L 131 105 L 146 90 L 133 104 M 147 45 L 143 61 L 143 64 L 147 65 M 99 51 L 83 83 L 69 54 L 72 59 L 74 56 L 72 63 L 84 83 L 90 102 L 93 103 L 84 137 M 192 58 L 180 69 L 182 72 M 190 59 L 182 68 M 0 63 L 3 71 L 11 77 L 11 81 L 17 80 L 14 85 L 22 97 M 29 63 L 41 111 L 38 141 L 50 156 L 53 149 L 51 161 L 64 199 L 67 198 L 67 164 L 63 152 L 63 133 L 64 125 L 63 152 L 66 158 L 73 125 L 49 94 L 71 123 L 72 116 L 73 121 L 76 118 L 81 94 L 76 118 L 72 124 L 76 146 M 142 65 L 141 68 L 146 70 M 0 66 L 7 76 L 11 77 L 10 82 L 15 82 L 14 86 L 11 86 L 18 89 L 22 98 M 71 67 L 69 78 M 141 69 L 141 78 M 178 72 L 183 73 M 177 73 L 174 81 L 169 80 L 149 106 M 199 74 L 190 99 M 166 75 L 166 83 L 149 107 M 173 77 L 174 81 M 197 78 L 190 100 M 170 79 L 174 81 M 64 84 L 67 84 L 66 94 M 98 91 L 97 96 M 178 93 L 165 104 L 168 124 L 175 120 L 171 124 M 176 94 L 175 96 M 35 97 L 25 128 L 39 138 L 43 158 M 34 98 L 28 112 L 25 105 L 29 112 L 25 126 L 11 115 L 25 126 L 21 148 L 30 160 L 32 175 L 39 182 L 40 172 L 34 138 L 39 138 L 40 144 L 52 156 L 51 161 L 58 180 L 59 199 L 70 199 L 71 193 L 71 198 L 75 198 L 78 153 L 82 148 L 79 140 L 81 143 L 83 139 L 81 151 L 86 157 L 94 130 L 99 127 L 109 154 L 113 151 L 125 116 L 127 114 L 125 120 L 128 125 L 140 111 L 127 126 L 130 148 L 133 151 L 155 117 L 157 119 L 153 125 M 69 99 L 69 104 M 170 99 L 161 111 L 162 108 L 166 109 L 174 149 L 183 139 L 184 125 L 184 133 L 196 118 L 183 136 L 184 148 L 181 154 M 24 101 L 24 102 M 3 105 L 10 138 M 70 107 L 71 112 M 120 109 L 126 115 L 126 124 L 129 125 M 118 111 L 102 151 M 187 111 L 187 112 M 128 112 L 125 120 L 129 125 M 60 115 L 60 118 M 94 116 L 99 119 M 88 118 L 84 137 M 185 118 L 185 121 M 154 119 L 157 119 M 123 122 L 115 141 L 116 146 M 46 123 L 46 136 M 150 123 L 132 152 L 132 162 L 135 166 L 140 150 L 135 167 L 136 182 L 140 179 L 153 146 L 154 133 L 155 141 L 162 134 L 156 141 M 57 128 L 54 145 M 167 129 L 175 149 L 173 155 L 177 171 L 183 167 L 181 171 M 1 130 L 8 144 L 11 143 L 10 149 L 14 159 L 19 159 L 20 150 L 23 149 L 30 160 L 37 199 L 41 195 L 40 182 L 41 194 L 46 199 L 53 198 L 46 170 L 54 199 L 78 199 L 77 191 L 79 199 L 82 199 L 83 184 L 83 198 L 89 199 L 87 168 L 84 170 L 83 178 M 25 130 L 30 130 L 39 138 L 40 144 L 52 156 L 58 190 L 62 192 L 64 199 L 94 199 L 96 188 L 90 180 L 94 180 L 95 168 L 96 187 L 99 172 L 96 193 L 99 199 L 104 199 L 106 168 L 110 160 L 109 155 L 111 153 L 110 159 L 114 157 L 113 152 L 113 158 M 95 130 L 83 178 M 150 130 L 145 140 M 39 131 L 38 141 L 52 156 L 51 161 L 64 199 L 117 199 L 117 183 L 110 161 L 115 181 L 118 182 L 123 160 L 119 182 M 73 131 L 76 135 L 76 146 M 197 132 L 188 144 M 2 133 L 11 145 L 13 158 L 18 161 L 18 170 L 22 174 L 31 199 M 72 133 L 66 159 L 68 199 L 121 199 L 131 162 L 136 166 L 136 198 L 139 199 L 142 192 L 140 198 L 145 199 L 146 188 L 143 185 L 153 156 L 150 164 L 152 170 M 147 134 L 145 140 M 195 134 L 187 145 M 15 137 L 30 160 L 32 175 L 40 182 L 41 194 L 45 197 L 40 199 L 125 199 L 125 190 L 123 199 L 154 199 L 155 173 L 164 139 L 155 174 L 156 190 L 159 189 L 171 156 L 176 159 L 166 186 L 166 199 L 155 199 L 160 198 L 159 190 L 160 198 L 166 199 M 17 141 L 30 160 L 32 175 L 40 182 L 41 194 L 46 199 L 166 199 M 180 141 L 173 155 L 180 175 L 182 192 L 188 190 L 188 172 L 196 150 L 188 172 L 189 199 L 180 199 L 183 198 L 183 193 L 183 198 L 188 199 M 48 143 L 48 144 M 103 146 L 106 146 L 110 154 L 114 178 L 118 182 M 102 148 L 102 152 M 152 148 L 139 181 M 130 149 L 134 151 M 0 152 L 13 174 L 21 172 L 30 199 M 37 152 L 41 194 L 46 199 L 165 199 M 124 153 L 124 154 M 0 154 L 11 172 L 16 175 L 15 186 L 19 187 L 20 182 L 26 199 M 100 155 L 100 158 M 182 158 L 182 161 M 199 161 L 192 184 L 192 198 L 198 199 L 199 196 L 199 199 M 98 163 L 98 166 M 150 166 L 152 170 M 173 166 L 174 166 M 172 169 L 165 199 M 0 172 L 4 185 L 8 183 L 12 199 L 9 199 L 12 199 M 164 173 L 159 196 L 166 199 M 177 174 L 172 199 M 0 175 L 7 199 L 0 199 L 6 199 M 176 175 L 172 199 M 146 182 L 147 199 L 165 199 M 33 185 L 36 199 L 165 199 M 70 185 L 71 188 M 112 185 L 112 192 M 15 187 L 20 198 M 20 187 L 26 199 M 15 188 L 16 199 M 14 189 L 16 199 M 181 192 L 184 192 L 184 199 L 189 199 M 192 199 L 199 199" 
        fill="none" 
        stroke="black" 
        stroke-width="1.5" 
        stroke-linecap="round" 
        stroke-linejoin="round"
        vector-effect="non-scaling-stroke"/>
</svg>