<svg xmlns="http://www.w3.org/2000/svg" viewBox="0 0 200 200" width="200" height="200">
  <rect width="100%" height="100%" fill="white"/>
  <path d="M 4 0 L 55 0 L 80 4 L 127 1 L 134 2 L 139 7 L 141 1 L 137 0 L 199 0 L 199 3 M 6 1 L 0 14 M 13 1 L 2 26 L 2 39 L 11 52 L 20 47 L 20 1 L 20 14 L 29 14 L 34 26 L 32 44 L 27 47 L 21 45 L 27 47 M 29 1 L 37 12 L 41 25 L 40 41 L 33 52 M 49 1 L 82 4 L 82 13 L 90 16 L 93 24 L 93 39 L 84 45 L 91 53 L 101 40 L 101 25 L 98 19 L 100 21 L 101 40 L 94 51 M 149 1 L 155 17 L 154 30 L 150 38 L 142 41 L 142 49 M 159 1 L 162 10 L 161 42 L 164 50 L 176 59 L 183 54 L 182 47 L 177 52 L 170 50 L 167 35 L 176 18 L 185 15 L 186 6 L 184 20 L 193 25 L 196 41 L 194 50 L 184 54 L 189 61 L 193 61 L 199 53 L 199 56 M 0 3 L 3 5 L 0 15 M 89 3 L 90 6 M 118 3 L 114 20 M 128 3 L 122 14 L 122 26 L 128 36 L 134 37 L 139 32 L 141 7 L 139 32 L 142 40 L 145 40 M 0 5 L 0 8 M 76 6 L 81 6 L 78 30 L 83 44 L 86 44 M 126 6 L 122 14 L 122 27 L 125 33 L 130 37 L 140 33 L 145 40 M 75 7 L 64 23 L 67 42 M 73 8 L 64 22 L 64 34 L 68 43 M 192 8 L 199 23 M 115 10 L 114 19 M 8 12 L 2 26 L 2 39 L 9 51 L 16 52 L 20 48 L 22 50 L 20 61 M 36 12 L 40 19 L 41 37 L 33 52 M 81 14 L 91 18 L 92 41 M 193 14 L 199 23 M 22 15 L 18 33 L 21 45 L 26 47 M 58 18 L 58 19 M 185 22 L 182 46 L 177 52 M 115 25 L 116 33 L 131 50 L 135 63 M 51 28 L 52 51 L 60 54 L 64 65 L 63 83 L 52 89 L 51 100 L 68 96 M 169 32 L 167 44 L 176 52 M 115 33 L 115 50 L 125 54 L 128 61 L 126 82 L 120 85 L 114 83 L 115 97 L 122 95 L 119 98 M 152 34 L 150 38 M 119 36 L 131 50 L 135 62 M 57 39 L 72 63 L 73 75 L 67 88 M 46 41 L 29 65 L 30 81 L 38 92 M 31 44 L 30 45 M 60 44 L 67 52 L 73 69 L 72 80 L 67 89 M 83 46 L 82 51 L 85 55 L 90 54 L 88 55 M 107 49 L 115 49 L 114 82 L 108 87 L 102 87 L 94 76 L 100 84 L 98 67 L 102 58 L 98 68 L 101 82 L 104 84 L 114 81 L 119 85 M 69 50 L 82 52 L 80 53 M 106 50 L 115 59 L 113 80 L 119 85 M 193 50 L 192 51 M 0 52 L 7 67 L 7 82 L 0 92 L 3 89 L 1 90 M 52 52 L 49 70 L 52 95 L 50 100 L 44 98 L 56 101 M 74 52 L 81 53 M 44 53 L 51 56 L 48 83 L 38 85 L 34 74 L 35 66 L 43 54 L 35 66 L 34 74 L 38 85 L 48 83 L 46 85 M 106 53 L 115 59 L 113 80 L 120 85 M 184 53 L 187 53 M 101 54 L 99 56 M 167 54 L 176 59 L 183 55 L 178 59 M 0 55 L 7 67 L 7 82 L 1 90 M 84 55 L 84 58 M 60 56 L 64 65 L 64 80 L 61 85 M 185 58 L 185 67 M 159 59 L 159 76 L 171 80 L 176 101 L 171 117 L 162 119 L 157 116 L 157 130 L 166 129 L 178 118 L 182 104 L 180 115 L 171 125 M 31 60 L 29 77 L 31 84 L 39 93 M 96 60 L 95 61 M 127 61 L 128 77 L 124 83 M 199 63 L 195 71 L 199 88 M 136 65 L 133 82 L 127 90 M 0 67 L 0 82 M 168 67 L 178 82 M 169 69 L 178 82 M 149 75 L 159 77 L 157 115 L 153 119 L 146 118 L 139 105 L 141 87 L 148 76 L 140 91 L 139 105 L 146 118 L 152 119 L 157 116 L 157 131 L 151 130 L 161 131 M 85 78 L 85 95 L 93 99 L 96 115 L 83 123 L 89 129 L 89 135 L 95 136 L 111 119 L 104 128 M 133 79 L 127 91 M 141 79 L 141 80 M 170 80 L 176 99 L 170 117 M 19 81 L 37 103 L 39 120 M 102 84 L 103 87 L 110 85 L 107 87 M 19 85 L 18 99 L 28 102 L 31 120 L 29 127 L 18 131 L 17 134 L 21 139 L 28 138 M 135 86 L 132 92 L 132 105 L 144 123 M 23 88 L 37 103 L 39 120 M 79 90 L 85 90 L 85 105 L 95 105 L 96 114 L 89 121 M 78 91 L 68 107 L 70 123 L 79 126 L 83 122 L 84 105 L 95 105 L 96 115 L 92 118 M 76 93 L 68 107 L 68 119 L 74 126 L 79 127 L 82 124 L 78 129 L 78 138 L 88 137 M 85 97 L 93 99 L 96 109 L 93 118 M 66 98 L 61 118 L 68 132 L 76 137 L 75 140 M 115 98 L 118 98 M 8 99 L 28 102 L 31 112 L 29 127 M 7 100 L 0 114 L 2 127 L 6 130 L 15 127 L 17 103 L 15 128 L 16 131 L 20 131 M 6 101 L 0 113 L 0 122 L 2 128 L 13 130 M 103 103 L 103 104 M 199 104 L 193 119 L 199 135 M 62 107 L 61 118 L 64 127 L 68 133 L 83 139 M 104 108 L 102 121 M 117 108 L 119 129 L 126 132 L 129 139 L 129 153 L 124 159 L 126 161 L 131 161 L 136 152 L 136 135 L 122 112 L 136 135 L 136 152 L 130 161 M 135 113 L 143 122 M 49 120 L 50 131 L 58 132 L 70 147 L 71 162 L 68 172 M 186 121 L 183 140 L 190 143 L 194 150 L 195 169 L 190 179 L 181 180 L 180 183 L 187 191 L 196 182 L 190 190 M 193 123 L 199 135 M 181 127 L 185 127 L 185 132 L 180 149 L 179 171 L 180 180 L 184 181 M 78 128 L 77 137 L 82 139 M 180 128 L 164 145 L 158 157 L 158 171 L 166 186 M 35 129 L 34 132 M 111 129 L 126 132 L 129 139 L 129 153 L 120 160 L 120 172 M 103 130 L 99 134 L 99 147 L 109 164 L 116 161 L 108 158 L 104 141 L 109 130 L 112 131 M 178 130 L 177 131 M 43 131 L 46 134 L 50 132 L 47 135 L 46 160 L 49 172 L 52 175 L 58 174 L 64 160 L 62 144 L 56 133 L 59 133 L 58 135 L 61 135 L 70 147 L 71 162 L 68 172 M 43 132 L 32 140 L 27 150 M 118 132 L 118 158 L 131 161 M 190 132 L 199 146 M 43 133 L 48 134 L 47 137 L 40 138 L 35 143 L 31 152 L 31 163 L 35 170 L 46 168 L 38 177 L 40 181 L 50 185 L 52 176 L 52 182 L 59 180 L 57 182 M 108 133 L 104 141 L 106 154 L 111 160 L 118 160 M 175 133 L 161 149 L 157 162 L 158 171 L 166 187 M 16 134 L 10 141 L 5 139 L 9 141 L 16 135 L 10 141 M 36 135 L 28 145 L 27 151 M 191 135 L 199 147 M 96 136 L 95 138 M 18 137 L 16 144 M 38 139 L 30 159 L 34 170 L 44 170 L 37 178 L 27 166 L 38 180 L 49 184 M 170 145 L 180 149 L 179 171 L 181 180 L 184 181 M 169 146 L 166 152 M 0 148 L 7 165 L 5 179 L 0 186 M 0 149 L 7 165 L 5 179 L 0 186 M 100 151 L 109 164 L 116 162 L 113 164 M 89 152 L 90 167 L 98 169 L 103 181 L 104 199 L 110 198 L 110 180 L 98 156 L 110 180 L 111 199 L 127 198 L 126 185 L 131 174 L 126 191 L 127 198 L 132 198 L 132 180 L 135 175 L 142 174 L 146 158 L 142 173 L 150 175 L 163 199 L 132 199 L 144 198 L 142 175 L 144 198 L 163 199 M 164 156 L 164 159 M 0 162 L 0 173 M 17 165 L 16 182 L 24 183 L 33 199 M 63 166 L 57 174 M 163 166 L 167 182 L 173 187 L 179 183 L 175 187 M 90 168 L 90 199 L 162 199 M 84 169 L 90 169 L 89 199 L 65 199 L 71 198 L 68 185 L 74 175 L 69 182 L 68 192 L 72 199 L 76 198 L 75 182 L 78 170 L 84 170 L 82 171 M 98 171 L 104 185 L 104 199 L 163 199 M 80 172 L 74 187 L 77 199 L 163 199 M 199 176 L 199 179 M 27 178 L 39 191 M 134 178 L 131 183 L 133 199 L 163 199 M 151 178 L 157 185 L 162 199 M 188 179 L 189 179 M 32 182 L 39 191 M 17 184 L 17 198 L 26 199 M 11 186 L 17 186 L 17 199 L 0 199 L 0 193 L 2 199 L 10 187 M 26 186 L 32 199 M 171 186 L 176 187 M 184 191 L 187 191 M 4 197 L 25 199 M 199 197 L 198 199 M 167 199 L 168 199" 
        fill="none" 
        stroke="black" 
        stroke-width="1.5" 
        stroke-linecap="round" 
        stroke-linejoin="round"
        vector-effect="non-scaling-stroke"/>
</svg>