<svg xmlns="http://www.w3.org/2000/svg" viewBox="0 0 200 200" width="200" height="200">
  <rect width="100%" height="100%" fill="white"/>
  <path d="M 0 0 L 167 0 M 169 0 L 176 0 M 193 0 L 199 0 L 199 3 M 0 1 L 0 4 M 26 1 L 33 13 L 30 31 L 18 39 L 4 38 L 0 34 L 8 39 L 20 38 M 37 1 L 42 14 L 41 29 L 36 37 L 38 40 M 49 1 L 52 24 L 45 43 L 26 57 L 12 59 L 0 56 L 15 59 M 59 1 L 61 8 L 66 6 L 68 1 L 64 7 M 134 1 L 134 25 L 146 53 L 161 65 L 173 69 L 199 68 M 148 1 L 144 12 L 144 26 L 154 45 L 160 41 L 153 22 L 154 9 L 158 1 L 153 22 L 160 39 L 176 49 L 191 49 L 199 45 L 198 47 M 170 1 L 163 13 L 166 29 L 180 39 L 198 35 M 168 4 L 163 13 L 166 30 L 175 38 L 188 39 M 38 5 L 42 14 L 42 24 L 35 39 L 25 47 L 17 49 L 0 48 L 0 45 L 8 49 L 17 49 M 146 5 L 144 27 L 152 44 L 163 54 L 175 59 L 191 60 L 199 56 L 198 58 M 29 6 L 33 13 L 33 23 L 25 36 M 87 7 L 110 7 L 134 13 L 134 24 L 110 17 L 77 19 L 62 25 L 60 37 L 83 28 L 109 27 L 138 38 L 146 51 L 142 58 L 152 73 L 156 88 L 154 116 L 142 142 L 147 143 L 159 133 L 166 108 L 166 85 L 159 64 L 170 67 L 175 77 L 177 106 L 173 130 L 182 127 L 186 108 L 183 71 L 187 99 L 181 128 L 190 129 L 192 126 L 195 106 L 193 70 L 195 106 L 191 128 L 195 129 L 196 126 L 199 132 M 180 7 L 190 9 L 195 16 L 193 26 L 182 29 L 173 22 L 173 14 L 180 8 L 174 13 L 173 21 L 180 28 L 187 29 M 11 8 L 19 9 L 24 16 L 22 26 L 12 30 L 3 23 L 5 12 L 10 9 L 4 14 L 3 23 L 14 30 M 60 8 L 63 14 L 86 8 M 110 8 L 134 13 L 138 39 L 146 53 L 154 60 L 173 69 L 193 70 L 195 106 L 191 128 L 199 133 M 19 10 L 24 16 L 20 28 M 62 15 L 62 24 L 66 24 M 85 17 L 111 17 L 134 24 L 138 39 L 146 53 L 161 65 L 179 70 L 193 70 L 195 106 L 191 128 L 199 132 M 76 19 L 79 19 M 74 20 L 75 20 M 71 21 L 74 21 M 192 26 L 191 27 M 50 29 L 45 43 L 37 50 M 69 34 L 66 36 M 129 35 L 138 38 L 146 53 L 161 65 L 179 70 L 193 70 L 195 106 L 191 128 L 199 132 M 98 37 L 122 42 L 142 56 L 152 73 L 156 88 L 154 116 L 142 143 L 129 153 L 110 160 L 88 160 L 61 148 L 65 161 L 69 165 L 89 171 L 117 170 L 131 166 L 145 144 L 132 165 L 129 187 L 132 199 L 142 199 L 140 173 L 153 150 L 167 141 L 178 138 L 192 139 L 199 144 M 60 38 L 52 51 L 57 56 L 76 42 L 97 38 M 59 39 L 53 50 L 38 64 L 31 82 L 29 105 L 35 129 L 50 136 L 41 116 L 39 97 L 43 78 L 53 61 L 61 53 L 57 57 L 63 63 L 86 49 L 110 49 L 120 52 L 135 63 L 146 87 L 147 104 L 144 119 L 138 131 L 127 143 L 106 151 L 90 150 L 73 144 L 61 135 L 54 125 L 48 100 L 52 81 L 64 63 L 56 73 L 49 93 L 50 115 L 55 126 L 67 140 L 82 148 L 95 151 L 115 149 M 111 39 L 128 45 L 142 56 L 152 73 L 156 88 L 156 107 L 152 123 L 142 139 L 142 142 L 146 143 M 162 41 L 170 47 L 185 50 M 30 43 L 29 44 M 76 43 L 73 44 M 25 46 L 24 47 M 21 47 L 24 47 M 66 49 L 63 52 M 160 52 L 175 59 L 191 60 M 32 53 L 31 54 M 28 55 L 29 55 M 26 56 L 27 56 M 22 57 L 25 57 M 57 58 L 45 74 L 39 98 L 41 116 L 50 137 L 60 148 L 80 158 L 110 160 M 90 58 L 108 58 L 119 63 L 128 69 L 135 82 L 138 105 L 127 127 L 134 135 L 127 143 M 87 59 L 88 59 M 108 59 L 128 69 L 137 88 L 138 105 L 130 124 L 122 132 L 107 138 L 90 138 L 75 132 L 68 127 L 59 109 L 58 98 L 63 80 L 72 68 L 85 60 M 42 60 L 41 62 M 68 60 L 65 62 M 35 63 L 39 63 L 29 91 L 29 105 L 35 128 L 14 124 L 0 129 L 0 124 L 2 127 M 134 63 L 144 79 L 147 95 L 144 119 L 136 133 M 32 64 L 26 68 L 20 85 L 19 105 L 23 125 L 50 137 L 60 148 L 75 156 L 88 160 L 109 160 M 0 65 L 6 69 L 27 67 L 19 93 L 20 114 L 24 126 L 50 137 L 60 148 L 75 156 L 88 160 L 109 160 M 0 67 L 0 70 M 96 68 L 103 68 L 118 75 L 124 82 L 127 92 M 5 69 L 1 89 L 1 114 L 5 126 L 13 125 M 72 69 L 62 83 L 58 98 L 63 119 L 69 127 L 83 136 L 110 137 M 92 69 L 95 69 M 15 70 L 10 90 L 10 110 L 14 124 L 21 126 M 89 70 L 90 70 M 86 71 L 87 71 M 85 72 L 74 81 L 69 90 L 68 105 L 72 115 L 86 127 L 110 127 L 124 115 L 128 96 L 125 114 L 115 124 M 113 73 L 124 82 L 127 92 M 98 77 L 112 81 L 120 97 L 115 112 L 102 119 L 86 115 L 79 105 L 79 92 L 82 86 L 88 80 L 96 78 M 12 79 L 10 110 L 14 124 L 21 126 M 92 79 L 80 90 L 79 105 L 87 115 L 102 119 M 107 79 L 117 87 L 120 97 L 119 105 L 113 114 M 98 87 L 109 94 L 109 102 L 102 109 L 95 109 L 88 102 L 88 94 L 97 88 M 1 88 L 1 114 L 4 125 L 9 126 M 92 90 L 88 94 L 89 104 L 95 109 L 102 109 M 108 94 L 109 102 L 104 108 M 165 113 L 159 132 L 173 130 M 172 124 L 173 130 M 125 128 L 122 132 M 129 131 L 134 135 L 126 143 M 159 134 L 158 135 M 6 135 L 30 137 L 52 154 L 60 176 L 58 199 L 68 198 L 70 176 L 67 164 L 83 170 L 105 172 M 25 136 L 39 142 L 54 157 L 60 176 L 57 199 L 18 199 L 34 198 L 41 184 L 40 172 L 36 165 L 24 156 L 10 155 L 0 161 L 2 159 M 0 137 L 3 137 M 195 141 L 199 143 M 167 142 L 160 146 M 8 145 L 28 147 L 43 158 L 50 174 L 48 199 L 153 199 L 151 173 L 158 157 L 176 149 L 190 149 L 199 153 M 4 146 L 7 146 M 136 146 L 133 150 M 0 147 L 3 147 M 28 148 L 40 155 L 48 167 L 48 199 L 166 199 L 161 186 L 165 168 L 174 160 L 181 158 L 192 160 L 199 166 M 157 148 L 147 158 L 140 173 L 140 190 L 143 198 L 198 199 L 199 193 L 198 199 M 190 150 L 199 153 M 130 151 L 129 153 M 60 152 L 69 165 L 89 171 L 105 172 M 9 155 L 24 156 L 37 166 L 41 184 L 35 199 L 199 199 M 6 156 L 9 156 M 4 157 L 5 157 M 192 161 L 199 166 M 157 163 L 151 174 L 151 190 L 155 199 L 198 199 M 15 165 L 24 167 L 30 176 L 28 186 L 17 192 L 8 189 L 3 182 L 5 171 L 14 166 M 22 167 L 30 176 L 29 184 L 24 189 M 166 168 L 161 177 L 161 186 L 168 199 L 198 199 M 8 169 L 3 175 L 3 182 L 9 189 L 16 191 M 179 169 L 189 170 L 194 178 L 192 187 L 183 192 L 173 187 L 172 175 L 179 170 L 172 176 L 171 182 L 177 190 L 184 192 M 187 170 L 194 178 L 189 190 M 14 174 L 21 177 L 21 181 L 15 183 L 13 176 L 14 182 L 18 183 M 19 175 L 19 183 M 70 175 L 98 182 L 130 177 L 128 188 L 112 191 L 90 191 L 70 186 L 91 191 L 112 191 M 126 178 L 123 179 M 78 179 L 105 182 M 125 188 L 128 188 M 128 192 L 131 192 L 132 199 L 199 199 M 127 193 L 131 192 L 132 199 L 198 199 M 0 194 L 1 199 L 11 199 M 0 199 L 11 199" 
        fill="none" 
        stroke="black" 
        stroke-width="1.5" 
        stroke-linecap="round" 
        stroke-linejoin="round"
        vector-effect="non-scaling-stroke"/>
</svg>