<svg xmlns="http://www.w3.org/2000/svg" viewBox="0 0 200 200" width="200" height="200">
  <rect width="100%" height="100%" fill="white"/>
  <path d="M 1 0 L 168 0 M 197 0 L 199 1 M 0 1 L 0 3 M 64 1 L 123 1 M 88 8 L 91 8 M 180 8 L 187 10 L 192 16 L 199 13 L 199 23 M 40 9 L 46 10 L 50 17 L 57 18 L 67 13 L 76 17 L 87 9 L 85 15 L 88 18 L 92 18 L 95 13 L 100 13 L 103 19 L 107 19 L 112 14 L 120 17 L 132 12 L 140 19 L 155 16 L 158 20 L 172 16 L 180 9 L 177 10 M 21 11 L 25 14 L 34 14 L 37 11 L 34 20 L 41 24 L 46 24 L 49 17 L 61 18 L 63 23 L 75 17 M 10 12 L 19 12 M 47 12 L 50 17 L 61 18 L 62 23 L 56 28 L 50 28 L 47 24 L 50 28 L 55 28 M 8 13 L 6 20 L 10 22 L 17 19 L 17 14 L 18 20 L 25 19 L 26 15 L 28 20 L 56 28 M 23 13 L 27 14 L 28 20 L 55 28 M 7 14 L 0 17 M 110 16 L 108 21 L 113 25 L 118 24 L 119 18 L 119 28 L 128 35 L 138 32 L 140 20 L 141 29 L 146 29 L 150 25 L 148 19 L 150 25 L 162 20 M 173 16 L 172 23 L 175 28 L 187 27 L 191 16 L 197 16 L 199 23 M 165 17 L 162 20 M 102 19 L 108 19 L 111 24 L 119 26 L 122 32 L 132 35 M 17 20 L 24 20 M 6 22 L 0 24 L 6 23 M 157 22 L 156 23 M 169 22 L 172 22 L 178 32 M 190 24 L 195 25 M 60 25 L 59 26 M 192 25 L 195 25 M 83 26 L 70 34 M 80 27 L 83 27 M 149 27 L 148 28 M 165 29 L 177 31 M 75 30 L 74 31 M 140 30 L 137 33 M 161 30 L 162 30 M 156 33 L 144 45 M 154 34 L 153 36 M 164 34 L 174 35 L 192 44 L 198 43 M 89 35 L 90 35 M 84 36 L 87 36 M 80 37 L 83 37 M 199 37 L 191 39 L 199 38 M 16 38 L 29 42 L 46 57 L 60 54 L 78 38 M 157 38 L 135 59 L 122 58 L 113 49 L 122 58 L 130 60 M 11 39 L 14 39 M 108 39 L 108 40 M 8 40 L 9 40 M 96 41 L 99 41 M 183 41 L 194 44 M 73 42 L 70 44 M 3 43 L 0 46 L 1 44 M 88 45 L 110 64 L 116 64 L 119 75 L 125 72 L 131 77 L 140 76 L 144 70 L 150 69 L 157 59 L 169 62 L 174 55 L 184 59 L 191 56 L 199 62 L 199 73 L 195 77 L 199 81 M 32 46 L 42 56 L 53 57 M 87 46 L 85 58 L 92 61 L 97 56 L 102 64 L 108 63 L 111 69 L 117 68 L 118 79 L 122 84 L 128 83 L 130 78 L 131 85 L 138 86 L 142 81 L 141 76 L 143 82 L 150 84 L 155 77 L 151 69 L 156 76 L 163 76 L 169 70 L 168 63 L 169 70 L 177 81 L 187 82 L 195 78 L 199 82 M 129 48 L 130 48 M 66 49 L 63 52 M 91 49 L 96 53 L 103 69 L 112 69 M 147 49 L 140 56 M 77 50 L 84 52 L 84 65 L 87 65 L 88 61 L 93 61 L 95 66 L 101 66 L 109 71 L 133 91 L 139 91 L 139 86 L 139 89 L 144 91 L 148 85 L 148 88 L 152 89 L 151 84 L 154 88 L 161 88 L 162 77 L 164 86 L 174 87 L 177 81 L 175 87 L 178 88 M 76 51 L 75 56 L 79 62 L 93 61 L 93 65 L 88 65 L 101 66 L 111 75 L 118 77 L 125 87 L 133 91 L 143 91 M 75 52 L 75 57 L 67 60 L 70 68 L 76 68 L 79 63 L 80 66 L 101 66 L 118 77 L 126 87 L 133 91 L 144 91 M 122 52 L 125 53 M 14 53 L 13 59 L 16 59 L 19 53 L 26 56 L 28 63 L 20 66 L 23 73 L 30 72 L 34 64 L 38 66 L 40 73 L 53 72 L 55 78 L 59 75 L 57 68 L 60 64 L 67 63 L 68 73 L 73 69 L 69 75 L 65 74 L 62 79 L 54 82 L 42 81 L 28 73 L 32 75 L 31 72 L 39 72 L 41 80 L 46 81 L 47 75 L 46 81 L 54 82 M 13 54 L 7 63 L 9 70 L 54 82 M 59 55 L 56 56 M 101 55 L 108 61 L 111 69 M 25 56 L 28 63 M 69 57 L 67 64 L 70 68 L 81 66 M 138 57 L 137 58 M 182 58 L 183 58 M 194 58 L 199 62 L 199 72 L 195 77 L 199 81 M 17 59 L 21 65 M 9 60 L 0 66 M 60 65 L 57 70 L 64 75 L 62 79 M 0 70 L 3 75 L 12 70 L 12 75 L 7 75 L 11 75 M 169 71 L 177 81 L 177 88 M 167 72 L 162 77 L 163 85 L 177 88 M 0 73 L 3 75 L 0 82 M 12 73 L 12 75 M 67 73 L 69 75 M 0 76 L 0 83 M 129 76 L 131 85 L 139 86 L 143 91 M 58 77 L 56 81 M 154 79 L 151 83 L 153 89 M 189 81 L 189 84 M 142 82 L 151 84 L 154 88 L 161 88 M 186 83 L 185 85 M 140 84 L 139 89 L 143 91 M 148 89 L 153 89 M 11 98 L 22 101 L 37 117 L 44 117 L 42 118 M 94 98 L 104 105 M 8 99 L 11 99 M 96 99 L 104 105 M 76 100 L 84 100 L 97 106 L 121 132 L 131 136 L 142 135 M 72 101 L 75 101 M 2 102 L 0 104 L 2 103 M 69 102 L 45 126 L 33 125 L 15 105 L 0 109 L 2 108 M 67 103 L 68 103 M 7 105 L 20 108 L 33 125 L 47 124 L 44 126 M 26 105 L 36 117 L 43 118 M 64 105 L 63 107 M 75 106 L 92 111 L 116 136 L 126 142 M 71 107 L 74 107 M 97 107 L 121 132 L 138 136 M 69 108 L 70 108 M 173 108 L 196 120 M 59 109 L 51 121 M 67 109 L 57 123 M 166 109 L 154 119 M 66 110 L 56 124 M 89 110 L 119 139 L 127 142 M 147 110 L 148 110 M 179 110 L 196 120 M 9 111 L 14 112 M 146 111 L 145 112 M 162 111 L 159 114 M 76 114 L 77 117 L 85 119 L 88 126 L 94 127 L 106 145 L 121 157 L 142 159 L 154 153 L 160 145 L 176 142 L 186 153 L 198 159 L 199 157 L 199 168 M 172 116 L 192 129 L 199 129 M 75 117 L 71 121 L 73 131 L 81 132 L 87 127 M 168 117 L 171 117 M 165 118 L 146 133 M 82 119 L 85 119 L 88 126 L 97 130 L 100 136 L 97 144 L 88 148 L 87 172 M 116 119 L 119 122 M 163 119 L 162 121 M 180 120 L 188 127 L 198 129 M 20 122 L 21 123 M 159 122 L 154 127 M 151 129 L 150 130 M 0 130 L 10 132 L 23 151 L 33 156 L 43 156 L 60 147 L 65 142 L 67 134 L 71 132 M 8 132 L 15 140 L 7 150 L 10 159 L 19 161 L 24 153 L 42 156 L 46 168 L 56 171 L 66 165 L 66 154 L 61 147 L 66 154 L 65 166 L 70 172 L 88 173 M 158 132 L 141 143 L 129 143 L 143 142 M 80 133 L 81 144 L 91 147 M 157 133 L 150 138 M 68 134 L 65 142 L 69 146 L 81 145 L 84 150 L 88 150 L 88 173 M 148 139 L 147 140 M 97 142 L 96 145 M 104 142 L 107 147 L 102 150 L 101 155 L 106 160 L 111 160 L 116 155 L 126 159 L 143 159 L 145 169 L 135 176 L 137 182 L 146 183 L 150 178 L 157 178 L 163 187 L 170 190 L 192 190 M 13 144 L 6 150 L 0 151 L 0 148 L 7 150 L 9 159 L 3 169 L 10 179 L 14 180 L 20 174 L 19 162 L 20 174 L 27 180 L 40 180 L 44 177 L 46 169 L 56 171 M 62 144 L 61 147 L 66 154 L 66 168 L 72 173 L 80 174 M 66 144 L 75 147 M 165 144 L 159 155 L 160 163 L 165 169 L 180 170 L 185 162 L 185 153 L 189 153 L 194 161 L 199 161 L 199 167 M 178 144 L 186 153 L 199 159 L 199 167 M 160 146 L 159 147 M 19 147 L 26 154 L 43 156 L 46 168 L 56 171 M 81 148 L 87 151 L 87 172 M 111 149 L 126 159 L 143 159 L 145 169 L 142 171 M 162 150 L 160 154 L 155 154 L 159 155 L 162 167 L 168 171 L 177 171 M 156 151 L 155 154 L 159 155 L 160 163 L 165 169 L 177 171 M 115 157 L 112 160 M 21 159 L 19 176 M 15 160 L 19 161 L 20 174 L 27 180 L 25 187 L 28 189 L 32 189 L 35 182 L 36 186 L 40 186 L 41 180 L 41 184 L 45 185 L 48 181 L 44 178 L 52 183 L 61 183 L 68 176 L 66 182 L 76 188 L 87 183 L 91 176 L 98 175 L 103 178 L 117 170 L 120 174 L 135 176 L 133 188 L 136 191 L 145 189 L 147 183 L 146 188 L 153 193 L 159 192 L 162 187 L 168 188 L 168 193 M 105 160 L 112 160 M 189 160 L 199 161 L 199 168 M 186 161 L 187 161 M 6 162 L 0 167 L 4 167 L 9 179 L 0 184 L 7 181 M 184 164 L 181 170 L 186 176 L 195 176 L 199 170 L 199 174 L 196 175 M 181 171 L 192 177 M 139 172 L 140 172 M 120 175 L 119 184 L 123 188 L 140 191 M 98 176 L 105 177 L 104 185 L 108 189 L 117 185 L 129 189 M 90 179 L 88 184 L 95 190 L 102 186 L 111 189 M 150 179 L 146 189 L 155 193 M 157 179 L 163 187 L 179 191 M 14 181 L 18 186 L 32 189 M 14 183 L 31 189 M 139 183 L 147 183 L 146 188 L 154 193 M 47 184 L 46 185 M 69 186 L 76 188 M 89 186 L 95 190 M 35 187 L 34 188 M 199 188 L 199 191 M 161 190 L 159 192 M 199 198 L 199 199 M 54 199 L 151 199" 
        fill="none" 
        stroke="black" 
        stroke-width="1.5" 
        stroke-linecap="round" 
        stroke-linejoin="round"
        vector-effect="non-scaling-stroke"/>
</svg>