<svg xmlns="http://www.w3.org/2000/svg" viewBox="0 0 200 200" width="200" height="200">
  <rect width="100%" height="100%" fill="white"/>
  <path d="M 171 0 L 180 0 L 182 7 L 188 6 L 194 10 L 191 21 L 199 23 L 199 30 L 193 29 L 193 24 L 195 30 M 171 1 L 168 10 L 176 15 L 182 8 L 177 16 L 182 21 L 191 21 L 195 30 M 149 4 L 170 11 L 174 15 L 165 20 L 162 32 L 167 36 L 179 36 L 183 32 L 183 22 L 183 32 L 192 34 L 196 40 L 191 53 L 199 60 M 146 5 L 147 5 M 156 6 L 165 12 L 164 27 L 160 33 L 149 33 L 136 41 L 133 47 L 134 61 L 138 69 L 152 77 L 163 77 L 172 72 L 179 54 L 175 39 L 179 54 L 192 52 L 199 60 M 5 7 L 17 15 L 25 10 L 28 16 L 40 17 L 50 24 L 52 18 L 45 14 L 47 10 L 54 15 L 62 11 L 78 15 L 82 10 L 87 10 L 90 19 L 105 19 L 108 14 L 117 18 L 123 12 L 121 13 M 143 7 L 135 16 L 136 25 L 148 34 M 2 8 L 2 13 L 7 10 L 2 17 L 4 23 L 12 25 L 18 15 L 18 18 L 36 16 L 52 24 L 55 38 L 61 40 L 69 40 L 80 33 L 82 23 L 79 15 L 81 22 L 88 19 L 82 13 L 88 19 L 92 19 M 132 8 L 138 11 M 191 8 L 194 10 L 191 21 L 195 30 M 131 9 L 130 13 L 136 15 L 136 40 L 139 39 M 135 9 L 139 11 M 130 10 L 133 17 L 126 23 L 148 34 M 0 11 L 4 13 L 3 22 L 11 26 L 9 44 L 13 53 L 24 60 L 39 60 L 48 56 L 56 40 L 49 54 L 53 66 L 65 66 L 70 62 L 74 56 L 70 40 L 73 45 L 80 43 L 80 34 L 81 43 L 89 49 L 97 50 L 110 45 L 113 24 L 106 20 L 113 24 L 119 17 L 118 22 L 127 21 L 128 26 L 143 30 L 147 34 M 13 11 L 21 18 M 82 11 L 85 17 L 92 19 M 87 11 L 89 18 L 92 19 M 62 12 L 57 14 M 50 14 L 50 17 L 54 16 L 52 30 L 55 38 L 70 40 L 75 55 L 83 56 L 87 54 L 88 49 L 95 50 L 94 60 L 101 75 L 109 75 L 123 69 L 123 50 L 112 44 L 122 49 L 134 46 L 135 60 L 123 64 L 123 73 L 137 76 L 139 71 L 144 71 L 152 77 L 154 87 L 162 87 L 165 76 L 165 82 L 173 82 L 174 72 L 175 79 L 182 83 L 192 82 L 199 75 L 199 78 M 74 14 L 79 15 L 80 21 L 84 22 M 173 16 L 172 17 M 132 17 L 131 19 M 179 19 L 191 21 L 195 30 M 17 21 L 12 25 M 116 22 L 115 23 M 183 33 L 190 33 L 195 38 L 195 47 L 191 53 L 199 58 L 199 61 M 0 35 L 3 37 L 1 41 M 113 35 L 122 35 M 165 35 L 176 38 L 178 53 L 183 54 M 181 35 L 178 37 M 0 36 L 3 37 L 1 41 M 10 47 L 13 54 L 1 59 L 0 63 M 87 55 L 96 62 L 100 74 L 98 82 L 102 86 L 107 86 L 110 75 L 110 81 L 118 84 L 124 81 L 124 75 L 135 75 L 138 83 L 152 82 L 153 97 L 164 97 L 163 88 L 165 93 L 172 88 L 172 83 L 172 88 L 180 91 L 181 83 L 184 83 M 5 56 L 4 57 M 2 58 L 1 59 M 20 58 L 26 63 L 27 72 L 39 73 L 38 61 L 41 72 L 51 72 L 53 67 L 52 72 L 61 78 L 65 77 L 66 66 L 65 80 L 69 87 L 98 82 L 107 87 L 111 94 L 118 92 L 119 85 L 118 92 L 129 95 L 130 85 L 124 82 L 130 85 L 136 83 M 50 60 L 53 66 L 66 66 L 66 113 L 68 120 L 79 129 L 95 129 L 105 125 L 113 108 L 112 95 L 114 107 L 123 108 L 126 96 L 124 108 L 132 109 L 137 103 L 130 95 L 140 94 L 142 84 L 143 92 L 152 92 L 148 102 L 152 114 L 163 113 L 166 110 L 165 97 L 175 97 L 177 92 L 177 96 L 182 98 L 184 94 L 181 91 L 184 93 L 183 108 L 175 115 L 175 120 L 182 123 L 183 115 L 186 112 L 190 114 L 189 122 L 196 126 L 196 132 L 194 141 L 188 142 L 187 145 L 189 148 L 194 145 L 199 148 M 177 61 L 173 71 L 176 80 L 174 82 M 26 72 L 24 80 L 31 84 L 40 73 L 32 85 L 33 100 L 43 108 L 55 108 L 65 101 L 66 111 L 56 112 L 54 120 L 59 125 L 68 123 M 54 75 L 65 78 L 69 87 L 76 87 M 99 75 L 110 75 L 111 82 L 120 84 L 118 93 L 133 95 L 137 103 L 142 102 L 141 94 L 143 102 L 149 101 L 151 116 L 145 126 L 150 135 L 168 131 L 164 113 L 168 122 L 174 121 M 0 76 L 4 83 L 10 85 L 23 80 L 34 84 M 0 80 L 0 85 L 2 83 M 164 82 L 173 82 M 193 82 L 193 85 L 199 87 L 199 94 L 191 94 L 192 85 L 199 87 L 199 94 M 108 85 L 108 91 L 114 94 M 11 86 L 10 96 L 13 102 L 24 105 L 32 101 L 38 103 L 42 107 L 41 118 L 54 120 L 60 125 L 64 139 L 73 140 L 79 129 L 74 142 L 75 148 L 82 152 L 95 147 L 97 140 L 93 130 L 97 140 L 107 134 L 105 127 L 108 133 L 116 133 L 119 122 L 111 119 L 118 118 L 120 109 L 117 120 L 125 121 L 129 111 L 134 124 L 146 125 L 150 135 L 141 144 L 138 154 L 139 166 L 153 182 L 171 184 L 182 179 L 190 163 L 188 148 L 191 154 L 196 151 M 191 87 L 190 92 L 196 95 M 172 89 L 184 93 L 183 108 L 179 112 M 167 92 L 165 97 L 169 98 M 0 95 L 12 98 L 14 104 L 11 108 L 16 115 L 24 113 L 25 105 L 24 113 L 31 120 L 48 119 L 63 125 M 5 97 L 2 105 L 10 109 M 151 97 L 170 98 M 3 102 L 2 106 L 7 109 L 7 115 L 1 119 L 5 123 L 12 123 L 16 115 L 13 120 L 14 127 L 24 130 L 30 121 L 26 128 M 12 106 L 16 115 L 11 139 L 21 140 L 23 131 L 22 139 L 28 153 L 48 160 L 61 152 L 63 139 L 72 139 L 75 150 L 81 151 L 86 161 L 97 163 L 94 149 L 98 164 L 116 167 L 124 163 L 127 154 L 125 148 L 113 149 L 124 141 L 117 133 L 124 141 L 134 140 L 137 127 L 135 139 L 144 142 M 136 106 L 133 108 M 56 108 L 55 112 L 66 112 L 68 120 L 78 127 L 74 140 L 75 148 L 84 152 L 82 157 L 65 158 L 57 166 L 55 183 L 62 192 L 69 194 L 75 187 L 75 179 L 75 195 L 81 196 L 93 188 L 96 179 L 93 165 L 96 178 L 103 175 L 104 168 L 101 178 L 110 184 L 108 195 L 100 197 L 92 190 L 102 197 M 124 109 L 130 110 L 126 119 L 128 123 L 147 128 L 150 136 L 145 141 M 112 110 L 112 120 L 145 126 L 150 135 L 155 135 M 166 111 L 177 113 L 176 121 L 196 126 L 194 135 L 186 138 L 187 142 L 194 141 L 192 142 M 24 114 L 32 120 M 3 115 L 3 122 L 14 124 L 13 131 M 184 115 L 184 117 M 149 119 L 145 126 L 150 135 L 155 135 M 108 121 L 104 126 L 107 132 L 117 133 L 124 141 L 117 148 L 120 149 M 181 125 L 180 133 L 187 137 L 187 142 L 192 142 M 168 132 L 180 133 L 187 142 L 193 142 M 61 134 L 64 139 L 74 140 L 75 148 L 84 152 L 85 160 L 95 164 M 106 136 L 105 137 M 11 141 L 4 148 L 3 157 L 6 164 L 13 169 L 22 168 L 26 162 L 16 155 L 26 160 L 29 155 L 39 156 L 58 165 M 137 141 L 142 143 L 140 151 L 128 153 L 139 155 L 139 165 L 128 170 L 129 183 L 136 190 L 144 190 L 149 188 L 152 182 L 159 182 L 160 194 L 153 194 L 150 191 L 150 188 L 153 194 L 160 194 M 126 142 L 127 152 L 139 155 L 139 166 L 145 172 L 145 176 L 141 178 M 8 143 L 3 151 L 6 164 L 0 166 L 4 165 M 24 144 L 30 155 L 51 160 L 46 167 L 45 175 L 55 176 L 55 184 L 46 184 L 44 176 L 33 178 L 32 187 L 35 190 L 42 187 L 43 194 L 36 196 L 34 190 L 38 191 M 74 151 L 74 157 L 79 158 M 72 152 L 75 158 L 80 158 M 61 153 L 70 153 M 199 153 L 197 156 L 192 154 L 197 156 M 62 154 L 67 154 L 64 158 L 72 159 M 54 156 L 50 162 L 59 165 M 28 159 L 24 169 L 32 178 L 39 178 M 48 163 L 45 176 L 55 176 L 55 183 L 63 193 L 80 196 M 124 164 L 130 169 M 8 166 L 12 168 L 8 180 L 12 191 L 23 195 L 32 188 L 27 193 M 102 166 L 105 167 M 125 166 L 129 169 M 114 168 L 118 177 L 127 175 M 193 171 L 199 173 L 196 179 L 199 183 M 26 172 L 33 178 L 40 178 M 192 172 L 196 182 L 190 184 L 189 188 L 194 194 L 199 194 M 56 173 L 55 183 L 62 192 L 80 196 M 198 173 L 198 178 M 115 175 L 122 177 M 185 175 L 183 179 L 189 185 L 185 192 L 176 192 L 173 184 L 176 192 L 182 193 L 188 189 L 185 192 M 143 176 L 150 177 L 153 182 L 171 184 M 0 178 L 8 180 L 12 189 L 8 199 L 0 199 L 0 185 L 0 198 L 8 199 M 0 180 L 0 181 M 185 181 L 190 191 L 199 195 M 194 182 L 199 184 M 46 183 L 57 184 L 65 194 L 80 196 M 151 186 L 150 191 L 153 194 L 160 194 M 42 188 L 43 194 L 40 196 M 73 189 L 70 195 L 81 196 M 108 193 L 108 195 M 17 194 L 22 195" 
        fill="none" 
        stroke="black" 
        stroke-width="1.5" 
        stroke-linecap="round" 
        stroke-linejoin="round"
        vector-effect="non-scaling-stroke"/>
</svg>