<svg xmlns="http://www.w3.org/2000/svg" viewBox="0 0 200 200" width="200" height="200">
  <rect width="100%" height="100%" fill="white"/>
  <path d="M 0 0 L 168 0 L 166 4 L 169 7 L 184 9 L 189 13 L 190 38 L 199 43 M 172 0 L 176 3 L 182 3 L 184 0 M 191 0 L 199 0 L 199 7 M 0 1 L 0 4 M 5 1 L 8 4 L 24 6 L 31 11 L 32 33 L 36 38 L 55 42 L 64 49 L 65 77 L 68 81 L 94 83 L 101 88 L 103 120 L 109 125 L 128 129 L 134 135 L 132 159 L 144 165 L 164 164 L 168 168 L 167 187 L 173 199 L 198 199 L 197 192 L 178 191 L 174 187 L 174 169 L 170 161 L 146 159 L 141 155 L 140 128 L 131 121 L 119 120 L 109 114 L 108 88 L 103 81 L 80 77 L 73 72 L 71 45 L 62 37 L 45 35 L 39 30 L 40 15 L 32 1 L 39 10 L 40 31 L 50 36 L 62 37 L 64 34 L 46 27 L 47 12 L 43 1 L 47 12 L 46 26 L 65 35 L 71 35 L 78 41 L 80 67 L 84 71 L 106 75 L 111 79 L 114 86 L 114 109 L 120 114 L 139 115 L 145 118 L 150 125 L 149 151 L 154 154 L 178 156 L 180 183 L 184 186 L 194 186 M 52 1 L 54 22 L 69 30 L 77 30 L 85 36 L 87 62 L 95 67 L 109 69 L 118 75 L 121 83 L 120 105 L 124 109 L 139 108 L 127 101 L 128 77 L 125 70 L 115 64 L 94 59 L 91 54 L 90 33 L 82 26 L 68 25 L 61 20 L 60 1 L 62 21 L 69 25 L 81 25 L 80 21 L 67 16 L 67 1 L 67 15 L 75 21 L 82 21 L 74 12 L 74 1 L 75 14 L 97 29 L 99 51 L 104 56 L 117 59 L 118 57 L 105 47 L 103 25 L 81 11 L 80 1 L 82 12 L 103 24 L 106 48 L 117 56 L 133 56 L 137 59 L 142 92 L 147 95 L 170 96 L 174 105 L 174 125 L 181 130 L 195 129 L 199 132 M 87 1 L 90 10 L 105 12 L 113 19 L 113 40 L 118 48 L 143 52 L 147 84 L 151 88 L 175 89 L 179 94 L 181 120 L 185 123 L 199 122 M 92 1 L 95 6 L 111 8 L 120 13 L 122 39 L 126 43 L 142 44 L 151 49 L 153 80 L 180 82 L 186 92 L 186 112 L 192 116 L 199 115 M 121 1 L 129 12 L 128 34 L 134 39 L 149 39 L 156 43 L 159 53 L 158 72 L 161 75 L 181 74 L 189 78 L 192 85 L 192 103 L 199 109 M 136 1 L 139 8 L 139 24 L 144 29 L 161 29 L 167 32 M 144 1 L 146 20 L 151 24 L 168 24 L 174 31 L 172 60 L 176 63 L 196 61 L 199 64 M 152 1 L 155 17 L 172 19 L 178 24 L 179 53 L 199 55 M 159 1 L 162 12 L 178 14 L 183 18 L 184 45 L 188 48 L 199 48 M 174 2 L 193 6 L 196 11 L 196 31 L 199 35 M 6 3 L 29 9 L 33 16 L 34 37 L 55 42 L 64 49 L 65 77 L 68 81 L 93 83 L 101 88 L 103 120 L 109 125 L 122 127 L 133 133 L 132 159 L 161 173 L 163 198 L 198 199 M 188 4 L 196 11 L 196 31 L 199 36 M 93 5 L 114 9 L 120 13 L 122 40 L 129 44 L 148 46 L 152 54 L 153 80 L 167 82 M 167 6 L 189 13 L 190 39 L 198 42 M 0 7 L 14 9 L 25 15 L 26 38 L 30 43 L 55 50 L 59 58 L 60 85 L 88 89 L 95 94 L 95 124 L 101 130 L 124 137 L 125 164 L 132 169 L 154 168 L 162 175 L 163 199 L 10 199 L 3 190 L 0 171 L 4 192 L 12 199 L 19 197 L 8 188 L 7 170 L 0 163 L 7 170 L 8 188 L 20 199 L 29 197 L 14 186 L 11 164 L 0 157 L 11 164 L 14 186 L 26 193 L 30 199 L 38 198 L 30 187 L 18 181 L 15 157 L 11 153 L 0 151 L 14 155 L 17 161 L 17 179 L 29 187 L 33 182 L 27 180 L 22 173 L 21 152 L 15 147 L 0 145 L 20 150 L 23 157 L 22 172 L 26 179 L 46 185 L 51 191 L 52 199 L 58 198 L 58 192 M 132 7 L 134 29 L 138 33 L 158 35 L 163 39 L 165 66 L 169 69 L 190 68 L 196 73 L 199 97 M 159 9 L 163 13 L 177 14 L 183 18 L 184 46 L 199 49 M 133 12 L 136 32 L 161 37 L 165 44 L 164 65 L 169 69 L 177 69 M 152 12 L 156 18 L 172 19 L 178 24 L 178 52 L 181 55 L 189 55 M 105 13 L 114 22 L 115 46 L 122 50 L 143 52 L 146 61 L 146 83 L 151 88 L 159 88 M 0 14 L 11 14 L 18 19 L 18 40 L 23 49 L 43 52 L 50 58 L 51 80 L 55 90 L 79 93 L 88 99 L 90 111 L 87 128 L 94 136 L 110 137 L 116 141 L 116 168 L 121 174 L 144 179 L 148 184 L 149 199 L 156 198 L 155 180 L 149 174 L 139 173 L 147 173 L 154 178 L 157 199 L 198 199 M 0 18 L 7 19 L 12 24 L 12 51 L 18 56 L 35 57 L 43 62 L 47 93 L 56 98 L 76 99 L 81 103 L 81 137 L 87 142 L 105 144 L 109 147 L 112 179 L 136 184 L 140 199 L 198 199 M 17 19 L 21 48 L 46 54 L 52 63 L 53 88 L 59 92 L 71 93 M 145 19 L 150 24 L 168 24 L 172 27 L 174 36 L 171 59 L 177 63 M 9 21 L 13 27 L 11 49 L 14 54 L 35 57 L 43 62 L 47 93 L 63 99 M 82 22 L 81 25 L 89 31 L 92 38 L 92 56 L 98 61 L 121 66 L 126 71 L 127 101 L 136 106 L 153 105 L 160 108 L 163 138 L 168 142 L 189 143 L 193 150 L 193 163 L 199 169 M 0 23 L 6 28 L 4 57 L 9 64 M 54 23 L 69 30 L 79 31 L 85 36 L 87 63 L 115 72 L 121 83 L 120 105 L 124 109 L 136 110 M 93 25 L 97 29 L 100 53 L 132 65 L 135 74 L 135 97 L 140 101 L 163 101 L 167 106 L 168 132 L 175 137 L 194 137 L 199 142 L 199 161 M 140 26 L 147 30 L 155 30 M 0 31 L 2 34 M 64 35 L 73 36 L 78 41 L 79 65 L 83 71 L 105 75 L 111 79 L 114 86 L 115 111 L 124 115 L 138 115 L 149 122 L 148 150 L 154 154 L 178 156 L 180 183 L 183 186 L 199 186 M 129 36 L 155 42 L 159 53 L 158 73 L 172 75 M 63 37 L 73 49 L 73 72 L 84 78 L 102 80 L 106 84 L 109 114 L 113 118 L 131 121 L 139 126 L 142 134 L 140 152 L 143 157 L 152 160 M 26 39 L 33 45 L 55 50 L 59 58 L 60 85 L 88 89 L 95 94 L 95 125 L 101 130 L 124 137 L 125 165 L 132 169 L 143 169 M 0 44 L 0 65 L 3 68 L 20 68 L 29 73 L 33 105 L 44 110 L 62 110 L 68 114 L 69 147 L 75 153 L 91 156 L 96 160 L 99 169 L 94 186 L 102 199 L 115 199 M 8 53 L 16 62 L 29 63 L 36 67 L 40 79 L 39 96 L 43 102 L 68 104 L 74 108 L 74 141 L 82 148 L 100 151 L 105 156 L 106 168 L 101 183 L 106 190 L 124 191 L 130 199 L 199 199 M 133 57 L 139 62 L 141 91 L 151 95 M 10 58 L 36 67 L 40 79 L 39 97 L 43 102 L 67 104 L 74 108 L 76 120 L 73 139 L 78 146 L 99 151 L 105 156 L 106 168 L 101 184 L 106 190 L 123 191 L 130 199 L 199 199 M 127 62 L 134 69 L 134 96 L 140 101 L 150 101 M 20 69 L 28 72 L 31 77 L 31 102 L 36 108 L 61 110 L 68 114 L 68 146 L 73 152 L 96 160 L 99 169 L 94 187 L 102 199 L 114 199 M 190 69 L 196 73 L 199 86 M 0 72 L 13 73 L 24 80 L 24 102 L 30 113 L 52 115 L 60 119 L 61 152 L 68 158 L 82 161 L 90 167 L 89 190 L 92 198 L 115 199 M 13 74 L 20 76 L 25 82 L 24 102 L 29 113 L 52 115 L 60 119 L 61 152 L 64 156 L 86 163 L 90 167 L 89 191 L 92 198 L 114 199 M 0 78 L 12 80 L 17 85 L 18 108 L 23 117 L 44 121 L 54 127 L 57 136 L 57 158 L 79 167 L 84 173 L 81 188 L 84 198 L 114 199 M 12 81 L 18 87 L 18 109 L 21 115 L 29 120 L 47 122 L 54 127 L 57 136 L 57 159 L 83 171 L 85 178 L 81 191 L 84 198 L 115 199 M 0 85 L 7 87 L 12 93 L 12 111 L 17 121 L 24 125 L 40 127 L 49 134 L 50 159 L 56 165 L 74 172 L 78 182 L 75 192 L 78 199 L 115 199 M 0 86 L 7 87 L 12 93 L 12 112 L 17 122 L 40 127 L 49 134 L 50 159 L 54 164 L 74 172 L 78 182 L 75 191 L 78 199 L 114 199 M 0 92 L 7 100 L 9 123 L 17 129 L 37 133 L 44 143 L 45 166 L 60 170 L 71 178 L 73 199 L 115 199 M 0 93 L 5 95 L 7 100 L 7 119 L 10 125 L 38 134 L 44 143 L 43 164 L 47 168 L 64 172 L 71 178 L 73 199 L 114 199 M 178 94 L 180 119 L 185 123 L 192 123 M 167 95 L 173 101 L 175 127 L 188 130 M 0 101 L 0 121 L 3 128 L 10 134 L 27 136 L 34 141 L 37 150 L 36 168 L 40 172 L 53 174 L 63 180 L 65 199 L 115 199 M 78 101 L 83 110 L 81 137 L 86 142 L 109 147 L 110 177 L 113 180 L 136 184 L 140 199 L 199 199 M 160 101 L 167 106 L 169 134 L 180 137 M 0 104 L 0 122 L 4 130 L 9 134 L 26 136 L 34 141 L 37 150 L 36 168 L 40 172 L 55 175 L 63 180 L 65 199 L 114 199 M 193 105 L 199 108 M 157 107 L 162 113 L 163 139 L 168 142 L 189 143 L 193 150 L 193 164 L 199 169 M 139 109 L 151 111 L 156 118 L 156 144 L 160 148 L 184 150 L 189 171 L 199 175 M 148 111 L 156 118 L 156 145 L 160 148 L 180 148 L 185 151 L 187 162 L 184 176 L 188 180 L 198 180 M 189 115 L 194 116 M 87 121 L 90 134 L 109 137 L 116 141 L 117 171 L 127 176 L 140 177 L 147 182 L 149 199 L 198 199 M 195 130 L 199 131 M 0 137 L 19 141 L 27 146 L 29 171 L 36 177 L 53 181 L 57 186 L 59 199 L 114 199 M 0 139 L 19 141 L 27 146 L 30 173 L 56 184 L 59 199 L 115 199 M 197 142 L 199 161 M 185 163 L 188 164 L 190 173 L 199 174 M 186 179 L 199 180 M 42 184 L 50 189 L 52 199 L 115 199 M 33 185 L 43 190 L 46 199 L 114 199 M 108 186 L 131 188 M 175 187 L 178 191 L 199 192 L 199 199 M 167 188 L 173 199 L 198 199 M 32 189 L 39 199 L 114 199 M 0 192 L 0 198 L 5 199 M 114 197 L 198 199 M 0 199 L 5 199" 
        fill="none" 
        stroke="black" 
        stroke-width="1.5" 
        stroke-linecap="round" 
        stroke-linejoin="round"
        vector-effect="non-scaling-stroke"/>
</svg>