<svg xmlns="http://www.w3.org/2000/svg" viewBox="0 0 200 200" width="200" height="200">
  <rect width="100%" height="100%" fill="white"/>
  <path d="M 1 0 L 178 0 M 189 0 L 199 1 M 0 1 L 0 3 M 50 1 L 45 11 L 15 17 L 7 22 L 0 32 M 92 1 L 88 13 L 79 21 L 43 33 L 26 48 L 21 58 L 22 63 L 32 48 L 40 42 L 22 64 L 23 77 L 30 89 L 37 88 L 43 82 L 36 73 L 38 56 L 48 41 L 43 40 L 49 41 L 98 25 M 129 1 L 124 17 L 114 28 L 102 34 L 67 40 L 56 49 L 55 59 L 67 64 L 70 54 L 100 54 L 116 49 L 125 42 L 142 18 L 164 1 L 161 5 M 115 7 L 113 12 M 199 7 L 199 11 L 197 9 L 183 15 L 172 26 L 165 45 L 161 71 L 155 84 L 141 97 L 124 105 L 136 109 L 152 105 L 168 92 L 185 70 L 195 64 L 199 65 M 156 9 L 155 10 M 45 10 L 44 11 M 193 10 L 196 10 M 74 12 L 68 19 L 59 22 L 22 23 L 9 33 L 0 49 M 87 13 L 82 18 M 29 14 L 38 14 M 148 14 L 150 16 L 142 26 L 133 47 L 134 64 L 127 80 L 117 90 L 108 93 L 71 86 L 62 88 L 46 98 L 33 113 L 14 167 L 0 183 M 123 17 L 114 28 M 68 18 L 67 19 M 148 18 L 138 34 L 133 49 L 124 60 L 122 72 L 115 79 L 103 80 L 95 70 L 103 80 L 115 79 M 77 21 L 78 21 M 199 21 L 179 40 L 167 73 M 197 22 L 198 22 M 139 23 L 121 45 M 195 23 L 196 23 M 19 24 L 20 24 M 192 25 L 189 28 M 0 27 L 2 28 M 63 27 L 64 27 M 13 28 L 0 50 M 111 29 L 110 30 M 107 31 L 108 31 M 105 32 L 106 32 M 169 32 L 158 79 L 144 94 M 102 33 L 105 33 M 41 34 L 40 35 M 37 36 L 36 38 M 71 38 L 76 38 M 180 38 L 167 74 M 69 39 L 70 39 M 66 40 L 65 42 M 47 44 L 40 52 L 36 63 L 36 73 L 43 82 L 61 72 L 68 64 L 67 66 L 84 81 L 86 87 L 96 92 L 107 93 M 60 44 L 55 50 L 54 58 L 68 64 L 54 76 M 28 45 L 22 54 L 21 63 L 23 77 L 30 91 L 17 98 L 10 98 L 3 95 L 0 97 L 0 88 L 1 95 L 16 98 M 199 51 L 199 55 L 196 53 L 199 55 M 70 55 L 68 60 L 76 61 M 89 55 L 103 62 L 124 61 L 122 72 L 114 79 M 127 55 L 122 72 L 114 79 M 0 58 L 3 59 M 0 59 L 0 60 M 93 59 L 114 62 M 195 65 L 192 66 M 131 71 L 127 80 L 117 90 M 199 73 L 199 84 M 181 75 L 160 100 M 75 76 L 81 78 L 86 87 L 96 92 L 107 93 M 70 77 L 73 77 M 197 78 L 199 83 M 65 79 L 66 79 M 192 79 L 195 79 M 49 80 L 46 81 M 61 80 L 64 80 M 164 80 L 165 81 M 189 80 L 173 97 L 161 118 L 145 125 L 149 125 M 59 81 L 26 106 L 12 111 L 0 110 L 0 107 L 5 111 L 12 111 M 186 82 L 185 83 M 55 83 L 54 84 M 51 85 L 40 94 M 41 86 L 38 87 M 70 86 L 88 87 L 96 92 L 107 93 M 160 87 L 159 88 M 179 89 L 160 118 M 29 91 L 28 92 M 127 93 L 110 103 L 125 104 L 127 107 L 139 109 M 24 94 L 23 95 M 37 95 L 26 106 M 48 96 L 47 98 M 141 96 L 140 97 M 85 97 L 92 97 L 97 102 L 109 102 L 119 98 M 196 97 L 199 99 M 72 98 L 71 99 M 79 98 L 84 98 M 191 99 L 184 106 M 76 100 L 59 118 L 37 178 L 19 193 L 16 199 L 27 199 L 30 194 L 37 192 L 57 159 L 69 117 L 81 105 L 94 102 M 190 100 L 189 101 M 74 101 L 73 103 M 90 103 L 92 104 L 78 116 L 74 124 L 73 135 L 78 140 L 88 135 L 90 119 L 98 112 L 108 112 L 131 120 L 144 120 L 152 116 L 125 113 L 113 105 L 125 113 L 144 115 M 156 103 L 153 104 M 70 104 L 69 106 M 90 104 L 91 104 M 23 106 L 26 106 M 38 106 L 30 113 L 33 115 L 21 145 L 17 147 L 10 160 L 0 166 L 0 163 L 2 164 M 88 106 L 87 108 M 21 107 L 22 107 M 19 108 L 20 108 M 78 108 L 77 109 M 162 108 L 166 110 L 160 118 M 183 108 L 181 111 M 16 109 L 19 109 M 65 109 L 55 126 L 43 167 L 28 187 M 84 109 L 76 118 L 73 130 L 74 137 L 80 140 M 159 110 L 151 114 L 155 112 M 179 113 L 169 125 M 29 114 L 24 120 M 21 115 L 12 124 L 2 127 L 0 133 M 28 115 L 24 120 M 94 115 L 89 123 L 91 131 L 118 137 L 155 154 L 167 153 L 198 140 L 199 132 L 199 156 L 188 167 L 175 173 L 134 174 L 121 184 L 117 199 L 134 199 L 133 188 L 137 183 L 152 180 L 181 181 L 192 176 L 199 167 L 199 171 L 193 175 M 152 117 L 151 118 M 127 119 L 144 120 M 15 121 L 14 122 M 155 121 L 154 122 M 173 121 L 170 124 M 0 123 L 0 133 M 151 123 L 152 123 M 10 124 L 11 124 M 89 134 L 85 138 M 20 143 L 22 148 L 17 161 L 7 175 M 98 144 L 148 154 M 191 144 L 182 158 L 169 165 L 122 161 L 107 167 L 94 178 L 85 198 L 135 199 L 141 190 L 135 190 M 94 145 L 97 145 M 91 146 L 94 146 M 0 148 L 3 148 M 62 148 L 71 156 L 78 156 L 89 148 L 81 154 M 109 148 L 94 156 L 78 176 L 53 198 L 198 199 L 199 196 L 199 199 M 16 149 L 8 161 M 178 149 L 175 150 M 105 150 L 106 150 M 100 152 L 99 153 M 130 152 L 149 154 M 186 153 L 181 158 M 154 154 L 163 154 M 95 155 L 94 156 M 79 156 L 65 177 L 41 199 L 198 199 M 76 160 L 65 177 L 55 186 M 55 164 L 48 178 L 40 186 M 82 169 L 67 187 M 101 171 L 98 174 M 0 177 L 0 183 M 4 177 L 3 178 M 127 178 L 126 179 M 93 179 L 87 190 L 86 199 L 199 199 M 124 180 L 117 191 L 117 199 L 199 199 M 199 181 L 199 182 M 143 184 L 137 199 L 199 199 M 50 185 L 49 190 M 45 188 L 48 191 M 25 189 L 24 190 M 62 190 L 61 191 M 38 191 L 39 199 L 198 199 M 20 192 L 15 199 L 0 199 L 0 195 L 1 199 L 199 199 M 37 193 L 39 199 L 199 199 M 44 193 L 41 199 L 199 199 M 29 196 L 29 199 L 199 199" 
        fill="none" 
        stroke="black" 
        stroke-width="1.5" 
        stroke-linecap="round" 
        stroke-linejoin="round"
        vector-effect="non-scaling-stroke"/>
</svg>