<svg xmlns="http://www.w3.org/2000/svg" viewBox="0 0 200 200" width="200" height="200">
  <rect width="100%" height="100%" fill="white"/>
  <path d="M 0 0 L 6 0 L 4 2 L 7 5 L 10 3 L 9 0 L 11 4 L 19 2 L 15 0 L 199 0 L 199 38 M 0 1 L 0 2 M 33 1 L 33 9 L 40 9 L 41 1 L 41 7 L 49 9 L 48 1 L 50 9 L 60 10 L 60 18 L 72 18 L 78 24 L 71 28 L 71 33 L 75 37 L 74 42 L 63 41 L 61 53 L 65 61 L 61 64 L 55 63 L 52 73 L 45 72 L 43 65 L 39 63 L 32 69 L 31 79 L 24 80 L 23 63 L 21 61 L 14 67 L 11 72 L 14 78 L 12 90 L 19 98 L 31 97 L 28 104 L 22 103 L 21 99 L 24 103 L 25 98 L 25 103 L 28 104 M 153 1 L 156 8 L 160 6 L 159 1 L 160 6 L 165 6 L 166 1 L 166 7 L 169 9 L 173 8 L 177 1 L 187 8 L 189 1 L 190 5 L 199 4 L 198 16 L 187 12 L 181 17 L 181 23 L 187 26 L 198 19 L 195 21 M 19 3 L 22 9 L 31 9 M 177 3 L 188 8 L 188 13 L 199 16 L 199 34 L 194 45 L 196 50 L 199 48 L 199 52 M 5 4 L 7 15 L 12 17 L 21 16 L 21 9 L 31 9 M 10 4 L 11 4 M 115 8 L 127 10 L 128 15 L 113 19 L 111 13 L 115 9 M 144 8 L 156 9 L 157 19 L 168 18 L 172 9 L 173 16 L 182 16 L 181 24 L 172 33 L 171 44 L 185 42 L 189 25 L 188 31 L 197 35 L 195 44 L 185 48 L 184 58 L 187 61 L 193 60 L 196 51 L 192 60 M 144 9 L 140 19 L 160 19 L 161 33 L 176 29 L 172 33 L 171 45 L 161 50 L 160 61 L 173 58 L 174 45 L 173 57 L 177 60 L 184 58 L 188 62 L 186 70 L 176 70 L 167 80 L 161 79 L 155 73 L 155 62 L 147 61 L 145 58 L 150 46 L 135 42 L 129 28 L 141 21 L 143 32 L 163 33 M 37 10 L 38 19 L 49 19 L 51 10 L 53 17 L 64 20 L 64 26 L 69 25 L 67 20 L 69 26 L 75 27 M 59 10 L 59 17 L 67 20 L 71 27 L 75 27 M 122 10 L 122 15 L 128 15 L 126 16 M 0 15 L 6 16 M 22 16 L 32 22 L 37 19 L 50 19 L 53 27 L 62 26 L 61 30 L 65 35 L 74 35 L 73 42 M 97 16 L 103 19 L 102 23 L 98 24 L 94 19 L 97 17 L 98 24 M 0 17 L 1 28 L 12 27 L 13 18 L 13 27 L 18 34 L 32 34 L 35 22 L 34 27 L 44 32 L 50 31 L 52 27 L 61 28 L 64 39 L 52 39 L 50 50 L 52 53 L 62 52 L 65 57 L 63 63 M 101 17 L 102 23 M 112 17 L 120 17 L 118 19 M 23 18 L 35 22 L 36 29 L 49 32 L 51 39 L 71 43 M 76 21 L 76 26 M 50 23 L 55 28 L 61 28 L 66 35 M 114 25 L 116 30 L 113 32 L 109 31 L 112 26 M 0 28 L 0 38 L 4 42 L 16 42 L 18 35 L 18 40 L 25 51 L 35 50 L 33 35 L 37 47 L 50 49 L 54 63 L 45 63 L 43 67 L 47 73 L 51 73 M 130 28 L 130 34 L 140 32 M 15 30 L 18 34 L 32 34 L 37 47 L 63 54 L 63 63 M 115 30 L 114 31 M 144 33 L 141 42 L 143 45 L 152 47 L 155 34 L 153 46 L 162 49 L 160 60 L 157 62 M 144 35 L 141 42 L 143 45 L 162 49 L 160 61 L 164 71 L 172 73 L 168 79 M 0 39 L 0 40 M 18 41 L 25 51 L 16 65 M 3 42 L 0 45 L 2 53 L 9 54 L 12 43 L 11 53 L 23 57 L 23 64 L 33 68 L 30 79 M 2 43 L 1 44 M 185 44 L 184 58 L 191 61 M 35 51 L 38 61 L 35 67 M 113 54 L 118 54 L 122 60 L 130 62 L 130 68 L 126 71 L 127 76 L 136 77 L 138 87 L 149 85 L 148 98 M 8 55 L 8 61 L 15 66 L 13 71 L 6 71 L 4 68 L 5 61 L 8 61 L 15 66 L 12 71 M 99 55 L 106 58 L 112 55 L 108 59 L 109 63 L 119 64 L 121 60 L 127 60 L 130 62 L 128 69 M 118 55 L 122 60 L 130 62 L 129 69 M 98 56 L 95 60 L 96 69 L 108 63 L 104 67 L 105 72 L 114 74 L 120 69 L 120 64 L 122 70 L 127 70 L 125 87 L 141 87 L 142 92 L 147 93 L 148 97 M 87 57 L 96 59 L 95 69 L 85 78 L 87 93 L 94 93 L 98 89 L 97 81 L 106 75 L 101 90 L 105 96 L 111 96 L 118 85 L 115 74 L 117 72 L 116 82 L 119 85 L 125 84 L 127 99 L 136 99 L 142 93 L 147 93 L 148 98 M 104 57 L 109 58 L 109 63 L 120 64 L 120 70 M 86 58 L 85 66 L 94 70 M 92 58 L 96 59 L 95 69 M 177 61 L 173 72 M 161 64 L 157 67 M 160 65 L 159 66 M 83 67 L 80 72 L 84 78 L 86 77 L 75 83 L 75 97 L 85 97 L 86 93 L 93 93 L 92 101 L 103 103 L 104 96 L 112 96 L 113 104 L 122 104 L 126 99 L 123 103 L 124 110 L 133 114 L 139 110 L 137 99 L 139 97 L 138 101 L 144 101 M 82 68 L 69 75 L 71 81 L 77 82 M 6 70 L 13 71 M 72 71 L 69 79 L 77 82 M 163 72 L 160 78 L 164 80 L 166 73 L 172 73 L 169 79 M 90 73 L 87 76 M 156 73 L 161 79 L 166 80 M 8 77 L 9 82 L 14 84 L 7 96 L 11 100 L 25 98 L 25 103 L 28 104 M 13 78 L 12 90 L 19 98 L 25 98 L 25 103 L 28 104 M 136 78 L 137 86 L 141 87 L 142 92 L 147 93 L 148 97 M 83 79 L 87 81 L 86 92 L 94 93 L 94 98 L 85 110 L 86 125 L 102 117 L 104 103 L 123 104 L 125 114 L 118 119 L 122 129 L 130 126 L 138 113 L 137 117 L 148 116 L 148 111 L 140 106 L 148 110 L 146 117 M 98 86 L 103 88 L 99 88 L 105 96 L 112 96 L 113 104 L 123 104 L 126 113 L 137 114 L 146 136 L 155 134 L 159 122 L 162 122 L 167 130 L 180 129 L 182 118 L 180 110 L 174 106 L 175 103 L 184 102 L 186 107 L 180 109 L 184 109 M 118 86 L 113 92 L 112 103 L 123 104 L 126 113 L 137 114 L 127 129 L 131 136 L 147 137 L 150 153 L 158 155 L 166 149 L 164 142 L 155 136 L 163 141 L 166 131 L 166 149 L 178 144 L 177 132 L 179 145 L 187 141 L 186 129 L 178 130 M 67 89 L 74 90 L 71 113 L 86 112 L 85 127 L 88 132 L 105 129 L 107 121 L 102 118 L 107 121 L 118 120 L 121 130 L 113 136 L 117 144 L 128 144 L 130 135 L 138 138 L 139 145 L 147 145 L 149 153 L 140 157 L 142 167 L 157 168 L 157 156 L 159 167 L 172 169 L 177 160 L 168 149 L 178 161 L 184 161 L 186 153 L 181 145 L 186 153 L 193 153 L 195 148 L 188 141 L 193 143 L 193 153 L 197 159 L 199 156 L 199 161 M 63 90 L 66 90 M 98 90 L 97 91 M 148 90 L 148 98 M 8 91 L 7 96 L 13 100 M 62 91 L 59 98 L 65 104 L 71 105 L 71 113 L 63 114 L 61 122 L 63 129 L 68 132 L 68 139 L 75 144 L 68 150 L 70 159 L 81 160 L 80 169 L 84 175 L 78 179 L 78 186 L 60 193 L 52 189 L 45 196 L 46 199 L 151 199 L 151 190 L 144 192 L 129 185 L 135 177 L 134 168 L 143 168 L 141 181 L 155 179 L 158 168 L 157 177 L 167 180 L 171 178 L 171 171 L 174 168 L 174 172 L 187 177 L 189 165 L 185 161 L 189 165 L 194 165 L 196 159 L 199 160 M 60 93 L 59 98 L 64 102 L 60 112 L 70 114 M 86 97 L 89 101 L 106 105 M 88 103 L 85 124 L 89 125 M 184 103 L 186 107 L 183 109 M 62 107 L 60 111 L 53 111 L 50 119 L 54 123 L 61 123 L 63 127 L 58 134 L 59 142 L 62 144 L 67 140 L 72 141 L 75 144 L 73 148 M 177 108 L 184 109 M 16 114 L 25 119 L 31 116 L 39 119 L 50 117 L 54 125 L 48 130 L 46 139 L 57 138 L 62 145 L 64 143 L 64 149 L 70 149 M 12 115 L 15 115 M 76 115 L 76 124 L 85 126 L 88 132 L 93 133 M 11 116 L 9 123 L 15 130 L 24 127 L 23 118 L 27 119 M 122 116 L 121 117 M 31 117 L 28 118 M 182 117 L 189 117 L 191 120 L 191 126 L 187 127 L 186 131 L 188 141 L 193 143 L 195 148 L 194 156 L 199 161 M 37 118 L 49 129 L 46 140 L 40 145 L 40 157 L 53 158 L 61 147 L 70 149 M 61 121 L 63 129 L 68 132 L 68 139 L 75 144 L 73 148 M 39 123 L 36 135 L 37 139 L 42 141 L 39 157 L 35 160 L 32 172 L 48 175 L 55 157 L 55 162 L 70 160 L 70 169 L 81 168 L 84 172 L 81 177 M 159 123 L 155 129 L 155 136 L 158 140 L 164 141 L 166 150 L 163 152 M 162 123 L 167 130 L 165 148 L 178 161 L 199 167 L 199 188 L 194 188 L 199 199 L 182 199 L 187 198 L 187 194 L 182 191 L 172 195 L 172 198 L 176 199 M 38 125 L 28 129 L 27 140 L 42 141 L 39 156 L 54 158 L 55 162 L 69 162 L 70 176 L 79 178 M 44 125 L 49 129 L 46 140 M 53 125 L 50 128 M 76 125 L 85 126 L 86 130 L 92 133 M 190 126 L 189 127 M 25 127 L 36 128 L 37 139 L 42 141 L 40 157 L 51 157 L 55 162 L 69 162 L 70 169 L 80 169 L 84 172 L 82 177 M 10 128 L 14 130 L 11 142 L 24 144 L 27 141 L 22 146 L 21 158 L 51 157 L 55 162 L 69 162 L 70 169 L 80 169 L 84 172 L 82 177 M 7 129 L 8 129 M 19 129 L 20 133 L 28 134 L 28 141 L 36 141 M 106 129 L 115 138 L 115 146 L 109 150 L 103 146 L 102 141 L 97 140 L 97 136 L 98 133 L 99 141 L 110 136 L 108 138 M 4 130 L 5 130 M 120 130 L 117 133 M 3 131 L 1 137 L 12 137 L 8 146 L 11 154 L 23 158 M 61 131 L 60 132 M 107 131 L 115 138 L 117 144 L 126 145 M 0 132 L 1 134 M 0 137 L 0 140 M 105 140 L 103 146 L 108 149 M 130 144 L 147 145 L 150 153 L 158 155 L 159 167 L 173 169 L 172 171 L 181 176 L 179 190 L 185 193 L 194 191 L 198 199 M 131 145 L 133 151 L 141 156 L 141 166 L 158 168 L 157 178 L 164 180 L 164 189 L 173 194 L 172 199 L 152 199 L 177 199 M 178 145 L 181 145 L 186 153 L 193 153 L 199 160 M 5 149 L 11 153 L 3 160 L 6 168 L 14 164 L 18 158 L 23 158 M 0 151 L 3 151 M 0 152 L 0 156 L 4 158 L 2 165 L 5 169 L 0 173 L 3 179 L 7 180 L 10 177 L 9 168 L 11 176 L 19 176 L 25 170 L 19 161 L 16 163 M 134 153 L 141 156 L 142 167 L 158 168 L 157 177 L 167 180 M 118 154 L 122 158 L 118 161 L 116 155 L 118 161 M 10 155 L 9 157 M 20 156 L 23 158 M 80 160 L 80 169 L 84 172 L 82 177 M 0 163 L 0 166 L 10 169 L 12 176 M 13 165 L 10 167 M 197 168 L 199 175 L 191 177 L 193 186 L 199 188 M 4 169 L 3 171 M 0 170 L 0 177 L 10 186 L 18 184 L 19 177 L 19 183 L 26 187 L 31 184 L 32 173 L 42 175 L 41 186 L 52 188 L 57 184 L 57 177 L 50 174 L 59 176 L 69 173 L 71 179 L 68 185 L 73 188 M 26 170 L 48 175 M 25 171 L 24 172 M 51 172 L 51 175 L 59 176 M 109 172 L 115 174 L 115 178 L 110 182 L 113 187 L 118 184 L 124 186 L 120 190 L 116 187 L 120 190 M 108 173 L 106 180 L 111 181 L 113 188 L 109 191 L 103 190 L 101 184 L 105 182 M 22 174 L 21 175 M 191 176 L 188 177 L 192 178 L 193 186 L 199 187 M 114 178 L 113 179 M 135 178 L 140 178 L 139 187 L 144 192 M 171 179 L 180 181 L 179 190 L 188 193 M 69 181 L 63 185 L 63 190 L 67 192 M 148 182 L 150 190 L 163 190 M 19 184 L 26 187 L 25 191 L 21 194 L 13 191 L 13 187 L 15 193 L 21 194 M 58 184 L 68 184 L 73 188 M 8 185 L 15 186 M 39 186 L 54 187 L 53 189 L 59 193 M 30 187 L 38 187 L 41 195 L 50 193 L 48 194 M 102 188 L 109 191 M 112 188 L 111 190 M 51 189 L 60 193 M 24 191 L 23 192 M 177 191 L 188 193 M 0 197 L 4 199 M 0 199 L 5 199 M 35 199 L 176 199" 
        fill="none" 
        stroke="black" 
        stroke-width="1.5" 
        stroke-linecap="round" 
        stroke-linejoin="round"
        vector-effect="non-scaling-stroke"/>
</svg>