<svg xmlns="http://www.w3.org/2000/svg" viewBox="0 0 200 200" width="200" height="200">
  <rect width="100%" height="100%" fill="white"/>
  <path d="M 0 0 L 7 0 M 23 0 L 172 0 M 197 0 L 199 6 L 194 7 L 189 19 L 189 37 L 199 69 M 0 1 L 0 4 M 4 1 L 16 14 L 53 12 L 70 1 L 64 6 M 109 1 L 122 17 L 130 15 L 143 1 L 140 5 M 158 1 L 131 30 L 132 36 L 154 51 L 165 25 L 185 9 L 195 6 L 189 19 L 189 37 L 199 68 M 108 2 L 91 14 L 88 32 L 94 41 L 104 45 L 118 61 L 120 74 L 116 86 L 110 90 L 111 94 L 122 91 L 135 80 L 137 58 L 132 37 L 177 63 L 179 60 L 171 44 L 171 31 L 177 18 L 179 38 M 107 3 L 106 5 M 156 4 L 155 5 M 6 5 L 18 17 L 30 21 L 43 20 L 52 13 L 50 16 M 103 5 L 106 5 M 101 6 L 102 6 M 112 6 L 124 24 L 133 29 M 97 8 L 96 9 M 148 9 L 133 29 M 56 11 L 53 12 M 93 11 L 79 20 L 76 45 L 100 97 L 110 94 L 107 96 M 86 13 L 87 13 M 82 16 L 77 22 L 79 24 L 76 45 L 81 62 L 94 82 L 78 76 L 69 77 L 52 93 L 55 94 L 72 85 L 93 86 L 97 89 L 105 108 L 126 112 L 165 85 L 181 83 L 196 87 L 194 80 L 185 70 L 170 69 L 157 71 L 132 84 M 18 18 L 30 32 L 44 35 L 54 34 L 74 21 L 79 21 L 76 45 L 84 69 L 74 66 L 46 67 L 19 79 L 0 96 L 2 109 L 20 116 L 28 116 L 36 112 L 52 94 L 42 107 L 32 114 M 47 18 L 44 20 M 24 19 L 39 21 M 172 19 L 159 35 L 153 59 L 142 78 M 177 19 L 179 39 M 174 24 L 171 31 L 173 50 L 183 69 L 194 79 L 198 90 L 199 87 L 199 99 L 183 112 L 182 117 L 183 128 L 199 153 M 71 25 L 58 51 L 83 63 L 102 98 L 94 102 L 88 115 L 88 126 L 113 165 L 113 174 L 107 190 L 118 185 L 129 173 L 129 156 L 120 133 L 108 122 L 103 107 L 125 112 M 126 27 L 133 29 M 26 29 L 50 49 L 82 62 L 94 80 L 93 85 L 102 98 L 103 106 L 117 112 L 125 112 M 0 34 L 1 38 L 26 58 L 30 65 L 28 76 M 32 36 L 55 51 L 45 67 L 49 68 M 90 37 L 100 45 L 98 46 L 111 64 L 112 89 M 0 38 L 26 58 L 30 65 L 31 74 L 28 76 M 62 40 L 58 51 L 83 63 L 94 80 L 93 85 L 102 98 L 103 106 L 117 112 L 126 112 M 0 42 L 17 67 L 18 79 L 22 79 M 133 42 L 137 58 L 134 76 L 136 80 M 102 45 L 115 56 L 119 65 L 118 82 L 112 89 M 0 46 L 15 63 L 18 78 L 22 79 M 99 48 L 111 64 L 110 88 L 113 89 M 159 53 L 182 65 L 194 79 L 196 89 L 199 90 L 199 99 L 189 107 M 53 56 L 46 66 L 50 68 M 152 59 L 142 78 M 40 70 L 39 71 M 159 70 L 168 70 M 156 71 L 159 71 M 36 72 L 35 73 M 154 72 L 155 72 M 152 73 L 153 73 M 150 74 L 151 74 M 148 75 L 149 75 M 146 76 L 147 76 M 24 77 L 27 77 M 68 77 L 71 77 M 66 78 L 67 78 M 64 79 L 63 81 M 15 82 L 14 83 M 60 82 L 53 90 L 54 94 M 66 88 L 61 90 M 160 89 L 159 90 M 59 92 L 56 93 M 0 94 L 2 95 M 154 95 L 144 112 L 133 120 L 120 121 L 108 116 L 128 121 M 147 99 L 134 109 M 88 102 L 94 102 L 88 115 L 88 127 L 113 165 L 112 177 L 106 190 L 100 194 L 100 199 L 131 199 L 132 194 L 152 177 L 163 173 L 175 173 L 168 164 L 162 163 L 152 163 L 134 173 L 130 172 L 144 145 L 120 132 L 135 133 L 152 129 L 184 111 L 183 128 L 199 153 M 150 102 L 137 117 M 86 103 L 81 108 L 77 127 L 81 136 L 94 147 L 103 150 L 112 162 L 113 174 L 106 190 M 82 106 L 77 120 L 80 135 L 95 148 L 103 150 L 113 165 L 113 174 L 106 190 M 78 107 L 81 108 L 77 120 L 79 133 L 91 145 L 103 150 L 112 162 L 113 174 L 107 190 M 0 108 L 0 111 M 76 108 L 67 116 L 63 130 L 64 144 L 68 158 L 82 175 L 95 199 L 136 199 L 139 193 L 155 184 L 165 181 L 181 184 L 182 181 L 176 174 L 197 199 L 199 194 L 198 199 L 137 199 L 197 199 M 187 108 L 186 109 M 4 110 L 4 114 L 13 124 L 27 127 L 40 127 L 68 115 L 63 130 L 67 153 L 45 144 L 37 165 L 52 158 L 63 158 L 69 159 L 77 171 L 64 174 L 47 193 L 46 199 L 51 199 L 71 182 L 78 180 L 85 182 L 94 199 L 52 199 L 198 199 M 72 111 L 71 112 M 6 117 L 20 134 L 43 144 L 46 143 L 56 122 L 45 144 L 67 154 L 95 199 L 198 199 M 172 117 L 173 139 L 189 152 L 199 165 M 135 118 L 134 119 M 109 122 L 117 131 L 143 144 L 152 130 L 145 144 L 159 153 L 158 134 L 161 125 L 158 134 L 160 153 L 186 189 L 198 199 M 164 122 L 163 123 M 0 127 L 12 159 L 13 172 L 8 189 L 17 185 L 25 175 L 19 151 L 25 174 L 29 167 L 29 154 L 19 133 L 67 154 L 95 199 L 198 199 M 14 128 L 22 135 L 67 154 L 95 199 L 197 199 M 0 132 L 9 149 L 13 167 L 10 183 L 7 189 L 0 193 L 1 199 L 197 199 M 169 136 L 190 153 L 199 165 M 21 138 L 29 153 L 27 173 L 31 173 L 38 166 M 123 141 L 129 156 L 128 171 L 135 172 M 145 145 L 166 159 L 182 184 L 197 199 M 143 149 L 132 169 L 136 172 M 42 151 L 37 162 L 39 166 M 47 161 L 44 163 M 151 163 L 171 166 L 182 184 L 197 199 M 148 164 L 151 164 M 144 166 L 143 167 M 36 168 L 31 173 M 66 172 L 47 192 L 46 199 L 197 199 M 27 174 L 28 174 M 127 176 L 116 186 M 156 176 L 151 178 M 23 179 L 19 184 M 73 182 L 64 189 M 6 189 L 11 189 M 0 191 L 4 191 L 2 192 M 139 194 L 138 199 L 198 199 M 54 195 L 53 199 L 198 199 M 0 199 L 197 199" 
        fill="none" 
        stroke="black" 
        stroke-width="1.5" 
        stroke-linecap="round" 
        stroke-linejoin="round"
        vector-effect="non-scaling-stroke"/>
</svg>