<svg xmlns="http://www.w3.org/2000/svg" viewBox="0 0 200 200" width="200" height="200">
  <rect width="100%" height="100%" fill="white"/>
  <path d="M 0 0 L 9 0 M 45 0 L 152 0 M 156 0 L 161 0 L 163 6 L 169 6 L 174 3 L 172 0 L 175 0 M 180 0 L 199 0 L 199 8 M 0 1 L 0 6 M 4 1 L 7 6 L 22 4 L 54 14 L 91 1 L 86 9 L 65 19 L 70 25 L 85 21 L 98 7 L 98 1 L 99 5 L 129 22 L 137 20 L 140 14 L 117 1 L 141 16 L 151 12 L 142 1 L 152 12 L 162 7 M 180 1 L 174 4 M 89 2 L 88 3 M 160 3 L 168 6 M 192 4 L 199 8 M 13 5 L 13 9 L 18 12 L 28 11 L 51 19 L 56 33 L 60 31 L 59 14 L 61 19 L 72 25 L 73 33 L 86 33 L 98 27 L 99 18 L 87 20 L 93 20 M 186 5 L 193 6 M 6 6 L 6 13 L 23 39 L 33 63 L 57 70 L 85 86 L 89 93 L 100 96 L 93 85 L 22 19 L 21 13 M 184 6 L 189 7 M 196 6 L 190 16 L 198 17 L 199 12 L 198 17 M 31 7 L 59 14 L 61 19 L 72 25 L 71 31 L 74 36 L 83 34 L 81 36 M 103 7 L 128 21 L 127 26 L 114 36 L 104 53 L 102 86 L 107 91 L 111 88 L 108 80 L 113 67 L 131 33 L 117 58 L 110 80 L 114 78 L 140 26 L 166 14 M 98 8 L 101 16 L 121 29 L 118 34 M 179 8 L 186 8 M 97 9 L 87 19 L 93 20 M 178 9 L 180 11 M 174 10 L 178 13 L 155 21 L 167 18 M 0 11 L 0 22 L 15 65 L 34 90 L 57 101 L 86 101 L 95 97 L 92 100 M 173 11 L 172 12 M 193 11 L 186 20 L 187 27 L 183 32 L 175 31 L 170 36 L 177 40 L 184 39 L 191 33 L 196 18 L 187 45 L 177 51 L 160 46 L 155 51 L 173 58 L 185 55 L 191 51 L 199 26 L 198 33 M 29 13 L 25 22 L 32 28 L 42 26 L 42 18 L 43 29 L 40 35 L 44 39 L 50 34 L 50 26 L 58 33 M 6 14 L 9 28 L 27 65 L 36 63 L 57 70 L 82 84 L 87 92 L 95 96 L 104 96 L 108 91 L 106 98 L 111 95 L 114 98 L 120 96 L 120 89 L 112 88 L 112 81 L 113 85 L 129 63 L 150 23 M 35 15 L 35 22 L 31 22 L 35 22 M 99 15 L 97 17 L 103 27 M 28 17 L 27 19 M 10 18 L 23 39 L 33 63 L 57 70 L 85 86 L 89 93 L 101 97 L 96 103 L 96 118 L 82 152 M 187 18 L 181 24 L 185 29 L 183 32 M 6 19 L 25 64 L 72 84 L 84 92 M 108 22 L 121 29 L 117 34 M 182 22 L 181 26 L 185 29 L 183 32 M 144 23 L 118 67 L 112 81 L 114 85 M 61 24 L 65 28 L 67 38 L 62 47 L 56 48 L 59 53 L 67 52 L 75 43 L 74 37 L 77 37 M 126 26 L 125 27 M 179 26 L 185 29 L 182 32 M 50 27 L 48 38 M 99 27 L 102 37 L 109 34 L 106 29 L 110 35 L 115 35 M 178 27 L 176 31 L 181 33 M 64 28 L 67 38 L 62 47 M 0 32 L 5 34 L 8 42 L 0 48 L 0 45 L 0 48 M 60 32 L 61 38 L 51 44 L 54 39 L 57 41 M 60 33 L 61 38 L 58 40 M 91 33 L 100 34 L 108 44 L 112 42 L 104 52 L 95 44 L 78 46 L 80 52 L 94 56 L 105 54 L 103 61 L 97 57 L 104 61 L 102 69 L 88 64 L 86 68 L 103 79 L 102 86 L 108 91 L 105 97 L 109 98 L 109 103 L 112 106 L 132 107 L 167 121 M 109 35 L 116 35 M 167 37 L 165 41 L 168 44 L 184 47 M 166 38 L 161 47 L 170 50 L 171 46 L 176 46 M 102 40 L 101 48 L 105 52 L 102 86 L 108 91 L 105 97 L 109 98 L 103 116 L 110 117 L 110 110 L 113 107 L 119 117 L 170 167 L 173 167 L 190 187 L 193 187 L 194 181 L 175 135 L 147 126 L 118 107 L 147 126 L 174 134 L 174 126 L 153 121 L 125 107 L 148 119 L 171 126 L 168 117 L 149 97 L 120 97 L 126 98 M 196 40 L 191 50 L 193 61 M 47 42 L 57 48 L 59 53 L 63 53 M 162 42 L 161 47 L 176 51 M 188 42 L 185 47 M 96 43 L 101 43 L 101 48 L 105 52 L 102 86 L 108 91 L 105 97 L 109 98 L 109 103 L 103 110 L 103 121 L 114 126 L 115 121 L 111 117 L 121 118 L 128 127 L 120 126 L 119 131 L 131 132 M 106 43 L 110 44 L 107 51 M 166 43 L 177 46 M 75 44 L 79 45 L 79 57 L 86 64 L 103 69 L 102 86 L 108 91 L 105 97 L 109 98 L 111 106 L 132 107 L 167 121 M 96 44 L 105 52 L 102 86 L 108 91 L 105 97 L 109 98 L 109 103 L 112 106 L 132 107 L 167 121 M 74 45 L 68 52 L 67 61 L 71 63 L 74 54 L 73 61 L 80 68 L 80 74 L 91 85 L 95 83 L 89 72 L 102 78 L 102 86 L 108 91 L 105 97 L 109 98 L 112 106 L 132 107 L 166 121 M 157 47 L 152 54 L 159 61 L 171 65 L 179 64 L 181 69 M 153 52 L 150 56 L 150 65 L 134 96 L 144 95 L 157 60 L 150 78 L 153 94 L 161 79 L 161 63 L 161 79 L 167 88 L 172 74 L 171 66 L 172 73 L 181 84 L 190 90 L 199 90 M 158 53 L 173 58 M 134 55 L 113 85 M 8 56 L 9 56 M 185 56 L 185 63 M 63 57 L 74 68 L 78 66 L 80 74 L 91 85 L 96 85 L 99 93 L 109 98 L 112 106 L 132 107 L 167 121 M 149 57 L 145 64 L 150 65 M 155 57 L 161 62 L 173 65 M 5 58 L 0 64 M 80 59 L 86 64 L 103 69 L 102 86 L 108 91 L 105 97 L 109 98 L 112 106 L 132 107 L 166 121 M 192 59 L 193 61 M 14 60 L 15 66 L 0 83 M 73 62 L 80 68 L 80 74 L 91 85 L 95 85 L 102 96 L 109 98 L 112 106 L 132 107 L 166 121 M 142 63 L 144 65 L 141 66 L 141 70 L 134 72 L 137 76 L 144 77 L 133 90 L 134 96 L 152 98 L 155 93 L 169 95 L 169 88 L 172 93 L 188 91 M 142 64 L 143 65 M 195 65 L 197 72 M 140 66 L 135 70 L 138 71 M 186 66 L 188 73 M 12 67 L 13 67 M 18 68 L 20 74 L 0 104 L 1 109 L 11 106 L 25 82 L 33 88 L 27 105 L 33 106 L 39 94 L 45 96 L 45 105 L 51 99 L 56 99 L 57 102 L 49 110 L 49 122 L 53 122 L 59 115 L 60 102 L 61 107 L 64 102 L 60 109 L 61 114 L 72 109 L 74 102 L 74 109 L 84 102 L 80 107 M 29 68 L 36 78 L 74 91 L 85 92 M 75 68 L 91 85 L 97 86 L 102 96 L 109 98 L 112 106 L 132 107 L 167 121 M 34 69 L 72 84 L 84 92 M 86 69 L 103 79 L 102 86 L 108 91 L 105 97 L 109 98 L 112 106 L 132 107 L 166 121 M 147 69 L 133 95 L 152 98 L 172 125 L 180 130 L 199 175 L 199 181 M 186 69 L 188 73 M 9 71 L 0 84 M 133 73 L 127 82 M 31 74 L 36 80 M 199 74 L 199 77 M 172 75 L 169 83 L 172 93 L 166 103 L 174 108 L 181 94 L 174 108 L 179 116 L 183 115 L 193 91 L 181 117 L 185 124 L 199 94 L 186 123 L 187 128 L 191 126 L 199 105 L 198 109 M 190 76 L 190 79 L 199 86 M 137 77 L 124 91 M 187 78 L 199 86 M 15 79 L 2 103 M 93 79 L 99 93 L 109 98 L 112 106 L 132 107 L 167 121 M 125 79 L 128 79 L 127 83 M 135 79 L 126 89 M 176 79 L 180 85 M 109 80 L 113 80 L 113 85 M 124 80 L 119 87 L 121 85 L 119 88 L 124 91 M 161 80 L 165 87 L 175 93 M 122 81 L 119 88 L 123 91 M 187 87 L 190 90 L 198 90 M 146 89 L 143 96 L 152 98 L 172 125 L 180 130 L 199 175 L 199 182 M 157 90 L 154 94 L 156 95 M 38 92 L 57 101 L 65 101 L 60 109 L 60 114 L 64 117 L 59 128 L 62 129 L 68 121 L 65 126 M 21 93 L 11 108 L 31 105 L 37 111 L 40 105 L 36 104 L 50 103 L 53 105 L 52 108 L 48 108 L 51 109 M 121 93 L 120 97 L 125 98 M 111 97 L 116 98 M 29 98 L 26 104 L 39 110 L 40 127 L 46 126 L 48 122 L 47 128 L 51 129 L 56 120 L 52 128 L 52 136 L 55 138 L 58 136 L 58 129 L 66 131 L 75 122 L 74 114 L 73 120 L 75 122 L 79 119 L 78 109 L 80 117 L 87 113 L 85 111 L 87 114 L 91 110 L 86 102 L 91 111 L 95 109 L 95 113 L 65 172 L 34 187 L 1 193 L 1 199 L 24 199 L 27 195 L 46 191 L 74 177 L 92 155 L 97 139 L 101 136 L 102 122 L 119 127 L 123 140 L 137 136 L 135 138 M 100 98 L 94 110 L 96 118 L 82 152 M 154 98 L 174 108 L 179 116 L 183 116 M 38 99 L 36 103 L 41 105 M 162 102 L 182 116 M 55 103 L 54 104 M 20 107 L 28 118 L 30 132 L 39 127 L 52 142 L 55 139 L 54 141 M 0 109 L 0 110 M 7 109 L 16 119 L 22 134 L 29 134 M 73 109 L 78 109 L 80 117 M 113 109 L 111 116 L 115 119 L 115 125 L 119 127 L 122 138 L 102 133 L 125 141 L 126 139 L 127 144 L 135 144 L 141 140 L 139 142 M 20 111 L 28 118 L 30 132 L 41 137 L 47 145 L 51 144 L 0 193 L 0 183 L 12 148 L 0 114 L 11 144 L 15 142 L 15 136 L 17 140 L 24 135 M 112 111 L 110 114 L 122 133 L 122 139 L 128 145 L 128 152 L 133 154 L 146 145 L 144 146 M 68 112 L 67 113 M 8 113 L 16 119 L 24 135 M 88 114 L 61 163 L 60 172 L 63 173 M 23 115 L 28 118 L 30 132 L 50 145 M 93 115 L 65 172 M 38 116 L 40 127 L 37 129 M 57 118 L 52 128 L 52 136 L 56 138 L 54 141 M 85 120 L 64 155 L 60 168 L 62 173 M 193 122 L 188 129 L 189 133 L 193 134 L 199 127 L 198 129 M 183 123 L 189 128 L 193 142 L 199 144 M 74 124 L 69 129 M 63 131 L 62 135 L 57 137 M 175 134 L 198 193 L 199 188 L 199 199 L 70 199 M 46 135 L 52 142 L 49 145 M 102 137 L 105 144 L 117 150 L 128 151 L 131 154 L 137 151 L 134 154 L 133 165 L 136 173 L 146 183 L 184 193 L 183 188 L 149 176 L 141 164 L 140 157 L 144 152 L 155 151 L 157 156 L 151 168 L 157 171 L 158 164 L 165 161 L 169 167 L 164 172 L 173 172 M 21 138 L 20 139 M 30 141 L 36 142 L 44 151 M 192 141 L 199 152 L 199 159 M 27 142 L 28 142 M 15 143 L 14 144 M 24 143 L 25 143 M 36 143 L 44 151 M 103 143 L 103 152 L 116 151 M 23 144 L 19 148 L 22 151 L 33 148 L 42 153 L 38 157 L 27 155 L 23 159 L 32 162 L 30 165 M 97 145 L 102 146 L 104 158 L 121 164 L 133 164 L 136 170 L 134 174 L 121 177 L 105 186 L 107 191 L 111 189 M 20 146 L 15 156 L 22 159 L 25 157 L 23 159 L 28 166 M 95 147 L 92 154 L 103 152 L 104 163 L 110 160 L 121 164 L 105 173 L 111 176 M 115 148 L 134 154 L 133 165 L 140 180 L 117 189 L 111 199 L 119 199 L 122 194 L 145 183 L 183 193 M 142 148 L 139 149 M 46 149 L 45 150 M 17 150 L 10 168 L 17 167 L 21 159 L 32 162 L 29 165 M 25 150 L 26 155 L 38 157 L 34 161 M 11 151 L 0 184 L 1 191 L 6 187 L 1 192 L 6 193 M 24 152 L 38 157 L 34 161 M 149 153 L 147 162 M 96 154 L 97 158 L 103 159 L 103 171 L 106 172 L 104 184 L 110 185 M 80 155 L 79 158 M 142 155 L 140 161 L 147 173 L 151 170 L 163 172 L 163 180 L 167 183 L 170 175 L 180 176 L 183 181 L 177 185 L 184 189 L 188 186 L 187 189 M 156 156 L 151 168 L 175 176 L 177 183 L 183 181 L 181 183 M 147 157 L 148 163 M 161 157 L 187 181 L 190 187 L 194 187 L 198 194 L 186 193 L 199 194 L 198 199 M 89 159 L 88 164 L 106 172 L 104 175 L 111 176 M 12 161 L 9 174 L 15 177 L 11 182 M 161 162 L 158 170 L 171 176 L 182 177 L 199 193 L 198 199 M 87 164 L 96 166 L 110 176 M 120 165 L 119 166 M 19 167 L 19 175 M 84 167 L 82 172 L 109 185 M 165 168 L 166 168 M 14 170 L 15 175 L 19 175 M 109 170 L 110 170 M 150 172 L 148 175 L 153 178 L 156 178 L 157 173 L 157 180 L 186 189 M 50 173 L 63 173 M 8 174 L 8 184 L 1 192 L 5 193 M 47 174 L 50 174 M 42 176 L 43 176 M 57 176 L 56 177 M 75 177 L 100 192 L 105 199 L 107 192 L 108 199 L 198 199 M 116 177 L 119 178 M 37 178 L 38 178 M 53 178 L 54 178 M 76 179 L 97 190 L 105 199 L 199 199 M 32 180 L 33 180 M 116 180 L 113 183 M 138 180 L 139 180 M 27 182 L 28 182 M 67 182 L 87 199 L 198 199 M 68 184 L 87 199 L 199 199 M 20 185 L 21 185 M 19 186 L 12 190 L 15 192 M 142 186 L 139 187 M 58 187 L 63 199 L 198 199 M 12 189 L 16 192 M 47 192 L 48 199 L 66 199 M 36 194 L 36 199 L 66 199 M 27 196 L 26 199 L 66 199 M 121 196 L 121 199 L 199 199 M 0 199 L 65 199" 
        fill="none" 
        stroke="black" 
        stroke-width="1.5" 
        stroke-linecap="round" 
        stroke-linejoin="round"
        vector-effect="non-scaling-stroke"/>
</svg>