<svg xmlns="http://www.w3.org/2000/svg" viewBox="0 0 200 200" width="200" height="200">
  <rect width="100%" height="100%" fill="white"/>
  <path d="M 2 0 L 172 0 L 171 0 M 184 0 L 187 0 M 190 0 L 199 0 L 199 2 L 198 1 L 196 5 L 189 12 L 184 13 L 183 15 L 182 15 L 177 19 L 175 19 L 163 25 L 160 28 L 159 28 L 150 37 M 4 1 L 5 5 L 11 11 L 17 14 L 19 16 L 21 16 L 25 18 L 29 18 L 30 19 L 44 19 L 45 20 L 50 21 L 54 24 L 55 24 L 62 31 L 62 32 L 64 34 L 64 37 L 66 40 L 66 45 L 69 48 L 70 48 L 72 45 L 71 43 L 71 34 L 70 33 L 70 31 L 69 30 L 69 28 L 67 24 L 64 21 L 64 20 L 62 19 L 61 17 L 52 12 L 46 12 L 45 11 L 27 11 L 26 10 L 19 9 L 17 7 L 15 7 L 13 5 L 12 5 L 10 1 L 10 2 L 13 5 L 14 5 L 19 9 L 23 9 L 27 11 L 45 11 L 46 12 L 53 12 L 55 14 L 59 15 L 63 19 L 64 19 L 67 25 L 69 27 L 69 30 L 71 34 L 71 43 L 72 44 L 74 44 L 76 42 L 76 38 L 77 37 L 77 26 L 78 25 L 76 21 L 76 17 L 73 15 L 73 13 L 70 10 L 70 8 L 65 4 L 65 2 L 64 1 L 65 2 L 65 4 L 68 7 L 73 5 L 76 2 L 76 1 L 75 4 L 74 4 L 75 4 M 115 1 L 116 4 L 120 6 L 125 11 L 126 11 L 126 12 L 128 14 L 129 14 L 132 11 L 132 9 L 128 5 L 126 1 L 130 6 L 130 7 L 133 10 L 134 9 L 137 9 L 139 7 L 138 1 L 138 3 L 140 5 L 141 5 L 143 3 L 143 1 L 143 3 L 141 5 L 140 5 M 157 1 L 157 2 L 159 4 L 161 4 L 163 2 L 163 1 L 163 2 L 161 4 L 160 4 L 151 13 L 150 15 L 151 16 L 155 14 L 157 14 L 158 13 L 161 13 L 162 12 L 167 12 L 171 14 L 172 13 L 183 13 L 184 12 L 184 10 L 187 7 L 187 6 L 191 1 L 189 5 L 185 9 L 184 11 L 184 12 L 186 13 M 197 1 L 199 1 L 199 2 L 198 1 L 199 1 L 199 2 L 198 1 L 199 1 L 199 2 L 198 1 L 199 1 L 199 2 L 198 1 L 199 1 L 199 2 L 198 1 L 199 1 L 199 2 L 198 1 L 199 1 L 199 2 L 198 1 L 199 1 L 199 2 L 198 1 L 199 1 L 199 2 L 198 1 L 199 1 L 199 2 L 198 1 L 199 1 L 199 2 L 198 1 L 199 1 L 199 2 L 198 1 L 199 1 L 199 2 L 198 1 L 199 1 L 199 2 L 198 1 L 199 1 L 199 2 L 198 1 L 199 1 L 199 2 L 198 1 L 199 1 L 199 2 L 198 1 L 199 1 L 199 2 L 198 1 L 199 1 L 199 2 L 198 1 L 199 1 L 199 2 L 198 1 L 199 1 L 199 2 L 198 1 L 199 1 L 199 2 L 198 1 L 199 1 L 199 2 L 198 1 L 199 1 L 199 2 L 198 1 L 199 1 L 199 2 L 198 1 L 199 1 L 199 2 L 198 1 L 199 1 L 199 2 L 198 1 L 199 1 L 199 2 L 198 1 L 199 1 L 199 2 L 198 1 L 199 1 L 199 2 L 198 1 L 199 1 L 199 2 L 198 1 L 199 1 L 199 2 L 198 1 L 199 1 L 199 2 L 198 1 L 199 1 L 199 2 L 198 1 L 199 1 L 199 2 L 198 1 L 199 1 L 199 2 L 198 1 L 199 1 L 199 2 L 198 1 L 199 1 L 199 2 L 198 1 L 199 1 L 199 2 L 198 1 L 199 1 L 199 2 L 198 1 L 199 1 L 199 2 L 198 1 L 199 1 L 199 2 L 198 1 L 199 1 L 199 2 L 198 1 L 199 1 L 199 2 L 198 1 L 199 1 L 199 2 L 198 1 L 199 1 L 199 2 L 198 1 L 199 1 L 199 2 L 198 1 L 199 1 L 199 2 L 198 1 L 199 1 L 199 2 L 198 1 L 199 1 L 199 2 L 198 1 L 199 1 L 199 2 L 198 1 L 199 1 L 199 2 L 198 1 L 199 1 L 199 2 L 198 1 L 199 1 L 199 2 L 198 1 L 199 1 L 199 2 L 198 1 L 199 1 L 199 2 L 198 1 L 199 1 L 199 2 L 198 1 L 199 1 L 199 2 L 198 1 L 199 1 L 199 2 L 198 1 L 199 1 L 199 2 L 198 1 L 199 1 L 199 2 L 198 1 L 199 1 L 199 2 L 198 1 L 199 1 L 199 2 L 198 1 L 199 1 L 199 2 L 198 1 L 199 1 L 199 2 L 198 1 L 199 1 L 199 2 L 198 1 L 199 1 L 199 2 L 198 1 L 199 1 L 199 2 L 198 1 L 199 1 L 199 2 L 198 1 L 199 1 L 199 2 L 198 1 L 199 1 L 199 2 L 198 1 L 199 1 L 199 2 L 198 1 L 199 1 L 199 2 L 198 1 L 199 1 L 199 2 L 198 1 L 199 1 L 199 2 L 198 1 L 199 1 L 199 2 L 198 1 L 199 1 L 199 2 L 198 1 L 199 1 L 199 2 L 198 1 L 199 1 L 199 2 L 198 1 L 199 1 L 199 2 L 198 1 L 199 1 L 199 2 L 198 1 L 199 1 L 199 2 L 198 1 L 199 1 L 199 2 L 198 1 L 199 1 L 199 2 L 198 1 L 199 1 L 199 2 L 198 1 L 199 1 L 199 2 L 198 1 L 199 1 L 199 2 L 198 1 L 199 1 L 199 2 L 198 1 L 199 1 L 199 2 L 198 1 L 199 1 L 199 2 L 198 1 L 199 1 L 199 2 L 198 1 L 199 1 L 199 2 L 198 1 L 199 1 L 199 2 L 198 1 L 199 1 L 199 2 L 198 1 L 199 1 L 199 2 L 198 1 L 199 1 L 199 2 L 198 1 L 199 1 L 199 2 L 198 1 L 199 1 L 199 2 L 198 1 L 199 1 L 199 2 L 198 1 L 199 1 L 199 2 L 198 1 L 199 1 L 199 2 L 198 1 L 199 1 L 199 2 L 198 1 L 199 1 L 199 2 L 198 1 L 199 1 L 199 2 L 198 1 L 199 1 L 199 2 L 198 1 L 199 1 L 199 2 L 198 1 L 199 1 L 199 2 L 198 1 L 199 1 L 199 2 L 198 1 L 199 1 L 199 2 L 198 1 L 199 1 L 199 2 L 198 1 L 199 1 L 199 2 L 198 1 L 199 1 L 199 2 L 198 1 L 199 1 L 199 2 L 198 1 L 199 1 L 199 2 L 198 1 L 199 1 L 199 2 L 198 1 L 199 1 L 199 2 L 198 1 L 199 1 L 199 2 L 198 1 L 199 1 L 199 2 L 198 1 L 199 1 L 199 2 L 198 1 L 199 1 L 199 2 L 198 1 L 199 1 L 199 2 L 198 1 L 199 1 L 199 2 L 198 1 L 199 1 L 199 2 L 198 1 L 199 1 L 199 2 L 198 1 L 199 1 L 199 2 L 198 1 L 199 1 L 199 2 L 198 1 L 199 1 L 199 2 L 198 1 L 199 1 L 199 2 L 198 1 L 199 1 L 199 2 L 198 1 L 199 1 L 199 2 L 198 1 L 199 1 L 199 2 L 198 1 L 199 1 L 199 2 L 198 1 L 199 1 L 199 2 L 198 1 L 199 1 L 199 2 L 198 1 L 199 1 L 199 2 L 198 1 L 199 1 L 199 2 L 198 1 L 199 1 L 199 2 L 198 1 L 199 1 L 199 2 L 198 1 L 199 1 L 199 2 L 198 1 L 199 1 L 199 2 L 198 1 L 199 1 L 199 2 L 198 1 L 199 1 L 199 2 L 198 1 L 199 1 L 199 2 L 198 1 L 199 1 L 199 2 L 198 1 L 199 1 L 199 2 L 198 1 L 199 1 L 199 2 L 198 1 L 199 1 L 199 2 L 198 1 L 199 1 L 199 2 L 198 1 L 199 1 L 199 2 L 198 1 L 199 1 L 199 2 L 198 1 L 199 1 L 199 2 L 198 1 L 199 1 L 199 2 L 198 1 L 199 1 L 199 2 L 198 1 L 199 1 L 199 2 L 198 1 L 199 1 L 199 2 L 198 1 L 199 1 L 199 2 L 198 1 L 199 1 L 199 2 L 198 1 L 199 1 L 199 2 L 198 1 L 199 1 L 199 2 L 198 1 L 199 1 L 199 2 L 198 1 L 199 1 L 199 2 L 198 1 L 199 1 L 199 2 L 198 1 L 199 1 L 199 2 L 198 1 L 199 1 L 199 2 L 198 1 L 199 1 L 199 2 L 198 1 L 199 1 L 199 2 L 198 1 L 199 1 L 199 2 L 198 1 L 199 1 L 199 2 L 198 1 L 199 1 L 199 2 L 198 1 L 199 1 L 199 2 L 198 1 L 199 1 L 199 2 L 198 1 L 199 1 L 199 2 L 198 1 L 199 1 L 199 2 L 198 1 L 199 1 L 199 2 L 198 1 L 199 1 L 199 2 L 198 1 L 199 1 L 199 2 L 198 1 L 199 1 L 199 2 L 198 1 L 199 1 L 199 2 L 198 1 L 199 1 L 199 2 L 198 1 L 199 1 L 199 2 L 198 1 L 199 1 L 199 2 L 198 1 L 199 1 L 199 2 L 198 1 L 199 1 L 199 2 L 198 1 L 199 1 L 199 2 L 198 1 L 199 1 L 199 2 L 198 1 L 199 1 L 199 2 L 198 1 L 199 1 L 199 2 L 198 1 L 199 1 L 199 2 L 198 1 L 199 1 L 199 2 L 198 1 L 199 1 L 199 2 L 198 1 L 199 1 L 199 2 L 198 1 L 199 1 L 199 2 L 198 1 L 199 1 L 199 2 L 198 1 L 199 1 L 199 2 L 198 1 L 199 1 L 199 2 L 198 1 L 199 1 L 199 2 L 198 1 L 199 1 L 199 2 L 198 1 L 199 1 L 199 2 L 198 1 L 199 1 L 199 2 L 198 1 L 199 1 L 199 2 L 198 1 L 199 1 L 199 2 L 198 1 L 199 1 L 199 2 L 198 1 L 199 1 L 199 2 L 198 1 L 199 1 L 199 2 L 198 1 L 199 1 L 199 2 L 198 1 L 199 1 L 199 2 L 198 1 L 199 1 L 199 2 L 198 1 L 199 1 L 199 2 L 198 1 L 199 1 L 199 2 L 198 1 L 199 1 L 199 2 L 198 1 L 199 1 L 199 2 L 198 1 L 199 1 L 199 2 L 198 1 L 199 1 L 199 2 L 198 1 L 199 1 L 199 2 L 198 1 L 199 1 L 199 2 L 198 1 L 199 1 L 199 2 L 198 1 L 199 1 L 199 2 L 198 1 L 199 1 L 199 2 L 198 1 L 199 1 L 199 2 L 198 1 L 199 1 L 199 2 L 198 1 L 199 1 L 199 2 L 198 1 L 199 1 L 199 2 L 198 1 L 199 1 L 199 2 L 198 1 L 199 1 L 199 2 L 198 1 L 199 1 L 199 2 L 198 1 L 199 1 L 199 2 L 198 1 L 199 1 L 199 2 L 198 1 L 199 1 L 199 2 L 198 1 L 199 1 L 199 2 L 198 1 L 199 1 L 199 2 L 198 1 L 199 1 L 199 2 L 198 1 L 199 1 L 199 2 L 198 1 L 199 1 L 199 2 L 198 1 L 199 1 L 199 2 L 198 1 L 199 1 L 199 2 L 198 1 L 199 1 L 199 2 L 198 1 L 199 1 L 199 2 L 198 1 L 199 1 L 199 2 L 198 1 L 199 1 L 199 2 L 198 1 L 199 1 L 199 2 L 198 1 L 199 1 L 199 2 L 198 1 L 199 1 L 199 2 L 198 1 L 199 1 L 199 2 L 198 1 L 199 1 L 199 2 L 198 1 L 199 1 L 199 2 L 198 1 L 199 1 L 199 2 L 198 1 L 199 1 L 199 2 L 198 1 L 199 1 L 199 2 L 198 1 L 199 1 L 199 2 L 198 1 L 199 1 L 199 2 L 198 1 L 199 1 L 199 2 L 198 1 L 199 1 L 199 2 L 198 1 L 199 1 L 199 2 L 198 1 L 199 1 L 199 2 L 198 1 L 199 1 L 199 2 L 198 1 L 199 1 L 199 2 L 198 1 L 199 1 L 199 2 L 198 1 L 199 1 L 199 2 L 198 1 L 199 1 L 199 2 L 198 1 L 199 1 L 199 2 L 198 1 L 199 1 L 199 2 L 198 1 L 199 1 L 199 2 L 198 1 L 199 1 L 199 2 L 198 1 L 199 1 L 199 2 L 198 1 L 199 1 L 199 2 L 198 1 L 199 1 L 199 2 L 198 1 L 199 1 L 199 2 L 198 1 L 199 1 L 199 2 L 198 1 L 199 1 L 199 2 L 198 1 L 199 1 L 199 2 L 198 1 L 199 1 L 199 2 L 198 1 L 199 1 L 199 2 L 198 1 L 199 1 L 199 2 L 198 1 L 199 1 L 199 2 L 198 1 L 199 1 L 199 2 L 198 1 L 199 1 L 199 2 L 198 1 L 199 1 L 199 2 L 198 1 L 199 1 L 199 2 L 198 1 L 199 1 L 199 2 L 198 1 L 199 1 L 199 2 L 198 1 L 199 1 L 199 2 L 198 1 L 199 1 L 199 2 L 198 1 L 199 1 L 199 2 L 198 1 L 199 1 L 199 2 L 198 1 L 199 1 L 199 2 L 198 1 L 199 1 L 199 2 L 198 1 L 199 1 L 199 2 L 198 1 L 199 1 L 199 2 L 198 1 L 199 1 L 199 2 L 198 1 L 199 1 L 199 2 L 198 1 L 199 1 L 199 2 L 198 1 L 199 1 L 199 2 L 198 1 L 199 1 L 199 2 L 198 1 L 199 1 L 199 2 L 198 1 L 199 1 L 199 2 L 198 1 L 199 1 L 199 2 L 198 1 L 199 1 L 199 2 L 198 1 L 199 1 L 199 2 L 198 1 L 199 1 L 199 2 L 198 1 L 199 1 L 199 2 L 198 1 L 199 1 L 199 2 L 198 1 L 199 1 L 199 2 L 198 1 L 199 1 L 199 2 L 198 1 L 199 1 L 199 2 L 198 1 L 199 1 L 199 2 L 198 1 L 199 1 L 199 2 L 198 1 L 199 1 L 199 2 L 198 1 L 199 1 L 199 2 L 198 1 L 199 1 L 199 2 L 198 1 L 199 1 L 199 2 L 198 1 L 199 1 L 199 2 L 198 1 L 199 1 L 199 2 L 198 1 L 199 1 L 199 2 L 198 1 L 199 1 L 199 2 L 198 1 L 199 1 L 199 2 L 198 1 L 199 1 L 199 2 L 198 1 L 199 1 L 199 2 L 198 1 L 199 1 L 199 2 L 198 1 L 199 1 L 199 2 L 198 1 L 199 1 L 199 2 L 198 1 L 199 1 L 199 2 L 198 1 L 199 1 L 199 2 L 198 1 L 199 1 L 199 2 L 198 1 L 199 1 L 199 2 L 198 1 L 199 1 L 199 2 L 198 1 L 199 1 L 199 2 L 198 1 L 199 1 L 199 2 L 198 1 L 199 1 L 199 2 L 198 1 L 199 1 L 199 2 L 198 1 L 199 1 L 199 2 L 198 1 L 199 1 L 199 2 L 198 1 L 199 1 L 199 2 L 198 1 L 199 1 L 199 2 M 0 2 L 1 3 L 4 3 L 5 4 L 5 6 L 10 11 L 22 17 L 22 19 L 14 19 L 8 16 L 4 12 L 3 12 L 2 9 L 0 8 L 0 3 L 4 3 L 5 5 L 11 11 L 17 14 L 19 16 L 21 16 L 25 18 L 29 18 L 30 19 L 44 19 L 47 21 L 49 21 L 53 23 L 56 26 L 57 26 L 59 28 L 59 29 L 61 31 L 62 31 L 62 33 L 64 34 L 64 37 L 66 40 L 66 45 L 69 48 L 68 58 L 67 59 L 68 61 L 68 69 L 69 70 L 72 70 L 73 69 L 73 65 L 74 64 L 74 60 L 75 59 L 75 56 L 76 54 L 83 47 L 84 47 L 86 45 L 90 43 L 92 43 L 93 42 L 110 42 L 111 43 L 113 43 L 116 46 L 118 46 L 122 43 L 122 42 L 120 40 L 118 40 L 115 38 L 113 38 L 108 35 L 105 35 L 104 34 L 101 34 L 100 33 L 92 33 L 89 35 L 86 35 L 81 40 L 77 41 L 79 41 L 78 41 M 156 2 L 155 4 L 157 6 L 159 5 L 151 12 L 152 12 L 150 16 L 146 20 L 144 21 L 142 27 L 139 30 L 139 32 L 140 33 L 140 39 L 139 40 L 138 44 L 139 45 L 139 55 L 141 58 L 142 57 L 144 57 L 146 55 L 149 46 L 153 42 L 155 38 L 158 37 L 160 35 L 162 35 L 165 32 L 165 31 L 169 30 L 171 28 L 174 28 L 176 26 L 178 26 L 181 23 L 184 23 L 186 21 L 187 21 L 199 9 L 199 7 L 199 10 L 198 10 M 153 4 L 155 4 L 157 6 L 158 6 L 148 17 L 149 17 L 146 20 L 145 20 M 152 5 L 147 10 L 147 11 L 147 10 M 150 6 L 149 7 L 150 7 L 147 10 L 147 11 L 147 10 M 70 7 L 70 9 L 71 11 L 73 12 L 73 15 L 74 16 L 76 16 L 80 12 L 88 8 L 101 8 L 102 9 L 106 10 L 108 12 L 112 14 L 115 17 L 116 17 L 116 19 L 118 22 L 120 22 L 124 19 L 123 16 L 123 17 L 125 18 L 127 16 L 127 15 L 127 17 L 125 18 L 126 18 M 120 7 L 121 7 L 125 11 L 126 11 L 126 12 L 128 14 L 129 14 L 128 14 M 3 10 L 3 11 L 5 12 L 6 14 L 7 14 L 10 17 L 14 19 L 22 19 M 104 10 L 109 12 L 112 15 L 116 17 L 117 22 L 110 22 L 109 21 L 106 21 L 105 20 L 103 21 L 100 21 L 99 22 L 96 22 L 95 23 L 91 24 L 89 26 L 85 28 L 80 33 L 78 33 L 81 32 L 79 33 M 190 10 L 189 11 L 190 11 L 188 12 L 189 12 M 80 13 L 78 14 L 79 14 M 196 13 L 188 21 L 187 21 M 0 14 L 0 19 L 11 28 L 26 28 L 27 27 L 31 27 L 32 28 L 34 28 L 35 30 L 38 30 L 40 32 L 44 33 L 46 36 L 49 37 L 50 38 L 50 40 L 52 42 L 53 42 L 53 45 L 55 47 L 56 57 L 58 60 L 58 65 L 60 67 L 60 71 L 61 73 L 67 78 L 68 78 L 71 75 L 69 74 L 68 70 L 73 70 L 73 79 L 75 81 L 75 83 L 76 84 L 76 90 L 80 92 L 81 94 L 83 93 L 84 92 L 84 90 L 87 88 L 85 85 L 85 83 L 81 81 L 80 76 L 78 74 L 78 65 L 81 61 L 81 60 L 85 56 L 92 52 L 95 52 L 96 51 L 101 51 L 102 52 L 108 53 L 111 50 L 109 48 L 107 48 L 109 48 L 111 50 L 112 49 L 114 49 L 115 47 L 116 47 L 114 49 L 113 49 M 167 14 L 168 14 L 166 16 L 164 16 L 167 15 L 165 16 L 166 16 M 181 14 L 181 15 L 183 15 M 77 16 L 76 17 L 76 21 L 78 24 L 80 24 L 85 19 L 89 18 L 90 17 L 100 17 L 102 18 L 103 20 L 109 21 L 110 22 L 121 22 L 122 21 L 121 22 L 123 24 L 132 24 L 133 23 L 136 23 L 138 21 L 144 21 L 143 25 L 139 29 L 140 29 L 139 31 L 135 33 L 132 36 L 132 37 L 129 39 L 128 41 L 129 43 L 131 42 L 135 42 L 136 41 L 139 42 L 138 43 L 138 45 L 134 47 L 133 49 L 133 52 L 128 59 L 128 61 L 127 62 L 128 64 L 128 68 L 129 69 L 128 85 L 127 86 L 127 89 L 126 90 L 125 96 L 123 99 L 123 101 L 121 103 L 121 105 L 116 111 L 116 112 L 107 119 L 99 123 L 97 123 L 94 125 L 92 125 L 91 126 L 86 126 L 85 128 L 84 128 L 82 130 L 81 130 L 79 132 L 77 132 L 80 131 L 78 132 L 79 132 M 87 19 L 83 21 L 84 21 M 0 20 L 1 20 L 6 25 L 7 25 L 12 29 L 12 33 L 13 34 L 15 34 L 17 32 L 17 29 L 17 33 L 16 33 M 99 21 L 103 21 L 102 21 M 166 23 L 168 23 L 167 23 M 185 23 L 185 26 M 199 23 L 199 24 L 197 24 L 195 26 L 191 28 L 188 31 L 187 31 L 184 34 L 183 34 L 177 41 L 175 45 L 175 47 L 173 50 L 173 57 L 172 58 L 172 65 L 173 66 L 173 75 L 172 76 L 172 78 L 169 84 L 168 84 L 165 87 L 161 88 L 160 89 L 155 89 L 154 90 L 154 93 L 156 94 L 157 96 L 159 97 L 163 97 L 164 98 L 168 98 L 170 96 L 175 96 L 176 95 L 179 88 L 182 85 L 183 79 L 184 78 L 184 66 L 182 64 L 180 60 L 180 54 L 182 51 L 182 48 L 190 38 L 191 38 L 196 33 L 198 33 L 199 31 L 199 33 L 198 33 L 199 33 M 181 24 L 179 26 L 178 26 M 0 25 L 0 29 L 5 39 L 5 46 L 6 47 L 6 53 L 7 54 L 8 60 L 10 62 L 10 64 L 12 66 L 12 67 L 20 75 L 30 80 L 34 80 L 35 81 L 38 81 L 39 82 L 44 82 L 45 83 L 52 83 L 53 84 L 60 85 L 64 87 L 67 87 L 69 85 L 69 84 L 67 82 L 59 80 L 57 78 L 54 78 L 50 76 L 40 75 L 37 73 L 33 73 L 31 71 L 29 71 L 27 69 L 26 69 L 21 64 L 21 63 L 17 58 L 17 56 L 15 54 L 15 52 L 13 48 L 13 45 L 12 44 L 12 34 L 14 34 L 17 38 L 17 39 L 18 40 L 20 40 L 22 38 L 22 35 L 25 32 L 26 29 L 21 39 L 24 41 L 26 40 L 28 36 L 30 34 L 31 34 L 34 30 L 34 31 L 31 34 L 30 34 L 31 34 M 89 25 L 90 25 L 88 26 M 161 26 L 160 27 L 161 27 L 159 28 L 160 28 M 86 27 L 87 27 L 85 28 M 153 28 L 155 27 L 154 27 M 175 28 L 175 33 L 176 34 L 176 36 L 176 35 M 101 29 L 109 30 L 110 31 L 112 31 L 116 33 L 119 33 L 123 35 L 126 33 L 132 33 L 133 34 L 134 33 L 136 33 M 157 29 L 150 37 M 0 30 L 1 30 L 3 34 L 3 36 L 5 39 L 5 46 L 6 47 L 6 53 L 7 54 L 8 61 L 10 62 L 10 65 L 12 66 L 12 68 L 19 75 L 29 80 L 34 80 L 35 81 L 38 81 L 39 82 L 44 82 L 45 83 L 52 83 L 53 84 L 60 85 L 63 87 L 66 87 L 67 88 L 68 88 L 69 86 L 70 88 L 72 88 L 73 86 L 75 85 L 74 87 L 75 88 L 73 88 L 76 88 L 76 92 L 74 94 L 72 98 L 73 99 L 76 99 L 78 98 L 80 94 L 81 94 L 79 98 L 78 98 M 91 30 L 97 30 L 96 30 M 170 30 L 170 37 L 169 38 L 170 39 L 170 45 M 181 30 L 181 34 L 182 35 L 180 37 L 181 37 L 177 41 L 174 47 L 175 47 L 173 49 L 174 49 L 173 50 L 173 57 L 172 58 L 172 61 L 171 62 L 169 61 L 168 55 L 167 54 L 167 51 L 165 48 L 165 44 L 164 43 L 164 34 L 164 43 L 165 44 L 165 48 L 168 54 L 168 58 L 169 60 L 171 62 L 172 62 L 172 64 L 170 67 L 169 73 L 169 72 M 188 30 L 189 30 L 187 31 M 89 31 L 90 31 L 90 33 L 91 34 L 90 34 M 39 32 L 38 35 L 37 35 L 29 44 L 28 52 L 30 54 L 31 54 L 33 52 L 33 49 L 35 47 L 37 43 L 38 43 L 39 41 L 43 39 L 45 36 L 45 37 L 43 39 L 42 39 M 87 32 L 88 32 L 87 34 L 89 35 M 115 33 L 119 33 L 120 34 L 122 34 L 124 35 L 125 37 L 128 37 L 129 38 L 132 37 L 130 38 L 131 38 M 184 33 L 185 33 L 183 34 M 196 34 L 194 35 L 195 35 M 132 35 L 133 35 L 132 37 L 130 38 M 29 36 L 25 41 L 24 47 L 26 49 L 29 48 L 28 49 L 28 53 L 30 54 L 32 54 L 33 53 L 32 55 L 34 57 L 38 53 L 40 48 L 41 48 L 42 46 L 43 46 L 50 41 L 50 42 L 49 42 L 50 42 M 111 36 L 118 40 L 120 40 L 122 42 L 128 42 L 130 43 M 15 37 L 20 41 L 21 40 L 25 41 L 25 43 L 23 45 L 21 44 L 20 42 L 23 45 L 24 45 L 24 48 L 28 49 L 28 52 L 30 54 L 32 54 L 32 56 L 35 57 L 38 54 L 35 57 L 35 59 L 36 60 L 39 60 L 40 59 L 44 51 L 45 51 L 50 47 L 52 47 L 53 46 L 53 47 L 52 47 L 53 47 M 34 37 L 35 37 L 33 39 L 32 39 L 33 39 L 29 43 L 30 43 L 29 44 L 28 52 L 30 54 L 32 54 L 32 55 L 34 57 L 35 57 L 35 59 L 36 60 L 38 60 L 39 61 L 40 60 L 39 61 L 41 63 L 43 63 L 45 61 L 47 57 L 50 54 L 54 53 L 53 53 M 159 37 L 160 53 L 160 52 M 49 38 L 50 38 L 50 40 L 52 42 L 53 42 L 53 45 L 55 47 L 55 52 L 56 53 L 56 57 L 54 58 L 50 62 L 50 65 L 49 66 L 53 68 L 56 65 L 58 65 L 60 67 L 60 70 L 59 71 L 61 72 L 61 73 L 67 79 L 68 81 L 69 80 L 73 80 L 75 81 L 75 83 L 76 84 L 76 90 L 80 92 L 81 94 L 79 98 L 78 98 L 79 98 M 82 38 L 81 39 L 82 39 L 80 40 L 81 40 M 155 39 L 153 41 L 152 44 L 153 45 L 154 50 L 156 52 L 156 54 L 158 56 L 158 58 M 190 39 L 186 43 L 186 44 L 182 49 L 182 51 L 180 54 L 180 60 L 183 65 L 184 65 L 187 62 L 188 62 L 189 61 L 189 59 L 190 58 L 190 56 L 191 55 L 192 51 L 194 49 L 198 49 L 199 48 L 199 42 L 199 50 L 198 49 L 197 50 L 198 60 M 0 40 L 1 60 L 3 63 L 3 66 L 8 75 L 16 82 L 16 84 L 17 85 L 19 85 L 20 86 L 27 86 L 28 88 L 34 88 L 37 91 L 39 91 L 43 89 L 50 89 L 50 90 L 52 92 L 53 91 L 58 91 L 59 92 L 61 92 L 62 94 L 65 94 L 67 93 L 71 98 L 73 97 L 72 99 L 71 99 L 69 101 L 68 104 L 65 105 L 63 109 L 61 109 L 60 110 L 60 112 L 57 115 L 60 119 L 63 119 L 64 120 L 75 120 L 79 118 L 84 118 L 97 111 L 107 101 L 107 100 L 109 98 L 114 88 L 114 86 L 116 83 L 116 81 L 118 79 L 118 76 L 119 75 L 119 72 L 120 70 L 119 69 L 117 70 L 112 75 L 112 76 L 107 82 L 106 85 L 97 95 L 96 95 L 89 101 L 81 105 L 79 105 L 77 107 L 69 111 L 65 115 M 110 43 L 113 43 L 116 46 L 118 46 L 117 46 M 13 44 L 13 47 L 14 48 L 15 53 L 17 56 L 17 58 L 25 68 L 26 68 L 30 71 L 32 71 L 34 73 L 37 73 L 41 75 L 45 75 L 46 76 L 54 77 L 60 80 L 62 80 L 65 82 L 67 81 L 68 82 L 69 81 L 68 82 L 69 84 L 69 88 L 76 88 L 76 90 L 80 92 L 81 94 L 79 98 L 78 98 L 79 98 M 36 46 L 34 48 L 33 50 L 33 53 L 32 54 L 32 55 L 34 57 L 35 57 L 35 59 L 36 60 L 40 60 L 39 61 L 40 63 L 42 63 L 43 64 L 45 62 L 43 64 L 44 65 L 48 66 L 49 67 L 51 67 L 52 68 L 54 68 L 55 70 L 58 70 L 60 71 L 63 75 L 64 75 L 67 78 L 68 78 L 67 80 L 69 81 L 68 82 L 69 84 L 69 87 L 70 88 L 76 88 L 76 90 L 80 92 L 81 94 L 79 98 L 78 98 L 79 98 M 72 46 L 69 49 L 69 52 L 68 53 L 68 58 L 67 59 L 68 61 L 68 69 L 69 70 L 73 70 L 73 74 L 70 77 L 69 77 L 70 77 M 133 48 L 132 49 L 128 50 L 126 52 L 124 52 L 119 56 L 116 57 L 107 66 L 107 67 L 102 73 L 102 75 L 100 77 L 99 81 L 97 83 L 97 85 L 95 87 L 95 89 L 94 90 L 92 91 L 85 91 L 91 85 L 91 82 L 92 81 L 93 76 L 96 72 L 99 66 L 98 64 L 93 64 L 88 70 L 87 74 L 86 75 L 86 79 L 85 80 L 85 84 L 86 85 L 86 87 L 87 88 L 89 88 L 90 87 L 88 88 L 89 88 M 0 50 L 1 50 L 1 60 L 2 61 L 2 63 L 3 63 L 3 67 L 4 67 L 5 71 L 6 71 L 6 73 L 8 74 L 8 76 L 9 76 L 10 78 L 12 78 L 12 79 L 16 82 L 16 85 L 12 85 L 9 89 L 6 90 L 0 96 L 2 93 L 3 93 L 0 96 M 40 50 L 38 52 L 38 54 L 35 57 L 35 59 L 36 60 L 40 60 L 39 61 L 41 63 L 44 63 L 43 64 L 45 66 L 49 66 L 52 68 L 54 68 L 55 70 L 58 70 L 60 71 L 63 75 L 64 75 L 67 78 L 68 78 L 67 80 L 69 81 L 68 82 L 69 84 L 69 87 L 70 88 L 76 88 L 76 90 L 80 92 L 81 94 L 79 98 L 78 98 L 79 98 M 126 51 L 127 51 L 125 52 M 110 52 L 108 53 L 109 53 M 155 52 L 156 52 L 156 54 L 158 56 L 158 58 M 148 53 L 150 54 L 150 55 L 152 57 L 156 64 L 157 72 L 156 73 L 153 72 L 153 71 L 150 68 L 149 68 L 149 67 L 146 63 L 142 63 L 141 64 L 141 72 L 147 75 L 147 77 L 149 81 L 153 82 L 154 84 L 157 84 L 161 79 L 162 69 L 161 79 L 160 81 L 157 84 L 156 84 M 106 54 L 106 56 L 104 58 L 104 59 L 100 62 L 100 64 L 99 64 L 100 64 L 98 67 L 98 69 L 96 71 L 92 79 L 91 85 L 90 87 L 88 88 L 89 88 M 131 54 L 132 54 L 128 59 L 128 61 L 126 63 L 126 64 L 125 64 L 123 66 L 123 67 L 125 69 L 129 69 L 129 77 L 128 78 L 128 85 L 127 86 L 126 93 L 123 99 L 123 101 L 119 106 L 120 106 L 116 110 L 117 110 L 115 112 L 116 112 L 114 113 M 76 56 L 75 57 L 75 60 L 74 61 L 74 64 L 73 65 L 73 79 L 75 81 L 75 83 L 76 84 L 76 90 L 80 92 L 81 94 L 79 98 L 78 98 M 146 57 L 147 57 L 147 60 L 148 61 L 147 62 L 147 65 L 155 73 L 156 73 L 155 73 M 151 57 L 152 57 L 156 64 L 156 67 L 157 68 L 157 72 L 155 73 L 156 73 M 41 58 L 39 61 L 41 63 L 44 63 L 43 64 L 44 65 L 46 66 L 49 66 L 52 68 L 54 68 L 55 70 L 58 70 L 60 71 L 63 75 L 64 75 L 67 78 L 68 78 L 67 80 L 69 81 L 68 82 L 69 84 L 69 87 L 70 88 L 76 88 L 76 90 L 80 92 L 81 94 L 79 98 L 78 98 L 79 98 M 53 58 L 52 59 L 53 59 L 50 62 L 50 65 L 49 66 L 52 68 L 54 68 L 55 70 L 58 70 L 60 71 L 63 75 L 64 75 L 67 78 L 68 78 L 67 80 L 69 81 L 68 82 L 69 84 L 69 87 L 70 88 L 76 88 L 76 90 L 80 92 L 81 94 L 79 98 L 78 98 L 79 98 M 140 58 L 141 59 L 142 58 L 141 59 L 141 63 L 147 63 L 147 65 L 155 73 L 156 73 L 155 73 M 103 59 L 104 59 L 100 61 L 97 61 L 95 63 L 96 64 L 100 64 L 98 67 L 98 69 L 96 71 L 92 79 L 91 85 L 90 87 L 88 88 L 89 88 M 163 60 L 163 64 L 163 63 M 96 61 L 101 61 L 98 67 L 98 69 L 96 71 L 92 79 L 91 85 L 90 87 L 88 88 M 110 62 L 102 72 L 103 72 L 101 75 L 102 75 L 100 77 L 98 81 L 99 81 L 97 83 L 97 85 L 94 89 L 95 89 L 93 90 M 190 62 L 192 70 L 194 72 L 196 77 L 198 79 L 199 79 L 199 84 M 187 63 L 184 66 L 184 76 L 187 79 L 188 79 L 188 80 L 192 85 L 194 89 L 194 91 L 196 93 L 197 100 L 198 101 L 199 100 L 199 112 L 198 113 L 198 115 L 196 119 L 196 124 L 192 128 L 192 135 L 191 136 L 191 139 L 193 140 L 196 137 L 196 136 L 196 137 L 191 141 L 190 149 L 192 151 L 194 149 L 194 148 L 198 143 L 199 139 L 199 142 L 196 145 L 196 147 L 194 149 L 194 150 L 193 150 M 79 65 L 78 66 L 78 74 L 81 78 L 83 77 L 83 75 L 83 77 L 85 79 L 86 79 L 85 80 L 85 84 L 86 85 L 86 87 L 87 88 L 89 88 M 123 65 L 120 68 L 120 71 L 119 72 L 118 79 L 116 81 L 116 83 L 111 93 L 111 95 L 109 97 L 107 101 L 104 104 L 104 105 L 102 106 L 103 106 M 121 66 L 120 67 L 121 67 L 120 68 L 120 71 L 119 72 L 118 79 L 116 81 L 116 83 L 111 93 L 111 95 L 109 97 L 107 101 L 104 104 L 104 105 L 102 106 L 103 106 M 170 66 L 171 66 L 169 70 L 170 70 L 169 71 L 169 73 M 165 68 L 165 72 L 165 71 M 116 70 L 114 72 L 115 72 L 111 76 L 112 76 L 109 79 L 106 85 L 102 89 L 102 90 L 101 90 M 125 70 L 125 74 L 123 78 L 123 84 L 121 88 L 121 92 L 119 95 L 119 97 L 116 103 L 114 105 L 114 106 L 107 113 L 106 113 L 101 117 L 98 118 L 96 120 L 94 120 L 92 122 L 90 122 L 88 125 L 88 124 L 89 124 L 88 125 L 89 126 L 91 126 M 0 72 L 0 75 L 4 80 L 6 80 L 7 81 L 7 83 L 8 84 L 10 85 L 18 85 L 19 86 L 18 89 L 15 92 L 14 92 L 11 95 L 10 95 L 5 100 L 5 101 L 0 107 L 0 111 L 0 110 M 140 73 L 140 81 L 142 83 L 142 88 L 143 89 L 143 91 L 144 92 L 145 96 L 149 100 L 150 103 L 151 104 L 153 104 L 154 107 L 156 109 L 160 110 L 170 120 L 173 126 L 173 128 L 175 131 L 175 142 L 174 143 L 174 145 L 175 146 L 175 148 L 177 152 L 177 157 L 176 158 L 178 160 L 180 160 L 182 158 L 182 154 L 180 152 L 180 141 L 181 140 L 181 136 L 182 135 L 182 118 L 181 117 L 181 115 L 180 114 L 179 110 L 177 108 L 177 107 L 172 102 L 170 101 L 169 98 L 169 99 L 177 106 L 178 109 L 180 111 L 180 114 L 182 118 L 182 135 L 181 136 L 181 140 L 180 141 L 180 151 L 182 154 L 182 157 L 183 158 L 186 158 L 187 160 L 187 164 L 183 164 L 181 162 L 181 160 L 182 159 L 181 160 L 181 162 L 184 164 L 187 164 M 124 74 L 125 74 L 123 78 L 123 83 L 122 84 L 123 84 L 121 87 L 122 87 L 121 88 L 121 91 L 120 92 L 121 92 L 119 94 L 120 94 L 118 97 L 119 97 L 116 101 L 117 101 L 114 105 L 114 106 L 108 112 L 107 112 L 108 112 L 107 113 L 106 113 M 146 75 L 147 75 L 148 81 L 150 81 L 151 82 L 151 86 L 152 88 L 153 89 L 160 89 L 159 89 M 0 76 L 2 77 L 2 79 L 1 79 L 0 81 L 0 79 L 3 79 L 7 81 L 7 85 L 2 87 L 0 89 L 0 90 L 0 88 L 1 88 L 0 90 M 83 78 L 86 79 L 85 80 L 85 84 L 86 85 L 86 87 L 87 88 L 89 88 L 88 88 M 197 79 L 199 79 L 199 84 M 139 81 L 139 82 L 137 83 L 136 88 L 137 89 L 143 89 L 143 91 L 144 92 L 145 96 L 147 98 L 147 99 L 149 100 L 150 103 L 151 104 L 153 104 L 154 107 L 156 109 L 155 110 L 155 112 L 157 113 L 159 116 L 158 120 L 160 122 L 164 120 L 163 120 M 187 81 L 190 82 L 191 85 L 192 85 L 192 87 L 193 87 L 193 89 L 194 89 L 194 91 L 195 93 L 196 93 L 197 100 L 199 101 L 199 111 L 198 112 L 199 112 L 198 113 L 198 115 L 196 119 L 196 124 L 195 125 L 193 126 L 191 125 L 191 116 L 190 115 L 190 110 L 188 108 L 187 108 L 185 106 L 184 103 L 180 100 L 179 100 L 176 96 L 178 99 L 179 99 L 185 104 L 185 106 L 187 108 L 189 108 L 190 107 L 190 104 L 189 103 L 189 98 L 187 95 L 187 93 L 182 86 L 185 89 L 187 93 L 187 95 L 189 98 L 189 103 L 190 104 L 190 107 L 189 109 L 190 110 L 190 115 L 191 116 L 191 125 L 192 126 L 194 126 L 192 128 L 192 135 L 191 136 L 191 140 L 193 140 L 192 140 M 137 82 L 139 82 L 138 82 M 169 82 L 170 82 L 169 84 L 168 84 L 169 84 M 184 82 L 186 82 L 185 82 M 183 83 L 182 84 L 182 86 L 185 89 L 187 93 L 187 95 L 189 98 L 189 103 L 190 104 L 190 107 L 189 109 L 190 110 L 190 115 L 191 116 L 191 125 L 192 126 L 194 126 L 192 128 L 192 135 L 191 136 L 191 139 L 193 140 L 192 140 M 5 85 L 7 85 L 6 85 M 9 85 L 9 86 L 11 87 L 9 89 L 8 89 L 9 89 M 166 85 L 165 86 L 166 86 L 164 87 L 165 87 M 27 89 L 28 89 L 27 91 L 26 92 L 24 92 L 15 101 L 12 107 L 10 109 L 10 112 L 8 114 L 8 118 L 7 119 L 7 128 L 9 131 L 11 131 L 14 127 L 17 127 L 18 126 L 18 124 L 17 123 L 17 118 L 20 115 L 20 109 L 24 102 L 29 97 L 29 96 L 31 95 L 35 91 L 37 92 L 37 95 L 34 99 L 30 107 L 30 114 L 33 120 L 36 120 L 37 119 L 37 116 L 35 113 L 35 111 L 36 110 L 36 106 L 39 104 L 39 101 L 42 95 L 42 93 L 40 91 L 42 93 L 41 98 L 39 101 L 40 112 L 43 117 L 49 117 L 50 116 L 50 115 L 48 113 L 47 113 L 47 109 L 48 108 L 48 102 L 51 96 L 50 95 L 48 95 L 47 96 L 49 94 L 49 93 L 51 92 L 50 100 L 48 102 L 48 109 L 50 110 L 51 114 L 52 115 L 56 115 L 58 114 L 57 115 L 59 117 L 59 120 L 57 124 L 58 125 L 62 126 L 63 127 L 65 126 L 70 126 L 71 127 L 74 127 L 75 126 L 80 126 L 81 125 L 91 126 M 136 89 L 135 91 L 135 95 L 136 96 L 139 96 L 139 99 L 142 103 L 142 105 L 145 108 L 145 109 L 147 111 L 148 111 L 148 112 L 150 114 L 152 114 L 153 115 L 154 113 L 157 113 L 159 116 L 159 117 L 157 119 L 154 119 L 146 127 L 144 132 L 142 134 L 141 140 L 144 145 L 146 145 L 147 146 L 148 145 L 149 143 L 149 136 L 153 128 L 159 122 L 159 123 L 157 125 L 156 125 M 26 91 L 27 91 L 25 92 M 35 92 L 33 93 L 34 93 M 75 92 L 72 98 L 73 99 L 76 99 M 98 93 L 97 94 L 98 94 L 96 95 L 97 95 M 11 94 L 12 94 L 10 95 M 66 94 L 67 95 L 69 95 L 69 96 L 71 98 L 73 99 L 76 99 M 154 94 L 156 94 L 156 95 L 159 97 L 169 98 L 169 99 L 177 106 L 178 109 L 180 111 L 180 114 L 182 118 L 182 135 L 181 136 L 181 140 L 180 141 L 180 151 L 182 154 L 182 157 L 183 158 L 186 158 L 186 160 L 187 160 L 187 164 L 186 164 L 187 164 M 32 95 L 31 95 L 23 104 L 20 110 L 20 115 L 19 116 L 21 118 L 21 120 L 23 122 L 26 122 L 27 121 L 26 119 L 26 116 L 26 119 L 28 121 L 36 120 L 35 120 M 61 95 L 63 95 L 64 96 L 64 99 L 65 100 L 70 100 L 68 104 L 67 104 M 61 96 L 59 98 L 59 100 L 58 101 L 58 107 L 60 109 L 59 109 L 62 109 L 64 108 L 62 109 M 135 96 L 134 97 L 133 104 L 135 105 L 138 102 L 141 102 L 142 103 L 143 107 L 138 109 L 135 112 L 135 113 L 132 114 L 128 118 L 129 120 L 129 123 L 130 124 L 134 122 L 139 115 L 146 111 L 144 112 M 35 97 L 30 107 L 30 114 L 32 117 L 32 119 L 33 120 L 36 120 L 35 120 M 92 98 L 93 98 L 91 99 M 58 100 L 59 100 L 58 101 L 58 107 L 60 109 L 63 109 M 64 100 L 64 104 L 66 105 L 65 105 M 14 102 L 15 102 L 12 105 L 13 105 L 10 109 L 10 111 L 9 112 L 10 112 L 8 114 L 8 118 L 7 119 L 7 128 L 8 129 L 8 133 L 6 136 L 4 136 L 0 139 L 0 146 M 133 105 L 133 106 L 130 109 L 130 112 L 129 113 L 130 115 L 131 114 L 133 114 M 0 106 L 1 106 L 0 107 L 0 111 L 0 110 M 77 106 L 78 106 L 76 107 M 132 106 L 133 106 L 130 109 L 130 112 L 129 113 L 129 114 L 131 115 L 128 118 L 128 119 L 123 123 L 121 127 L 121 130 L 123 132 L 123 135 L 124 136 L 124 138 L 125 139 L 126 143 L 128 144 L 128 145 L 132 150 L 133 150 L 137 154 L 138 154 L 143 158 L 145 158 L 147 160 L 149 160 L 152 162 L 158 163 L 161 165 L 164 165 L 166 167 L 171 168 L 173 170 L 178 172 L 179 174 L 178 173 M 141 107 L 144 107 L 145 109 L 147 111 L 148 111 L 149 114 L 146 117 L 143 118 L 142 120 L 140 121 L 136 129 L 134 130 L 134 135 L 136 137 L 141 139 L 142 143 L 143 143 L 144 145 L 148 146 L 148 147 L 150 149 L 153 150 L 154 149 L 154 144 L 156 141 L 156 138 L 160 130 L 164 127 L 161 124 L 161 122 L 161 124 L 163 126 L 168 125 L 167 125 M 72 109 L 73 109 L 71 110 M 67 112 L 68 112 L 65 115 L 66 114 M 40 114 L 38 116 L 38 115 L 39 115 L 37 117 L 38 118 L 41 118 L 42 117 L 42 118 L 41 118 M 93 114 L 88 116 M 112 114 L 110 116 L 111 116 L 109 117 M 51 115 L 57 115 L 60 119 L 63 119 L 64 120 L 75 120 M 154 115 L 154 118 L 155 119 L 158 119 L 158 120 L 160 122 L 161 122 L 161 124 L 163 126 L 165 126 L 164 128 L 167 132 L 167 135 L 168 136 L 169 140 L 170 141 L 175 142 L 173 146 L 172 146 L 170 148 L 170 151 L 171 152 L 174 152 L 176 151 L 177 152 L 177 156 L 176 157 L 168 157 L 166 154 L 163 154 L 162 153 L 157 153 L 154 150 L 157 153 L 161 153 L 162 152 L 161 151 L 161 143 L 162 142 L 163 138 L 165 136 L 166 136 M 19 117 L 21 118 L 21 120 L 22 121 L 22 124 L 21 125 L 19 125 L 22 124 L 20 125 L 21 125 M 166 117 L 169 120 L 170 120 L 170 122 L 171 122 L 171 124 L 172 124 L 173 126 L 173 129 L 174 129 L 174 131 L 175 131 L 175 142 L 174 143 L 174 145 L 175 146 L 175 148 L 177 152 L 177 157 L 176 158 L 178 160 L 181 160 L 181 162 L 182 163 L 184 164 L 187 164 M 107 118 L 108 118 L 107 119 L 105 119 L 107 119 L 106 119 M 96 119 L 97 119 L 95 120 M 58 120 L 59 120 L 57 123 L 58 123 L 57 124 L 57 130 L 60 132 L 62 136 L 65 134 L 65 130 L 64 128 L 66 132 L 68 132 L 71 128 L 70 130 L 68 132 L 67 132 M 103 120 L 105 120 L 104 120 M 152 120 L 145 128 L 146 128 L 144 130 L 145 130 L 142 134 L 141 140 L 143 144 L 144 145 L 148 146 L 148 147 L 151 150 L 154 150 L 157 153 L 162 153 L 165 148 L 165 146 L 167 142 L 169 141 L 166 144 L 163 153 L 164 154 L 166 154 L 169 152 L 171 152 L 172 153 L 172 156 L 173 157 L 177 157 L 176 158 L 178 160 L 181 160 L 181 162 L 182 163 L 184 164 L 187 164 M 92 121 L 93 121 L 91 122 M 133 123 L 132 123 L 130 125 L 131 126 L 131 128 L 133 130 L 134 130 L 134 135 L 135 137 L 137 137 L 141 139 L 144 145 L 148 146 L 148 147 L 150 149 L 154 150 L 157 153 L 163 153 L 164 154 L 167 154 L 167 156 L 168 157 L 177 157 L 176 158 L 178 160 L 181 160 L 181 162 L 182 163 L 184 164 L 187 164 L 186 164 M 47 124 L 51 124 L 52 125 L 59 125 L 60 126 L 62 126 L 64 127 L 65 131 L 66 132 L 68 132 L 67 132 M 43 125 L 46 125 M 40 126 L 42 126 L 40 127 L 37 127 L 34 130 L 32 130 L 31 132 L 30 132 L 24 137 L 23 137 L 22 139 L 17 144 L 14 150 L 12 152 L 12 155 L 10 157 L 10 160 L 8 164 L 7 172 L 5 175 L 5 179 L 3 183 L 2 188 L 0 191 L 0 198 L 1 199 L 4 199 L 5 198 L 5 197 L 7 195 L 7 192 L 10 188 L 9 186 L 9 181 L 11 179 L 11 175 L 14 171 L 14 168 L 16 165 L 16 162 L 19 158 L 19 156 L 22 151 L 22 149 L 24 148 L 26 146 L 26 144 L 28 144 L 31 140 L 33 140 L 35 138 L 38 137 L 39 135 L 41 135 L 43 133 L 45 133 L 48 130 L 50 130 L 51 129 L 51 126 L 52 126 L 51 127 L 51 131 L 56 136 L 58 137 L 61 137 L 60 138 L 60 141 L 58 142 L 55 146 L 54 151 L 51 155 L 50 159 L 49 159 L 47 161 L 47 163 L 35 175 L 34 175 L 31 178 L 31 180 L 32 181 L 35 181 L 39 179 L 42 179 L 44 177 L 46 177 L 48 175 L 49 175 L 57 166 L 59 162 L 59 160 L 60 159 L 62 151 L 67 148 L 70 148 L 72 146 L 72 144 L 75 141 L 75 140 L 79 140 L 81 136 L 84 136 L 85 135 L 91 135 L 92 136 L 93 135 L 99 135 L 100 134 L 109 134 L 110 133 L 115 133 L 117 130 L 121 130 L 123 132 L 123 135 L 124 136 L 126 144 L 128 144 L 128 146 L 130 147 L 130 149 L 131 149 L 133 151 L 132 153 L 133 155 L 134 155 L 135 153 L 136 153 L 146 160 L 148 160 L 154 163 L 158 163 L 161 165 L 163 165 L 166 167 L 168 167 L 174 170 L 176 172 L 178 172 L 179 174 M 32 127 L 34 127 L 35 128 L 34 129 L 35 129 L 33 130 M 30 128 L 31 128 L 30 129 L 31 130 L 34 130 L 33 130 M 0 129 L 0 132 L 2 135 L 2 137 L 3 137 L 2 138 L 0 138 L 0 137 L 2 138 M 27 129 L 34 130 M 131 129 L 134 130 L 134 135 L 136 137 L 141 139 L 143 144 L 144 145 L 148 146 L 148 147 L 150 149 L 154 150 L 157 153 L 163 153 L 164 154 L 167 154 L 167 156 L 168 157 L 177 157 L 176 158 L 178 160 L 181 160 L 181 162 L 182 163 L 184 164 L 187 164 M 163 129 L 162 129 L 159 132 L 156 138 L 156 141 L 154 144 L 154 150 L 157 153 L 163 153 L 164 154 L 167 154 L 167 156 L 168 157 L 177 157 L 176 158 L 178 160 L 181 160 L 181 162 L 182 163 L 184 164 L 187 164 M 13 130 L 11 131 L 12 131 M 24 130 L 26 130 L 25 130 M 23 131 L 19 133 L 12 139 L 12 140 L 8 145 L 5 151 L 5 154 L 3 157 L 3 162 L 2 163 L 2 165 L 1 166 L 1 170 L 0 171 L 0 179 M 117 131 L 116 132 L 118 135 L 118 141 L 119 142 L 119 146 L 121 149 L 121 152 L 124 156 L 126 156 L 126 157 L 128 159 L 131 160 L 138 165 L 140 165 L 141 167 L 144 169 L 148 169 L 149 170 L 151 170 L 155 172 L 163 173 L 164 174 L 170 174 L 175 178 L 173 177 L 175 178 L 174 177 M 47 132 L 47 134 L 54 141 L 56 141 L 57 142 L 60 141 L 58 142 M 59 132 L 60 132 L 62 136 L 60 138 L 60 141 L 58 142 L 59 142 M 0 133 L 1 133 L 3 137 L 1 138 M 7 133 L 8 133 L 6 135 L 7 135 L 5 136 L 6 136 M 116 133 L 115 134 L 116 135 L 118 135 L 118 141 L 119 142 L 119 146 L 120 147 L 120 149 L 121 149 L 121 152 L 122 154 L 124 156 L 126 156 L 127 159 L 130 160 L 137 165 L 140 165 L 141 166 L 141 168 L 134 168 L 132 167 L 134 167 L 135 168 L 143 168 L 144 169 L 148 169 L 151 171 L 158 172 L 162 175 L 163 174 L 165 178 L 169 181 M 43 134 L 43 137 L 45 138 L 45 139 L 49 143 L 56 145 L 54 149 L 46 148 L 42 145 L 42 144 L 40 142 L 39 138 L 40 142 L 46 148 L 54 149 L 54 151 L 52 154 L 44 154 L 43 153 L 41 153 L 37 149 L 36 145 L 35 144 L 35 142 L 34 141 L 34 140 L 36 144 L 36 147 L 41 153 L 43 153 L 44 154 L 52 154 L 51 155 L 50 159 L 49 159 M 111 134 L 111 137 L 110 138 L 110 141 L 109 142 L 109 151 L 108 153 L 110 155 L 113 163 L 122 172 L 124 172 L 126 174 L 128 174 L 131 176 L 135 176 L 136 177 L 143 177 L 144 178 L 149 179 L 153 183 L 158 183 L 159 184 M 151 134 L 149 136 L 149 143 L 148 144 L 148 147 L 150 149 L 154 150 L 157 153 L 163 153 L 164 154 L 167 154 L 167 156 L 168 157 L 177 157 L 176 158 L 178 160 L 181 160 L 181 162 L 182 163 L 184 164 L 187 164 L 186 164 M 100 135 L 99 136 L 100 137 L 103 137 L 104 135 L 104 136 L 102 137 L 103 137 M 115 135 L 118 135 L 118 141 L 119 142 L 119 146 L 121 149 L 121 152 L 124 156 L 126 156 L 126 157 L 128 159 L 131 160 L 138 165 L 140 165 L 141 167 L 144 169 L 148 169 L 149 170 L 151 170 L 155 172 L 163 173 L 164 174 L 163 175 L 164 175 L 165 178 L 169 181 M 24 136 L 25 136 L 23 137 M 48 136 L 53 141 L 59 142 M 86 136 L 86 138 L 87 139 L 90 139 L 92 137 L 93 139 L 96 139 L 98 137 L 99 137 L 97 139 L 96 139 M 81 137 L 80 138 L 81 140 L 83 139 L 91 139 M 21 139 L 20 140 L 21 140 L 16 145 L 17 145 L 12 152 L 12 155 L 10 157 L 10 160 L 9 161 L 8 167 L 7 168 L 7 172 L 5 175 L 5 179 L 3 183 L 2 188 L 0 191 L 0 199 L 12 199 L 14 197 L 14 195 L 20 189 L 22 189 L 26 186 L 30 186 L 34 184 L 42 184 L 43 185 L 46 185 L 47 184 L 55 184 L 58 182 L 60 182 L 66 176 L 66 174 L 67 173 L 67 169 L 68 168 L 68 156 L 71 153 L 71 148 L 71 153 L 74 155 L 76 155 L 78 153 L 86 153 L 87 154 L 97 154 L 98 153 L 100 153 L 104 151 L 106 153 L 107 153 L 105 155 L 105 159 L 104 161 L 106 162 L 114 171 L 115 171 L 118 174 L 119 174 M 45 140 L 50 144 L 54 144 L 56 145 L 55 146 L 54 151 L 51 155 L 50 159 L 49 159 L 50 159 M 80 140 L 83 144 L 85 144 L 86 145 L 90 145 L 91 147 L 99 146 L 103 144 L 105 142 L 110 141 L 109 142 L 109 151 L 108 153 L 110 155 L 110 157 L 111 157 L 112 162 L 113 162 L 114 165 L 119 170 L 131 176 L 134 176 L 135 177 L 143 177 L 144 178 L 149 179 L 151 181 L 151 183 L 137 184 L 134 186 L 127 186 L 123 184 L 119 184 L 113 181 L 107 175 L 104 169 L 104 167 L 102 165 L 99 168 L 100 170 L 100 180 L 99 181 L 103 183 L 105 187 L 110 188 L 115 193 L 117 193 L 118 194 L 123 194 L 125 196 L 135 196 L 138 194 L 142 194 L 143 193 L 147 193 L 148 192 L 154 192 L 155 191 L 156 192 L 159 192 L 161 193 L 162 194 L 162 196 L 165 199 L 180 199 L 179 199 M 163 140 L 161 143 L 161 151 L 163 152 L 164 154 L 167 154 L 167 156 L 168 157 L 177 157 L 176 158 L 178 160 L 181 160 L 181 162 L 182 163 L 184 164 L 187 164 L 186 164 M 74 143 L 77 146 L 80 146 L 84 148 L 94 147 L 93 147 M 105 143 L 103 144 L 104 144 M 30 144 L 31 146 L 31 150 L 36 157 L 37 157 L 39 159 L 45 159 L 46 160 L 48 160 L 47 161 L 47 163 L 43 167 L 42 167 L 40 165 L 36 165 L 32 162 L 36 165 L 40 165 L 42 167 L 43 167 L 40 170 L 39 170 L 40 170 L 38 172 L 37 172 L 33 169 L 30 169 L 27 167 L 23 166 L 21 161 L 19 159 L 25 167 L 27 167 L 30 169 L 33 169 L 37 172 L 38 172 L 36 174 L 35 174 L 36 174 L 35 175 L 34 175 L 35 175 M 73 144 L 71 147 L 71 154 L 68 157 L 68 168 L 67 169 L 67 174 L 64 178 L 64 179 L 62 181 L 61 181 L 62 181 M 85 145 L 90 145 L 91 147 L 94 147 L 93 147 M 26 148 L 28 152 L 28 156 L 28 155 M 23 149 L 21 152 L 21 154 L 24 156 L 26 161 M 65 150 L 64 150 L 62 152 L 62 154 L 59 160 L 59 162 L 57 165 L 57 167 L 50 175 L 46 177 L 47 177 M 27 152 L 28 152 L 28 156 M 192 152 L 192 157 M 4 154 L 5 154 L 3 156 L 4 156 L 3 157 L 3 161 L 2 162 L 3 162 L 2 163 L 1 169 L 0 170 L 1 170 L 0 171 L 0 179 M 33 154 L 35 155 L 35 156 L 39 159 L 45 159 L 46 160 L 48 160 L 47 161 L 47 163 L 35 175 L 34 175 L 35 175 M 78 154 L 76 156 L 77 157 L 82 157 L 83 158 L 85 158 L 89 160 L 96 160 L 97 161 L 101 161 L 102 162 L 104 161 L 106 162 L 108 165 L 109 165 L 109 167 L 110 168 L 111 168 L 115 172 L 119 174 L 118 174 M 76 157 L 76 160 L 77 161 L 84 161 L 85 159 L 88 159 L 89 160 L 96 160 L 97 161 L 96 163 L 94 163 L 93 164 L 88 164 L 87 163 L 84 163 L 84 162 L 85 161 L 84 162 L 85 163 L 87 163 L 88 164 L 93 164 L 92 164 M 24 158 L 25 158 L 26 161 L 26 160 M 76 161 L 77 165 L 78 166 L 81 166 L 84 169 L 87 170 L 89 172 L 94 172 L 98 169 L 98 170 L 95 171 M 102 163 L 102 164 L 100 166 L 101 166 L 99 168 L 100 170 L 100 179 L 97 182 L 97 185 L 96 186 L 97 187 L 97 191 L 95 195 L 95 198 L 96 199 L 102 199 L 103 198 L 102 197 L 102 190 L 104 187 L 104 188 L 102 190 L 102 197 L 104 199 L 106 199 L 107 198 L 106 188 L 106 193 L 107 194 L 107 198 L 108 199 L 112 199 L 113 198 L 113 192 L 112 191 L 118 194 L 118 198 L 119 199 L 123 199 L 124 198 L 124 196 L 123 195 L 127 196 L 128 198 L 130 199 L 127 199 L 130 199 L 129 199 M 16 166 L 18 167 L 23 172 L 27 174 L 31 174 L 32 176 L 33 176 L 30 180 L 25 180 L 20 183 L 17 183 L 13 187 L 11 187 L 10 186 L 11 185 L 13 185 L 13 186 L 14 186 L 13 187 L 11 186 L 13 187 L 12 187 M 77 166 L 77 167 L 81 172 L 82 175 L 84 177 L 87 178 L 89 180 L 95 180 L 96 181 L 99 181 L 103 183 L 105 187 L 107 187 L 111 189 L 115 193 L 117 193 L 118 194 L 123 194 L 125 196 L 136 196 L 136 198 L 137 199 L 180 199 M 75 167 L 76 167 L 74 169 L 74 172 L 75 173 L 74 174 L 74 180 L 71 186 L 66 191 L 64 191 L 61 193 L 58 193 L 57 194 L 50 194 L 49 193 L 45 193 L 44 192 L 41 192 L 40 191 L 35 190 L 34 191 L 31 191 L 27 193 L 26 194 L 26 198 L 27 199 L 72 199 L 74 197 L 74 196 L 76 195 L 81 189 L 81 187 L 83 184 L 83 177 L 85 177 L 88 179 L 88 189 L 84 197 L 85 199 L 124 199 L 123 199 M 78 169 L 79 169 L 80 172 L 81 172 L 82 175 L 84 177 L 87 178 L 89 180 L 95 180 L 96 181 L 99 181 L 103 183 L 105 187 L 110 188 L 115 193 L 117 193 L 118 194 L 123 194 L 125 196 L 136 196 L 136 199 L 135 199 L 180 199 M 20 170 L 27 174 L 31 174 L 33 176 L 31 178 L 31 180 L 32 181 L 36 181 L 35 181 M 85 170 L 89 172 L 94 172 M 14 172 L 24 180 L 31 180 L 32 181 L 36 181 L 35 181 M 13 173 L 11 175 L 11 179 L 12 180 L 14 180 L 16 183 L 20 183 L 19 183 M 107 173 L 107 174 L 114 181 L 117 182 L 119 184 L 123 184 L 127 186 L 133 186 L 134 185 L 136 185 L 135 185 M 161 175 L 164 175 L 165 178 L 169 181 L 168 180 M 170 175 L 173 176 L 175 178 M 11 180 L 14 180 L 16 183 L 20 183 L 19 183 M 73 180 L 74 180 L 72 184 L 66 190 L 67 190 L 65 191 L 66 191 M 137 181 L 139 181 L 138 181 M 58 183 L 55 184 M 95 183 L 96 183 L 95 184 L 96 185 L 95 185 L 97 185 L 96 186 L 97 187 L 97 191 L 95 195 L 95 198 L 96 199 L 124 199 L 123 199 M 9 190 L 5 198 L 6 199 L 18 199 L 20 195 L 21 195 L 23 193 L 27 193 L 28 192 L 30 192 M 20 190 L 14 196 L 13 198 L 14 199 L 24 199 L 25 198 L 22 195 L 25 198 L 25 199 L 124 199 L 123 199 M 63 191 L 66 191 M 80 191 L 76 195 L 75 195 M 45 192 L 46 193 L 49 193 L 50 194 L 57 194 L 56 194" 
        fill="none" 
        stroke="black" 
        stroke-width="0.5" 
        stroke-linecap="round" 
        stroke-linejoin="round"
        vector-effect="non-scaling-stroke"/>
</svg>