<svg xmlns="http://www.w3.org/2000/svg" viewBox="0 0 200 200" width="200" height="200">
  <rect width="100%" height="100%" fill="white"/>
  <path d="M 1 0 L 168 0 M 191 0 L 199 0 L 199 3 M 0 1 L 0 3 M 46 1 L 109 1 M 155 7 L 169 9 L 175 16 L 175 26 L 170 32 L 160 34 L 154 29 L 154 17 L 143 25 L 137 40 L 135 78 L 127 92 L 108 110 L 139 109 L 166 100 L 176 90 L 179 79 L 170 83 L 163 81 L 158 75 L 158 68 L 166 59 L 175 57 L 182 61 L 187 69 L 185 87 L 173 103 L 152 113 L 150 118 L 166 132 L 174 135 L 180 130 L 172 128 L 170 120 L 174 115 L 184 113 L 191 120 L 191 131 L 187 137 L 177 141 L 161 140 L 127 128 L 97 133 L 85 140 L 72 154 L 66 171 L 67 185 L 72 187 L 74 164 L 88 147 L 101 140 L 119 137 L 133 138 L 155 145 L 164 163 L 173 173 L 181 162 L 190 162 L 194 168 L 192 178 L 187 182 L 175 182 L 165 175 L 149 145 L 161 169 L 171 180 L 187 182 M 152 8 L 155 8 M 166 8 L 175 16 L 175 26 L 169 32 M 147 11 L 138 19 L 131 34 L 130 68 L 122 88 L 105 102 L 71 119 L 53 138 L 47 153 L 46 172 L 55 190 L 60 188 L 54 176 L 55 157 L 66 136 L 87 118 L 103 111 L 113 111 M 94 12 L 101 12 L 112 21 L 117 34 L 116 56 L 100 87 L 64 118 L 46 138 L 40 156 L 40 171 L 44 183 L 54 196 L 61 193 L 60 189 L 62 194 L 69 196 L 74 193 L 72 188 L 77 186 L 79 167 L 90 154 L 102 147 L 119 147 L 127 151 L 135 161 L 135 173 L 132 178 L 123 183 L 113 182 L 107 176 L 106 170 L 111 163 L 119 160 L 118 157 L 111 154 L 100 156 L 83 174 L 82 189 L 85 196 L 198 199 L 199 195 L 198 199 M 91 14 L 86 19 L 84 28 L 90 35 L 96 36 L 102 32 L 103 27 L 99 26 L 97 30 M 158 16 L 163 17 L 166 23 L 163 22 L 160 26 M 151 17 L 156 17 M 161 17 L 165 22 M 148 19 L 138 34 L 135 78 L 116 103 M 111 21 L 117 34 L 114 62 L 100 87 L 80 105 M 99 22 L 110 39 L 111 52 L 107 67 L 94 86 L 55 114 L 42 132 L 34 153 L 34 174 L 44 192 L 44 198 L 61 194 L 72 195 M 162 22 L 165 22 M 99 23 L 102 23 L 107 31 L 111 52 L 103 75 L 93 86 M 160 23 L 161 23 M 95 24 L 103 26 L 107 31 L 111 52 L 103 75 L 93 86 M 92 26 L 93 25 M 155 29 L 165 34 M 132 31 L 128 77 L 118 93 M 87 33 L 96 36 M 47 34 L 65 37 L 74 46 L 79 57 L 78 78 L 64 106 M 40 38 L 29 53 L 29 62 L 36 72 L 49 74 L 55 69 L 56 62 L 51 56 L 47 55 L 42 60 L 41 57 L 45 49 L 51 45 L 63 47 L 72 61 L 72 72 L 67 86 L 50 109 L 31 128 L 23 151 L 23 168 L 27 179 L 40 199 L 49 199 M 38 39 L 37 40 M 34 43 L 29 53 L 32 68 L 39 74 L 50 74 M 59 46 L 71 57 L 70 79 L 58 99 L 34 126 M 44 52 L 55 59 L 56 67 L 52 72 M 48 64 L 47 65 M 184 65 L 187 69 L 187 82 L 173 103 M 169 67 L 174 67 L 177 73 L 173 81 M 174 68 L 176 73 L 168 77 M 171 73 L 177 73 L 179 79 L 178 86 L 171 96 M 11 87 L 16 87 M 9 88 L 10 88 M 18 88 L 29 97 L 32 127 M 90 88 L 89 90 M 7 89 L 1 99 L 3 110 L 11 115 L 17 111 L 17 106 L 10 102 L 15 96 L 23 102 L 25 108 L 25 121 L 15 163 L 22 182 L 29 190 L 35 192 L 39 199 L 0 199 L 0 196 L 1 199 L 21 198 L 10 181 L 10 160 L 0 160 L 6 161 M 20 89 L 29 97 L 33 127 M 6 90 L 1 104 L 3 110 L 11 115 M 86 91 L 85 93 M 71 92 L 64 106 M 113 96 L 112 97 M 18 99 L 15 114 M 13 100 L 18 100 L 19 103 L 15 114 M 105 101 L 104 102 M 22 102 L 25 108 L 25 121 L 16 157 L 8 159 L 6 154 L 3 155 L 7 154 L 10 158 L 10 180 L 22 199 L 27 199 L 28 196 L 16 181 L 14 164 L 17 164 L 24 185 L 40 199 L 48 199 M 101 103 L 102 103 M 99 104 L 100 104 M 78 106 L 71 112 M 95 106 L 96 106 M 109 107 L 108 110 L 113 111 M 164 108 L 163 109 M 69 113 L 64 118 M 184 114 L 190 118 L 192 124 L 187 137 M 54 115 L 42 132 L 34 152 L 36 181 L 44 192 L 44 198 L 48 199 M 150 115 L 103 119 L 86 126 L 70 141 L 62 156 L 59 171 L 60 191 L 70 196 M 75 116 L 56 133 L 47 153 L 47 176 L 52 187 L 57 190 M 62 119 L 47 136 L 40 156 L 40 171 L 44 184 L 54 196 L 59 196 M 152 120 L 164 131 L 173 134 M 178 120 L 184 123 L 179 133 M 84 121 L 81 123 M 177 121 L 177 129 M 78 125 L 77 126 M 84 127 L 83 128 M 116 128 L 137 130 L 167 141 L 185 138 L 183 139 M 30 129 L 23 151 L 24 172 L 38 197 L 49 199 M 106 130 L 109 130 M 79 131 L 66 147 L 60 163 L 60 191 L 69 196 M 137 140 L 157 147 L 163 162 L 172 173 L 181 174 L 185 167 L 187 172 L 181 174 M 96 143 L 95 144 M 3 147 L 7 147 L 16 158 L 15 163 L 25 186 L 35 192 L 40 199 L 48 199 M 0 148 L 0 150 M 88 148 L 87 149 M 90 155 L 79 168 L 77 186 L 74 190 L 75 193 L 83 190 L 84 196 L 77 195 L 77 192 L 77 195 L 87 197 L 198 199 M 115 155 L 123 163 L 123 171 L 115 172 L 116 168 L 123 168 L 121 173 M 99 156 L 102 156 M 56 157 L 55 180 L 59 182 L 61 193 L 70 196 M 96 158 L 95 159 M 77 160 L 72 170 L 74 194 M 93 160 L 82 177 L 82 189 L 87 197 L 198 199 M 119 161 L 123 163 L 123 171 L 120 173 M 113 163 L 106 170 L 107 176 L 113 182 L 122 183 M 190 163 L 194 168 L 194 175 L 189 180 M 116 169 L 116 173 L 121 173 M 177 174 L 182 174 M 16 178 L 29 199 L 49 199" 
        fill="none" 
        stroke="black" 
        stroke-width="1.5" 
        stroke-linecap="round" 
        stroke-linejoin="round"
        vector-effect="non-scaling-stroke"/>
</svg>