<svg xmlns="http://www.w3.org/2000/svg" viewBox="0 0 200 200" width="200" height="200">
  <rect width="100%" height="100%" fill="white"/>
  <path d="M 178 0 L 192 0 L 192 4 L 199 3 L 199 8 M 178 1 L 75 5 L 78 11 L 173 9 M 0 2 L 73 5 L 151 3 M 0 3 L 1 8 L 13 7 M 191 4 L 171 15 L 119 34 L 61 60 L 74 61 L 161 26 L 159 27 M 66 5 L 61 22 M 72 5 L 58 60 L 71 62 L 71 65 L 100 92 L 102 84 L 75 61 L 81 62 L 125 46 L 134 38 L 132 41 M 190 5 L 189 7 M 195 5 L 194 10 L 155 49 L 162 50 L 197 18 L 199 10 L 199 15 M 0 8 L 0 9 M 4 8 L 9 16 L 52 55 L 54 47 L 17 13 L 8 10 L 54 16 L 59 10 L 44 10 L 63 11 L 61 23 M 18 8 L 21 8 M 35 9 L 38 9 M 193 10 L 176 27 M 4 11 L 57 59 L 43 70 L 42 84 M 158 11 L 78 45 L 69 46 L 65 51 M 77 12 L 73 25 M 80 12 L 83 17 L 143 17 M 157 12 L 156 13 M 76 14 L 73 25 M 25 15 L 36 24 L 39 21 L 35 19 L 49 22 L 54 17 L 54 22 M 179 16 L 105 85 M 82 17 L 81 20 M 28 18 L 50 37 L 53 30 L 51 40 L 54 44 L 60 25 L 55 43 M 124 18 L 95 31 L 83 33 L 71 44 L 75 46 M 0 19 L 40 140 L 45 146 L 50 121 L 46 148 L 64 134 L 95 102 L 87 101 L 55 133 L 52 140 M 84 19 L 109 21 M 197 19 L 196 64 L 163 50 L 172 48 L 189 33 L 192 22 L 189 38 L 191 40 L 183 43 L 179 50 L 189 55 L 190 46 L 190 56 L 196 64 M 84 20 L 86 23 L 83 30 L 86 32 L 89 27 L 101 23 L 107 26 M 25 21 L 50 45 L 54 45 L 54 61 M 41 21 L 45 26 L 48 23 L 49 30 M 46 21 L 49 22 L 49 30 M 39 22 L 39 28 L 51 37 L 54 57 L 98 100 L 102 97 L 100 93 L 104 96 L 154 50 L 167 51 L 195 63 M 67 22 L 56 67 L 52 105 M 169 22 L 147 45 M 79 24 L 79 27 M 101 24 L 108 26 M 0 25 L 40 140 L 46 146 L 41 156 L 0 195 L 1 199 L 9 199 L 16 193 L 37 169 L 97 112 L 98 107 L 98 112 L 142 149 M 84 25 L 83 31 L 86 33 M 99 25 L 103 27 M 122 26 L 123 26 M 72 27 L 72 30 M 89 28 L 90 32 M 135 28 L 136 28 M 9 30 L 15 39 L 49 66 M 77 30 L 77 31 M 130 30 L 129 31 M 152 31 L 103 79 L 100 102 L 108 102 L 150 61 L 153 79 M 10 33 L 15 46 L 41 69 L 45 68 L 42 85 M 17 33 L 52 62 L 50 66 M 105 33 L 106 33 M 70 34 L 70 37 M 149 34 L 148 36 M 100 35 L 101 35 M 187 35 L 190 39 M 80 36 L 79 37 M 97 36 L 100 36 M 166 36 L 159 43 M 185 36 L 178 43 M 175 37 L 166 46 M 23 38 L 52 62 L 50 66 M 76 38 L 71 45 L 74 46 M 92 38 L 95 38 M 0 40 L 3 60 L 9 69 M 105 40 L 106 40 M 17 41 L 49 66 M 68 41 L 68 46 L 74 46 M 0 42 L 4 61 L 3 119 L 11 111 L 12 94 L 9 88 L 6 92 M 83 42 L 84 42 M 140 42 L 133 50 M 13 43 L 20 62 M 157 45 L 156 50 L 167 51 L 196 64 M 126 46 L 105 70 L 96 62 L 92 64 L 103 77 L 110 73 L 106 77 M 88 47 L 89 47 M 67 48 L 64 52 M 173 48 L 190 55 L 195 63 M 83 49 L 84 49 M 20 51 L 23 53 L 24 61 L 32 68 L 35 78 L 41 70 L 35 88 L 38 98 L 40 95 L 39 118 L 42 124 L 44 116 L 43 133 M 140 51 L 127 64 M 152 53 L 199 73 M 17 55 L 20 62 M 113 55 L 117 56 L 107 68 M 152 55 L 173 112 M 110 56 L 103 61 L 102 66 L 105 69 M 109 57 L 108 58 M 124 57 L 112 71 M 145 57 L 138 64 M 158 57 L 164 66 L 199 79 M 62 58 L 62 61 L 71 62 L 71 65 L 100 92 L 100 102 L 105 108 L 199 193 L 199 199 L 190 199 L 193 199 L 193 196 L 184 194 L 187 192 L 181 188 L 151 187 L 145 191 L 180 194 M 163 58 L 199 73 M 104 59 L 97 63 L 105 70 M 23 60 L 28 72 L 37 78 L 34 85 L 30 75 L 32 83 L 36 85 L 37 97 L 40 98 L 39 115 L 30 92 L 40 123 L 43 124 L 42 132 M 159 61 L 163 65 L 171 89 M 32 62 L 44 69 L 42 84 M 93 62 L 92 66 L 105 77 M 57 63 L 52 104 M 155 64 L 173 112 M 61 65 L 97 101 M 83 66 L 102 83 L 100 102 L 103 106 L 151 151 L 136 198 L 139 199 L 144 192 L 181 194 M 145 66 L 118 93 M 167 67 L 172 76 L 190 83 L 195 80 L 197 85 L 197 161 M 31 68 L 34 77 L 37 78 L 35 88 L 37 97 L 40 98 L 39 118 L 43 124 L 43 133 M 172 69 L 199 79 M 23 70 L 27 82 M 27 70 L 37 78 L 35 88 L 37 97 L 40 98 L 39 118 L 43 124 L 43 133 M 49 71 L 47 92 M 148 71 L 116 103 L 125 105 L 148 79 L 155 102 M 164 72 L 171 90 M 23 73 L 27 82 M 61 73 L 88 100 L 98 101 M 146 73 L 125 95 M 6 74 L 16 105 M 127 74 L 114 86 M 170 74 L 188 118 L 190 84 L 189 121 L 197 161 M 62 75 L 62 82 L 86 102 L 62 127 M 65 77 L 88 100 L 97 101 M 177 78 L 179 84 L 186 88 L 185 100 M 6 81 L 6 88 L 10 88 L 16 106 M 195 82 L 197 160 M 6 83 L 9 84 L 16 106 M 61 83 L 61 87 M 155 83 L 155 84 M 178 83 L 185 92 L 185 100 M 28 85 L 28 86 M 65 85 L 65 92 L 73 100 L 80 100 L 61 118 L 52 139 M 68 87 L 86 102 L 62 127 M 175 88 L 186 117 L 190 118 L 191 141 L 196 148 L 197 161 M 148 89 L 151 90 L 155 102 M 60 90 L 60 93 M 147 90 L 146 94 L 155 118 L 161 121 L 157 106 L 165 132 L 173 142 L 169 123 L 178 154 L 191 177 M 181 90 L 185 92 L 185 101 M 65 93 L 64 99 L 72 101 L 63 110 L 58 123 L 56 118 L 58 123 L 52 139 M 144 93 L 147 98 L 141 105 L 145 106 M 159 93 L 159 94 M 142 94 L 133 104 L 141 106 L 161 122 L 164 132 L 175 143 L 177 153 L 124 108 L 170 149 L 178 153 L 185 164 L 185 170 L 157 146 L 192 178 M 69 95 L 78 101 M 134 95 L 126 104 L 133 105 L 135 110 L 165 132 L 175 143 L 186 171 L 192 178 M 141 95 L 134 102 M 20 97 L 20 98 M 160 97 L 160 98 M 145 98 L 150 100 L 155 118 L 161 122 L 166 134 L 175 143 L 186 171 L 192 178 M 119 99 L 118 101 M 46 100 L 46 109 M 21 101 L 21 102 M 63 101 L 65 108 L 52 139 M 109 102 L 133 106 L 158 129 L 165 132 L 175 143 L 191 177 M 142 102 L 141 105 L 144 106 M 176 102 L 176 103 M 69 103 L 67 107 M 109 103 L 149 139 M 186 103 L 186 104 M 58 104 L 58 109 M 76 104 L 65 115 M 23 106 L 23 107 M 113 107 L 150 140 M 164 108 L 164 109 M 18 109 L 24 128 L 31 133 L 28 121 L 30 135 L 43 151 L 4 193 M 25 111 L 25 114 M 88 111 L 81 117 M 11 112 L 14 118 L 22 122 L 29 136 L 0 124 L 2 120 L 4 125 L 29 136 M 18 112 L 24 128 L 31 134 L 37 147 L 43 151 L 41 156 L 3 193 M 51 112 L 51 117 M 16 113 L 16 114 M 97 113 L 98 121 L 127 147 L 136 149 M 166 113 L 166 114 M 101 114 L 142 149 M 7 115 L 6 119 L 17 125 M 150 115 L 161 122 L 166 134 L 175 143 L 191 177 M 174 115 L 199 181 L 199 188 M 27 117 L 27 118 M 167 117 L 167 118 M 174 117 L 199 188 M 8 121 L 17 125 M 95 121 L 96 127 L 118 147 L 130 147 L 130 151 M 183 121 L 183 122 M 94 122 L 47 169 L 43 177 L 55 172 L 67 162 L 96 129 L 96 135 L 112 148 L 137 149 M 101 123 L 127 147 L 136 149 M 92 124 L 53 163 M 82 126 L 61 147 M 0 129 L 43 151 L 4 193 M 60 129 L 59 131 M 0 130 L 43 151 L 4 193 M 94 131 L 87 140 M 100 131 L 118 147 L 137 149 M 0 135 L 8 147 L 26 154 M 63 135 L 58 140 M 0 136 L 3 139 L 2 148 M 96 136 L 94 143 L 98 142 L 101 147 L 110 145 L 111 148 L 69 161 L 72 161 M 95 137 L 87 149 L 102 147 M 101 139 L 110 145 L 110 148 L 116 148 M 9 141 L 34 153 M 11 142 L 30 151 L 32 155 L 0 185 L 2 194 M 85 142 L 70 157 L 69 160 L 72 161 M 2 143 L 7 145 L 7 151 M 89 145 L 87 150 L 79 155 L 80 158 M 86 150 L 91 150 M 146 152 L 156 154 L 199 193 L 198 199 M 18 153 L 5 171 L 9 171 L 23 156 L 18 163 M 121 153 L 124 153 M 144 153 L 18 192 L 21 192 M 117 154 L 120 154 M 17 155 L 12 161 M 10 156 L 16 157 L 11 161 M 110 156 L 113 156 M 10 157 L 9 166 M 107 157 L 108 157 M 103 158 L 106 158 M 8 159 L 8 166 M 99 159 L 102 159 M 27 160 L 4 183 M 96 160 L 97 160 M 142 160 L 131 194 L 119 193 L 126 193 M 6 161 L 8 166 M 46 161 L 34 173 M 92 161 L 95 161 M 138 161 L 141 161 L 140 167 L 130 191 L 126 185 L 61 186 L 48 191 L 55 193 M 154 161 L 157 167 L 179 184 L 179 188 L 199 199 M 66 163 L 61 166 M 86 163 L 89 163 M 132 163 L 135 163 M 83 164 L 84 164 M 129 164 L 130 164 M 79 165 L 82 165 M 103 165 L 104 165 M 125 165 L 128 165 M 76 166 L 79 166 M 121 166 L 124 166 M 73 167 L 56 172 L 60 172 M 96 167 L 97 167 M 119 167 L 63 185 L 73 187 M 155 167 L 145 188 L 148 189 M 153 168 L 154 168 M 158 168 L 158 173 L 174 188 L 184 189 L 195 199 L 199 199 M 67 169 L 68 169 M 132 169 L 127 184 L 131 194 M 46 170 L 42 177 L 33 183 M 128 170 L 131 170 L 127 184 L 130 193 M 124 171 L 127 171 M 164 171 L 188 194 L 198 199 M 5 172 L 0 178 L 0 184 L 3 184 M 80 172 L 81 172 M 102 172 L 103 172 M 54 173 L 51 174 M 120 173 L 121 177 L 125 176 L 123 177 M 95 174 L 96 174 M 119 174 L 110 179 L 123 181 L 123 187 M 157 174 L 153 186 L 163 187 L 163 183 L 158 184 L 166 183 M 70 175 L 73 175 M 113 175 L 124 177 M 0 176 L 4 176 L 2 177 M 68 176 L 69 176 M 111 176 L 112 176 M 38 178 L 37 180 M 149 178 L 145 188 L 148 189 M 164 178 L 174 188 L 184 189 L 198 199 M 103 179 L 123 181 L 131 194 M 28 180 L 18 190 L 20 192 M 98 180 L 101 180 M 93 181 L 96 181 M 88 182 L 91 182 M 88 183 L 88 186 L 124 187 M 63 184 L 64 187 L 73 187 M 60 186 L 73 187 M 150 187 L 181 188 L 198 199 M 49 189 L 42 193 M 24 190 L 27 190 M 60 193 L 65 193 M 69 193 L 86 193 M 13 195 L 11 199 L 183 199 M 0 199 L 183 199" 
        fill="none" 
        stroke="black" 
        stroke-width="1.5" 
        stroke-linecap="round" 
        stroke-linejoin="round"
        vector-effect="non-scaling-stroke"/>
</svg>