<svg xmlns="http://www.w3.org/2000/svg" viewBox="0 0 200 200" width="200" height="200">
  <rect width="100%" height="100%" fill="white"/>
  <path d="M 176 0 L 190 0 L 199 4 M 5 1 L 90 3 M 161 1 L 176 1 M 190 1 L 194 1 L 196 5 L 186 13 L 178 31 L 177 42 L 189 65 L 194 84 L 199 75 L 192 89 L 199 120 M 2 2 L 1 18 L 6 15 L 32 16 L 46 22 L 52 15 L 61 12 L 68 16 L 72 24 L 84 14 L 99 10 L 103 3 L 133 3 M 139 2 L 160 2 M 0 3 L 1 3 M 195 5 L 192 8 M 190 9 L 189 11 M 100 11 L 118 35 L 124 19 L 136 11 L 164 13 L 169 19 L 187 12 L 180 25 L 177 42 L 195 84 M 96 12 L 97 21 M 136 12 L 133 13 M 154 12 L 164 13 L 171 21 L 167 50 L 172 79 L 166 92 L 143 108 L 161 110 L 192 93 L 191 105 M 87 14 L 90 18 L 85 26 M 131 14 L 120 26 L 121 38 L 132 24 L 142 20 M 66 15 L 72 25 L 62 41 L 62 64 L 98 110 L 97 94 L 79 69 L 72 52 L 78 67 L 97 94 L 100 109 L 106 106 L 106 102 L 102 98 L 101 87 L 83 55 L 82 36 L 83 55 L 101 86 L 102 98 L 108 102 L 106 80 L 92 48 L 91 38 L 95 57 L 106 79 L 109 97 L 113 90 L 113 71 L 98 24 L 113 71 L 113 91 L 109 100 L 118 101 L 128 68 L 128 56 L 121 39 L 126 46 L 135 32 L 154 22 L 150 24 M 89 15 L 85 26 M 101 15 L 104 29 L 118 55 L 119 64 M 8 16 L 30 35 L 42 65 L 43 45 L 40 34 L 34 27 L 17 17 L 39 32 L 43 45 L 44 68 L 52 42 L 47 22 L 52 42 L 43 77 L 49 79 L 52 76 L 60 76 L 72 79 L 81 86 L 81 89 L 65 86 L 56 81 L 51 82 L 60 92 L 79 96 L 89 102 L 62 103 L 51 107 L 34 126 L 31 139 L 43 170 L 43 180 L 48 185 L 50 180 L 46 141 L 52 125 L 63 116 L 80 111 L 87 111 L 93 117 L 99 115 L 99 110 L 100 115 L 133 113 L 134 107 L 125 106 L 119 101 L 124 101 L 135 93 L 150 74 L 144 85 L 130 96 M 95 16 L 94 21 M 100 16 L 118 55 L 119 64 M 3 17 L 2 19 L 19 33 L 38 70 L 44 73 L 31 113 M 0 18 L 0 25 M 104 18 L 126 46 L 127 85 M 49 19 L 47 24 L 52 34 L 52 42 L 43 77 L 28 86 L 17 98 M 85 19 L 75 33 L 73 42 M 146 19 L 149 19 M 160 19 L 170 20 L 153 36 L 145 54 M 11 20 L 26 30 L 35 44 L 38 60 L 46 68 L 43 74 L 46 79 L 45 100 L 50 107 L 54 107 M 41 20 L 47 22 L 52 34 L 43 77 L 52 77 L 50 90 L 57 100 L 61 103 L 90 102 L 99 110 L 104 120 L 117 125 L 144 124 L 156 134 L 156 125 L 144 115 L 135 113 L 144 115 L 154 122 L 157 142 L 163 142 L 165 137 L 164 117 L 161 111 L 165 129 L 172 118 L 165 130 L 167 132 L 172 128 L 168 132 M 157 20 L 158 20 M 3 21 L 5 32 M 83 21 L 74 35 L 73 42 M 168 21 L 165 24 M 92 24 L 92 31 M 8 25 L 21 55 L 38 72 L 26 70 L 13 60 L 7 40 L 13 59 L 24 69 L 37 72 M 162 25 L 151 38 L 146 53 M 2 26 L 1 50 L 6 64 L 20 76 L 36 77 L 34 83 M 146 26 L 137 31 M 155 26 L 152 28 M 69 28 L 61 45 L 62 64 L 70 77 L 88 94 L 89 101 L 99 110 L 99 116 M 166 28 L 169 28 L 160 36 M 15 29 L 23 39 L 38 70 L 44 73 L 44 78 L 82 89 L 88 94 L 89 101 L 99 110 L 100 115 L 115 116 M 128 29 L 122 37 M 164 29 L 169 30 L 167 50 L 172 79 L 162 96 M 84 30 L 83 33 M 10 31 L 25 61 L 44 73 L 44 78 L 82 89 L 88 94 L 89 101 L 99 110 L 100 115 L 115 116 M 149 31 L 146 34 M 135 33 L 125 47 L 128 56 L 125 77 L 127 84 M 161 33 L 160 35 M 158 39 L 158 40 M 163 41 L 163 46 M 157 44 L 156 47 M 72 45 L 72 48 M 155 50 L 155 53 M 162 51 L 162 54 M 144 56 L 144 57 M 162 57 L 162 60 M 3 59 L 15 74 L 24 78 L 7 93 L 0 110 L 12 152 L 10 186 L 21 166 L 22 143 L 21 166 L 13 183 L 16 184 L 25 172 L 31 140 L 25 172 L 14 186 M 153 60 L 153 63 M 143 62 L 142 63 M 162 63 L 161 74 M 120 67 L 120 72 M 141 68 L 132 87 L 122 96 M 151 68 L 151 71 M 119 75 L 118 82 M 60 77 L 71 78 L 78 83 L 88 94 L 89 101 L 99 110 L 100 115 L 116 116 M 160 77 L 158 84 L 149 94 L 138 100 L 125 101 L 133 101 M 118 78 L 118 82 M 136 79 L 125 94 M 23 80 L 22 81 M 41 80 L 22 107 M 159 80 L 148 94 M 31 84 L 30 85 M 35 86 L 22 107 M 125 87 L 123 89 M 38 89 L 31 113 M 23 90 L 17 98 M 51 93 L 61 103 L 88 103 M 146 95 L 145 96 M 74 96 L 89 101 L 99 110 L 100 115 L 116 116 M 127 98 L 126 101 L 132 101 M 138 99 L 139 99 M 189 99 L 195 101 L 197 113 L 192 130 L 183 138 L 167 140 L 164 143 L 189 146 L 197 140 L 199 134 L 199 138 L 191 145 M 188 100 L 178 119 M 16 101 L 16 102 M 122 102 L 125 106 L 140 108 L 146 104 L 144 109 L 161 110 L 167 132 M 176 103 L 173 104 M 47 104 L 53 107 M 14 105 L 14 110 M 107 107 L 116 109 M 102 108 L 101 109 M 169 108 L 168 111 M 0 109 L 12 152 L 8 192 L 16 192 L 27 185 L 39 166 L 33 179 L 25 186 M 49 109 L 46 112 M 21 111 L 21 116 M 181 112 L 178 119 M 43 113 L 37 120 L 33 132 L 29 132 L 30 116 L 29 132 L 32 134 L 31 139 L 43 170 L 43 180 L 50 187 L 56 187 L 70 171 L 80 147 L 75 164 L 63 179 M 84 115 L 92 116 L 94 163 M 80 116 L 83 116 M 196 117 L 193 128 L 185 136 M 91 118 L 78 130 L 69 151 M 101 118 L 101 126 L 106 124 L 104 121 L 113 132 L 121 135 L 143 132 L 156 136 L 152 143 L 123 153 L 110 149 L 102 137 L 101 147 L 106 161 L 114 165 L 126 164 L 143 150 L 155 148 L 157 143 L 156 147 L 163 154 L 172 172 L 180 180 L 193 186 L 194 183 L 166 151 L 166 146 L 166 151 L 194 182 L 191 162 L 169 146 L 184 154 L 191 162 L 195 191 L 199 190 L 199 199 L 195 199 L 198 199 M 58 120 L 50 129 L 46 141 L 50 180 L 59 166 L 65 146 L 53 179 L 61 172 L 66 162 L 66 159 L 63 169 L 55 178 M 72 120 L 57 139 L 53 169 M 83 120 L 85 122 L 75 134 L 69 151 M 69 122 L 56 141 L 53 170 M 79 122 L 71 131 L 66 143 M 110 122 L 127 125 M 176 122 L 175 123 M 185 122 L 179 131 L 166 140 L 178 140 M 78 123 L 77 124 M 89 125 L 90 137 M 87 126 L 87 128 M 100 126 L 103 135 L 121 143 M 182 126 L 182 128 M 14 127 L 14 134 M 107 127 L 122 135 M 73 128 L 66 143 M 90 129 L 90 137 M 85 130 L 81 145 M 153 132 L 157 134 L 157 142 L 188 146 M 176 132 L 175 133 M 21 135 L 21 140 M 102 135 L 113 151 L 123 153 M 149 135 L 156 136 L 157 142 L 164 142 L 166 145 L 188 146 M 172 135 L 171 136 M 15 137 L 16 146 M 168 137 L 168 140 L 177 140 M 183 137 L 182 138 M 139 139 L 154 139 L 166 145 L 189 146 M 133 140 L 136 140 M 152 141 L 153 141 M 125 142 L 128 142 M 116 143 L 121 143 M 89 147 L 89 154 M 136 147 L 137 147 M 134 148 L 135 148 M 156 148 L 155 159 L 161 180 L 172 188 L 194 192 M 132 149 L 133 149 M 130 150 L 131 150 M 154 150 L 146 161 M 143 151 L 138 155 M 153 151 L 152 153 M 17 152 L 16 169 M 68 153 L 68 156 M 148 156 L 146 161 M 87 159 L 87 160 M 104 160 L 102 175 L 94 191 M 132 160 L 131 161 M 153 160 L 147 181 L 139 190 L 121 192 L 110 188 L 100 193 L 97 198 L 177 199 M 150 161 L 153 161 L 151 171 L 139 190 M 16 162 L 16 168 M 108 162 L 123 165 M 85 164 L 75 179 L 57 187 L 61 192 L 80 192 L 97 184 L 94 191 M 144 164 L 143 167 M 167 164 L 179 180 L 195 186 L 195 191 L 199 192 L 198 199 M 148 166 L 148 167 M 92 167 L 92 168 M 83 168 L 74 179 M 141 171 L 140 172 M 14 172 L 14 175 M 101 175 L 95 190 M 87 177 L 73 185 L 76 185 M 52 179 L 38 194 L 37 199 L 34 199 L 37 199 M 160 179 L 169 187 L 193 192 M 72 180 L 71 181 M 124 180 L 127 180 M 118 181 L 123 181 M 115 182 L 119 186 M 66 183 L 67 183 M 78 183 L 77 184 M 113 185 L 120 186 M 129 185 L 132 185 M 47 186 L 57 187 L 61 192 L 79 192 M 112 186 L 111 188 L 116 191 L 134 192 M 45 187 L 46 187 M 65 187 L 70 187 M 105 189 L 108 189 M 20 190 L 17 191 M 101 192 L 97 199 L 49 199 L 177 199 M 8 193 L 12 197 M 38 193 L 28 199 M 0 194 L 1 199 L 4 199 L 6 194 L 5 198 L 8 199 M 0 199 L 7 199" 
        fill="none" 
        stroke="black" 
        stroke-width="1.5" 
        stroke-linecap="round" 
        stroke-linejoin="round"
        vector-effect="non-scaling-stroke"/>
</svg>