<svg xmlns="http://www.w3.org/2000/svg" viewBox="0 0 200 200" width="200" height="200">
  <rect width="100%" height="100%" fill="white"/>
  <path d="M 10 0 L 52 4 L 194 0 L 199 5 M 10 1 L 0 8 M 168 1 L 167 12 L 173 8 L 168 14 L 168 20 L 186 8 L 198 11 L 199 9 L 199 16 M 177 1 L 177 2 M 4 3 L 5 3 M 16 3 L 24 12 L 23 3 L 28 3 M 148 3 L 148 8 L 155 10 L 168 21 L 168 29 M 197 3 L 199 6 M 0 4 L 4 4 M 54 4 L 56 7 M 90 4 L 98 15 L 102 13 L 100 14 M 98 4 L 98 7 M 108 4 L 104 10 M 131 4 L 133 8 L 136 4 L 134 13 L 146 7 L 153 9 L 161 17 L 169 20 L 168 29 M 54 6 L 57 8 M 164 8 L 169 13 L 168 29 M 76 9 L 84 10 L 98 24 L 97 15 L 99 22 L 102 23 L 112 12 L 122 9 L 133 13 L 135 23 L 144 18 L 156 22 L 167 37 L 180 23 L 188 19 L 193 20 L 199 28 M 194 9 L 199 11 L 199 17 M 44 10 L 52 11 L 58 16 L 61 15 L 59 10 L 63 10 L 62 18 L 75 10 M 93 10 L 99 15 L 98 32 M 11 11 L 24 18 L 25 12 L 26 21 L 43 11 M 22 11 L 25 12 L 26 37 L 29 39 L 44 22 L 54 24 L 63 35 L 73 22 L 80 21 L 99 42 L 117 22 L 125 22 L 130 27 L 138 23 M 72 11 L 67 16 M 84 11 L 99 24 L 99 33 M 7 12 L 10 12 M 180 12 L 179 13 M 5 13 L 0 18 L 0 24 M 38 13 L 31 19 M 112 13 L 104 22 M 4 14 L 3 16 M 17 14 L 28 21 M 0 15 L 0 23 M 61 18 L 62 27 M 151 20 L 169 37 L 169 45 L 187 30 L 198 36 L 199 34 L 199 41 M 80 22 L 86 25 L 99 42 L 99 50 L 119 33 L 133 37 L 133 27 L 135 36 L 145 30 L 154 33 L 168 45 L 168 56 M 125 23 L 133 27 L 134 48 L 142 45 L 151 47 L 167 66 L 186 48 L 192 48 L 199 57 M 10 24 L 15 24 M 180 24 L 168 38 L 168 57 M 9 25 L 3 33 M 54 25 L 62 35 L 59 42 L 61 46 L 73 36 L 82 35 L 98 48 L 100 63 M 113 26 L 99 42 L 100 64 M 7 28 L 2 34 M 36 30 L 26 42 L 26 50 L 42 38 L 54 40 L 56 37 L 49 32 L 58 38 L 59 41 L 55 42 L 60 41 M 19 31 L 27 41 M 149 31 L 164 44 L 169 45 L 168 56 M 141 33 L 140 34 M 181 34 L 173 43 M 21 35 L 28 41 M 127 35 L 134 37 L 136 64 L 149 59 L 167 73 L 171 64 L 168 67 L 169 72 L 181 62 L 190 60 L 199 64 L 199 71 M 196 35 L 199 36 L 199 42 M 75 36 L 65 45 M 82 36 L 100 50 L 100 63 M 114 37 L 102 49 M 11 38 L 25 47 L 27 69 L 44 55 L 52 57 L 61 67 L 62 47 L 63 75 L 80 63 L 101 76 L 101 71 L 84 53 L 79 51 L 73 54 M 8 39 L 9 39 M 28 39 L 29 39 M 6 40 L 0 46 L 0 51 M 15 40 L 28 50 L 26 65 L 24 66 L 13 53 L 8 54 M 50 40 L 55 40 L 63 46 L 62 86 M 5 41 L 2 44 M 0 43 L 0 51 M 34 46 L 31 48 M 123 48 L 134 53 L 135 75 L 145 71 M 139 48 L 138 49 M 151 48 L 169 66 L 168 84 M 120 49 L 101 70 L 102 76 L 116 63 L 125 61 L 135 65 L 136 86 L 150 83 L 167 96 L 163 84 L 149 72 L 162 82 L 167 92 L 184 74 L 191 73 L 199 81 M 186 49 L 183 50 M 118 50 L 117 52 M 129 51 L 134 53 L 137 76 M 181 52 L 168 67 L 168 85 M 114 53 L 102 69 M 15 54 L 26 66 L 27 78 L 43 66 L 51 67 L 63 75 M 86 54 L 101 70 L 100 86 M 52 58 L 63 67 L 64 75 M 38 59 L 30 68 M 152 61 L 168 73 L 168 84 M 128 63 L 135 65 L 137 76 M 181 63 L 180 64 M 195 63 L 199 65 L 199 71 M 84 65 L 101 77 L 100 86 M 10 66 L 26 75 L 27 94 L 39 82 L 45 81 M 7 67 L 0 74 L 0 79 M 40 68 L 39 69 M 53 69 L 63 75 M 72 69 L 67 73 M 111 69 L 105 75 M 18 70 L 28 78 L 27 91 L 15 81 L 7 82 M 0 71 L 0 79 M 3 71 L 2 72 M 142 73 L 141 74 M 33 75 L 32 76 M 122 75 L 135 79 L 136 99 L 143 95 L 154 97 L 167 112 L 177 101 L 188 95 L 199 102 M 119 76 L 106 90 M 129 77 L 135 79 L 135 85 L 138 86 M 78 78 L 85 78 L 95 86 L 101 94 L 100 102 L 104 102 L 117 88 L 127 86 L 136 89 L 136 109 L 149 105 L 165 118 L 172 109 L 168 113 L 168 117 L 171 118 L 181 107 L 190 105 L 199 109 L 199 114 M 116 78 L 113 81 M 179 78 L 169 90 L 169 95 L 187 83 L 199 87 L 199 93 M 76 79 L 61 97 L 69 96 L 77 88 L 85 88 L 100 100 L 102 109 M 85 79 L 95 86 L 101 94 L 99 101 L 104 102 M 49 81 L 57 86 L 60 96 L 48 90 L 42 91 L 28 102 L 27 118 L 46 102 L 54 104 L 63 116 L 72 104 L 82 100 M 73 81 L 72 82 M 17 82 L 27 92 L 27 114 L 24 115 L 14 103 L 7 105 L 0 112 L 5 106 L 1 111 M 41 82 L 29 93 M 53 83 L 63 94 M 143 84 L 142 85 M 150 84 L 168 96 L 168 107 M 193 85 L 199 88 L 199 93 M 68 86 L 63 94 M 108 86 L 106 90 M 77 89 L 76 90 M 117 89 L 116 90 M 8 90 L 15 90 L 23 97 L 26 95 L 24 97 L 28 102 L 28 125 L 43 112 L 52 112 L 63 120 L 65 115 L 64 119 L 76 110 L 87 111 L 100 123 L 101 118 L 86 102 L 101 118 L 107 111 L 105 116 M 87 90 L 103 102 M 51 91 L 58 97 L 61 96 L 63 109 M 176 91 L 173 94 M 6 92 L 0 96 L 0 101 M 17 92 L 26 97 L 28 118 M 40 92 L 31 101 M 0 94 L 4 94 L 2 95 M 122 98 L 135 101 L 137 122 L 145 117 L 151 118 L 167 134 L 171 133 L 178 123 L 188 118 L 199 126 M 154 98 L 169 112 L 168 128 M 182 98 L 181 99 M 194 98 L 199 103 M 130 100 L 135 101 L 135 108 L 138 109 M 79 101 L 73 104 L 63 117 L 64 134 L 75 123 L 83 122 L 103 141 L 118 123 L 129 121 L 133 124 L 137 122 L 137 132 L 143 128 L 151 128 L 167 142 L 170 141 L 168 135 L 170 141 L 187 128 L 198 133 L 199 131 L 199 138 M 117 101 L 111 107 M 8 104 L 9 104 M 16 104 L 28 118 M 41 105 L 40 106 M 54 105 L 64 116 L 65 141 L 77 132 L 84 132 L 98 146 L 101 146 L 103 141 L 103 148 L 122 131 L 134 134 L 139 132 M 174 106 L 168 113 L 170 118 M 142 107 L 141 108 M 193 107 L 199 110 L 199 115 M 37 108 L 30 117 M 122 108 L 135 112 L 136 131 L 139 132 M 154 108 L 163 117 L 171 118 M 181 108 L 173 117 M 119 109 L 101 127 L 102 136 M 118 110 L 117 111 M 129 110 L 135 112 L 135 126 L 138 132 M 85 111 L 96 122 L 101 123 L 102 137 M 11 113 L 26 121 L 26 139 L 29 142 L 36 131 L 45 124 L 51 124 L 58 130 M 43 113 L 40 114 M 52 113 L 58 119 L 64 120 L 64 156 L 77 147 L 74 149 M 7 114 L 10 114 M 6 115 L 0 119 L 0 124 M 18 116 L 28 125 L 26 136 L 12 125 L 0 133 M 70 116 L 69 117 M 0 117 L 2 118 M 36 119 L 31 124 M 142 119 L 139 121 M 182 121 L 181 122 M 194 121 L 199 126 M 129 122 L 135 124 L 138 132 M 156 122 L 169 134 M 120 123 L 102 142 L 100 163 L 105 163 L 102 170 L 106 170 L 119 156 L 126 155 L 135 160 L 138 158 L 135 149 L 125 144 L 117 148 L 107 159 M 86 124 L 103 141 L 101 161 L 84 147 L 88 148 L 103 165 L 102 186 L 122 168 L 135 172 L 136 161 L 137 171 L 148 164 L 154 166 L 169 183 L 170 191 L 182 179 L 188 177 L 198 183 L 199 181 L 199 190 M 105 124 L 104 125 M 178 124 L 169 134 M 43 126 L 30 140 L 33 145 L 43 135 L 52 134 L 64 142 L 63 167 L 82 156 L 104 171 M 6 127 L 5 128 M 55 127 L 58 131 M 143 129 L 140 131 M 69 130 L 67 133 M 153 130 L 169 143 L 169 149 M 182 131 L 173 139 M 195 131 L 199 133 L 199 138 M 22 132 L 33 145 M 75 134 L 74 135 M 86 134 L 103 148 L 100 163 L 104 171 M 136 134 L 137 147 L 145 140 L 150 140 L 157 144 L 168 158 L 187 142 L 199 148 M 10 135 L 16 136 L 25 146 L 32 145 M 117 135 L 105 147 M 7 136 L 8 136 M 54 136 L 64 142 L 63 154 L 66 157 M 5 137 L 0 146 M 4 138 L 3 140 M 17 138 L 28 147 L 28 163 L 39 152 L 48 148 L 55 150 L 64 158 L 61 165 L 50 158 L 42 160 L 29 172 L 29 184 L 48 170 L 64 182 L 64 168 L 65 190 L 79 178 L 86 178 L 98 190 L 103 186 M 0 139 L 0 147 M 152 142 L 162 149 L 170 165 L 188 152 L 198 157 L 199 155 L 199 161 M 142 143 L 135 148 L 137 147 M 190 143 L 199 149 M 130 145 L 136 148 L 137 157 L 149 152 L 169 165 L 169 176 M 182 145 L 171 158 M 119 146 L 107 160 M 11 148 L 19 151 L 28 160 L 27 170 L 31 171 M 8 149 L 9 149 M 44 150 L 41 151 M 5 151 L 6 150 M 17 151 L 28 160 L 28 166 L 23 166 L 11 157 L 1 163 L 0 168 M 55 151 L 64 158 L 62 166 L 66 167 M 39 153 L 29 162 M 145 154 L 142 156 M 193 154 L 199 157 L 199 162 M 154 155 L 169 166 L 169 176 M 182 155 L 171 165 M 129 157 L 136 160 L 137 184 L 146 178 L 152 178 L 169 191 L 170 199 L 175 199 L 185 190 L 192 191 L 199 199 L 176 199 L 199 199 M 6 159 L 7 159 M 17 159 L 27 167 L 27 171 L 31 171 M 55 160 L 65 167 M 74 160 L 67 166 M 89 160 L 97 169 L 103 171 M 0 162 L 2 163 M 39 162 L 30 171 M 185 166 L 191 166 L 199 172 M 154 167 L 169 183 L 169 199 L 15 199 L 22 198 L 18 193 L 23 199 L 29 198 L 27 188 L 15 179 L 9 179 L 2 184 L 0 191 M 191 167 L 199 173 M 81 168 L 89 170 L 104 186 M 182 168 L 175 176 M 12 169 L 24 178 M 79 169 L 76 171 M 181 169 L 175 177 M 9 170 L 0 177 M 87 170 L 104 186 M 17 172 L 24 179 M 43 173 L 40 175 M 53 173 L 65 182 L 66 199 L 71 199 L 79 190 L 77 192 M 116 173 L 104 186 M 36 179 L 32 184 M 79 179 L 69 188 M 86 179 L 103 194 L 123 179 L 136 184 L 138 195 L 150 189 M 184 179 L 174 189 M 6 180 L 3 184 M 17 180 L 24 187 L 32 184 M 44 180 L 52 180 L 60 189 L 66 190 L 66 199 L 94 198 L 90 192 L 82 189 L 93 194 L 95 199 L 102 199 L 105 193 L 104 199 L 112 199 L 115 193 L 122 190 L 130 193 L 134 199 L 140 195 M 194 180 L 199 183 L 199 189 M 43 181 L 31 192 M 143 181 L 142 182 M 156 181 L 170 191 L 170 199 L 199 199 M 117 182 L 114 184 M 130 182 L 136 185 L 139 195 M 0 183 L 0 191 M 28 187 L 27 191 L 30 192 M 36 187 L 33 191 M 58 187 L 66 190 L 66 199 L 160 199 L 161 197 L 153 190 L 162 199 L 198 199 M 9 190 L 0 198 L 11 199 M 46 190 L 55 193 M 109 190 L 108 191 M 7 191 L 6 192 M 44 191 L 38 199 L 198 199 M 125 191 L 134 199 L 198 199 M 146 191 L 141 194 M 42 192 L 37 196 L 38 199 L 198 199 M 119 192 L 113 196 L 114 199 L 198 199 M 192 192 L 199 199 M 74 194 L 73 199 L 199 199 M 180 194 L 177 199 L 199 199 M 0 195 L 2 196 M 0 199 L 11 199" 
        fill="none" 
        stroke="black" 
        stroke-width="1.5" 
        stroke-linecap="round" 
        stroke-linejoin="round"
        vector-effect="non-scaling-stroke"/>
</svg>