<svg xmlns="http://www.w3.org/2000/svg" viewBox="0 0 200 200" width="200" height="200">
  <rect width="100%" height="100%" fill="white"/>
  <path d="M 6 0 L 27 0 L 43 6 L 53 2 L 77 2 L 88 6 L 114 1 L 131 5 L 142 0 L 199 0 L 199 5 M 7 1 L 0 6 L 0 11 M 27 1 L 44 6 L 44 20 L 66 7 L 78 11 L 83 16 L 87 15 L 87 7 L 88 19 L 106 7 L 114 7 L 128 15 L 130 6 L 130 16 L 148 7 M 169 1 L 170 18 L 187 6 L 198 11 M 6 2 L 3 5 M 0 4 L 2 5 M 17 7 L 24 7 L 39 18 L 43 18 L 44 34 L 64 19 L 76 22 L 86 32 L 87 19 L 91 19 M 154 7 L 159 10 M 191 7 L 199 12 M 14 8 L 0 20 L 9 11 L 6 13 M 72 9 L 90 19 M 181 10 L 180 11 M 58 11 L 53 14 M 119 11 L 130 16 L 131 29 L 145 18 L 152 17 L 168 30 L 169 18 L 172 18 M 140 11 L 139 12 M 32 12 L 46 20 M 97 13 L 96 14 M 136 15 L 135 16 M 164 15 L 172 18 M 176 15 L 173 17 M 187 16 L 191 16 L 199 23 M 109 17 L 120 22 L 127 30 L 132 29 M 191 17 L 199 23 M 50 18 L 49 19 M 106 18 L 109 18 M 16 19 L 24 19 L 42 33 L 45 48 L 66 30 L 74 32 L 86 43 L 87 32 L 105 19 M 183 19 L 169 30 L 169 42 L 175 38 L 170 48 L 174 48 L 188 37 L 198 42 L 199 40 L 199 46 M 13 20 L 0 32 M 24 20 L 39 32 L 46 34 M 156 20 L 169 30 L 169 43 L 162 37 L 167 43 L 171 43 L 169 59 L 171 62 L 175 59 L 173 61 M 181 20 L 178 23 M 72 21 L 85 32 L 90 32 M 102 21 L 99 23 M 117 21 L 130 31 L 131 41 L 145 29 L 154 29 M 10 22 L 9 23 M 56 25 L 47 33 M 4 27 L 1 32 M 174 27 L 173 28 M 188 27 L 199 34 M 94 28 L 89 32 M 107 28 L 118 32 L 129 45 L 130 41 L 133 41 M 184 29 L 181 32 M 18 30 L 30 35 L 42 50 L 47 48 M 114 30 L 128 44 L 129 49 L 144 39 L 156 40 L 170 52 L 170 77 L 187 62 L 192 62 L 198 68 M 194 30 L 199 34 M 15 31 L 0 46 M 21 31 L 30 35 L 40 49 L 45 50 L 45 56 L 65 41 L 76 43 L 86 52 L 87 43 L 91 44 L 99 34 L 91 44 M 13 32 L 12 34 M 142 32 L 134 40 M 74 33 L 88 45 M 9 35 L 0 47 M 59 35 L 58 36 M 107 38 L 118 41 L 123 47 L 129 45 M 105 39 L 88 53 L 89 66 L 107 51 L 112 51 L 125 62 L 129 62 L 129 50 L 130 61 L 135 61 M 144 40 L 137 46 M 194 40 L 199 42 L 199 46 M 19 41 L 30 45 L 40 56 L 44 56 L 45 68 L 65 54 L 77 58 M 156 41 L 164 50 L 170 52 L 169 59 L 172 62 M 15 42 L 18 42 M 100 42 L 93 50 M 118 42 L 123 47 L 131 49 M 76 44 L 88 53 L 88 80 L 106 63 L 116 65 L 129 78 L 130 62 L 133 62 M 10 45 L 0 54 L 0 59 M 8 46 L 3 52 M 30 46 L 38 55 L 44 57 L 45 80 L 59 68 L 68 65 L 87 78 L 88 90 L 106 73 L 114 75 M 49 46 L 47 48 M 58 46 L 49 55 M 187 49 L 198 56 M 147 50 L 160 57 M 183 51 L 178 56 M 0 52 L 0 58 M 144 52 L 137 58 M 153 52 L 160 57 M 142 53 L 141 55 M 16 54 L 26 55 L 39 67 L 48 68 M 179 54 L 178 56 M 118 55 L 125 62 L 132 62 M 26 56 L 39 67 L 47 68 M 73 56 L 78 59 M 100 56 L 90 66 M 10 57 L 0 68 M 9 58 L 8 59 M 59 58 L 49 67 M 161 59 L 169 67 L 169 89 L 173 89 L 169 91 L 170 94 L 174 96 L 189 82 L 198 87 L 199 85 L 199 91 M 5 61 L 0 69 M 81 63 L 88 67 L 87 98 L 106 82 L 112 82 L 127 94 L 128 91 L 120 80 L 128 91 L 130 78 L 131 88 L 144 76 L 151 74 M 147 63 L 155 65 L 169 79 L 171 90 M 192 63 L 198 68 M 151 64 L 169 79 L 170 90 M 143 65 L 131 76 M 183 65 L 182 66 M 15 66 L 29 69 L 41 82 L 47 80 M 83 66 L 88 67 L 87 92 L 73 78 L 65 76 L 44 94 L 43 101 L 49 100 L 62 87 L 69 86 L 87 99 L 90 113 M 102 66 L 101 67 M 116 66 L 125 77 L 130 78 L 129 98 L 149 84 L 169 96 L 162 84 L 173 96 M 142 66 L 141 67 M 13 67 L 0 79 M 11 68 L 12 68 M 74 68 L 87 78 L 86 97 L 89 98 M 180 68 L 172 76 M 27 69 L 44 82 L 44 93 L 48 92 M 8 70 L 0 80 M 56 71 L 50 78 M 96 72 L 90 79 M 135 73 L 134 74 M 187 73 L 192 73 L 199 79 M 185 74 L 178 81 M 17 77 L 29 81 L 44 97 L 43 117 L 50 113 L 44 119 L 45 125 L 66 111 L 72 112 L 87 125 L 88 117 L 80 108 L 86 116 L 89 114 L 89 123 L 105 109 L 112 109 L 123 119 L 129 120 L 129 115 L 109 96 L 101 100 L 94 109 M 13 79 L 0 92 M 60 79 L 59 80 M 26 80 L 44 97 L 43 101 L 37 100 L 29 91 L 17 88 L 0 101 L 0 107 M 76 80 L 89 98 M 10 81 L 7 84 M 57 81 L 49 92 M 96 82 L 90 89 M 112 83 L 123 93 L 128 94 L 131 113 L 143 100 L 152 98 L 168 115 L 169 97 L 169 113 L 174 112 L 172 114 M 156 88 L 169 96 L 170 124 L 186 108 L 199 108 L 199 114 M 13 89 L 16 89 M 26 89 L 39 101 L 45 102 M 74 89 L 89 98 M 99 89 L 93 96 M 141 90 L 136 95 M 58 91 L 48 101 M 7 94 L 1 100 M 171 95 L 174 96 M 110 96 L 118 101 L 126 113 L 131 113 L 130 121 L 145 110 L 154 110 L 169 124 L 170 134 L 189 118 L 198 123 M 188 96 L 193 96 L 198 101 M 103 98 L 102 100 M 185 98 L 176 109 M 64 100 L 70 100 L 77 105 M 154 100 L 169 115 L 171 124 M 183 100 L 175 110 M 17 101 L 28 104 M 143 101 L 132 112 M 16 102 L 0 120 M 14 103 L 13 104 M 24 103 L 27 104 M 11 105 L 0 121 M 96 105 L 94 109 M 31 107 L 33 109 M 186 109 L 173 123 M 195 109 L 199 110 L 199 115 M 114 111 L 129 121 L 131 132 L 136 131 L 145 121 L 151 120 L 156 123 L 165 134 L 169 134 L 170 147 L 187 130 L 194 130 L 199 135 M 154 111 L 165 123 L 171 124 M 18 112 L 29 115 L 38 125 L 47 125 M 36 112 L 45 118 L 46 125 M 101 112 L 91 122 M 143 112 L 132 121 M 15 113 L 16 113 M 72 113 L 88 125 L 89 131 L 94 132 L 99 125 L 93 134 L 87 135 L 88 150 L 107 132 L 112 133 L 129 150 L 129 135 L 130 132 L 135 132 M 13 114 L 0 127 L 0 134 M 38 115 L 45 118 L 46 125 M 29 116 L 44 127 L 45 136 L 49 136 L 57 126 L 65 122 L 73 124 L 82 133 L 92 131 L 93 134 M 8 118 L 2 126 L 0 125 L 2 126 M 107 120 L 115 122 L 120 127 M 106 121 L 111 120 L 119 126 M 185 121 L 174 133 M 17 123 L 24 124 M 156 124 L 165 134 L 172 134 M 27 125 L 40 138 L 47 137 M 73 125 L 82 133 L 92 134 M 11 126 L 5 133 M 29 127 L 40 138 L 44 138 L 44 150 L 64 133 L 74 136 L 87 146 L 89 164 L 108 145 L 120 154 M 57 127 L 50 136 M 139 128 L 134 132 M 18 133 L 28 137 L 44 151 L 44 164 L 54 154 L 48 162 M 147 133 L 156 136 L 166 149 L 171 147 M 68 134 L 74 136 L 89 150 L 88 159 L 84 160 L 88 160 L 88 175 L 107 159 L 114 160 L 129 173 L 130 165 L 122 157 L 129 164 L 130 150 L 131 162 L 137 156 L 132 162 M 112 134 L 130 150 L 129 157 L 132 162 M 152 134 L 166 149 L 170 149 L 170 164 L 189 142 L 199 149 M 144 135 L 131 148 M 13 136 L 0 149 M 11 137 L 10 138 M 26 137 L 38 148 L 47 150 M 101 137 L 90 149 M 0 138 L 0 139 M 178 139 L 171 147 M 7 140 L 0 150 M 139 140 L 135 146 M 55 141 L 47 150 M 191 143 L 199 149 M 16 146 L 29 150 M 63 146 L 70 146 L 80 154 M 147 146 L 152 147 M 185 146 L 169 165 L 169 175 L 173 175 L 186 156 L 192 155 L 198 159 L 199 157 L 199 164 M 13 147 L 0 162 M 62 147 L 59 149 M 146 147 L 145 148 M 12 148 L 11 149 M 24 148 L 29 150 M 72 148 L 79 153 M 105 148 L 90 164 M 115 149 L 120 154 M 9 150 L 0 162 M 31 152 L 32 153 M 17 155 L 27 157 L 42 173 L 43 165 L 38 159 L 44 164 M 65 156 L 73 158 L 87 170 L 90 182 L 108 169 L 123 180 L 128 180 L 131 172 L 129 180 L 136 180 M 162 156 L 165 162 L 170 164 M 12 157 L 0 170 L 0 175 M 62 157 L 42 174 L 43 185 L 60 171 L 69 169 L 85 183 L 89 182 L 89 194 L 102 183 L 112 181 L 129 197 L 129 181 L 134 181 M 148 157 L 155 159 L 169 176 L 170 192 L 187 178 L 193 178 L 199 184 M 195 157 L 199 159 L 199 164 M 11 158 L 10 159 M 27 158 L 43 173 L 41 179 L 20 166 L 11 170 M 60 158 L 61 158 M 73 159 L 87 170 L 87 174 L 90 175 L 89 181 L 92 182 M 153 159 L 168 176 L 176 176 L 189 166 L 199 172 M 142 160 L 132 170 M 104 161 L 92 174 M 114 161 L 122 170 L 130 173 L 129 180 L 133 181 M 141 161 L 134 169 M 164 161 L 170 164 M 181 162 L 173 175 L 175 176 M 130 164 L 129 180 L 134 181 M 4 165 L 0 168 L 2 169 M 21 166 L 36 178 L 42 179 L 43 192 L 60 181 L 70 180 L 87 193 L 89 199 L 96 199 L 98 196 L 98 199 L 120 198 L 109 189 L 102 193 L 104 192 M 51 167 L 48 171 M 192 167 L 199 173 M 148 169 L 153 170 L 163 180 L 169 180 L 170 199 L 176 199 L 187 187 L 199 193 L 199 199 L 177 199 L 199 199 M 144 171 L 139 176 M 143 172 L 142 173 M 74 173 L 88 183 L 88 193 L 93 194 M 116 174 L 122 180 L 133 181 M 157 174 L 162 180 L 169 180 L 169 191 L 173 192 M 17 177 L 27 180 L 37 190 L 42 190 L 44 199 L 51 199 L 53 195 L 53 199 L 77 198 L 67 189 L 58 193 M 52 179 L 47 184 M 193 179 L 199 184 M 0 181 L 0 182 M 9 181 L 0 190 L 1 196 L 21 187 L 37 199 L 137 199 L 138 196 L 139 199 L 160 198 L 151 190 L 144 193 M 27 181 L 37 190 L 47 192 M 70 181 L 84 193 L 92 194 M 145 181 L 153 181 L 169 195 L 169 199 L 160 199 L 199 199 M 144 182 L 131 193 L 133 192 L 129 199 L 199 199 M 6 183 L 0 189 L 0 197 L 5 195 L 5 199 L 199 199 M 181 183 L 173 192 M 102 184 L 101 185 M 115 184 L 130 199 L 199 199 M 156 184 L 170 199 L 199 199 M 54 186 L 49 191 M 136 189 L 135 191 M 192 189 L 199 193 L 199 199 M 96 190 L 92 194 M 152 190 L 161 199 L 199 199 M 27 191 L 37 199 L 199 199 M 115 192 L 121 199 L 198 199 M 75 194 L 78 199 L 198 199 M 179 194 L 178 199 L 198 199 M 2 199 L 199 199" 
        fill="none" 
        stroke="black" 
        stroke-width="1.5" 
        stroke-linecap="round" 
        stroke-linejoin="round"
        vector-effect="non-scaling-stroke"/>
</svg>